<?xml version="1.0" encoding="UTF-8"?>
<svg id="Layer_2" data-name="Layer 2" xmlns="http://www.w3.org/2000/svg" viewBox="0 0 260.2 125.47">
  <defs>
    <style>
      .cls-1 {
        fill: #fff;
        stroke: #fff;
        stroke-linecap: round;
        stroke-linejoin: round;
        stroke-width: 3.99px;
      }

      .cls-2 {
        fill: #f0e4c6;
      }

      .cls-2, .cls-3, .cls-4, .cls-5, .cls-6, .cls-7, .cls-8, .cls-9, .cls-10, .cls-11 {
        stroke: #151e15;
        stroke-miterlimit: 10;
        stroke-width: .85px;
      }

      .cls-3 {
        fill: #d89ca4;
      }

      .cls-12 {
        fill: #120f0c;
      }

      .cls-4 {
        fill: #859b93;
      }

      .cls-13 {
        fill: #151e15;
      }

      .cls-5 {
        fill: #eeae39;
      }

      .cls-6 {
        fill: #f0ad37;
      }

      .cls-7 {
        fill: #b0bfa5;
      }

      .cls-8 {
        fill: #ef8e48;
      }

      .cls-14 {
        fill: #f36e4a;
      }

      .cls-9 {
        fill: #589a6d;
      }

      .cls-10 {
        fill: #f15b42;
      }

      .cls-11 {
        fill: #a8b884;
      }
    </style>
  </defs>
  <g id="_6" data-name="6">
    <g>
      <path class="cls-1" d="M258.2,91.12h-46.67s0,10.31,0,10.31h-33.5s0-11.74,0-11.74h-12.82s0-36.12,0-36.12v-5.03s0-7.97,0-7.97v-22.13c0-9.08-7.36-16.44-16.44-16.44h-71.05c-7.03,0-12.73,5.65-12.83,12.65h-4.1c-3.27,0-5.92,2.65-5.92,5.92v2.14h-20.89c-1.11-3.18-4.25-5.42-7.79-5.42h-2.02c-.75,0-1.4-.49-1.65-1.21-1.46-4.24-5.55-7.26-10.31-7.11-5.75.18-10.21,5.12-10.21,10.87v10.81c0,5.75,4.46,10.69,10.21,10.87,4.76.15,8.85-2.87,10.31-7.11.25-.71.9-1.21,1.65-1.21h2.28c3.51,0,6.48-2.27,7.54-5.42h20.88v2.43c0,3.27,2.65,5.92,5.92,5.92h4.11c.22,6.89,5.88,12.41,12.83,12.41h46.55s0,5.03,0,5.03h15.91c4.67,0,8.46,3.79,8.46,8.46v34.42c-2.46,2-4.02,5.05-4.02,8.47,0,6.03,4.89,10.92,10.92,10.92,3.45,0,6.53-1.6,8.53-4.1h13.97s33.5,0,33.5,0h10.02s0,11.74,0,11.74h26.77s0-11.74,0-11.74h9.88s0-20.61,0-20.61Z"/>
      <g>
        <rect class="cls-9" x="221.56" y="96.71" width="26.77" height="26.77"/>
        <polygon class="cls-8" points="178.04 101.43 178.04 89.69 155.99 89.69 155.99 111.74 156.05 111.74 178.04 111.74 211.54 111.74 211.54 101.43 178.04 101.43"/>
        <rect class="cls-3" x="211.54" y="91.12" width="46.67" height="20.61"/>
        <path class="cls-4" d="M28.14,22.71h66.11c.77,0,1.4.63,1.4,1.4v2.27c0,.77-.63,1.4-1.4,1.4H28.14v-5.06h0Z"/>
        <rect class="cls-14" x="2.76" y="9.73" width="19.57" height="31.03" rx="9.79" ry="9.79"/>
        <path class="cls-12" d="M26.19,17.29h-2.02c-.75,0-1.4-.49-1.65-1.21-1.46-4.24-5.55-7.26-10.31-7.11-5.75.18-10.21,5.12-10.21,10.87v10.81c0,5.75,4.46,10.69,10.21,10.87,4.76.15,8.85-2.87,10.31-7.11.25-.71.9-1.21,1.65-1.21h2.28c4.44,0,8.04-3.64,7.95-8.11s-3.84-7.81-8.22-7.81ZM21.57,30.97c0,4.97-4.05,9.02-9.02,9.02s-9.02-4.05-9.02-9.02v-11.45c0-4.97,4.05-9.02,9.02-9.02s9.02,4.05,9.02,9.02v11.45Z"/>
        <path class="cls-5" d="M60.79,14.65h21.76v21.48h-21.76c-3.27,0-5.92-2.65-5.92-5.92v-9.63c0-3.27,2.65-5.92,5.92-5.92Z"/>
        <path class="cls-7" d="M148.65,40.57h-24.37s0,13,0,13h15.91c4.67,0,8.46,3.79,8.46,8.46v41.53c0,4.58,3.71,8.29,8.29,8.29h0c4.58,0,8.29-3.71,8.29-8.29v-49.99s0-13,0-13h-16.57Z"/>
        <circle class="cls-2" cx="155.54" cy="104.92" r="10.92"/>
        <path class="cls-6" d="M77.73,2h71.05c9.08,0,16.44,7.37,16.44,16.44v30.1h-87.49c-7.08,0-12.84-5.75-12.84-12.84V14.83c0-7.08,5.75-12.84,12.84-12.84Z"/>
        <path class="cls-11" d="M91.63,22.71h28.53c1.7,0,2.12,2.37.52,2.95l-29.05,10.47v-13.42Z"/>
        <circle class="cls-10" cx="88.05" cy="25.27" r="13.61"/>
        <circle class="cls-13" cx="155.54" cy="104.92" r="4.85"/>
        <circle class="cls-13" cx="88.05" cy="25.27" r="6.8"/>
      </g>
    </g>
  </g>
</svg>