<?xml version="1.0" encoding="UTF-8"?>
<svg id="Layer_2" data-name="Layer 2" xmlns="http://www.w3.org/2000/svg" viewBox="0 0 231.55 139.88">
  <defs>
    <style>
      .cls-1 {
        fill: #fbf0dd;
        stroke-width: 4.41px;
      }

      .cls-1, .cls-2, .cls-3, .cls-4, .cls-5, .cls-6, .cls-7, .cls-8, .cls-9, .cls-10, .cls-11, .cls-12, .cls-13, .cls-14, .cls-15, .cls-16 {
        stroke-linejoin: round;
      }

      .cls-1, .cls-3, .cls-4, .cls-5, .cls-6, .cls-7, .cls-8, .cls-9, .cls-10, .cls-11, .cls-12, .cls-13, .cls-14, .cls-15, .cls-17, .cls-16, .cls-18 {
        stroke: #241f1c;
      }

      .cls-2 {
        fill: #fff;
        stroke: #fff;
        stroke-linecap: round;
        stroke-width: 9.45px;
      }

      .cls-3 {
        fill: #43362b;
      }

      .cls-3, .cls-4, .cls-5, .cls-19, .cls-6, .cls-20, .cls-7, .cls-21, .cls-22, .cls-8, .cls-23, .cls-9, .cls-10, .cls-24, .cls-11, .cls-25, .cls-12, .cls-13, .cls-14, .cls-15, .cls-16, .cls-26 {
        stroke-width: 1.26px;
      }

      .cls-4 {
        fill: #030303;
      }

      .cls-5, .cls-24 {
        fill: #da9127;
      }

      .cls-19, .cls-20, .cls-21, .cls-22, .cls-23, .cls-24, .cls-25, .cls-17, .cls-18, .cls-26 {
        stroke-miterlimit: 10;
      }

      .cls-19, .cls-21, .cls-23, .cls-25 {
        stroke: #242011;
      }

      .cls-19, .cls-27 {
        fill: #241f1c;
      }

      .cls-6 {
        fill: #619a71;
      }

      .cls-20 {
        fill: #272212;
      }

      .cls-20, .cls-24 {
        stroke: #1e1811;
      }

      .cls-7 {
        fill: #e08527;
      }

      .cls-21 {
        fill: #ed5730;
      }

      .cls-22 {
        fill: #ec5836;
        stroke: #1b180d;
      }

      .cls-8 {
        fill: #1c180d;
      }

      .cls-23 {
        fill: #1c190e;
      }

      .cls-9 {
        fill: #fbeedb;
      }

      .cls-10 {
        fill: #f26e5d;
      }

      .cls-11 {
        fill: #619d73;
      }

      .cls-25 {
        fill: #1e1811;
      }

      .cls-12 {
        fill: none;
      }

      .cls-13 {
        fill: #fff9ee;
      }

      .cls-14 {
        fill: #fef4df;
      }

      .cls-15 {
        fill: #a39ca7;
      }

      .cls-17 {
        fill: #689e77;
      }

      .cls-17, .cls-18 {
        stroke-width: .63px;
      }

      .cls-16 {
        fill: #17130e;
      }

      .cls-18 {
        fill: #e3ac41;
      }

      .cls-26 {
        fill: #649b72;
        stroke: #070a08;
      }
    </style>
  </defs>
  <g id="_3" data-name="3">
    <g>
      <path class="cls-2" d="M215.76,26.27h-11.38v-9.87c0-3.44-2.79-6.22-6.22-6.22h0c-3.44,0-6.22,2.79-6.22,6.22v9.87h-30.18c-9.49,0-18.89,1.93-27.62,5.66-8.32,3.56-15.2,6.59-21.58,9.22-11.16,4.6-22.86,7.67-34.79,9.18v-7.11h1.29c.82,0,1.48-.66,1.48-1.48s-.66-1.48-1.48-1.48h-2.49v-12.38c3.8-.54,7.73-.5,11.79.15,1.91.31,3.69-1.29,3.47-3.21-.02-.22-.07-.44-.14-.65l-2.58-7.82c-.07-.21-.16-.41-.27-.6-.99-1.71-3.4-1.86-4.77-.44-2.9,2.99-5.95,5.39-9.15,7.25v-11.59c0-3.45-2.8-6.24-6.24-6.24h0c-3.45,0-6.24,2.8-6.24,6.24v15.9c-3.94.54-8.05.43-12.33-.33-2.06-.37-3.95,1.47-3.5,3.51.02.11.05.21.09.32l2.58,7.82c.18.53.48.99.86,1.35,1.15,1.07,2.95.95,4.09-.13,2.16-2.05,4.37-3.82,6.65-5.35v6.22h-2.49c-.82,0-1.48.66-1.48,1.48s.66,1.48,1.48,1.48h1.29v8.21h-30.4c-3.08,0-5.83,1.37-7.7,3.66-2.65-2.15-4.61-5.16-5.47-8.62-.21-.81-.35-1.64-.42-2.5-.05-.5-.08-1.01-.08-1.52v-15.04c1.29-.09,2.32-1.16,2.32-2.48s-1.12-2.5-2.5-2.5h-1.51v-4.04c1.48-.66,2.52-2.14,2.52-3.86,0-2.34-1.89-4.23-4.23-4.23s-4.23,1.89-4.23,4.23c0,1.73,1.04,3.2,2.52,3.86v4.04h-1.51c-1.38,0-2.5,1.12-2.5,2.5,0,1.28.96,2.32,2.2,2.47v15.06c0,.6.03,1.2.06,1.79.03.37.07.74.11,1.1.04.38.1.76.17,1.13,1.11,6.44,4.87,11.95,10.06,15.34-.01.25-.03.51-.03.77v9.6h-3.4c-1.92,0-3.47,1.56-3.47,3.47v2.41h-3.93c-1.95,0-3.52,1.58-3.52,3.52h0c0,1.95,1.58,3.52,3.52,3.52h3.93v4.76h-3.93c-1.95,0-3.52,1.58-3.52,3.52s1.58,3.52,3.52,3.52h3.93v2.66c0,1.92,1.56,3.47,3.47,3.47h1.09c-.68,3.55.09,8.67,2.3,8.67v15.24c0,4.54,3.69,8.21,8.23,8.19l191.39-.85c4.51-.02,8.15-3.68,8.15-8.19V37.33c0-6.11-4.95-11.06-11.06-11.06Z"/>
      <g id="Gyro-Bob">
        <g>
          <g>
            <rect class="cls-23" x="4.73" y="78.07" width="15.95" height="7.04" rx="3.52" ry="3.52"/>
            <rect class="cls-23" x="4.73" y="89.87" width="15.95" height="7.04" rx="3.52" ry="3.52"/>
          </g>
          <path class="cls-21" d="M15.65,72.19h3.4v30.86h-3.4c-1.92,0-3.47-1.56-3.47-3.47v-23.91c0-1.92,1.56-3.47,3.47-3.47Z"/>
        </g>
        <path class="cls-20" d="M198.16,10.18h0c3.43,0,6.22,2.79,6.22,6.22v43.29h-12.45V16.4c0-3.43,2.79-6.22,6.22-6.22Z"/>
        <g>
          <rect class="cls-25" x="10.49" y="17.57" width="3.43" height="9.86"/>
          <circle class="cls-24" cx="12.2" cy="14.53" r="4.23"/>
        </g>
        <g>
          <path class="cls-19" d="M68.68,4.73h0c3.45,0,6.24,2.8,6.24,6.24v22.67h-12.49V10.97c0-3.45,2.8-6.24,6.24-6.24Z"/>
          <rect class="cls-7" x="60.87" y="27.43" width="15.69" height="14.84"/>
          <g>
            <rect class="cls-13" x="59.68" y="41.74" width="18.09" height="18.09"/>
            <rect class="cls-27" x="56.91" y="40.27" width="23.61" height="2.95" rx="1.48" ry="1.48"/>
          </g>
        </g>
        <g>
          <path class="cls-17" d="M31.15,58.51v6.93c-11.05,0-20.27-8.2-22.13-18.97-.07-.37-.13-.75-.17-1.13-.04-.37-.08-.73-.11-1.1.74-.43,1.55-.69,2.43-.8,1.35-.16,2.86.03,4.51.53.07.86.21,1.69.42,2.5,1.73,6.92,7.82,12.04,15.04,12.04Z"/>
          <path class="cls-17" d="M15.68,43.97c-1.65-.5-3.16-.69-4.51-.53-.88.11-1.69.37-2.43.8-.04-.59-.06-1.18-.06-1.79v-19.41h6.93v19.41c0,.51.03,1.02.08,1.52Z"/>
          <path class="cls-18" d="M11.17,26.27v17.17c-.88.11-1.69.37-2.43.8-.04-.59-.06-1.18-.06-1.79v-16.18h2.49Z"/>
          <rect class="cls-18" x="6.48" y="22.43" width="11.45" height="5" rx="2.5" ry="2.5"/>
        </g>
        <g>
          <path class="cls-9" d="M226.82,37.33v88.77c0,4.51-3.64,8.17-8.15,8.19l-191.39.85c-4.54.02-8.23-3.65-8.23-8.19V62.58c0-6.57,4.58-11.15,10.23-11.15h31.21c17.86,0,35.55-3.47,52.07-10.27,6.39-2.63,13.27-5.66,21.58-9.22,8.73-3.74,18.13-5.66,27.62-5.66h0s54,0,54,0c6.11,0,11.06,4.95,11.06,11.06Z"/>
          <path class="cls-12" d="M21.49,55.03s.06.04.09.06c4.66,3.26,9.96,5.48,15.54,6.55,20.33,3.91,41.43,1.03,60.19-6.23,17.02-6.85,33.94-16.77,49.37-27.5"/>
        </g>
        <path class="cls-21" d="M88.36,28.04c-12.68-2.03-24.05,1.75-34.13,11.35-1.14,1.08-2.94,1.2-4.09.13-.38-.36-.69-.82-.86-1.35l-2.58-7.82c-.04-.11-.06-.21-.09-.32-.45-2.04,1.44-3.87,3.5-3.51,12.92,2.32,24.29-1.22,33.97-11.22,1.38-1.42,3.79-1.27,4.77.44.11.19.2.39.27.6l2.58,7.82c.07.22.12.43.14.65.22,1.92-1.56,3.52-3.47,3.21Z"/>
        <circle class="cls-11" cx="177.48" cy="64.69" r="25.59"/>
        <circle class="cls-11" cx="177.48" cy="64.69" r="25.59"/>
        <g>
          <circle class="cls-4" cx="177.48" cy="64.69" r="16.52"/>
          <circle class="cls-15" cx="177.48" cy="64.69" r="14"/>
          <circle class="cls-3" cx="177.48" cy="64.69" r="9.95"/>
          <circle class="cls-14" cx="177.48" cy="64.69" r="3.45"/>
        </g>
        <circle class="cls-12" cx="213.6" cy="43.38" r="7.33"/>
        <circle class="cls-8" cx="37.36" cy="77.15" r="3.63"/>
        <circle class="cls-16" cx="52.09" cy="85.12" r="2.16"/>
        <path class="cls-26" d="M186.33,123.87h-13.18v-7.01c0-2.16-1.75-3.9-3.9-3.9H19.05v-14.49h160.06c3.98,0,7.21,3.24,7.21,7.25v18.16Z"/>
        <rect class="cls-22" x="19.05" y="114.52" width="109.88" height="9.35"/>
        <rect class="cls-10" x="112.16" y="99.71" width="45.37" height="12.01" rx="6" ry="6"/>
        <path class="cls-10" d="M88.11,111.72H19.05c-3.39,0-3.39-12.01,0-12.01h69.06c3.32,0,6,2.69,6,6h0c0,3.32-2.69,6-6,6Z"/>
        <circle class="cls-5" cx="103.14" cy="105.72" r="6.55"/>
        <circle class="cls-6" cx="165.15" cy="105.72" r="6.55"/>
        <circle class="cls-1" cx="179.17" cy="105.72" r="4.92"/>
      </g>
    </g>
  </g>
</svg>