<?xml version="1.0" encoding="UTF-8"?>
<svg id="Layer_2" data-name="Layer 2" xmlns="http://www.w3.org/2000/svg" viewBox="0 0 161.3 153.88">
  <defs>
    <style>
      .cls-1 {
        fill: #242011;
      }

      .cls-2 {
        fill: #429658;
      }

      .cls-2, .cls-3, .cls-4, .cls-5, .cls-6, .cls-7, .cls-8, .cls-9, .cls-10, .cls-11, .cls-12, .cls-13, .cls-14, .cls-15, .cls-16, .cls-17, .cls-18 {
        stroke-width: .72px;
      }

      .cls-2, .cls-3, .cls-4, .cls-6, .cls-9, .cls-10, .cls-19, .cls-11, .cls-14, .cls-15, .cls-16 {
        stroke-linejoin: round;
      }

      .cls-2, .cls-6, .cls-9, .cls-10, .cls-19, .cls-11, .cls-14, .cls-15, .cls-16 {
        stroke: #242011;
      }

      .cls-20, .cls-21 {
        fill: #151415;
      }

      .cls-3 {
        fill: #a96265;
      }

      .cls-3, .cls-4, .cls-5, .cls-7, .cls-8, .cls-22, .cls-12, .cls-13, .cls-17, .cls-18 {
        stroke: #151415;
      }

      .cls-4 {
        fill: #f3b352;
      }

      .cls-5 {
        fill: #a96466;
      }

      .cls-5, .cls-7, .cls-21, .cls-8, .cls-22, .cls-12, .cls-13, .cls-17, .cls-18 {
        stroke-miterlimit: 10;
      }

      .cls-6 {
        fill: #efb643;
      }

      .cls-7 {
        fill: #f2b544;
      }

      .cls-21 {
        stroke: #af6367;
      }

      .cls-21, .cls-22 {
        stroke-width: .36px;
      }

      .cls-8 {
        fill: #eead42;
      }

      .cls-22 {
        fill: #af6367;
      }

      .cls-9 {
        fill: #f1b843;
      }

      .cls-23 {
        fill: #fff;
      }

      .cls-10 {
        fill: #fcd7b5;
      }

      .cls-19 {
        stroke-width: .86px;
      }

      .cls-19, .cls-11 {
        fill: #fffdf4;
      }

      .cls-12 {
        fill: #f4b841;
      }

      .cls-13 {
        fill: #429756;
      }

      .cls-14 {
        fill: #3f9450;
      }

      .cls-15 {
        fill: #449c5f;
      }

      .cls-16 {
        fill: #e9693b;
      }

      .cls-17 {
        fill: #b16465;
      }

      .cls-18 {
        fill: #ebb340;
      }
    </style>
  </defs>
  <g id="_1" data-name="1">
    <g id="Merry_Go_Round" data-name="Merry Go Round">
      <path class="cls-23" d="M158.8,153.88H26.67c-1.38,0-2.5-1.12-2.5-2.5v-8.89c0-1.38,1.12-2.5,2.5-2.5h2.21c-4.03-3.5-6.75-8.41-7.47-13.9-.1-.07-.2-.16-.3-.25-.45.43-1.06.7-1.74.7h-10.44c-1.38,0-2.5-1.12-2.5-2.5v-8.67c0-1.38,1.12-2.5,2.5-2.5h10.44c.67,0,1.29.27,1.74.7.03-.03.05-.05.08-.07v-40.46h-2.34c-1.38,0-2.5-1.12-2.5-2.5v-9.5c0-1.38,1.12-2.5,2.5-2.5h2.34v-11.11L1.83,42.01c-1.08-.3-1.83-1.29-1.83-2.41v-9.32c0-1.12.75-2.11,1.83-2.41l19.31-5.41v-.25c0-.22.03-.43.08-.63.38-7.61,6.72-13.7,14.41-13.7h9.16c1.38,0,2.5,1.12,2.5,2.5v9.39h14.19c.66,0,1.3.26,1.77.73l6.19,6.19c.47.47.73,1.1.73,1.77v21.37h4c1.38,0,2.5,1.12,2.5,2.5v10.49c0,1.38-1.12,2.5-2.5,2.5h-4v9.84c0,8.66,7.04,15.71,15.7,15.71h11.51V23.91c-1.65-.26-2.92-1.69-2.92-3.42v-6.02c-.75-.53-1.24-1.4-1.24-2.39v-1.64c0-1.61,1.31-2.92,2.92-2.92h.45v-1.56c0-3.3,2.68-5.98,5.98-5.98h3.92c3.3,0,5.98,2.68,5.98,5.98v1.56h.45c1.61,0,2.92,1.31,2.92,2.92v1.64c0,.98-.49,1.86-1.24,2.39v6.02c0,1.73-1.27,3.16-2.92,3.42v66.96h16.27c18.4,0,33.37,14.97,33.37,33.37v27.14c0,1.38-1.12,2.5-2.5,2.5ZM29.17,148.88h127.14v-24.64c0-15.64-12.73-28.37-28.37-28.37h-18.77c-1.38,0-2.5-1.12-2.5-2.5V21.45c0-1.38,1.12-2.5,2.5-2.5h.42v-6.44h0c-1.21-.18-2.13-1.22-2.13-2.48v-4.06c0-.54-.44-.98-.98-.98h-3.92c-.54,0-.98.44-.98.98v4.06c0,1.26-.93,2.29-2.13,2.47h0v6.45h.42c1.38,0,2.5,1.12,2.5,2.5v71.92c0,1.38-1.12,2.5-2.5,2.5h-14.01c-11.42,0-20.7-9.29-20.7-20.71v-12.34c0-1.38,1.12-2.5,2.5-2.5h4v-5.49h-4c-1.38,0-2.5-1.12-2.5-2.5v-22.83l-4.73-4.73h-14.41s-.08,0-.12,0l-.69-.02s-.09,0-.13,0l-.32-.02c-1.35-.05-2.49-1.15-2.49-2.5v-9.34h-6.66c-5.16,0-9.39,4.19-9.43,9.35,0,.18-.02.36-.06.54v1.59c0,1.12-.75,2.11-1.83,2.41l-19.31,5.41v5.53l19.31,5.41c1.07.3,1.81,1.26,1.83,2.37.04.17.06.34.06.52v15.05c0,1.38-1.12,2.5-2.5,2.5h-2.34v4.5h2.34c1.38,0,2.5,1.12,2.5,2.5v44.83c0,.75-.33,1.41-.84,1.87v.44c0,.67-.27,1.31-.74,1.78-.07.07-.14.13-.21.18.58.46.95,1.17.95,1.96v.53c.52.44.85,1.08.88,1.8.35,7.83,5.93,14.46,13.57,16.11,1.25.27,2.09,1.44,1.96,2.71-.14,1.27-1.21,2.23-2.49,2.23h-10.11v3.89ZM11.44,121.54h5.44c0-.66.27-1.29.74-1.75.07-.07.14-.13.21-.18-.52-.42-.88-1.04-.94-1.74h-5.44v3.67Z"/>
      <g>
        <g>
          <polygon class="cls-7" points="35.75 121.74 19.37 121.57 19.37 124.04 8.94 124.04 8.94 115.37 19.37 115.37 19.37 117.65 35.6 117.82 35.75 121.74"/>
          <rect class="cls-5" x="12.87" y="115.37" width="6.5" height="8.67"/>
          <rect class="cls-5" x="22.85" y="115.37" width="6.5" height="8.67"/>
        </g>
        <g>
          <rect class="cls-8" x="99.09" y="2.5" width="10.87" height="17.27" rx="3.48" ry="3.48"/>
          <path class="cls-18" d="M99.88,20.1h9.29v115.1c0,1.64-1.33,2.97-2.97,2.97h-3.35c-1.64,0-2.97-1.33-2.97-2.97V20.1h0Z"/>
          <rect class="cls-13" x="99.88" y="24.34" width="9.29" height="11.03"/>
          <path class="cls-17" d="M96.96,11.13h15.14v9.36c0,.53-.43.96-.96.96h-13.21c-.53,0-.96-.43-.96-.96v-9.36h0Z"/>
          <rect class="cls-8" x="95.72" y="10.03" width="17.61" height="2.48" rx=".42" ry=".42"/>
          <rect class="cls-12" x="96.96" y="12.51" width="15.14" height="3.37"/>
        </g>
        <rect class="cls-15" x="49.02" y="52.34" width="25.15" height="10.49"/>
        <rect class="cls-6" x="18.85" y="61.04" width="25.15" height="9.5"/>
        <path class="cls-2" d="M158.8,124.24v18.71H43.48c-10.93,0-19.79-8.86-19.79-19.79V46h20.79c6.39,0,11.56-5.18,11.56-11.57v-.64c0-5.99-4.55-10.92-10.38-11.51h15.81c2.42,2.42,3.77,3.77,6.19,6.19v46.7c0,10.06,8.15,18.2,18.2,18.2h42.06c17.05,0,30.87,13.82,30.87,30.87Z"/>
        <path class="cls-10" d="M23.63,22.22h.06s0,.07,0,.11v23.67h-.06v-23.78Z"/>
        <path class="cls-10" d="M45.66,22.28h-.88v-.05c.3,0,.59.02.88.05Z"/>
        <g>
          <path class="cls-9" d="M56.05,33.79v.64c0,6.39-5.18,11.57-11.56,11.57h-20.79v-23.67s0-.07,0-.11c.05-6.54,5.37-11.83,11.93-11.83h9.16v11.89h.88c5.83.59,10.38,5.51,10.38,11.51Z"/>
          <path class="cls-1" d="M28.53,22.25c5.87-.27,11.68-.36,17.57-.33,4.57.2,8.72,3.58,9.74,8.04.36,1.45.3,2.95.21,4.4-.07-1.46-.09-2.93-.55-4.31-1.18-4.14-5.14-7.28-9.43-7.41-5.82-.1-11.71-.08-17.53-.39h0Z"/>
        </g>
        <path class="cls-14" d="M28.23,20.01c2.95,1.44,9.81,1.17,12.23-1.43,1.16-1.26.51-3.11-.95-3.78-2.38-1.13-5.19-.63-8.06.56-1.53.66-5.7,2.86-3.29,4.6l.07.04Z"/>
        <path class="cls-23" d="M35.87,18.78c.06.03.15,0,.2.06.04.04.02.11.04.17.01.04.05.07.09.09s.09.02.13.03c.1,0,.22.01.28-.07.13-.18-.19-.48-.34-.55-.09-.04-.23-.05-.32,0s-.2.22-.07.29Z"/>
        <path class="cls-23" d="M35.56,15.88c.06.11.16.19.26.26.04.03.09.07.14.07.05,0,.1-.04.13-.09s.04-.1.04-.16c.01-.08.02-.16.01-.24s-.04-.16-.11-.21c-.05-.04-.12-.05-.19-.06-.09,0-.28-.01-.34.08s0,.26.04.34Z"/>
        <path class="cls-23" d="M32.15,16.95c-.16.24-.16.86.17.94.14.03.29-.15.32-.33.06-.22-.31-.62-.45-.64l-.04.02Z"/>
        <circle class="cls-11" cx="45.79" cy="65.16" r="5.99"/>
        <circle class="cls-1" cx="45.79" cy="65.16" r="3.58"/>
        <circle class="cls-19" cx="44.53" cy="34.36" r="7.59"/>
        <circle class="cls-1" cx="44.53" cy="34.36" r="4.67"/>
        <path class="cls-23" d="M38.92,16.93c-.02.09,0,.19.07.26s.17.09.26.07l.07-.16c-.06-.01-.1-.08-.13-.13s-.05-.12-.1-.16-.14-.04-.17.02c0,.03-.01.06-.02.09"/>
        <path class="cls-23" d="M28.37,18.03s-.07.16-.03.23.13.11.21.09c.17-.04.23-.29.41-.31.05-.06.01-.15-.05-.2s-.14-.05-.22-.06c-.09,0-.13,0-.13,0,0,0-.14.14-.18.25"/>
        <path class="cls-23" d="M32.6,20.02s.11.05.17.06c.07.01.15.02.22.04.05,0,.1.02.15,0s.1-.04.11-.09c.01-.04,0-.09,0-.13.02-.11.16-.15.21-.25.06-.1,0-.25-.11-.29s-.24.02-.29.13c-.02.05-.03.11-.04.16s-.04.11-.09.14c-.06.03-.14,0-.21,0-.15-.03-.27.12-.13.24Z"/>
        <polygon class="cls-16" points="23.69 45.53 2.5 39.6 2.5 30.28 23.69 24.34 23.69 45.53"/>
        <rect class="cls-8" x="38.89" y="82.61" width="14.17" height="41.04" rx="4.53" ry="4.53"/>
        <g>
          <circle class="cls-20" cx="45.98" cy="89.06" r="1.76"/>
          <circle class="cls-20" cx="45.98" cy="116.57" r="1.76"/>
        </g>
        <circle class="cls-22" cx="137.14" cy="124.77" r="7.99"/>
        <circle class="cls-21" cx="137.14" cy="124.77" r="2.59"/>
        <rect class="cls-4" x="26.67" y="142.49" width="132.14" height="8.89"/>
        <rect class="cls-3" x="26.67" y="146.3" width="132.14" height="5.08"/>
      </g>
    </g>
  </g>
</svg>