<?xml version="1.0" encoding="UTF-8"?>
<svg id="Layer_2" data-name="Layer 2" xmlns="http://www.w3.org/2000/svg" xmlns:xlink="http://www.w3.org/1999/xlink" viewBox="0 0 399.1 270.45">
  <defs>
    <style>
      .cls-1 {
        fill: #353938;
      }

      .cls-1, .cls-2, .cls-3, .cls-4, .cls-5, .cls-6, .cls-7, .cls-8, .cls-9, .cls-10, .cls-11, .cls-12, .cls-13, .cls-14, .cls-15, .cls-16, .cls-17, .cls-18 {
        stroke: #0d0301;
      }

      .cls-1, .cls-3, .cls-5, .cls-8, .cls-9, .cls-10, .cls-11, .cls-14, .cls-15, .cls-16 {
        stroke-linejoin: round;
      }

      .cls-19 {
        fill: #f5eed3;
      }

      .cls-2, .cls-20, .cls-21, .cls-22, .cls-23, .cls-24, .cls-25, .cls-4, .cls-26, .cls-27, .cls-6, .cls-7, .cls-28, .cls-12, .cls-13, .cls-29, .cls-17, .cls-18 {
        stroke-miterlimit: 10;
      }

      .cls-2, .cls-20, .cls-21, .cls-22, .cls-23, .cls-24, .cls-5, .cls-27, .cls-17 {
        fill: none;
      }

      .cls-2, .cls-4, .cls-6, .cls-13, .cls-18 {
        stroke-width: 1.66px;
      }

      .cls-30, .cls-6, .cls-7, .cls-16 {
        fill: #eeebd3;
      }

      .cls-20 {
        stroke-width: .61px;
      }

      .cls-20, .cls-21, .cls-22, .cls-23, .cls-24, .cls-26, .cls-28 {
        stroke: #040404;
      }

      .cls-21 {
        stroke-width: .82px;
      }

      .cls-22 {
        stroke-width: .9px;
      }

      .cls-23 {
        stroke-width: .73px;
      }

      .cls-3, .cls-5, .cls-9, .cls-16, .cls-17 {
        stroke-width: 1.95px;
      }

      .cls-3, .cls-31 {
        fill: #e94410;
      }

      .cls-25 {
        stroke: #000001;
      }

      .cls-25, .cls-7 {
        stroke-width: .88px;
      }

      .cls-25, .cls-32 {
        fill: #0d0301;
      }

      .cls-4 {
        fill: #eeb214;
      }

      .cls-26 {
        fill: #2b7847;
      }

      .cls-27 {
        stroke: #faf6e3;
      }

      .cls-33 {
        fill: #f6f3cf;
      }

      .cls-28 {
        fill: #f96221;
      }

      .cls-8 {
        fill: #f7d44e;
        stroke-width: 1.89px;
      }

      .cls-34 {
        clip-path: url(#clippath-1);
      }

      .cls-35 {
        clip-path: url(#clippath-2);
      }

      .cls-9 {
        fill: #010000;
      }

      .cls-10 {
        stroke-width: 1.8px;
      }

      .cls-11 {
        stroke-width: 1.72px;
      }

      .cls-12 {
        fill: #ea440d;
      }

      .cls-13 {
        fill: #161311;
      }

      .cls-29 {
        stroke: #0b5100;
      }

      .cls-14 {
        fill: #efb215;
      }

      .cls-15 {
        fill: #4e5100;
      }

      .cls-36 {
        fill: #febe2a;
      }

      .cls-37 {
        fill: #827f6d;
      }

      .cls-18 {
        fill: #f8f3da;
      }

      .cls-38 {
        clip-path: url(#clippath);
      }
    </style>
    <clipPath id="clippath">
      <path class="cls-6" d="M172.73,142.7c-.83,8.51-23.36,12.27-34.79,12.26-6.43.07-13.55-1.27-18.54-3.99-6.91-3.35-13.43-8.44-4.37-14.18,5.51-3.61,11.06-5.72,18.27-6.28,9.39-1,38,2.06,39.43,12.09v.1Z"/>
    </clipPath>
    <clipPath id="clippath-1">
      <path class="cls-6" d="M172.73,197.26c-.83,8.51-23.36,12.27-34.79,12.26-6.43.07-13.55-1.27-18.54-3.99-6.91-3.35-13.43-8.44-4.37-14.18,5.51-3.61,11.06-5.72,18.27-6.28,9.39-1,38,2.06,39.43,12.09v.1Z"/>
    </clipPath>
    <clipPath id="clippath-2">
      <path class="cls-16" d="M322.2,37.49v200.08c0,14.58-11.82,26.39-26.39,26.39h-120.99c-14.58,0-26.39-11.82-26.39-26.39v-114.57c-.03-10.29-7.49-19.05-17.65-20.7l-104.92-17.13c-3.07-.5-5.73-2.07-7.62-4.3-1.9-2.23-3.02-5.11-3.02-8.22,0-5.54-1.21-13.9,13.44-18.96,1.25-.43,2.59-.44,3.89-.71,9.63-1.95,19.84-2.57,50.95-7.53,4.04-.64,20.51-5.71,26.5-7.12,4.85-1.14,13.89-2.81,20.98-2.81h40.52c4.92,0,9.66.81,14.07,2.31,6.42,2.18,12.17,5.81,16.86,10.5,7.91,7.91,12.81,18.85,12.81,30.93,0,19.23-12.41,35.57-29.67,41.43v12.41c0,17.96,14.56,32.52,32.52,32.52h31.1V38.09c0-19.88,15.64-36.57,35.51-37.1,10.48-.28,19.99,3.86,26.82,10.69s10.69,15.73,10.69,25.81Z"/>
    </clipPath>
  </defs>
  <g id="Dichotomous_Key" data-name="Dichotomous Key">
    <g id="Dichotomous_Beak" data-name="Dichotomous Beak">
      <g>
        <path class="cls-30" d="M172.73,142.7c-.83,8.51-23.36,12.27-34.79,12.26-6.43.07-13.55-1.27-18.54-3.99-6.91-3.35-13.43-8.44-4.37-14.18,5.51-3.61,11.06-5.72,18.27-6.28,9.39-1,38,2.06,39.43,12.09v.1Z"/>
        <g class="cls-38">
          <rect class="cls-12" x="89.06" y="127.81" width="57.27" height="12.83"/>
          <rect class="cls-12" x="89.06" y="144.43" width="57.27" height="12.83"/>
          <ellipse class="cls-7" cx="147.96" cy="143.32" rx="13.89" ry="15.9"/>
          <path class="cls-25" d="M165.93,143.32c0,8.78-6.22,15.9-13.89,15.9s-13.89-7.12-13.89-15.9,6.22-15.9,13.89-15.9,13.89,7.12,13.89,15.9ZM157.25,127.43c-7.67,0-13.89,7.12-13.89,15.9s6.22,15.9,13.89,15.9,13.89-7.12,13.89-15.9-6.22-15.9-13.89-15.9Z"/>
        </g>
        <path class="cls-2" d="M172.73,142.7c-.83,8.51-23.36,12.27-34.79,12.26-6.43.07-13.55-1.27-18.54-3.99-6.91-3.35-13.43-8.44-4.37-14.18,5.51-3.61,11.06-5.72,18.27-6.28,9.39-1,38,2.06,39.43,12.09v.1Z"/>
      </g>
      <g>
        <path class="cls-30" d="M172.73,197.26c-.83,8.51-23.36,12.27-34.79,12.26-6.43.07-13.55-1.27-18.54-3.99-6.91-3.35-13.43-8.44-4.37-14.18,5.51-3.61,11.06-5.72,18.27-6.28,9.39-1,38,2.06,39.43,12.09v.1Z"/>
        <g class="cls-34">
          <rect class="cls-12" x="89.06" y="182.37" width="57.27" height="12.83"/>
          <rect class="cls-12" x="89.06" y="198.99" width="57.27" height="12.83"/>
          <ellipse class="cls-7" cx="147.96" cy="197.88" rx="13.89" ry="15.9"/>
          <path class="cls-25" d="M165.93,197.88c0,8.78-6.22,15.9-13.89,15.9s-13.89-7.12-13.89-15.9,6.22-15.9,13.89-15.9,13.89,7.12,13.89,15.9ZM157.25,181.99c-7.67,0-13.89,7.12-13.89,15.9s6.22,15.9,13.89,15.9,13.89-7.12,13.89-15.9-6.22-15.9-13.89-15.9Z"/>
        </g>
        <path class="cls-2" d="M172.73,197.26c-.83,8.51-23.36,12.27-34.79,12.26-6.43.07-13.55-1.27-18.54-3.99-6.91-3.35-13.43-8.44-4.37-14.18,5.51-3.61,11.06-5.72,18.27-6.28,9.39-1,38,2.06,39.43,12.09v.1Z"/>
      </g>
      <path class="cls-4" d="M304.65,12.42l77.84,29.74c.84.32.84,1.51,0,1.83l-76.05,28.59-1.78-60.16Z"/>
      <g>
        <path class="cls-30" d="M322.2,37.49v200.08c0,14.58-11.82,26.39-26.39,26.39h-120.99c-14.58,0-26.39-11.82-26.39-26.39v-114.57c-.03-10.29-7.49-19.05-17.65-20.7l-104.92-17.13c-3.07-.5-5.73-2.07-7.62-4.3-1.9-2.23-3.02-5.11-3.02-8.22,0-5.54-1.21-13.9,13.44-18.96,1.25-.43,2.59-.44,3.89-.71,9.63-1.95,19.84-2.57,50.95-7.53,4.04-.64,20.51-5.71,26.5-7.12,4.85-1.14,13.89-2.81,20.98-2.81h40.52c4.92,0,9.66.81,14.07,2.31,6.42,2.18,12.17,5.81,16.86,10.5,7.91,7.91,12.81,18.85,12.81,30.93,0,19.23-12.41,35.57-29.67,41.43v12.41c0,17.96,14.56,32.52,32.52,32.52h31.1V38.09c0-19.88,15.64-36.57,35.51-37.1,10.48-.28,19.99,3.86,26.82,10.69s10.69,15.73,10.69,25.81Z"/>
        <g class="cls-35">
          <g>
            <rect class="cls-8" x="137.45" y="232.89" width="203.22" height="25.24"/>
            <rect class="cls-11" x="137.45" y="212.06" width="203.22" height="20.84"/>
            <rect class="cls-10" x="137.45" y="246.72" width="203.22" height="22.83"/>
            <g>
              <circle class="cls-9" cx="232.53" cy="239.32" r="2.65"/>
              <circle class="cls-9" cx="171.35" cy="239.32" r="2.65"/>
              <circle class="cls-9" cx="297.29" cy="239.32" r="2.65"/>
            </g>
          </g>
        </g>
        <path class="cls-5" d="M322.2,37.49v200.08c0,14.58-11.82,26.39-26.39,26.39h-120.99c-14.58,0-26.39-11.82-26.39-26.39v-114.57c-.03-10.29-7.49-19.05-17.65-20.7l-104.92-17.13c-3.07-.5-5.73-2.07-7.62-4.3-1.9-2.23-3.02-5.11-3.02-8.22,0-5.54-1.21-13.9,13.44-18.96,1.25-.43,2.59-.44,3.89-.71,9.63-1.95,19.84-2.57,50.95-7.53,4.04-.64,20.51-5.71,26.5-7.12,4.85-1.14,13.89-2.81,20.98-2.81h40.52c4.92,0,9.66.81,14.07,2.31,6.42,2.18,12.17,5.81,16.86,10.5,7.91,7.91,12.81,18.85,12.81,30.93,0,19.23-12.41,35.57-29.67,41.43v12.41c0,17.96,14.56,32.52,32.52,32.52h31.1V38.09c0-19.88,15.64-36.57,35.51-37.1,10.48-.28,19.99,3.86,26.82,10.69s10.69,15.73,10.69,25.81Z"/>
      </g>
      <polyline class="cls-17" points="228.26 190.86 246.74 190.86 297.29 150.64 297.29 58.78"/>
      <circle class="cls-14" cx="124.51" cy="72.82" r="11.52"/>
      <ellipse class="cls-37" cx="285.62" cy="35.88" rx="17.76" ry="17.92"/>
      <g>
        <g>
          <rect class="cls-13" x="387.94" y="36.21" width="7.31" height="12.58"/>
          <rect class="cls-18" x="380.63" y="36.21" width="7.31" height="12.58"/>
          <rect class="cls-18" x="385.5" y="36.21" width="2.44" height="12.58"/>
          <g>
            <line class="cls-27" x1="388.37" y1="37.31" x2="394.29" y2="37.31"/>
            <line class="cls-27" x1="388.37" y1="39.39" x2="394.29" y2="39.39"/>
            <line class="cls-27" x1="388.37" y1="41.46" x2="394.29" y2="41.46"/>
            <line class="cls-27" x1="388.37" y1="43.53" x2="394.29" y2="43.53"/>
            <line class="cls-27" x1="388.37" y1="45.61" x2="394.29" y2="45.61"/>
            <line class="cls-27" x1="388.37" y1="47.68" x2="394.29" y2="47.68"/>
          </g>
        </g>
        <line class="cls-24" x1="396.27" y1="36.86" x2="396.27" y2="48.79"/>
        <g>
          <line class="cls-22" x1="397.23" y1="47.68" x2="397.23" y2="37.96"/>
          <line class="cls-21" x1="397.7" y1="38.79" x2="397.7" y2="46.85"/>
          <line class="cls-23" x1="398.23" y1="45.98" x2="398.23" y2="39.67"/>
          <line class="cls-20" x1="398.79" y1="40.57" x2="398.79" y2="45.08"/>
        </g>
      </g>
      <circle class="cls-15" cx="285.3" cy="35.4" r="13.95"/>
      <circle class="cls-36" cx="285.85" cy="35.95" r="12.63"/>
      <circle class="cls-33" cx="285.83" cy="35.93" r="9.94"/>
      <circle class="cls-29" cx="285.62" cy="35.95" r="8.14"/>
      <circle cx="285.85" cy="35.95" r="7.92"/>
      <g>
        <path class="cls-19" d="M285.62,54.17c-10,0-18.14-8.21-18.14-18.29s8.14-18.29,18.14-18.29,18.14,8.21,18.14,18.29-8.14,18.29-18.14,18.29ZM285.62,21.25c-7.99,0-14.49,6.56-14.49,14.62s6.5,14.62,14.49,14.62,14.49-6.56,14.49-14.62-6.5-14.62-14.49-14.62Z"/>
        <path class="cls-32" d="M285.62,17.96c9.81,0,17.76,8.02,17.76,17.92s-7.95,17.92-17.76,17.92-17.76-8.02-17.76-17.92,7.95-17.92,17.76-17.92M285.62,50.88c8.21,0,14.87-6.72,14.87-15s-6.66-15-14.87-15-14.87,6.72-14.87,15,6.66,15,14.87,15M285.62,17.21c-10.21,0-18.51,8.37-18.51,18.67s8.3,18.67,18.51,18.67,18.51-8.37,18.51-18.67-8.3-18.67-18.51-18.67h0ZM285.62,50.13c-7.79,0-14.12-6.39-14.12-14.25s6.33-14.25,14.12-14.25,14.12,6.39,14.12,14.25-6.33,14.25-14.12,14.25h0Z"/>
      </g>
      <circle class="cls-1" cx="124.51" cy="72.82" r="5.93"/>
      <path class="cls-3" d="M19.97,82.55c1.66,1.33,3.66,2.26,5.88,2.62l67.45,11.01c1.19-4.62,1.45-9.67.85-15.12l-73.71-5.24-.48,6.72Z"/>
      <g>
        <path class="cls-31" d="M35.16,84.22c.25,0,46.93,6.15,46.93,6.15"/>
        <path class="cls-32" d="M35.16,84.22c15.67,1.38,31.42,3.44,46.93,6.15-15.7-1.38-31.39-3.44-46.93-6.15h0Z"/>
      </g>
      <path class="cls-26" d="M108.16,55.72v24.11c0,1.35-1.09,2.44-2.44,2.44H34.05c-9.92,0-18.31,6.57-21.05,15.6-1,3.28-1.21,6.5-.92,9.9.12,1.39.16,2.84-.34,4.14-.88,2.32-4.74,4.12-5.85.97C-.44,94.84-4.39,68.63,12.94,55.4c7.2-5.5,16.36-7.72,25.3-7.72l63.14,1.14c3.77.07,6.78,3.14,6.78,6.9Z"/>
      <path class="cls-28" d="M91.32,63.41h0c0,3-2.6,5.43-5.81,5.43l-38.82-.67c-5.19-.18-8.64.71-8.97.79-10.21,2.6-16.71,8.79-22.11,17.04-.98,1.5-3.02,2.07-4.73,1.34h0c-1.81-.77-2.66-2.72-1.96-4.47,2.15-5.35,5.53-10.12,9.83-14.03,7.39-6.73,18.55-10.87,29.67-10.87h37.08c3.21,0,5.81,2.43,5.81,5.43Z"/>
    </g>
  </g>
</svg>