<?xml version="1.0" encoding="UTF-8"?>
<svg id="Layer_2" data-name="Layer 2" xmlns="http://www.w3.org/2000/svg" viewBox="0 0 363.91 383.23">
  <defs>
    <style>
      .cls-1 {
        fill: #439100;
      }

      .cls-1, .cls-2, .cls-3, .cls-4, .cls-5, .cls-6, .cls-7, .cls-8, .cls-9, .cls-10, .cls-11, .cls-12, .cls-13, .cls-14, .cls-15 {
        stroke-miterlimit: 10;
      }

      .cls-1, .cls-4, .cls-6, .cls-11 {
        stroke: #010001;
      }

      .cls-2 {
        fill: #5775b2;
      }

      .cls-2, .cls-3, .cls-7, .cls-8, .cls-9, .cls-12, .cls-15 {
        stroke: #1c1b18;
      }

      .cls-2, .cls-15 {
        stroke-linecap: round;
        stroke-width: 2px;
      }

      .cls-3 {
        fill: #718dba;
      }

      .cls-4 {
        fill: #f68003;
      }

      .cls-5 {
        fill: #dbd3b8;
      }

      .cls-5, .cls-10, .cls-13, .cls-14 {
        stroke: #000;
      }

      .cls-6 {
        fill: #352230;
      }

      .cls-7 {
        fill: #fffefe;
      }

      .cls-16 {
        fill: #1c1b18;
      }

      .cls-8 {
        fill: #f0dfba;
      }

      .cls-17 {
        fill: #6b90be;
      }

      .cls-9 {
        fill: #7bb889;
      }

      .cls-10 {
        fill: #2e1d2d;
      }

      .cls-11, .cls-15 {
        fill: none;
      }

      .cls-12 {
        fill: #f68103;
      }

      .cls-13 {
        fill: #dccfb8;
      }

      .cls-18 {
        fill: #b8a6c1;
      }

      .cls-14 {
        fill: #fffffe;
      }
    </style>
  </defs>
  <g id="L1">
    <g id="Jetstream">
      <g>
        <line class="cls-15" x1="1" y1="369.8" x2="51.31" y2="369.8"/>
        <circle class="cls-2" cx="23.46" cy="369.48" r="4.9"/>
      </g>
      <line class="cls-15" x1="2.83" y1="357.63" x2="17.9" y2="357.63"/>
      <line class="cls-15" x1="2.83" y1="381.32" x2="17.9" y2="381.32"/>
    </g>
    <g id="Jets">
      <rect class="cls-7" x="34.28" y="361.82" width="17.03" height="6.81" rx="3.41" ry="3.41"/>
      <rect class="cls-7" x="34.28" y="370.97" width="17.03" height="6.81" rx="3.41" ry="3.41"/>
    </g>
    <g id="Tongue_with_Ball" data-name="Tongue with Ball">
      <g>
        <rect class="cls-14" x="103.89" y="54.03" width="129.05" height="3.38" rx="1.69" ry="1.69"/>
        <circle class="cls-13" cx="229.34" cy="55.93" r="17.32"/>
      </g>
    </g>
    <g id="Layer_230" data-name="Layer 230">
      <g>
        <g>
          <circle class="cls-3" cx="222.01" cy="12.89" r="12.39"/>
          <circle class="cls-16" cx="222.01" cy="12.89" r="6.67"/>
          <circle class="cls-18" cx="221.39" cy="10.2" r="1.09"/>
        </g>
        <g>
          <circle class="cls-3" cx="221.39" cy="98.98" r="12.39"/>
          <circle class="cls-16" cx="221.39" cy="98.98" r="6.67"/>
          <circle class="cls-18" cx="220.78" cy="101.66" r="1.09"/>
        </g>
      </g>
      <path class="cls-1" d="M104.36,253.58v129.15h-51.36c-3.6,0-6.51-2.91-6.51-6.51v-11.99c0-2.43,1.97-4.41,4.41-4.41h0c4.76,0,8.61-3.86,8.61-8.61v-124.49s18,0,18,0c14.83,0,26.85,12.02,26.85,26.85Z"/>
      <g>
        <path class="cls-9" d="M326.08,310.72h-190.22c-9.53,0-17.26,7.73-17.26,17.26s7.73,17.26,17.26,17.26h190.22c9.53,0,17.26-7.73,17.26-17.26s-7.73-17.26-17.26-17.26Z"/>
        <path class="cls-9" d="M244.17,99.18c-1.6,2.75-5.13,3.68-7.87,2.08-22.74-13.34-58.8-22.83-96.45-25.89-6.62-.54-12.28,4.72-12.28,11.36v162.94c0,.87.05,1.73.14,2.57.06.58.15,1.16.26,1.73.02.15.05.29.08.44.05.27.12.54.18.81.4,1.64.97,3.22,1.69,4.71.17.35.34.69.53,1.02.18.33.37.66.57.99.38.63.79,1.23,1.23,1.82.02.02.04.04.05.06.22.3.46.6.71.89.48.59.99,1.15,1.53,1.68-11.88,1.39-22.45,7.02-30.18,15.33v-28.14c0-3.25-.58-6.36-1.63-9.25-.3-.81-.64-1.62-1.02-2.39-1.32-2.75-3.09-5.23-5.21-7.35-.3-.3-.61-.6-.93-.89-.64-.58-1.3-1.13-1.99-1.64-.35-.26-.69-.51-1.05-.75-4.29-2.9-9.46-4.59-15.02-4.59h-18V79.47h-6.27c-3.42,0-6.4-2.8-6.31-6.21.05-1.61.72-3.06,1.77-4.12,1.1-1.09,2.61-1.77,4.28-1.77h3.84v-3.04c0-19.53,15.84-35.37,35.37-35.37h.01c6.45,0,12.5,1.73,17.7,4.74,3.04,1.76,6.51,2.63,10.02,2.55,42.34-.88,85.21-10.72,110.65-25.55,2.62-1.52,5.99-.64,7.52,1.98,1.53,2.63.64,5.99-1.98,7.53-24.37,14.22-63.49,24.09-103.39,26.52-4.37.27-7.38,4.48-6.28,8.72.21.82.39,1.65.55,2.49.54,2.96,3,5.19,6.01,5.37,42.07,2.47,83.41,12.9,109.1,27.96,2.74,1.62,3.67,5.15,2.07,7.92Z"/>
        <path class="cls-9" d="M95.57,233.7c-.64-.58-1.3-1.12-1.99-1.64.69.51,1.35,1.06,1.99,1.64Z"/>
        <path class="cls-9" d="M132.25,263.76c-.43-.59-.85-1.2-1.23-1.82.38.63.79,1.23,1.23,1.82Z"/>
        <path class="cls-9" d="M359.05,273.22h-207.93c-6.47,0-12.33-2.61-16.58-6.83-11.88,1.39-22.45,7.02-30.18,15.33v101.01h252.11c3.83,0,6.94-3.11,6.94-6.94v-98.21c0-2.41-1.95-4.36-4.36-4.36ZM326.08,345.24h-190.22c-9.53,0-17.26-7.73-17.26-17.26s7.73-17.26,17.26-17.26h190.22c9.53,0,17.26,7.73,17.26,17.26s-7.73,17.26-17.26,17.26Z"/>
      </g>
      <g>
        <polygon class="cls-4" points="338.01 362.17 118.6 362.17 147.13 327.98 338.01 327.98 338.01 362.17"/>
        <rect class="cls-4" x="156.77" y="327.98" width="190.88" height="34.19"/>
        <g>
          <rect class="cls-4" x="191.96" y="327.98" width="50.61" height="34.19"/>
          <rect class="cls-4" x="234.45" y="327.98" width="50.61" height="34.19"/>
          <rect class="cls-4" x="272.3" y="327.98" width="50.61" height="34.19"/>
          <rect class="cls-4" x="312.8" y="327.98" width="50.61" height="34.19"/>
          <line class="cls-11" x1="159.67" y1="327.98" x2="137.27" y2="327.98"/>
          <circle class="cls-6" cx="132.85" cy="327.77" r="6.08"/>
        </g>
      </g>
      <path class="cls-12" d="M363.41,277.58v98.21c0,3.83-3.11,6.94-6.94,6.94H104.36v-101.01c7.73-8.31,18.3-13.94,30.18-15.33,4.25,4.22,10.11,6.83,16.58,6.83h207.93c2.41,0,4.36,1.95,4.36,4.36ZM343.34,327.98h0c0-9.53-7.73-17.26-17.26-17.26h-190.22c-9.53,0-17.26,7.73-17.26,17.26h0c0,9.53,7.73,17.26,17.26,17.26h190.22c9.53,0,17.26-7.73,17.26-17.26Z"/>
    </g>
    <g id="eye">
      <circle class="cls-8" cx="95.57" cy="58.84" r="21.76"/>
      <circle class="cls-17" cx="95.57" cy="58.84" r="14.33"/>
      <circle class="cls-5" cx="95.57" cy="58.84" r="9.62"/>
      <path class="cls-10" d="M95.57,58.84l-9.62-.04c.02-5.26,4.36-9.58,9.62-9.58s9.62,4.34,9.62,9.62h-9.62Z"/>
    </g>
  </g>
</svg>