<?xml version="1.0" encoding="UTF-8"?>
<svg id="Layer_2" data-name="Layer 2" xmlns="http://www.w3.org/2000/svg" viewBox="0 0 403.89 390.39">
  <defs>
    <style>
      .cls-1 {
        fill: #00c252;
      }

      .cls-1, .cls-2, .cls-3, .cls-4, .cls-5, .cls-6, .cls-7, .cls-8, .cls-9, .cls-10, .cls-11, .cls-12, .cls-13, .cls-14, .cls-15, .cls-16, .cls-17, .cls-18, .cls-19, .cls-20, .cls-21 {
        stroke-linecap: round;
        stroke-linejoin: round;
      }

      .cls-1, .cls-2, .cls-3, .cls-4, .cls-6, .cls-7, .cls-8, .cls-9, .cls-10, .cls-11, .cls-12, .cls-13, .cls-14, .cls-15, .cls-16, .cls-17, .cls-18, .cls-19, .cls-20, .cls-21 {
        stroke: #1b0e1f;
      }

      .cls-2, .cls-15 {
        fill: none;
      }

      .cls-3 {
        fill: #eb7724;
      }

      .cls-4 {
        fill: #03bf5b;
      }

      .cls-5 {
        fill: #fff;
        stroke: #fff;
        stroke-width: 10px;
      }

      .cls-6 {
        fill: #ff6c30;
      }

      .cls-7 {
        fill: #ff5d74;
      }

      .cls-8, .cls-22 {
        fill: #fffdc4;
      }

      .cls-9 {
        fill: #008773;
      }

      .cls-10 {
        fill: #730029;
      }

      .cls-11 {
        fill: #008e58;
      }

      .cls-12 {
        fill: #cc303e;
      }

      .cls-13 {
        fill: #008953;
      }

      .cls-15 {
        stroke-width: 1.3px;
      }

      .cls-16 {
        fill: #ff742f;
      }

      .cls-17 {
        fill: #ffcd37;
      }

      .cls-18 {
        fill: #770036;
      }

      .cls-19 {
        fill: #e4b02d;
      }

      .cls-20 {
        fill: #feefba;
      }

      .cls-21 {
        fill: #ff5182;
      }
    </style>
  </defs>
  <g id="Generative_Recolor_Stickers" data-name="Generative Recolor Stickers">
    <g>
      <g>
        <path class="cls-5" d="M356.82,316.87l15.72-9.51s27.42,10.24,26.32,9.51-27.02,9.14-27.02,9.14l-15.02-9.14Z"/>
        <path class="cls-5" d="M146.69,126.13l-1.5,161.23,43.75,10.82c24.03,6.44,40.74,28.22,40.74,53.1v.49c0,18.57-15.05,33.62-33.62,33.62H5v-165.66S63.35,102.79,89.98,49.79c8.01-15.94,24.37-25.94,42.2-25.94h57.33c4.05,0,7.68,2.49,9.15,6.26h0c1.45,3.74.53,7.97-2.33,10.78-7.02,6.89-13.01,14.9-2.41,34.64,18,13.58,19.84-2.39,31.15-4.36,4.58-.8,8.76,2.77,8.76,7.42v7.94h-47.53c-21.87,0-39.6,17.73-39.6,39.6Z"/>
        <path class="cls-5" d="M154.65,101.37h20.01v52.89c0,5.52-4.48,10-10,10h0c-5.52,0-10-4.48-10-10v-52.89h0Z" transform="translate(-46.7 123.92) rotate(-36.48)"/>
        <path class="cls-5" d="M163.19,208.01h0c5.52,0,10,4.48,10,10v75.3h-20.01v-75.3c0-5.52,4.48-10,10-10Z" transform="translate(284.64 -22.67) rotate(57.02)"/>
        <g>
          <path class="cls-5" d="M181.09,5h-67.75c-8.22,0-14.89,6.67-14.89,14.89h0c0,8.22,6.67,14.89,14.89,14.89h74.49v25.99h43.37v-14.47c0-22.81-21.68-41.31-50.11-41.31Z"/>
          <path class="cls-5" d="M172.67,5h-59.33c-8.22,0-14.89,6.67-14.89,14.89s6.67,14.89,14.89,14.89h59.33V5Z"/>
        </g>
        <path class="cls-5" d="M336.79,34.78c0,16.38-10.45,30.97-25.99,36.16-.2.07-.41.14-.61.2-24.28,8.05-49.65,12.54-75.81,14.47-15.77,1.17-31.82,1.4-48.09.92v-51.75h150.5Z"/>
        <path class="cls-5" d="M310.19,71.14c-24.28,8.05-49.65,12.54-75.81,14.47v-6.25c0-4.54,3.68-8.22,8.22-8.22h67.59Z"/>
        <path class="cls-5" d="M146.69,126.13l-1.5,161.23,43.75,10.82c24.03,6.44,40.74,28.22,40.74,53.1v.49c0,18.57-15.05,33.62-33.62,33.62H5v-114.82C34.26,185.64,63.35,102.79,89.98,49.79c8.01-15.94,24.37-25.94,42.2-25.94h57.33c4.05,0,7.68,2.49,9.15,6.26h0c1.45,3.74.53,7.97-2.33,10.78-7.02,6.89-13.01,14.9-2.41,34.64,18,13.58,19.84-2.39,31.15-4.36,4.58-.8,8.76,2.77,8.76,7.42v7.94h-47.53c-21.87,0-39.6,17.73-39.6,39.6Z"/>
        <rect class="cls-5" x="187.83" y="44.53" width="43.37" height="37.62" rx="18.81" ry="18.81"/>
        <g>
          <circle class="cls-5" cx="209.51" cy="63.33" r="12.72"/>
          <circle class="cls-5" cx="209.51" cy="63.33" r="8.99"/>
        </g>
        <g>
          <circle class="cls-5" cx="135.56" cy="63.33" r="29.26"/>
          <circle class="cls-5" cx="135.56" cy="63.33" r="14"/>
          <circle class="cls-5" cx="135.56" cy="63.33" r="9.9"/>
        </g>
        <ellipse class="cls-5" cx="281.67" cy="323" rx="59.59" ry="57.68"/>
        <path class="cls-5" d="M337.44,304.07h28.49c3.64,0,6.6,2.96,6.6,6.6v12.39c0,3.64-2.96,6.6-6.6,6.6h-28.49c-7.06,0-12.8-5.73-12.8-12.8h0c0-7.06,5.73-12.8,12.8-12.8Z"/>
        <path class="cls-5" d="M308.26,262.67h0c0,2.6-.83,5.05-2.28,7.06-1.44,2-3.5,3.56-5.96,4.39l-2.36.79c-4.5,1.5-7.69,5.5-8.18,10.21l-.66,6.52-19.02,5.48-8.71-8.02c-3.04-2.81-7.61-3.18-11.07-.91-2.59,1.71-4.08,4.57-4.08,7.55,0,.95.16,1.92.47,2.86l.42,6.76-19.07,20.64-15.57-24.43c9.84-25.5,36.78-43.8,68.46-43.8,9.78,0,19.1,1.74,27.61,4.9Z"/>
        <path class="cls-5" d="M308.26,262.67h0c0,2.6-.83,5.05-2.28,7.06-1.44,2-3.5,3.56-5.96,4.39l-2.36.79c-4.5,1.5-7.69,5.5-8.18,10.21l-.66,6.52-19.02,5.48-8.71-8.02c-3.04-2.81-7.61-3.18-11.07-.91-2.59,1.71-4.08,4.57-4.08,7.55,0,.95.16,1.92.47,2.86l.42,6.76-19.07,20.64-15.57-24.43c9.84-25.5,36.78-43.8,68.46-43.8,9.78,0,19.1,1.74,27.61,4.9Z"/>
        <g>
          <rect class="cls-5" x="334.58" y="242.53" width="27.46" height="10.32" rx="5" ry="5" transform="translate(-76.03 196.69) rotate(-28.56)"/>
          <rect class="cls-5" x="350.54" y="233.97" width="4.96" height="22.89" rx="2.26" ry="2.26" transform="translate(-74.37 198.67) rotate(-28.56)"/>
          <rect class="cls-5" x="315.4" y="247.12" width="9.92" height="32.15" rx="4.75" ry="4.75" transform="translate(-86.85 185.21) rotate(-28.56)"/>
          <rect class="cls-5" x="324.11" y="242.38" width="9.92" height="32.15" rx="4.75" ry="4.75" transform="translate(-83.52 188.8) rotate(-28.56)"/>
          <rect class="cls-5" x="332.82" y="237.64" width="9.92" height="32.15" rx="4.75" ry="4.75" transform="translate(-80.2 192.39) rotate(-28.56)"/>
          <rect class="cls-5" x="341.53" y="232.89" width="9.92" height="32.15" rx="4.75" ry="4.75" transform="translate(-76.87 195.97) rotate(-28.56)"/>
        </g>
        <circle class="cls-5" cx="84.02" cy="331.58" r="18.25"/>
        <path class="cls-5" d="M136.42,143.92v32.07c0,1.53-.19,3.05-.57,4.52l-3.27,12.73c-.38,1.48-.57,3-.57,4.52v68.32c0,5.64-4.52,10.21-10.1,10.21h-20.72c-5.58,0-10.1-4.57-10.1-10.21V114.64"/>
        <path class="cls-5" d="M163.19,385.39c23.29-8.3,31.3-21.04,29.93-35.56"/>
        <rect class="cls-5" x="5" y="375.96" width="370.97" height="9.44"/>
      </g>
      <g>
        <path class="cls-7" d="M356.82,316.87l15.72-9.51s27.42,10.24,26.32,9.51-27.02,9.14-27.02,9.14l-15.02-9.14Z"/>
        <path class="cls-11" d="M146.69,126.13l-1.5,161.23,43.75,10.82c24.03,6.44,40.74,28.22,40.74,53.1v.49c0,18.57-15.05,33.62-33.62,33.62H5v-165.66S63.35,102.79,89.98,49.79c8.01-15.94,24.37-25.94,42.2-25.94h57.33c4.05,0,7.68,2.49,9.15,6.26h0c1.45,3.74.53,7.97-2.33,10.78-7.02,6.89-13.01,14.9-2.41,34.64,18,13.58,19.84-2.39,31.15-4.36,4.58-.8,8.76,2.77,8.76,7.42v7.94h-47.53c-21.87,0-39.6,17.73-39.6,39.6Z"/>
        <path class="cls-13" d="M154.65,101.37h20.01v52.89c0,5.52-4.48,10-10,10h0c-5.52,0-10-4.48-10-10v-52.89h0Z" transform="translate(-46.7 123.92) rotate(-36.48)"/>
        <path class="cls-4" d="M163.19,208.01h0c5.52,0,10,4.48,10,10v75.3h-20.01v-75.3c0-5.52,4.48-10,10-10Z" transform="translate(284.64 -22.67) rotate(57.02)"/>
        <g>
          <path class="cls-3" d="M181.09,5h-67.75c-8.22,0-14.89,6.67-14.89,14.89h0c0,8.22,6.67,14.89,14.89,14.89h74.49v25.99h43.37v-14.47c0-22.81-21.68-41.31-50.11-41.31Z"/>
          <path class="cls-16" d="M172.67,5h-59.33c-8.22,0-14.89,6.67-14.89,14.89s6.67,14.89,14.89,14.89h59.33V5Z"/>
        </g>
        <path class="cls-21" d="M336.79,34.78c0,16.38-10.45,30.97-25.99,36.16-.2.07-.41.14-.61.2-24.28,8.05-49.65,12.54-75.81,14.47-15.77,1.17-31.82,1.4-48.09.92v-51.75h150.5Z"/>
        <path class="cls-21" d="M310.19,71.14c-24.28,8.05-49.65,12.54-75.81,14.47v-6.25c0-4.54,3.68-8.22,8.22-8.22h67.59Z"/>
        <path class="cls-19" d="M146.69,126.13l-1.5,161.23,43.75,10.82c24.03,6.44,40.74,28.22,40.74,53.1v.49c0,18.57-15.05,33.62-33.62,33.62H5v-114.82C34.26,185.64,63.35,102.79,89.98,49.79c8.01-15.94,24.37-25.94,42.2-25.94h57.33c4.05,0,7.68,2.49,9.15,6.26h0c1.45,3.74.53,7.97-2.33,10.78-7.02,6.89-13.01,14.9-2.41,34.64,18,13.58,19.84-2.39,31.15-4.36,4.58-.8,8.76,2.77,8.76,7.42v7.94h-47.53c-21.87,0-39.6,17.73-39.6,39.6Z"/>
        <rect class="cls-12" x="187.83" y="44.53" width="43.37" height="37.62" rx="18.81" ry="18.81"/>
        <g>
          <circle class="cls-8" cx="209.51" cy="63.33" r="12.72"/>
          <circle class="cls-14" cx="209.51" cy="63.33" r="7.17"/>
          <circle class="cls-22" cx="213.1" cy="59.75" r="3.58"/>
        </g>
        <g>
          <circle class="cls-9" cx="135.56" cy="63.33" r="29.26"/>
          <circle class="cls-20" cx="135.56" cy="63.33" r="14"/>
          <circle class="cls-10" cx="135.56" cy="63.33" r="9.9"/>
        </g>
        <ellipse class="cls-1" cx="281.67" cy="323" rx="59.59" ry="57.68"/>
        <path class="cls-1" d="M337.44,304.07h28.49c3.64,0,6.6,2.96,6.6,6.6v12.39c0,3.64-2.96,6.6-6.6,6.6h-28.49c-7.06,0-12.8-5.73-12.8-12.8h0c0-7.06,5.73-12.8,12.8-12.8Z"/>
        <path class="cls-1" d="M308.26,262.67h0c0,2.6-.83,5.05-2.28,7.06-1.44,2-3.5,3.56-5.96,4.39l-2.36.79c-4.5,1.5-7.69,5.5-8.18,10.21l-.66,6.52-19.02,5.48-8.71-8.02c-3.04-2.81-7.61-3.18-11.07-.91-2.59,1.71-4.08,4.57-4.08,7.55,0,.95.16,1.92.47,2.86l.42,6.76-19.07,20.64-15.57-24.43c9.84-25.5,36.78-43.8,68.46-43.8,9.78,0,19.1,1.74,27.61,4.9Z"/>
        <path class="cls-6" d="M308.26,262.67h0c0,2.6-.83,5.05-2.28,7.06-1.44,2-3.5,3.56-5.96,4.39l-2.36.79c-4.5,1.5-7.69,5.5-8.18,10.21l-.66,6.52-19.02,5.48-8.71-8.02c-3.04-2.81-7.61-3.18-11.07-.91-2.59,1.71-4.08,4.57-4.08,7.55,0,.95.16,1.92.47,2.86l.42,6.76-19.07,20.64-15.57-24.43c9.84-25.5,36.78-43.8,68.46-43.8,9.78,0,19.1,1.74,27.61,4.9Z"/>
        <g>
          <rect class="cls-20" x="334.58" y="242.53" width="27.46" height="10.32" rx="5" ry="5" transform="translate(-76.03 196.69) rotate(-28.56)"/>
          <rect class="cls-17" x="350.54" y="233.97" width="4.96" height="22.89" rx="2.26" ry="2.26" transform="translate(-74.37 198.67) rotate(-28.56)"/>
          <rect class="cls-17" x="315.4" y="247.12" width="9.92" height="32.15" rx="4.75" ry="4.75" transform="translate(-86.85 185.21) rotate(-28.56)"/>
          <rect class="cls-17" x="324.11" y="242.38" width="9.92" height="32.15" rx="4.75" ry="4.75" transform="translate(-83.52 188.8) rotate(-28.56)"/>
          <rect class="cls-17" x="332.82" y="237.64" width="9.92" height="32.15" rx="4.75" ry="4.75" transform="translate(-80.2 192.39) rotate(-28.56)"/>
          <rect class="cls-17" x="341.53" y="232.89" width="9.92" height="32.15" rx="4.75" ry="4.75" transform="translate(-76.87 195.97) rotate(-28.56)"/>
        </g>
        <circle class="cls-18" cx="84.02" cy="331.58" r="18.25"/>
        <path class="cls-2" d="M136.42,143.92v32.07c0,1.53-.19,3.05-.57,4.52l-3.27,12.73c-.38,1.48-.57,3-.57,4.52v68.32c0,5.64-4.52,10.21-10.1,10.21h-20.72c-5.58,0-10.1-4.57-10.1-10.21V114.64"/>
        <path class="cls-15" d="M163.19,385.39c23.29-8.3,31.3-21.04,29.93-35.56"/>
        <rect class="cls-21" x="5" y="375.96" width="370.97" height="9.44"/>
      </g>
    </g>
  </g>
</svg>