<?xml version="1.0" encoding="UTF-8"?>
<svg id="rainbow" xmlns="http://www.w3.org/2000/svg" viewBox="0 0 1080 1080">
  <defs>
    <style>
      .cls-1 {
        fill: #60a363;
      }

      .cls-1, .cls-2, .cls-3, .cls-4, .cls-5, .cls-6 {
        stroke: #000;
      }

      .cls-1, .cls-2, .cls-3, .cls-4, .cls-6 {
        stroke-miterlimit: 10;
      }

      .cls-1, .cls-2, .cls-4, .cls-5 {
        stroke-width: 2px;
      }

      .cls-2, .cls-6 {
        fill: #f5b423;
      }

      .cls-3 {
        fill: #f65b38;
      }

      .cls-3, .cls-6 {
        stroke-width: 1.76px;
      }

      .cls-4 {
        fill: #f4b325;
      }

      .cls-5 {
        fill: #f35c39;
        stroke-linejoin: round;
      }
    </style>
  </defs>
  <ellipse id="pupil" cx="812.73" cy="912.99" rx="12.51" ry="11.48"/>
  <path id="red.bg" class="cls-3" d="M681.03,895.15s.01-.02,0-.03c-1.12-55.98-49.11-103.46-106.15-102.88h-125.11c-12.72,31.22-39.27,29.37-67.8,28.75-18.39.09-35.13-11.63-41.5-28.75h-24.55c-1.02.02-14.46-.02-23.93,0h-1.12c-3.5.02-6.35.05-8.14.1v-.02c-.16,0-.32,0-.48.03h-.17c-.17.01-.33.02-.49.03-.3.02-.6.04-.9.06h-.01c-3.6.29-7.17.92-10.66,1.86-.5.14-.99.28-1.49.42-.36.1-.72.21-1.08.32-.5.15-1,.31-1.49.48-.39.13-.77.26-1.15.4-.72.26-1.43.52-2.14.81-4.22,1.7-8.27,3.83-12.06,6.31-.64.41-1.26.84-1.88,1.28-.54.38-1.08.78-1.61,1.18-.46.34-.92.7-1.37,1.06-.37.29-.73.59-1.09.89-.39.32-.77.64-1.15.97-.51.44-1,.88-1.49,1.33-.46.42-.91.84-1.35,1.28-.44.43-.88.87-1.31,1.31-6.03,6.22-10.88,13.58-14.16,21.69-.19.48-.37.95-.55,1.43-.19.52-.39,1.05-.57,1.58-.18.53-.36,1.07-.53,1.61-.12.39-.25.79-.36,1.19-1.65,5.6-2.58,11.53-2.71,17.66,0,.41-.01.82-.01,1.23,0,36.71,29.76,66.48,66.48,66.48h146.62c38.05-.01,68.58-.01,68.59,0v-5.45c0-.42,0-.84.01-1.25.25-4.8,1.08-9.59,2.64-14.09,0-.02.01-.05.02-.07.14-.42.3-.83.46-1.23.01-.02.02-.04.03-.06.8-2.1,1.78-4.13,2.95-6.07h-.01c3.74-6.48,9.06-11.96,15.41-15.89.56-.34,1.11-.68,1.68-1,.21-.12.42-.24.64-.36.39-.22.79-.43,1.19-.63.5-.26,1-.5,1.51-.73.33-.16.67-.31,1.01-.45.32-.14.63-.27.95-.4,4.8-1.97,10-3.11,15.44-3.25.52-.02,1.04-.03,1.57-.03.41,0,.82.01,1.23.01,9.13.15,17.37,3.02,24.21,7.76.31.21.62.42.92.65,9.45,6.91,16.08,17.44,18.47,29.24.44,2.55.67,5.17.67,7.84v7.46h87.93v-28.76c0-1.1-.03-2.2-.06-3.3Z"/>
  <g id="colors">
    <path class="cls-1" d="M653.12,895.87v.09c0,.5,0,1-.01,1.5v24.53h-29.38v-1.27c0-2.34.03-6.26.03-10.5.01-3.4.01-7.01-.03-10.17-.03-2.94-.09-5.48-.2-7.11-.02-.25-.04-.51-.07-.76-.01-.14-.02-.29-.04-.4-.24-2.4-.63-4.75-1.16-7.06-.07-.31-.15-.64-.23-.97-.11-.43-.22-.88-.34-1.31-.12-.43-.24-.85-.37-1.28-.13-.43-.26-.84-.39-1.26,0-.03,0-.04-.02-.04-.13-.42-.27-.83-.42-1.25-.14-.41-.29-.82-.44-1.23-.28-.73-.57-1.46-.88-2.19-.18-.43-.36-.85-.56-1.27-.55-1.24-1.15-2.45-1.79-3.63-4.46-8.31-10.89-15.43-18.67-20.71-.39-.28-.77-.53-1.17-.78-.45-.3-.91-.59-1.38-.87-.34-.21-.67-.4-1.01-.6-.39-.23-.78-.46-1.17-.67-.67-.37-1.36-.73-2.06-1.07-.28-.16-.57-.29-.87-.43-.39-.21-.79-.38-1.2-.56-.43-.19-.86-.39-1.3-.57-6.52-2.75-13.64-4.35-21.11-4.53-.5-.02-1-.02-1.51-.02h-192.11c-34.66,0-52.55-20.37-56.7-47.24h23.91c5.17,13.9,16.63,23.73,30.95,27.21,9.23,2.25,18.84,2.19,28.33,1.79,8.67-.36,17.46-1.03,25.63-3.95,11.93-4.25,19.71-13.55,24.39-25.05h23.33c-2.26,6.97-5.62,13.45-9.86,19.22.24.01,1.44.02,3.4.02h.06c1.54.01,3.54.02,5.92.01h6.13c27.54,0,82.63-.09,89.39-.03.19.01.34.01.45.01.09.01.16.01.2.01,12.32.23,24.01,3.07,34.54,7.95.65.3,1.3.62,1.95.93.26.13.53.27.79.4.54.29,1.07.56,1.6.85.6.32,1.19.64,1.78.99.09.05.17.09.26.14.18.11.35.2.52.31.46.26.92.53,1.37.81.19.1.37.23.56.33.59.38,1.18.74,1.78,1.14.5.33,1,.65,1.49,1,.07.04.14.1.21.14.33.23.66.46.99.7.76.53,1.51,1.08,2.25,1.65,14.75,11.23,25.77,27.16,30.95,44.9.13.46.26.9.38,1.36.01.04.03.09.04.13,1.82,6.71,2.82,13.64,2.87,20.66Z"/>
    <path class="cls-4" d="M681.09,898.45v28.76h-27.98c-.16-14.08,1.22-30.52-2.32-44.61-5.91-25.33-23.97-47.05-47.46-57.95-10.53-4.89-22.22-7.72-34.54-7.95-2.22-.2-103.39.1-105.55-.02,5.28-7.2,9.19-15.48,11.33-24.44h100.31c57.04-.58,105.03,46.9,106.15,102.88.01.01.01.02,0,.03.03,1.1.06,2.2.06,3.3Z"/>
    <path class="cls-2" d="M547.66,874.25c-.53,0-1.05.01-1.57.03-5.44.14-10.64,1.28-15.44,3.25-.32.13-.63.26-.95.4-.34.14-.68.29-1.01.45-.51.23-1.01.47-1.51.73-.4.2-.8.41-1.19.63-.22.12-.43.24-.64.36-.57.32-1.12.66-1.68,1-6.35,3.93-11.67,9.41-15.41,15.89h-176.98c-1.42,0-2.83-.03-4.24-.1-.3-.01-.6-.03-.9-.05-2.12-.12-4.22-.33-6.3-.61-.59-.08-1.18-.16-1.77-.26-.61-.09-1.23-.2-1.83-.31-1.35-.24-2.69-.52-4.02-.83-.36-.08-.72-.17-1.08-.26-1.14-.28-2.28-.59-3.4-.92-.58-.17-1.17-.35-1.74-.53-.6-.19-1.2-.39-1.8-.6-.28-.09-.55-.19-.82-.29-.52-.18-1.03-.37-1.55-.57-.64-.24-1.28-.49-1.91-.76-1.08-.44-2.14-.9-3.19-1.39-.26-.12-.52-.24-.78-.37-1.77-.84-3.51-1.74-5.21-2.71-1.18-.67-2.33-1.37-3.47-2.09-1.27-.82-2.53-1.66-3.75-2.55-.59-.43-1.18-.86-1.76-1.3-.59-.46-1.18-.92-1.76-1.39-.59-.47-1.17-.94-1.74-1.43-1.86-1.58-3.64-3.24-5.35-4.98-.34-.34-.67-.69-1.01-1.04-3.69-3.88-7-8.12-9.89-12.65-.45-.7-.88-1.4-1.31-2.11-.36-.59-.71-1.19-1.04-1.79-.19-.33-.38-.66-.56-1-.3-.53-.59-1.08-.87-1.62-.1-.19-.2-.39-.3-.57-.35-.7-.7-1.39-1.03-2.09-2.02-4.2-3.69-8.58-5.01-13.09-.19-.62-.36-1.25-.53-1.88-.18-.66-.35-1.32-.51-1.99-.16-.66-.32-1.33-.46-2-.45-2.02-.82-4.06-1.11-6.11-.21-1.37-.37-2.75-.5-4.13-.12-1.28-.22-2.57-.28-3.86-.02-.19-.03-.38-.03-.57-.06-1.28-.09-2.56-.09-3.85-.01-2.66.11-5.33.35-8.02.62-.44,1.24-.87,1.88-1.28,3.79-2.48,7.84-4.61,12.06-6.31.71-.29,1.42-.55,2.14-.81.38-.14.76-.27,1.15-.4.49-.17.99-.33,1.49-.48.36-.11.72-.22,1.08-.32.5-.14.99-.28,1.49-.42,3.49-.94,7.06-1.57,10.66-1.86h.01c.3-.02.6-.04.9-.06.16-.01.32-.02.49-.03h.17c.16-.02.32-.02.48-.03v.02c-1.48,16.43-.06,30.55,4.37,42.22.38,1.03.79,2.03,1.23,3.01h0c.44.99.89,1.95,1.37,2.9,4.33,8.54,10.55,15.53,18.72,20.91.46.3.92.59,1.38.88.93.58,1.89,1.14,2.87,1.68.49.26.99.53,1.49.79,6.02,3.1,12.92,5.48,20.7,7.11,1.3.27,2.62.52,3.97.76,2.69.46,5.48.84,8.37,1.13,1.45.15,2.92.27,4.42.38.75.05,1.5.1,2.26.14h193.78Z"/>
    <path class="cls-1" d="M653.12,901.09v.09c0,.5,0,1-.01,1.5v24.53h-29.38v-1.27c0-1.04.01-2.39.01-3.95.01-3.35.03-7.65.02-11.77,0-1.71-.01-3.39-.03-4.96-.03-2.94-.09-5.48-.2-7.11-.02-.25-.04-.5-.07-.76-.01-.14-.02-.28-.04-.4-.24-2.39-.63-4.75-1.16-7.05-.07-.32-.15-.65-.23-.97-.11-.44-.22-.88-.34-1.31-.12-.43-.24-.86-.37-1.29-.13-.42-.26-.84-.39-1.26,0-.02,0-.03-.02-.04-.13-.41-.27-.83-.42-1.24-.14-.41-.29-.83-.44-1.23-.28-.74-.57-1.47-.88-2.19-.18-.43-.36-.86-.56-1.28-.55-1.23-1.15-2.44-1.79-3.63-4.46-8.3-10.89-15.42-18.67-20.71-.39-.28-.77-.53-1.17-.78-.45-.29-.91-.58-1.38-.87-.34-.2-.67-.4-1.01-.6-.39-.23-.78-.45-1.17-.67-.67-.37-1.36-.73-2.06-1.07-.28-.15-.57-.29-.87-.43-.39-.2-.79-.38-1.2-.56-.43-.19-.86-.38-1.3-.57-6.52-2.75-13.64-4.34-21.11-4.52-.5-.02-1-.02-1.51-.02h-192.11c-36.86,0-54.76-23.05-57.34-52.46h24.55c5.17,13.9,16.63,23.73,30.95,27.21,9.23,2.25,18.84,2.19,28.33,1.79,8.67-.36,17.46-1.03,25.63-3.95,11.93-4.25,19.71-13.55,24.39-25.05h24.8c-1.64,6.88-4.33,13.35-7.87,19.24-1.08,1.79-2.23,3.52-3.46,5.2.24.01,1.44.02,3.4.02,1.55.01,3.57.02,5.98.01h6.13c27.54,0,82.63-.1,89.39-.03.19.01.34.01.45.01.09.01.16.01.2.01,12.32.23,24.01,3.06,34.54,7.95.65.3,1.3.61,1.95.93.26.13.53.27.79.4.54.28,1.07.55,1.6.84.6.32,1.19.65,1.78.99.09.05.17.1.26.15.18.1.35.2.52.3.46.26.92.53,1.37.81.19.11.37.23.56.34.59.37,1.18.74,1.78,1.13.5.33,1,.66,1.49,1,.07.05.14.1.21.15.33.23.66.46.99.69.76.54,1.51,1.09,2.25,1.65,14.75,11.23,25.77,27.17,30.95,44.91.13.45.26.9.38,1.35.01.05.03.09.04.14,1.76,6.49,2.76,13.2,2.86,20,.01.22.01.44.01.66Z"/>
    <path class="cls-6" d="M508.27,896.99c-1.17,1.94-2.15,3.97-2.95,6.07-.01.02-.02.04-.03.06-.16.4-.32.81-.46,1.23-.01.02-.02.05-.02.07-1.56,4.5-2.39,9.29-2.64,14.09-.01.41-.01.83-.01,1.25v5.45s-30.54-.01-68.59,0h-146.62c-36.72,0-66.48-29.77-66.48-66.48,0-.41.01-.82.01-1.23.13-6.13,1.06-12.06,2.71-17.66.11-.4.24-.8.36-1.19.17-.54.35-1.08.53-1.61.18-.53.38-1.06.57-1.58.18-.48.36-.95.55-1.43,3.28-8.11,8.13-15.47,14.16-21.69.43-.44.87-.88,1.31-1.31.44-.44.89-.86,1.35-1.28.49-.45.98-.89,1.49-1.33.38-.33.76-.65,1.15-.97.36-.3.72-.6,1.09-.89.45-.36.91-.72,1.37-1.06.53-.4,1.07-.8,1.61-1.18-.24,2.69-.36,5.36-.35,8.02,0,1.29.03,2.57.09,3.85,0,.19.01.38.03.57.06,1.29.16,2.58.28,3.86.13,1.38.29,2.76.5,4.13.29,2.05.66,4.09,1.11,6.11.14.67.3,1.34.46,2,.16.67.33,1.33.51,1.99.17.63.34,1.26.53,1.88,1.32,4.51,2.99,8.89,5.01,13.09.33.7.68,1.39,1.03,2.09.1.18.2.38.3.57.28.54.57,1.09.87,1.62.18.34.37.67.56,1,.33.6.68,1.2,1.04,1.79.42.71.86,1.42,1.31,2.11,2.89,4.53,6.2,8.77,9.89,12.65.34.35.67.7,1.01,1.04,1.71,1.74,3.49,3.4,5.35,4.98.57.49,1.15.97,1.74,1.43.58.48,1.16.94,1.76,1.39.58.44,1.17.88,1.76,1.3,1.22.89,2.48,1.73,3.75,2.55,1.14.72,2.29,1.42,3.47,2.09,1.7.97,3.44,1.87,5.21,2.71.26.13.52.25.78.37,1.05.49,2.11.95,3.19,1.39.63.27,1.27.52,1.91.76.52.2,1.03.39,1.55.57.27.1.54.2.82.29.6.21,1.2.41,1.8.6.57.18,1.16.36,1.74.53,1.12.33,2.26.64,3.4.92.36.09.72.18,1.08.26,1.33.31,2.67.59,4.02.83.6.11,1.22.22,1.83.31.59.1,1.18.18,1.77.26,2.08.28,4.18.49,6.3.61.3.02.6.04.9.05,1.41.07,2.82.1,4.24.1h176.99Z"/>
  </g>
  <g id="redbody">
    <path d="M340.47,792.24c.52,1.39,1.11,2.75,1.76,4.06h-26.31c-1.02.02-14.46-.02-23.93,0h-1.12c-3.5.02-6.35.05-8.14.1v-.02c-.16.01-.32.01-.48.03h-.17c-.17.01-.33.02-.49.03l-.9.06h-.01c-3.6.29-7.17.92-10.66,1.86-.5.14-.99.28-1.49.42-.36.1-.72.21-1.08.32-.5.15-1,.31-1.49.48-.39.13-.77.26-1.15.4-.72.26-1.43.52-2.14.81-4.22,1.7-8.27,3.83-12.06,6.31-.64.41-1.26.84-1.88,1.28-.54.38-1.08.78-1.61,1.18-.46.34-.92.7-1.37,1.06-.37.29-.73.59-1.09.89-.39.32-.77.64-1.15.97-.51.44-1,.88-1.49,1.33-.46.42-.91.84-1.35,1.28-.44.43-.88.87-1.31,1.31-6.03,6.22-10.88,13.58-14.16,21.69-.19.48-.37.95-.55,1.43-.19.52-.39,1.05-.57,1.58-.18.53-.36,1.07-.53,1.61-.12.39-.25.79-.36,1.19-1.59,5.39-2.51,11.08-2.68,16.97-.03-.71-.04-1.42-.04-2.14,0-.41.01-.82.01-1.23.13-6.13,1.06-12.06,2.71-17.66.11-.4.24-.8.36-1.19.17-.54.35-1.08.53-1.61.18-.53.38-1.06.57-1.58.18-.48.36-.95.55-1.43,3.28-8.11,8.13-15.47,14.16-21.69.43-.44.87-.88,1.31-1.31.44-.44.89-.86,1.35-1.28.49-.45.98-.89,1.49-1.33.38-.33.76-.65,1.15-.97.36-.3.72-.6,1.09-.89.45-.36.91-.72,1.37-1.06.53-.4,1.07-.8,1.61-1.18.62-.44,1.24-.87,1.88-1.28,3.79-2.48,7.84-4.61,12.06-6.31.71-.29,1.42-.55,2.14-.81.38-.14.76-.27,1.15-.4.49-.17.99-.33,1.49-.48.36-.11.72-.22,1.08-.32.5-.14.99-.28,1.49-.42,3.49-.94,7.06-1.57,10.66-1.86h.01c.3-.02.6-.04.9-.06.16-.01.32-.02.49-.03h.17c.16-.02.32-.02.48-.03v.02c1.79-.05,4.64-.08,8.14-.1h1.12c9.47-.02,22.91.02,23.93,0h24.55Z"/>
    <path d="M681.09,898.45v4.06c0-1.1-.03-2.2-.06-3.3.01-.01.01-.02,0-.03-1.12-55.98-49.11-103.47-106.15-102.88h-126.94c.64-1.29,1.25-2.64,1.83-4.06h125.11c57.04-.58,105.03,46.9,106.15,102.88.01.01.01.02,0,.03.03,1.1.06,2.2.06,3.3Z"/>
    <path class="cls-5" d="M502.16,925.21v26.52h-197.07c-72.81,0-107.59-39.72-108.97-89.18-1.07-23.02,8.31-47.17,22.66-64.31,30.23-37.99,77.42-29.93,119.88-30.51-.1,6.72-.2,14.6,1.66,21.22.47,1.66-.75,3.31-2.48,3.31-2.71,0-6.64,0-10.86-.02-10.56-.02-25.04-.05-34.99,0h-1.12c-3.5.02-6.35.05-8.14.1-.17,0-.33,0-.48.01h-.17c-.18.01-.34.02-.49.03-.47.01-.78.04-.9.06h-.01s-.04.02-.04.02c-3.62.31-7.17.93-10.62,1.84-.5.14-.99.28-1.49.42-.36.1-.72.21-1.08.32-.5.15-1,.31-1.49.48-.39.13-.77.26-1.15.4-.72.26-1.43.52-2.14.81-4.24,1.68-8.29,3.8-12.06,6.31-.64.41-1.26.84-1.88,1.28-.54.38-1.08.78-1.61,1.18-.46.34-.92.7-1.37,1.06-.37.29-.73.59-1.09.89-.39.32-.77.64-1.15.97-.51.44-1,.88-1.49,1.33-.46.42-.91.84-1.35,1.28-.44.43-.88.87-1.31,1.31-6.03,6.22-10.88,13.58-14.16,21.69-.19.48-.37.95-.55,1.43-.19.52-.39,1.05-.57,1.58-.18.53-.36,1.07-.53,1.61-.12.39-.25.79-.36,1.19-1.7,5.63-2.64,11.55-2.71,17.66,0,.41-.01.82-.01,1.23,0,36.71,29.76,66.48,66.48,66.48h215.21Z"/>
    <path class="cls-3" d="M593.16,919.75v31.98h-25.5v-34.09c0-11.04-8.95-20-20-20s-20,8.96-20,20v34.09h-25.5v-31.97c0-.42,0-.84.01-1.25.25-4.8,1.08-9.59,2.64-14.09,0-.02.01-.05.02-.07.03-.07.05-.13.08-.2.12-.35.25-.69.38-1.03.01-.02.02-.04.03-.06,3.61-9.04,10.1-16.78,18.35-21.96.56-.34,1.11-.68,1.68-1,.21-.12.42-.24.64-.36.39-.22.79-.43,1.19-.63.5-.26,1-.5,1.51-.73.33-.16.67-.31,1.01-.45.32-.14.63-.27.95-.4,4.8-1.97,10-3.11,15.44-3.25.52-.02,1.04-.03,1.57-.03.41,0,.82.01,1.23.01,9.13.15,17.37,3.02,24.21,7.76.31.21.62.42.92.65,9.45,6.91,16.08,17.44,18.47,29.24.44,2.55.67,5.17.67,7.84Z"/>
    <path class="cls-5" d="M902.15,900.73h-35.06c1.53-14.03-8.75-27.08-23.23-26.97h-42.88c-1.1-11.8-11.03-21.03-23.12-21.03h-43.85c1.79-17.79-10.94-33.7-29.13-33.7h-33.08c-14.9-30.38-46.13-51.3-82.24-51.3h-137.98c.12,6.99.22,15.3-1.92,22.09-.38,1.2.48,2.42,1.73,2.42h123.49c.39,0,.78-.01,1.17-.01.81,0,1.61.01,2.41.03.22.01.43.01.64.02.58.02,1.16.04,1.73.07.3.02.59.03.88.05.46.02.92.05,1.38.09.08.01.15.01.23.02.45.03.91.07,1.36.11,1.22.1,2.43.22,3.63.38.46.06.91.11,1.37.18.03,0,.07.01.1.01.3.04.6.08.9.13.54.08,1.08.16,1.62.25.68.11,1.37.23,2.05.35.77.14,1.53.29,2.28.45,1.68.35,3.34.74,4.99,1.17,3.3.87,6.55,1.89,9.72,3.07,1.59.58,3.16,1.21,4.71,1.87,1.55.66,3.09,1.36,4.61,2.1.75.37,1.5.74,2.25,1.13.75.38,1.49.77,2.23,1.18.74.4,1.47.81,2.2,1.23.57.33,1.14.66,1.71,1.01.34.2.68.4,1.01.62.07.04.14.08.21.13.31.18.62.37.92.57.05.03.09.06.14.09.22.14.44.28.66.42.41.26.82.53,1.23.81.13.08.27.17.4.26.16.11.33.22.49.33.49.33.97.66,1.45,1,.11.08.21.15.31.22.67.47,1.33.95,1.98,1.44.67.5,1.34,1,2,1.52,1.32,1.03,2.61,2.09,3.88,3.18.97.83,1.92,1.67,2.85,2.53.03.03.07.06.1.09.06.06.12.11.18.17.43.39.85.79,1.26,1.19.09.07.17.15.25.23.15.14.29.27.43.41l.68.68c.23.22.46.45.68.68.47.47.93.94,1.38,1.42.14.14.28.28.41.43.18.19.36.37.54.57.18.19.35.38.53.57l.05.05c.46.5.92,1.02,1.38,1.53.55.62,1.1,1.25,1.64,1.89.43.51.85,1.02,1.27,1.54.28.34.55.68.83,1.03.06.08.12.15.18.23.19.24.38.49.57.74.2.24.38.48.57.73.05.06.09.12.14.18.34.44.67.89,1,1.34.06.08.11.15.16.22.42.57.83,1.14,1.23,1.72.14.2.29.4.43.61.39.56.77,1.12,1.14,1.69.26.38.51.77.75,1.15.02.04.05.07.07.11.13.19.25.37.36.55.12.19.23.38.35.56.39.62.77,1.24,1.15,1.87.86,1.43,1.68,2.89,2.48,4.37.32.6.64,1.22.95,1.83.15.28.29.57.43.85.23.45.45.9.66,1.35.18.37.36.73.53,1.11.03.06.06.13.09.19.22.48.44.96.66,1.44.29.65.58,1.31.86,1.97.23.54.45,1.08.66,1.62.06.13.11.25.16.38.14.35.27.69.41,1.04.21.56.43,1.13.64,1.7.11.3.22.6.33.91.08.23.16.46.24.69.16.45.31.9.47,1.35.23.71.46,1.43.68,2.14.5,1.61.96,3.24,1.38,4.88.38,1.5.73,3,1.04,4.52.17.82.33,1.65.48,2.48h0c.08.46.16.9.23,1.35.08.42.15.84.21,1.27.04.25.08.51.11.76.09.56.16,1.13.23,1.69.05.35.1.7.13,1.05.05.35.09.69.12,1.04.01.1.02.19.03.29.04.39.08.79.12,1.18,0,.05.01.1.01.15.07.68.12,1.36.17,2.05.04.63.08,1.25.11,1.88.06,1.05.1,2.1.12,3.16.01.01.01.02,0,.03,0,.02.01.1.01.24.01.18.01.46.02.82v.35c.02,1.66.03,30.65.03,30.65h-87.93v24.52h308.99c14.09,0,25.51-11.42,25.5-25.5,0-14.09-11.42-25.5-25.5-25.5ZM807.07,925.56c-.9.12-1.83.18-2.78.18-4.66,0-15.81-3.14-25.86-6.3-6.32-1.99-6.32-10.91,0-12.9,10.05-3.16,21.2-6.3,25.86-6.3.95,0,1.88.06,2.78.18,8.07.98,14.22,6.24,14.22,12.57s-6.15,11.59-14.22,12.57Z"/>
  </g>
</svg>