<?xml version="1.0" encoding="UTF-8"?>
<svg id="Layer_2" data-name="Layer 2" xmlns="http://www.w3.org/2000/svg" xmlns:xlink="http://www.w3.org/1999/xlink" viewBox="0 0 749.29 776.82">
  <defs>
    <style>
      .cls-1 {
        fill: #ca572e;
      }

      .cls-1, .cls-2, .cls-3, .cls-4, .cls-5, .cls-6, .cls-7, .cls-8, .cls-9, .cls-10, .cls-11, .cls-12, .cls-13, .cls-14, .cls-15, .cls-16, .cls-17, .cls-18, .cls-19, .cls-20, .cls-21, .cls-22, .cls-23, .cls-24, .cls-25, .cls-26, .cls-27, .cls-28, .cls-29, .cls-30, .cls-31, .cls-32, .cls-33, .cls-34 {
        stroke-miterlimit: 10;
      }

      .cls-1, .cls-2, .cls-4, .cls-5, .cls-6, .cls-7, .cls-9, .cls-11, .cls-12, .cls-13, .cls-15, .cls-16, .cls-17, .cls-18, .cls-19, .cls-21, .cls-23, .cls-24, .cls-25, .cls-26, .cls-28, .cls-30, .cls-31, .cls-32, .cls-34 {
        stroke: #000;
      }

      .cls-1, .cls-4, .cls-5, .cls-7, .cls-9, .cls-13, .cls-17, .cls-18, .cls-21, .cls-23, .cls-24, .cls-25, .cls-26, .cls-28, .cls-30, .cls-32, .cls-33, .cls-34 {
        stroke-width: 2px;
      }

      .cls-2 {
        fill: #cb542d;
        stroke-width: 1.51px;
      }

      .cls-3 {
        fill: #4a8866;
      }

      .cls-3, .cls-8, .cls-10, .cls-14, .cls-20, .cls-22, .cls-27, .cls-29, .cls-33 {
        stroke: #241f1a;
      }

      .cls-3, .cls-8, .cls-10, .cls-14, .cls-22, .cls-29 {
        stroke-width: 1.97px;
      }

      .cls-4 {
        fill: #4a8a66;
      }

      .cls-5 {
        fill: #cc552b;
      }

      .cls-6 {
        fill: #3b69a0;
      }

      .cls-6, .cls-16 {
        stroke-width: 1.34px;
      }

      .cls-7 {
        fill: #e4d8a9;
      }

      .cls-8 {
        fill: #2d2625;
      }

      .cls-9 {
        fill: #e5d4a7;
      }

      .cls-10 {
        fill: #e5b441;
      }

      .cls-11 {
        fill: #2c2823;
        stroke-width: .53px;
      }

      .cls-35 {
        fill: #ecb63f;
      }

      .cls-12 {
        stroke-width: 1.45px;
      }

      .cls-12, .cls-23 {
        fill: #fefceb;
      }

      .cls-13 {
        fill: #2d2528;
      }

      .cls-14 {
        fill: #4b8c6b;
      }

      .cls-15 {
        fill: #fefcea;
        stroke-width: 1.42px;
      }

      .cls-16 {
        fill: #c7562d;
      }

      .cls-17 {
        fill: #4a8a67;
      }

      .cls-18 {
        fill: #2e2726;
      }

      .cls-19 {
        fill: #48896a;
        stroke-width: 1.49px;
      }

      .cls-20 {
        fill: #6b4e9d;
        stroke-width: 2px;
      }

      .cls-21 {
        fill: #fdfde9;
      }

      .cls-22 {
        fill: #5e5b97;
      }

      .cls-24 {
        fill: none;
      }

      .cls-25 {
        fill: #4a8b66;
      }

      .cls-26 {
        fill: #e5b336;
      }

      .cls-27 {
        fill: #cc572e;
        stroke-width: 2.01px;
      }

      .cls-28, .cls-36 {
        fill: #498b69;
      }

      .cls-29 {
        fill: #c55f2f;
      }

      .cls-30 {
        fill: #2e2625;
      }

      .cls-31 {
        fill: #2d2724;
        stroke-width: 1.3px;
      }

      .cls-37 {
        clip-path: url(#clippath);
      }

      .cls-32 {
        fill: #d05c32;
      }

      .cls-33 {
        fill: #3f6daf;
      }

      .cls-34 {
        fill: #e5b337;
      }
    </style>
    <clipPath id="clippath">
      <path class="cls-28" d="M530.22,428.22v99.22H69.53c-7.12,0-12.89-5.77-12.89-12.88v-212.34h137.27v99.35c0,14.72,11.93,26.65,26.65,26.65h309.66Z"/>
    </clipPath>
  </defs>
  <g id="Layer_39" data-name="Layer 39">
    <path class="cls-16" d="M140.91,48.34c-2.53.03-5.6.86-6.85-1.88-.45-.98-.48-2.11-.18-3.14.85-2.93,1.06-6.21,0-9.12-1.61-4.43-6.13-7.48-10.83-7.91.78,2.77.79,5.75.03,8.52-.26.95-.62,1.89-1.26,2.64-.71.83-1.71,1.35-2.68,1.86-2.42,1.28-4.79,2.65-7.1,4.09-1.9,1.19-3.81,2.46-5.21,4.22-3.17,3.98-3.17,9.62-2.25,14.62.5,2.7,1.24,5.39,2.66,7.74,2.01,3.32,5.3,5.77,8.94,7.12s7.61,1.66,11.47,1.3c.95-.09,1.91-.22,2.79-.58,1.04-.43,1.92-1.15,2.85-1.76,1.36-.89,2.86-1.57,4.3-2.33,6.65-3.55,15.45-8.51,11.8-19.13-1.1-3.19-3.8-5.69-7.14-6.16-.44-.06-.89-.09-1.34-.09Z"/>
    <rect class="cls-1" x="530.21" y="428.2" width="19.75" height="102.27"/>
    <g>
      <path class="cls-36" d="M530.22,428.22v99.22H69.53c-7.12,0-12.89-5.77-12.89-12.88v-212.34h137.27v99.35c0,14.72,11.93,26.65,26.65,26.65h309.66Z"/>
      <g class="cls-37">
        <g>
          <rect class="cls-23" x="101.44" y="458.35" width="64.21" height="125.28" rx="32.11" ry="32.11"/>
          <rect class="cls-30" x="110.88" y="466.55" width="45.34" height="98.67" rx="22.67" ry="22.67"/>
        </g>
        <g>
          <path class="cls-19" d="M365.04,490.68v37.55h-84.43v-37.55c0-23.31,18.9-42.21,42.22-42.21,11.65,0,22.21,4.72,29.85,12.36,7.64,7.64,12.36,18.2,12.36,29.85Z"/>
          <path class="cls-12" d="M365.04,490.68v8.31c-6.95,10.93-19.17,18.19-33.08,18.19h-18.27c-13.91,0-26.13-7.26-33.08-18.19v-8.31c0-23.31,18.9-42.21,42.22-42.21,11.65,0,22.21,4.72,29.85,12.36,7.64,7.64,12.36,18.2,12.36,29.85Z"/>
          <circle class="cls-31" cx="323.16" cy="485.75" r="22.78"/>
          <circle class="cls-23" cx="323.16" cy="485.75" r="10.81"/>
        </g>
        <g>
          <rect class="cls-32" x="164.08" y="303.4" width="64.21" height="125.28" rx="32.11" ry="32.11" transform="translate(-169.85 562.23) rotate(-90)"/>
          <rect class="cls-18" x="168.41" y="316.71" width="45.34" height="98.67" rx="22.67" ry="22.67" transform="translate(-174.96 557.13) rotate(-90)"/>
          <circle class="cls-21" cx="167.8" cy="366.04" r="10.86"/>
        </g>
        <rect class="cls-17" x="31.06" y="351.78" width="59.3" height="24.1" rx="12.05" ry="12.05" transform="translate(-173.78 79.1) rotate(-30)"/>
        <rect class="cls-34" x="31.06" y="379.78" width="59.3" height="24.1" rx="12.05" ry="12.05" transform="translate(-187.78 82.85) rotate(-30)"/>
        <rect class="cls-25" x="31.06" y="407.78" width="59.3" height="24.1" rx="12.05" ry="12.05" transform="translate(-201.78 86.6) rotate(-30)"/>
        <rect class="cls-4" x="32.72" y="435.79" width="59.3" height="24.1" rx="12.05" ry="12.05" transform="translate(-215.56 91.18) rotate(-30)"/>
      </g>
      <path class="cls-24" d="M530.22,428.22v99.22H69.53c-7.12,0-12.89-5.77-12.89-12.88v-212.34h137.27v99.35c0,14.72,11.93,26.65,26.65,26.65h309.66Z"/>
    </g>
    <path class="cls-26" d="M193.91,176.55v125.67H56.64v-125.67c0-1.27,1.04-2.31,2.31-2.31h132.65c1.27,0,2.31,1.04,2.31,2.31Z"/>
    <path class="cls-7" d="M648.92,327.15v124.02h-80.99v59.5h-17.96v-82.47h14.66c11.86,0,21.47-9.61,21.47-21.47v-79.58c0-1.92,1.56-3.48,3.48-3.48h55.86c1.92,0,3.48,1.56,3.48,3.48Z"/>
    <rect class="cls-7" x="549.97" y="451.17" width="17.96" height="59.5"/>
    <path class="cls-7" d="M648.92,451.17v39.05c0,11.3-9.16,20.45-20.45,20.45h-60.54v-59.5h80.99Z"/>
    <path class="cls-7" d="M648.92,327.15v124.02h-32.87v-127.5h29.39c1.92,0,3.48,1.56,3.48,3.48Z"/>
    <circle class="cls-9" cx="480.44" cy="476.76" r="33.91"/>
    <circle class="cls-15" cx="480.44" cy="478.2" r="24.16"/>
    <circle class="cls-11" cx="480.44" cy="476.76" r="8.99"/>
    <rect class="cls-34" x="5.44" y="528.23" width="740.61" height="197.24" rx="98.62" ry="98.62"/>
    <rect class="cls-5" x="56.64" y="283.51" width="137.27" height="18.71"/>
    <g>
      <rect class="cls-3" x="311.41" y="583.14" width="272.72" height="89.02"/>
      <path class="cls-10" d="M334.33,609.81c-8.56.9-11.96-2.67-11.02-11.14.28-4.61,4.43-6.87,8.67-6.53,3.66-.31,7.83,1.3,8.65,5.21,1.04,5.2.28,11.86-6.1,12.43l-.19.02Z"/>
      <path class="cls-29" d="M334.33,636.7c-8.56.9-11.96-2.67-11.02-11.14.28-4.61,4.43-6.87,8.67-6.53,3.66-.31,7.83,1.3,8.65,5.21,1.04,5.2.28,11.86-6.1,12.43l-.19.02Z"/>
      <path class="cls-29" d="M334.33,663.58c-8.56.9-11.96-2.67-11.02-11.14.28-4.61,4.43-6.87,8.67-6.53,3.66-.31,7.83,1.3,8.65,5.21,1.04,5.2.28,11.86-6.1,12.43l-.19.02Z"/>
      <path class="cls-22" d="M368.09,609.81c-8.56.9-11.96-2.67-11.02-11.14.28-4.61,4.43-6.87,8.67-6.53,3.66-.31,7.83,1.3,8.65,5.21,1.04,5.2.28,11.86-6.1,12.43l-.19.02Z"/>
      <path class="cls-29" d="M368.09,636.7c-8.56.9-11.96-2.67-11.02-11.14.28-4.61,4.43-6.87,8.67-6.53,3.66-.31,7.83,1.3,8.65,5.21,1.04,5.2.28,11.86-6.1,12.43l-.19.02Z"/>
      <path class="cls-10" d="M368.09,663.58c-8.56.9-11.96-2.67-11.02-11.14.28-4.61,4.43-6.87,8.67-6.53,3.66-.31,7.83,1.3,8.65,5.21,1.04,5.2.28,11.86-6.1,12.43l-.19.02Z"/>
      <path class="cls-14" d="M399.75,609.81c-8.56.9-11.96-2.67-11.02-11.14.28-4.61,4.43-6.87,8.67-6.53,3.66-.31,7.83,1.3,8.65,5.21,1.04,5.2.28,11.86-6.1,12.43l-.19.02Z"/>
      <path class="cls-29" d="M399.75,636.7c-8.56.9-11.96-2.67-11.02-11.14.28-4.61,4.43-6.87,8.67-6.53,3.66-.31,7.83,1.3,8.65,5.21,1.04,5.2.28,11.86-6.1,12.43l-.19.02Z"/>
      <path class="cls-22" d="M399.75,663.58c-8.56.9-11.96-2.67-11.02-11.14.28-4.61,4.43-6.87,8.67-6.53,3.66-.31,7.83,1.3,8.65,5.21,1.04,5.2.28,11.86-6.1,12.43l-.19.02Z"/>
      <path class="cls-22" d="M435.6,609.81c-8.56.9-11.96-2.67-11.02-11.14.28-4.61,4.43-6.87,8.67-6.53,3.66-.31,7.83,1.3,8.65,5.21,1.04,5.2.28,11.86-6.1,12.43l-.19.02Z"/>
      <path class="cls-22" d="M435.6,636.7c-8.56.9-11.96-2.67-11.02-11.14.28-4.61,4.43-6.87,8.67-6.53,3.66-.31,7.83,1.3,8.65,5.21,1.04,5.2.28,11.86-6.1,12.43l-.19.02Z"/>
      <path class="cls-22" d="M435.6,663.58c-8.56.9-11.96-2.67-11.02-11.14.28-4.61,4.43-6.87,8.67-6.53,3.66-.31,7.83,1.3,8.65,5.21,1.04,5.2.28,11.86-6.1,12.43l-.19.02Z"/>
      <path class="cls-22" d="M475.1,609.81c-8.56.9-11.96-2.67-11.02-11.14.28-4.61,4.43-6.87,8.67-6.53,3.66-.31,7.83,1.3,8.65,5.21,1.04,5.2.28,11.86-6.1,12.43l-.19.02Z"/>
      <path class="cls-10" d="M475.1,636.7c-8.56.9-11.96-2.67-11.02-11.14.28-4.61,4.43-6.87,8.67-6.53,3.66-.31,7.83,1.3,8.65,5.21,1.04,5.2.28,11.86-6.1,12.43l-.19.02Z"/>
      <path class="cls-22" d="M475.1,663.58c-8.56.9-11.96-2.67-11.02-11.14.28-4.61,4.43-6.87,8.67-6.53,3.66-.31,7.83,1.3,8.65,5.21,1.04,5.2.28,11.86-6.1,12.43l-.19.02Z"/>
      <path class="cls-3" d="M507.28,609.81c-8.56.9-11.96-2.67-11.02-11.14.28-4.61,4.43-6.87,8.67-6.53,3.66-.31,7.83,1.3,8.65,5.21,1.04,5.2.28,11.86-6.1,12.43l-.19.02Z"/>
      <path class="cls-22" d="M507.28,636.7c-8.56.9-11.96-2.67-11.02-11.14.28-4.61,4.43-6.87,8.67-6.53,3.66-.31,7.83,1.3,8.65,5.21,1.04,5.2.28,11.86-6.1,12.43l-.19.02Z"/>
      <path class="cls-3" d="M507.28,663.58c-8.56.9-11.96-2.67-11.02-11.14.28-4.61,4.43-6.87,8.67-6.53,3.66-.31,7.83,1.3,8.65,5.21,1.04,5.2.28,11.86-6.1,12.43l-.19.02Z"/>
      <path class="cls-3" d="M540.69,609.81c-8.56.9-11.96-2.67-11.02-11.14.28-4.61,4.43-6.87,8.67-6.53,3.66-.31,7.83,1.3,8.65,5.21,1.04,5.2.28,11.86-6.1,12.43l-.19.02Z"/>
      <path class="cls-3" d="M540.69,636.7c-8.56.9-11.96-2.67-11.02-11.14.28-4.61,4.43-6.87,8.67-6.53,3.66-.31,7.83,1.3,8.65,5.21,1.04,5.2.28,11.86-6.1,12.43l-.19.02Z"/>
      <path class="cls-3" d="M540.69,663.58c-8.56.9-11.96-2.67-11.02-11.14.28-4.61,4.43-6.87,8.67-6.53,3.66-.31,7.83,1.3,8.65,5.21,1.04,5.2.28,11.86-6.1,12.43l-.19.02Z"/>
      <path class="cls-3" d="M570.62,609.81c-8.56.9-11.96-2.67-11.02-11.14.28-4.61,4.43-6.87,8.67-6.53,3.66-.31,7.83,1.3,8.65,5.21,1.04,5.2.28,11.86-6.1,12.43l-.19.02Z"/>
      <path class="cls-3" d="M570.62,636.7c-8.56.9-11.96-2.67-11.02-11.14.28-4.61,4.43-6.87,8.67-6.53,3.66-.31,7.83,1.3,8.65,5.21,1.04,5.2.28,11.86-6.1,12.43l-.19.02Z"/>
      <path class="cls-3" d="M570.62,663.58c-8.56.9-11.96-2.67-11.02-11.14.28-4.61,4.43-6.87,8.67-6.53,3.66-.31,7.83,1.3,8.65,5.21,1.04,5.2.28,11.86-6.1,12.43l-.19.02Z"/>
    </g>
    <circle class="cls-13" cx="98.37" cy="188.36" r="4.91"/>
    <circle class="cls-13" cx="125.27" cy="188.36" r="4.91"/>
    <circle class="cls-13" cx="152.17" cy="188.36" r="4.91"/>
    <circle class="cls-13" cx="71.47" cy="188.36" r="4.91"/>
    <circle class="cls-13" cx="179.07" cy="188.36" r="4.91"/>
    <path class="cls-2" d="M127.46,174.24h-11.77c-19.17,0-35.34-14.27-37.71-33.29l-8.98-71.87h105.17l-8.98,71.87c-2.38,19.02-18.55,33.29-37.71,33.29Z"/>
    <rect class="cls-6" x="63.3" y="59.5" width="116.55" height="9.57" rx="4.79" ry="4.79"/>
    <path class="cls-35" d="M110.34,36.54c0-16.24-2.03-18.27-18.27-18.27,16.24,0,18.27-2.03,18.27-18.27,0,16.24,2.03,18.27,18.27,18.27-16.24,0-18.27,2.03-18.27,18.27Z"/>
    <polyline class="cls-33" points="605.67 323.98 615.89 334.2 626.42 323.67"/>
    <path class="cls-27" d="M642.26,736.21H119.2v-20.89c0-5.39,4.37-9.77,9.77-9.77l333.84.96c6.48,0,12.69-2.56,17.29-7.12,39.87-39.6,82.65-78.42,134.76-113.25,11.7-7.82,27.4.56,27.4,14.63v135.44Z"/>
    <path class="cls-8" d="M535.39,711.44h67.65c5.26,0,9.52-4.26,9.52-9.52v-49.98c0-10.52-8.53-19.05-19.05-19.05h-22.15c-16.58,11.28-31.67,24.37-45.5,39v30.03c0,5.26,4.26,9.52,9.52,9.52Z"/>
    <rect class="cls-20" x="1" y="724.06" width="747.3" height="51.76" rx="6.15" ry="6.15"/>
  </g>
</svg>