<?xml version="1.0" encoding="UTF-8"?>
<svg id="Layer_2" data-name="Layer 2" xmlns="http://www.w3.org/2000/svg" xmlns:xlink="http://www.w3.org/1999/xlink" viewBox="0 0 319.98 266.16">
  <defs>
    <style>
      .cls-1 {
        fill: #f5cba8;
      }

      .cls-1, .cls-2, .cls-3, .cls-4, .cls-5, .cls-6, .cls-7, .cls-8, .cls-9, .cls-10, .cls-11, .cls-12, .cls-13, .cls-14 {
        stroke-miterlimit: 10;
      }

      .cls-1, .cls-2, .cls-3, .cls-4, .cls-15, .cls-7, .cls-9, .cls-10, .cls-11, .cls-12, .cls-13, .cls-14 {
        stroke-linecap: round;
      }

      .cls-1, .cls-2, .cls-3, .cls-4, .cls-7, .cls-8, .cls-9, .cls-10, .cls-11, .cls-12, .cls-13, .cls-14 {
        stroke: #010101;
      }

      .cls-1, .cls-3, .cls-4, .cls-7, .cls-9, .cls-10, .cls-11, .cls-12, .cls-13, .cls-14 {
        stroke-width: 1.26px;
      }

      .cls-2, .cls-8 {
        fill: #f19620;
        stroke-width: .63px;
      }

      .cls-3, .cls-5, .cls-6 {
        fill: none;
      }

      .cls-16 {
        fill: #edc4a3;
      }

      .cls-17 {
        fill: #010101;
      }

      .cls-4 {
        fill: #6a6e99;
      }

      .cls-5 {
        stroke-width: 6px;
      }

      .cls-5, .cls-15, .cls-6 {
        stroke: #fff;
      }

      .cls-15 {
        stroke-linejoin: round;
      }

      .cls-15, .cls-6 {
        stroke-width: 9.45px;
      }

      .cls-15, .cls-18 {
        fill: #fff;
      }

      .cls-7 {
        fill: #6b719b;
      }

      .cls-9 {
        fill: #e58624;
      }

      .cls-10 {
        fill: #8fa864;
      }

      .cls-11 {
        fill: #f4bfa4;
      }

      .cls-19, .cls-12 {
        fill: #f2ae1d;
      }

      .cls-20 {
        clip-path: url(#clippath);
      }

      .cls-13 {
        fill: #649e9f;
      }

      .cls-14 {
        fill: #f1b8a3;
      }
    </style>
    <clipPath id="clippath">
      <path class="cls-12" d="M34.98,172.25c.22,9.2,7.68,16.6,16.9,16.7h117.17c15.64.19,31.23,3.83,44.81,11.71,5.5,3.27,11.25,6.99,14.12,12.9,2.72,5.4,1.83,12.53-1.94,17.06-8.13,9.48-28.63,11.47-40.59,11.8h-120.02c-5.68,0-10.29,4.61-10.29,10.29v6.17c0,1.41,1.14,2.55,2.55,2.55h259.12c1.4,0,2.54-1.14,2.54-2.54V102.44c0-23.01-13.49-42.87-33-52.09,1.4,2.03,2.22,4.5,2.22,7.15,0,3.97-1.61,7.56-4.2,10.16s-6.18,4.2-10.15,4.2c-18.07-10.14-34.68-12.5-48.51,0,6.45,5.64,10.52,13.94,10.52,23.17v46.43c0,9.46-4.26,17.91-10.97,23.55-5.36,4.51-12.27,7.23-19.81,7.23H34.98Z"/>
    </clipPath>
  </defs>
  <g id="_3" data-name="3">
    <g id="WigglyTooth">
      <g>
        <g>
          <g>
            <circle class="cls-3" cx="24.33" cy="126.78" r="23.7" transform="translate(-63.02 31.72) rotate(-31.72)"/>
            <path class="cls-3" d="M41.78,165.02h183.48c6.71-5.64,10.97-14.1,10.97-23.55v-46.43c0-6.78-2.2-13.05-5.92-18.14-1.58-1.58-3.34-3.33-5.4-5.04H41.11c-3.39,0-6.14-2.75-6.14-6.14v-5.39c0-8.55,6.93-15.48,15.48-15.48h20.49c-7.08-4.1-11.85-11.75-11.85-20.52,0-13.09,10.61-23.7,23.7-23.7s23.7,10.61,23.7,23.7c0,8.77-4.77,16.42-11.85,20.52h167.11c8.8,0,17.13,1.97,24.59,5.5,19.51,9.22,33,29.08,33,52.09v156.46c0,1.4-1.14,2.54-2.54,2.54H57.69c-1.41,0-2.55-1.14-2.55-2.55v-6.17c0-5.68,4.61-10.29,10.29-10.29h93.91l18.92-23.77c5.76-7.23,4.56-17.76-2.67-23.51l-7.77-6.19H51.88c-9.22-.1-16.68-7.5-16.9-16.7,0-.13,0-.27,0-.42,0-1.88.77-3.58,1.99-4.82,1.24-1.23,2.94-1.99,4.82-1.99Z"/>
          </g>
          <g>
            <circle class="cls-18" cx="24.33" cy="126.78" r="23.7" transform="translate(-63.02 31.72) rotate(-31.72)"/>
            <path class="cls-18" d="M41.78,165.02h183.48c6.71-5.64,10.97-14.1,10.97-23.55v-46.43c0-6.78-2.2-13.05-5.92-18.14-1.58-1.58-3.34-3.33-5.4-5.04H41.11c-3.39,0-6.14-2.75-6.14-6.14v-5.39c0-8.55,6.93-15.48,15.48-15.48h20.49c-7.08-4.1-11.85-11.75-11.85-20.52,0-13.09,10.61-23.7,23.7-23.7s23.7,10.61,23.7,23.7c0,8.77-4.77,16.42-11.85,20.52h167.11c8.8,0,17.13,1.97,24.59,5.5,19.51,9.22,33,29.08,33,52.09v156.46c0,1.4-1.14,2.54-2.54,2.54H57.69c-1.41,0-2.55-1.14-2.55-2.55v-6.17c0-5.68,4.61-10.29,10.29-10.29h93.91l18.92-23.77c5.76-7.23,4.56-17.76-2.67-23.51l-7.77-6.19H51.88c-9.22-.1-16.68-7.5-16.9-16.7,0-.13,0-.27,0-.42,0-1.88.77-3.58,1.99-4.82,1.24-1.23,2.94-1.99,4.82-1.99Z"/>
          </g>
          <g>
            <circle class="cls-6" cx="24.33" cy="126.78" r="23.7" transform="translate(-63.02 31.72) rotate(-31.72)"/>
            <path class="cls-6" d="M41.78,165.02h183.48c6.71-5.64,10.97-14.1,10.97-23.55v-46.43c0-6.78-2.2-13.05-5.92-18.14-1.58-1.58-3.34-3.33-5.4-5.04H41.11c-3.39,0-6.14-2.75-6.14-6.14v-5.39c0-8.55,6.93-15.48,15.48-15.48h20.49c-7.08-4.1-11.85-11.75-11.85-20.52,0-13.09,10.61-23.7,23.7-23.7s23.7,10.61,23.7,23.7c0,8.77-4.77,16.42-11.85,20.52h167.11c8.8,0,17.13,1.97,24.59,5.5,19.51,9.22,33,29.08,33,52.09v156.46c0,1.4-1.14,2.54-2.54,2.54H57.69c-1.41,0-2.55-1.14-2.55-2.55v-6.17c0-5.68,4.61-10.29,10.29-10.29h93.91l18.92-23.77c5.76-7.23,4.56-17.76-2.67-23.51l-7.77-6.19H51.88c-9.22-.1-16.68-7.5-16.9-16.7,0-.13,0-.27,0-.42,0-1.88.77-3.58,1.99-4.82,1.24-1.23,2.94-1.99,4.82-1.99Z"/>
          </g>
        </g>
        <g>
          <g>
            <path class="cls-2" d="M214.91,84.77v-14.31h2.06v14.31c2.23.47,3.91,2.45,3.91,4.83,0,2.73-2.21,4.94-4.94,4.94s-4.94-2.21-4.94-4.94c0-2.37,1.68-4.35,3.91-4.83Z"/>
            <path class="cls-2" d="M201.1,84.77v-14.31h2.06v14.31c2.23.47,3.91,2.45,3.91,4.83,0,2.73-2.21,4.94-4.94,4.94s-4.94-2.21-4.94-4.94c0-2.37,1.68-4.35,3.91-4.83Z"/>
            <path class="cls-2" d="M187.29,84.77v-14.31h2.06v14.31c2.23.47,3.91,2.45,3.91,4.83,0,2.73-2.21,4.94-4.94,4.94s-4.94-2.21-4.94-4.94c0-2.37,1.68-4.35,3.91-4.83Z"/>
            <path class="cls-2" d="M173.48,84.77v-14.31h2.06v14.31c2.23.47,3.91,2.45,3.91,4.83,0,2.73-2.21,4.94-4.94,4.94s-4.94-2.21-4.94-4.94c0-2.37,1.68-4.35,3.91-4.83Z"/>
            <path class="cls-2" d="M159.67,84.77v-14.31h2.06v14.31c2.23.47,3.91,2.45,3.91,4.83,0,2.73-2.21,4.94-4.94,4.94s-4.94-2.21-4.94-4.94c0-2.37,1.68-4.35,3.91-4.83Z"/>
            <path class="cls-2" d="M145.86,84.77v-14.31h2.06v14.31c2.23.47,3.91,2.45,3.91,4.83,0,2.73-2.21,4.94-4.94,4.94s-4.94-2.21-4.94-4.94c0-2.37,1.68-4.35,3.91-4.83Z"/>
            <path class="cls-2" d="M132.05,84.77v-14.31h2.06v14.31c2.23.47,3.91,2.45,3.91,4.83,0,2.73-2.21,4.94-4.94,4.94s-4.94-2.21-4.94-4.94c0-2.37,1.68-4.35,3.91-4.83Z"/>
            <path class="cls-2" d="M118.24,84.77v-14.31h2.06v14.31c2.23.47,3.91,2.45,3.91,4.83,0,2.73-2.21,4.94-4.94,4.94s-4.94-2.21-4.94-4.94c0-2.37,1.68-4.35,3.91-4.83Z"/>
            <path class="cls-2" d="M104.43,84.77v-14.31h2.06v14.31c2.23.47,3.91,2.45,3.91,4.83,0,2.73-2.21,4.94-4.94,4.94s-4.94-2.21-4.94-4.94c0-2.37,1.68-4.35,3.91-4.83Z"/>
            <path class="cls-2" d="M90.62,84.77v-14.31h2.06v14.31c2.23.47,3.91,2.45,3.91,4.83,0,2.73-2.21,4.94-4.94,4.94s-4.94-2.21-4.94-4.94c0-2.37,1.68-4.35,3.91-4.83Z"/>
            <path class="cls-2" d="M76.81,84.77v-14.31h2.06v14.31c2.23.47,3.91,2.45,3.91,4.83,0,2.73-2.21,4.94-4.94,4.94s-4.94-2.21-4.94-4.94c0-2.37,1.68-4.35,3.91-4.83Z"/>
            <path class="cls-2" d="M63,84.77v-14.31h2.06v14.31c2.23.47,3.91,2.45,3.91,4.83,0,2.73-2.21,4.94-4.94,4.94s-4.94-2.21-4.94-4.94c0-2.37,1.68-4.35,3.91-4.83Z"/>
            <path class="cls-2" d="M50.22,94.53c-2.73,0-4.94-2.21-4.94-4.94,0-2.37,1.68-4.35,3.91-4.83v-14.31h2.06v14.31c2.23.47,3.91,2.45,3.91,4.83,0,2.73-2.21,4.94-4.94,4.94Z"/>
            <path class="cls-2" d="M215.94,142.74c2.73,0,4.94,2.21,4.94,4.94,0,2.37-1.68,4.35-3.91,4.83v14.31h-2.06v-14.31c-2.23-.47-3.91-2.45-3.91-4.83,0-2.73,2.21-4.94,4.94-4.94Z"/>
            <path class="cls-2" d="M202.13,142.74c2.73,0,4.94,2.21,4.94,4.94,0,2.37-1.68,4.35-3.91,4.83v14.31h-2.06v-14.31c-2.23-.47-3.91-2.45-3.91-4.83,0-2.73,2.21-4.94,4.94-4.94Z"/>
            <path class="cls-2" d="M188.32,142.74c2.73,0,4.94,2.21,4.94,4.94,0,2.37-1.68,4.35-3.91,4.83v14.31h-2.06v-14.31c-2.23-.47-3.91-2.45-3.91-4.83,0-2.73,2.21-4.94,4.94-4.94Z"/>
            <path class="cls-2" d="M174.51,142.74c2.73,0,4.94,2.21,4.94,4.94,0,2.37-1.68,4.35-3.91,4.83v14.31h-2.06v-14.31c-2.23-.47-3.91-2.45-3.91-4.83,0-2.73,2.21-4.94,4.94-4.94Z"/>
            <path class="cls-2" d="M160.7,142.74c2.73,0,4.94,2.21,4.94,4.94,0,2.37-1.68,4.35-3.91,4.83v14.31h-2.06v-14.31c-2.23-.47-3.91-2.45-3.91-4.83,0-2.73,2.21-4.94,4.94-4.94Z"/>
            <path class="cls-2" d="M146.89,142.74c2.73,0,4.94,2.21,4.94,4.94,0,2.37-1.68,4.35-3.91,4.83v14.31h-2.06v-14.31c-2.23-.47-3.91-2.45-3.91-4.83,0-2.73,2.21-4.94,4.94-4.94Z"/>
            <path class="cls-2" d="M133.08,142.74c2.73,0,4.94,2.21,4.94,4.94,0,2.37-1.68,4.35-3.91,4.83v14.31h-2.06v-14.31c-2.23-.47-3.91-2.45-3.91-4.83,0-2.73,2.21-4.94,4.94-4.94Z"/>
            <path class="cls-2" d="M119.27,142.74c2.73,0,4.94,2.21,4.94,4.94,0,2.37-1.68,4.35-3.91,4.83v14.31h-2.06v-14.31c-2.23-.47-3.91-2.45-3.91-4.83,0-2.73,2.21-4.94,4.94-4.94Z"/>
            <path class="cls-2" d="M105.46,142.74c2.73,0,4.94,2.21,4.94,4.94,0,2.37-1.68,4.35-3.91,4.83v14.31h-2.06v-14.31c-2.23-.47-3.91-2.45-3.91-4.83,0-2.73,2.21-4.94,4.94-4.94Z"/>
            <path class="cls-2" d="M91.65,142.74c2.73,0,4.94,2.21,4.94,4.94,0,2.37-1.68,4.35-3.91,4.83v14.31h-2.06v-14.31c-2.23-.47-3.91-2.45-3.91-4.83,0-2.73,2.21-4.94,4.94-4.94Z"/>
            <path class="cls-2" d="M77.84,142.74c2.73,0,4.94,2.21,4.94,4.94,0,2.37-1.68,4.35-3.91,4.83v14.31h-2.06v-14.31c-2.23-.47-3.91-2.45-3.91-4.83,0-2.73,2.21-4.94,4.94-4.94Z"/>
            <path class="cls-2" d="M64.03,142.74c2.73,0,4.94,2.21,4.94,4.94,0,2.37-1.68,4.35-3.91,4.83v14.31h-2.06v-14.31c-2.23-.47-3.91-2.45-3.91-4.83,0-2.73,2.21-4.94,4.94-4.94Z"/>
            <path class="cls-2" d="M50.22,142.74c2.73,0,4.94,2.21,4.94,4.94,0,2.37-1.68,4.35-3.91,4.83v14.31h-2.06v-14.31c-2.23-.47-3.91-2.45-3.91-4.83,0-2.73,2.21-4.94,4.94-4.94Z"/>
          </g>
          <g>
            <path class="cls-18" d="M214.91,84.77v-14.31h2.06v14.31c2.23.47,3.91,2.45,3.91,4.83,0,2.73-2.21,4.94-4.94,4.94s-4.94-2.21-4.94-4.94c0-2.37,1.68-4.35,3.91-4.83Z"/>
            <path class="cls-18" d="M201.1,84.77v-14.31h2.06v14.31c2.23.47,3.91,2.45,3.91,4.83,0,2.73-2.21,4.94-4.94,4.94s-4.94-2.21-4.94-4.94c0-2.37,1.68-4.35,3.91-4.83Z"/>
            <path class="cls-18" d="M187.29,84.77v-14.31h2.06v14.31c2.23.47,3.91,2.45,3.91,4.83,0,2.73-2.21,4.94-4.94,4.94s-4.94-2.21-4.94-4.94c0-2.37,1.68-4.35,3.91-4.83Z"/>
            <path class="cls-18" d="M173.48,84.77v-14.31h2.06v14.31c2.23.47,3.91,2.45,3.91,4.83,0,2.73-2.21,4.94-4.94,4.94s-4.94-2.21-4.94-4.94c0-2.37,1.68-4.35,3.91-4.83Z"/>
            <path class="cls-18" d="M159.67,84.77v-14.31h2.06v14.31c2.23.47,3.91,2.45,3.91,4.83,0,2.73-2.21,4.94-4.94,4.94s-4.94-2.21-4.94-4.94c0-2.37,1.68-4.35,3.91-4.83Z"/>
            <path class="cls-18" d="M145.86,84.77v-14.31h2.06v14.31c2.23.47,3.91,2.45,3.91,4.83,0,2.73-2.21,4.94-4.94,4.94s-4.94-2.21-4.94-4.94c0-2.37,1.68-4.35,3.91-4.83Z"/>
            <path class="cls-18" d="M132.05,84.77v-14.31h2.06v14.31c2.23.47,3.91,2.45,3.91,4.83,0,2.73-2.21,4.94-4.94,4.94s-4.94-2.21-4.94-4.94c0-2.37,1.68-4.35,3.91-4.83Z"/>
            <path class="cls-18" d="M118.24,84.77v-14.31h2.06v14.31c2.23.47,3.91,2.45,3.91,4.83,0,2.73-2.21,4.94-4.94,4.94s-4.94-2.21-4.94-4.94c0-2.37,1.68-4.35,3.91-4.83Z"/>
            <path class="cls-18" d="M104.43,84.77v-14.31h2.06v14.31c2.23.47,3.91,2.45,3.91,4.83,0,2.73-2.21,4.94-4.94,4.94s-4.94-2.21-4.94-4.94c0-2.37,1.68-4.35,3.91-4.83Z"/>
            <path class="cls-18" d="M90.62,84.77v-14.31h2.06v14.31c2.23.47,3.91,2.45,3.91,4.83,0,2.73-2.21,4.94-4.94,4.94s-4.94-2.21-4.94-4.94c0-2.37,1.68-4.35,3.91-4.83Z"/>
            <path class="cls-18" d="M76.81,84.77v-14.31h2.06v14.31c2.23.47,3.91,2.45,3.91,4.83,0,2.73-2.21,4.94-4.94,4.94s-4.94-2.21-4.94-4.94c0-2.37,1.68-4.35,3.91-4.83Z"/>
            <path class="cls-18" d="M63,84.77v-14.31h2.06v14.31c2.23.47,3.91,2.45,3.91,4.83,0,2.73-2.21,4.94-4.94,4.94s-4.94-2.21-4.94-4.94c0-2.37,1.68-4.35,3.91-4.83Z"/>
            <path class="cls-18" d="M50.22,94.53c-2.73,0-4.94-2.21-4.94-4.94,0-2.37,1.68-4.35,3.91-4.83v-14.31h2.06v14.31c2.23.47,3.91,2.45,3.91,4.83,0,2.73-2.21,4.94-4.94,4.94Z"/>
            <path class="cls-18" d="M215.94,142.74c2.73,0,4.94,2.21,4.94,4.94,0,2.37-1.68,4.35-3.91,4.83v14.31h-2.06v-14.31c-2.23-.47-3.91-2.45-3.91-4.83,0-2.73,2.21-4.94,4.94-4.94Z"/>
            <path class="cls-18" d="M202.13,142.74c2.73,0,4.94,2.21,4.94,4.94,0,2.37-1.68,4.35-3.91,4.83v14.31h-2.06v-14.31c-2.23-.47-3.91-2.45-3.91-4.83,0-2.73,2.21-4.94,4.94-4.94Z"/>
            <path class="cls-18" d="M188.32,142.74c2.73,0,4.94,2.21,4.94,4.94,0,2.37-1.68,4.35-3.91,4.83v14.31h-2.06v-14.31c-2.23-.47-3.91-2.45-3.91-4.83,0-2.73,2.21-4.94,4.94-4.94Z"/>
            <path class="cls-18" d="M174.51,142.74c2.73,0,4.94,2.21,4.94,4.94,0,2.37-1.68,4.35-3.91,4.83v14.31h-2.06v-14.31c-2.23-.47-3.91-2.45-3.91-4.83,0-2.73,2.21-4.94,4.94-4.94Z"/>
            <path class="cls-18" d="M160.7,142.74c2.73,0,4.94,2.21,4.94,4.94,0,2.37-1.68,4.35-3.91,4.83v14.31h-2.06v-14.31c-2.23-.47-3.91-2.45-3.91-4.83,0-2.73,2.21-4.94,4.94-4.94Z"/>
            <path class="cls-18" d="M146.89,142.74c2.73,0,4.94,2.21,4.94,4.94,0,2.37-1.68,4.35-3.91,4.83v14.31h-2.06v-14.31c-2.23-.47-3.91-2.45-3.91-4.83,0-2.73,2.21-4.94,4.94-4.94Z"/>
            <path class="cls-18" d="M133.08,142.74c2.73,0,4.94,2.21,4.94,4.94,0,2.37-1.68,4.35-3.91,4.83v14.31h-2.06v-14.31c-2.23-.47-3.91-2.45-3.91-4.83,0-2.73,2.21-4.94,4.94-4.94Z"/>
            <path class="cls-18" d="M119.27,142.74c2.73,0,4.94,2.21,4.94,4.94,0,2.37-1.68,4.35-3.91,4.83v14.31h-2.06v-14.31c-2.23-.47-3.91-2.45-3.91-4.83,0-2.73,2.21-4.94,4.94-4.94Z"/>
            <path class="cls-18" d="M105.46,142.74c2.73,0,4.94,2.21,4.94,4.94,0,2.37-1.68,4.35-3.91,4.83v14.31h-2.06v-14.31c-2.23-.47-3.91-2.45-3.91-4.83,0-2.73,2.21-4.94,4.94-4.94Z"/>
            <path class="cls-18" d="M91.65,142.74c2.73,0,4.94,2.21,4.94,4.94,0,2.37-1.68,4.35-3.91,4.83v14.31h-2.06v-14.31c-2.23-.47-3.91-2.45-3.91-4.83,0-2.73,2.21-4.94,4.94-4.94Z"/>
            <path class="cls-18" d="M77.84,142.74c2.73,0,4.94,2.21,4.94,4.94,0,2.37-1.68,4.35-3.91,4.83v14.31h-2.06v-14.31c-2.23-.47-3.91-2.45-3.91-4.83,0-2.73,2.21-4.94,4.94-4.94Z"/>
            <path class="cls-18" d="M64.03,142.74c2.73,0,4.94,2.21,4.94,4.94,0,2.37-1.68,4.35-3.91,4.83v14.31h-2.06v-14.31c-2.23-.47-3.91-2.45-3.91-4.83,0-2.73,2.21-4.94,4.94-4.94Z"/>
            <path class="cls-18" d="M50.22,142.74c2.73,0,4.94,2.21,4.94,4.94,0,2.37-1.68,4.35-3.91,4.83v14.31h-2.06v-14.31c-2.23-.47-3.91-2.45-3.91-4.83,0-2.73,2.21-4.94,4.94-4.94Z"/>
          </g>
          <g>
            <path class="cls-5" d="M214.91,84.77v-14.31h2.06v14.31c2.23.47,3.91,2.45,3.91,4.83,0,2.73-2.21,4.94-4.94,4.94s-4.94-2.21-4.94-4.94c0-2.37,1.68-4.35,3.91-4.83Z"/>
            <path class="cls-5" d="M201.1,84.77v-14.31h2.06v14.31c2.23.47,3.91,2.45,3.91,4.83,0,2.73-2.21,4.94-4.94,4.94s-4.94-2.21-4.94-4.94c0-2.37,1.68-4.35,3.91-4.83Z"/>
            <path class="cls-5" d="M187.29,84.77v-14.31h2.06v14.31c2.23.47,3.91,2.45,3.91,4.83,0,2.73-2.21,4.94-4.94,4.94s-4.94-2.21-4.94-4.94c0-2.37,1.68-4.35,3.91-4.83Z"/>
            <path class="cls-5" d="M173.48,84.77v-14.31h2.06v14.31c2.23.47,3.91,2.45,3.91,4.83,0,2.73-2.21,4.94-4.94,4.94s-4.94-2.21-4.94-4.94c0-2.37,1.68-4.35,3.91-4.83Z"/>
            <path class="cls-5" d="M159.67,84.77v-14.31h2.06v14.31c2.23.47,3.91,2.45,3.91,4.83,0,2.73-2.21,4.94-4.94,4.94s-4.94-2.21-4.94-4.94c0-2.37,1.68-4.35,3.91-4.83Z"/>
            <path class="cls-5" d="M145.86,84.77v-14.31h2.06v14.31c2.23.47,3.91,2.45,3.91,4.83,0,2.73-2.21,4.94-4.94,4.94s-4.94-2.21-4.94-4.94c0-2.37,1.68-4.35,3.91-4.83Z"/>
            <path class="cls-5" d="M132.05,84.77v-14.31h2.06v14.31c2.23.47,3.91,2.45,3.91,4.83,0,2.73-2.21,4.94-4.94,4.94s-4.94-2.21-4.94-4.94c0-2.37,1.68-4.35,3.91-4.83Z"/>
            <path class="cls-5" d="M118.24,84.77v-14.31h2.06v14.31c2.23.47,3.91,2.45,3.91,4.83,0,2.73-2.21,4.94-4.94,4.94s-4.94-2.21-4.94-4.94c0-2.37,1.68-4.35,3.91-4.83Z"/>
            <path class="cls-5" d="M104.43,84.77v-14.31h2.06v14.31c2.23.47,3.91,2.45,3.91,4.83,0,2.73-2.21,4.94-4.94,4.94s-4.94-2.21-4.94-4.94c0-2.37,1.68-4.35,3.91-4.83Z"/>
            <path class="cls-5" d="M90.62,84.77v-14.31h2.06v14.31c2.23.47,3.91,2.45,3.91,4.83,0,2.73-2.21,4.94-4.94,4.94s-4.94-2.21-4.94-4.94c0-2.37,1.68-4.35,3.91-4.83Z"/>
            <path class="cls-5" d="M76.81,84.77v-14.31h2.06v14.31c2.23.47,3.91,2.45,3.91,4.83,0,2.73-2.21,4.94-4.94,4.94s-4.94-2.21-4.94-4.94c0-2.37,1.68-4.35,3.91-4.83Z"/>
            <path class="cls-5" d="M63,84.77v-14.31h2.06v14.31c2.23.47,3.91,2.45,3.91,4.83,0,2.73-2.21,4.94-4.94,4.94s-4.94-2.21-4.94-4.94c0-2.37,1.68-4.35,3.91-4.83Z"/>
            <path class="cls-5" d="M50.22,94.53c-2.73,0-4.94-2.21-4.94-4.94,0-2.37,1.68-4.35,3.91-4.83v-14.31h2.06v14.31c2.23.47,3.91,2.45,3.91,4.83,0,2.73-2.21,4.94-4.94,4.94Z"/>
            <path class="cls-5" d="M215.94,142.74c2.73,0,4.94,2.21,4.94,4.94,0,2.37-1.68,4.35-3.91,4.83v14.31h-2.06v-14.31c-2.23-.47-3.91-2.45-3.91-4.83,0-2.73,2.21-4.94,4.94-4.94Z"/>
            <path class="cls-5" d="M202.13,142.74c2.73,0,4.94,2.21,4.94,4.94,0,2.37-1.68,4.35-3.91,4.83v14.31h-2.06v-14.31c-2.23-.47-3.91-2.45-3.91-4.83,0-2.73,2.21-4.94,4.94-4.94Z"/>
            <path class="cls-5" d="M188.32,142.74c2.73,0,4.94,2.21,4.94,4.94,0,2.37-1.68,4.35-3.91,4.83v14.31h-2.06v-14.31c-2.23-.47-3.91-2.45-3.91-4.83,0-2.73,2.21-4.94,4.94-4.94Z"/>
            <path class="cls-5" d="M174.51,142.74c2.73,0,4.94,2.21,4.94,4.94,0,2.37-1.68,4.35-3.91,4.83v14.31h-2.06v-14.31c-2.23-.47-3.91-2.45-3.91-4.83,0-2.73,2.21-4.94,4.94-4.94Z"/>
            <path class="cls-5" d="M160.7,142.74c2.73,0,4.94,2.21,4.94,4.94,0,2.37-1.68,4.35-3.91,4.83v14.31h-2.06v-14.31c-2.23-.47-3.91-2.45-3.91-4.83,0-2.73,2.21-4.94,4.94-4.94Z"/>
            <path class="cls-5" d="M146.89,142.74c2.73,0,4.94,2.21,4.94,4.94,0,2.37-1.68,4.35-3.91,4.83v14.31h-2.06v-14.31c-2.23-.47-3.91-2.45-3.91-4.83,0-2.73,2.21-4.94,4.94-4.94Z"/>
            <path class="cls-5" d="M133.08,142.74c2.73,0,4.94,2.21,4.94,4.94,0,2.37-1.68,4.35-3.91,4.83v14.31h-2.06v-14.31c-2.23-.47-3.91-2.45-3.91-4.83,0-2.73,2.21-4.94,4.94-4.94Z"/>
            <path class="cls-5" d="M119.27,142.74c2.73,0,4.94,2.21,4.94,4.94,0,2.37-1.68,4.35-3.91,4.83v14.31h-2.06v-14.31c-2.23-.47-3.91-2.45-3.91-4.83,0-2.73,2.21-4.94,4.94-4.94Z"/>
            <path class="cls-5" d="M105.46,142.74c2.73,0,4.94,2.21,4.94,4.94,0,2.37-1.68,4.35-3.91,4.83v14.31h-2.06v-14.31c-2.23-.47-3.91-2.45-3.91-4.83,0-2.73,2.21-4.94,4.94-4.94Z"/>
            <path class="cls-5" d="M91.65,142.74c2.73,0,4.94,2.21,4.94,4.94,0,2.37-1.68,4.35-3.91,4.83v14.31h-2.06v-14.31c-2.23-.47-3.91-2.45-3.91-4.83,0-2.73,2.21-4.94,4.94-4.94Z"/>
            <path class="cls-5" d="M77.84,142.74c2.73,0,4.94,2.21,4.94,4.94,0,2.37-1.68,4.35-3.91,4.83v14.31h-2.06v-14.31c-2.23-.47-3.91-2.45-3.91-4.83,0-2.73,2.21-4.94,4.94-4.94Z"/>
            <path class="cls-5" d="M64.03,142.74c2.73,0,4.94,2.21,4.94,4.94,0,2.37-1.68,4.35-3.91,4.83v14.31h-2.06v-14.31c-2.23-.47-3.91-2.45-3.91-4.83,0-2.73,2.21-4.94,4.94-4.94Z"/>
            <path class="cls-5" d="M50.22,142.74c2.73,0,4.94,2.21,4.94,4.94,0,2.37-1.68,4.35-3.91,4.83v14.31h-2.06v-14.31c-2.23-.47-3.91-2.45-3.91-4.83,0-2.73,2.21-4.94,4.94-4.94Z"/>
          </g>
        </g>
        <line class="cls-15" x1="34.97" y1="261.44" x2="312.96" y2="261.44"/>
      </g>
      <g>
        <circle class="cls-9" cx="82.79" cy="24.33" r="23.7"/>
        <circle class="cls-4" cx="24.33" cy="126.78" r="23.7"/>
        <g>
          <g>
            <path class="cls-8" d="M214.91,84.77v-14.31h2.06v14.31c2.23.47,3.91,2.45,3.91,4.83,0,2.73-2.21,4.94-4.94,4.94s-4.94-2.21-4.94-4.94c0-2.37,1.68-4.35,3.91-4.83Z"/>
            <polyline class="cls-2" points="216.97 90.63 216.97 70.46 214.91 70.46 214.91 90.63"/>
          </g>
          <g>
            <path class="cls-8" d="M201.1,84.77v-14.31h2.06v14.31c2.23.47,3.91,2.45,3.91,4.83,0,2.73-2.21,4.94-4.94,4.94s-4.94-2.21-4.94-4.94c0-2.37,1.68-4.35,3.91-4.83Z"/>
            <polyline class="cls-2" points="203.16 90.63 203.16 70.46 201.1 70.46 201.1 90.63"/>
          </g>
          <g>
            <path class="cls-8" d="M187.29,84.77v-14.31h2.06v14.31c2.23.47,3.91,2.45,3.91,4.83,0,2.73-2.21,4.94-4.94,4.94s-4.94-2.21-4.94-4.94c0-2.37,1.68-4.35,3.91-4.83Z"/>
            <polyline class="cls-2" points="189.35 90.63 189.35 70.46 187.29 70.46 187.29 90.63"/>
          </g>
          <g>
            <path class="cls-8" d="M173.48,84.77v-14.31h2.06v14.31c2.23.47,3.91,2.45,3.91,4.83,0,2.73-2.21,4.94-4.94,4.94s-4.94-2.21-4.94-4.94c0-2.37,1.68-4.35,3.91-4.83Z"/>
            <polyline class="cls-2" points="175.54 90.63 175.54 70.46 173.48 70.46 173.48 90.63"/>
          </g>
          <g>
            <path class="cls-8" d="M159.67,84.77v-14.31h2.06v14.31c2.23.47,3.91,2.45,3.91,4.83,0,2.73-2.21,4.94-4.94,4.94s-4.94-2.21-4.94-4.94c0-2.37,1.68-4.35,3.91-4.83Z"/>
            <polyline class="cls-2" points="161.73 90.63 161.73 70.46 159.67 70.46 159.67 90.63"/>
          </g>
          <g>
            <path class="cls-8" d="M145.86,84.77v-14.31h2.06v14.31c2.23.47,3.91,2.45,3.91,4.83,0,2.73-2.21,4.94-4.94,4.94s-4.94-2.21-4.94-4.94c0-2.37,1.68-4.35,3.91-4.83Z"/>
            <polyline class="cls-2" points="147.92 90.63 147.92 70.46 145.86 70.46 145.86 90.63"/>
          </g>
          <g>
            <path class="cls-8" d="M132.05,84.77v-14.31h2.06v14.31c2.23.47,3.91,2.45,3.91,4.83,0,2.73-2.21,4.94-4.94,4.94s-4.94-2.21-4.94-4.94c0-2.37,1.68-4.35,3.91-4.83Z"/>
            <polyline class="cls-2" points="134.11 90.63 134.11 70.46 132.05 70.46 132.05 90.63"/>
          </g>
          <g>
            <path class="cls-8" d="M118.24,84.77v-14.31h2.06v14.31c2.23.47,3.91,2.45,3.91,4.83,0,2.73-2.21,4.94-4.94,4.94s-4.94-2.21-4.94-4.94c0-2.37,1.68-4.35,3.91-4.83Z"/>
            <polyline class="cls-2" points="120.3 90.63 120.3 70.46 118.24 70.46 118.24 90.63"/>
          </g>
          <g>
            <path class="cls-8" d="M104.43,84.77v-14.31h2.06v14.31c2.23.47,3.91,2.45,3.91,4.83,0,2.73-2.21,4.94-4.94,4.94s-4.94-2.21-4.94-4.94c0-2.37,1.68-4.35,3.91-4.83Z"/>
            <polyline class="cls-2" points="106.49 90.63 106.49 70.46 104.43 70.46 104.43 90.63"/>
          </g>
          <g>
            <path class="cls-8" d="M90.62,84.77v-14.31h2.06v14.31c2.23.47,3.91,2.45,3.91,4.83,0,2.73-2.21,4.94-4.94,4.94s-4.94-2.21-4.94-4.94c0-2.37,1.68-4.35,3.91-4.83Z"/>
            <polyline class="cls-2" points="92.68 90.63 92.68 70.46 90.62 70.46 90.62 90.63"/>
          </g>
          <g>
            <path class="cls-8" d="M76.81,84.77v-14.31h2.06v14.31c2.23.47,3.91,2.45,3.91,4.83,0,2.73-2.21,4.94-4.94,4.94s-4.94-2.21-4.94-4.94c0-2.37,1.68-4.35,3.91-4.83Z"/>
            <polyline class="cls-2" points="78.87 90.63 78.87 70.46 76.81 70.46 76.81 90.63"/>
          </g>
          <g>
            <path class="cls-8" d="M63,84.77v-14.31h2.06v14.31c2.23.47,3.91,2.45,3.91,4.83,0,2.73-2.21,4.94-4.94,4.94s-4.94-2.21-4.94-4.94c0-2.37,1.68-4.35,3.91-4.83Z"/>
            <polyline class="cls-2" points="65.06 90.63 65.06 70.46 63 70.46 63 90.63"/>
          </g>
          <g>
            <path class="cls-8" d="M49.19,84.77v-14.31h2.06v14.31c2.23.47,3.91,2.45,3.91,4.83,0,2.73-2.21,4.94-4.94,4.94s-4.94-2.21-4.94-4.94c0-2.37,1.68-4.35,3.91-4.83Z"/>
            <polyline class="cls-2" points="51.25 90.63 51.25 70.46 49.19 70.46 49.19 90.63"/>
          </g>
          <g>
            <path class="cls-8" d="M214.91,152.5v14.31h2.06v-14.31c2.23-.47,3.91-2.45,3.91-4.83,0-2.73-2.21-4.94-4.94-4.94s-4.94,2.21-4.94,4.94c0,2.37,1.68,4.35,3.91,4.83Z"/>
            <polyline class="cls-2" points="216.97 146.63 216.97 166.81 214.91 166.81 214.91 146.63"/>
          </g>
          <g>
            <path class="cls-8" d="M201.1,152.5v14.31h2.06v-14.31c2.23-.47,3.91-2.45,3.91-4.83,0-2.73-2.21-4.94-4.94-4.94s-4.94,2.21-4.94,4.94c0,2.37,1.68,4.35,3.91,4.83Z"/>
            <polyline class="cls-2" points="203.16 146.63 203.16 166.81 201.1 166.81 201.1 146.63"/>
          </g>
          <g>
            <path class="cls-8" d="M187.29,152.5v14.31h2.06v-14.31c2.23-.47,3.91-2.45,3.91-4.83,0-2.73-2.21-4.94-4.94-4.94s-4.94,2.21-4.94,4.94c0,2.37,1.68,4.35,3.91,4.83Z"/>
            <polyline class="cls-2" points="189.35 146.63 189.35 166.81 187.29 166.81 187.29 146.63"/>
          </g>
          <g>
            <path class="cls-8" d="M173.48,152.5v14.31h2.06v-14.31c2.23-.47,3.91-2.45,3.91-4.83,0-2.73-2.21-4.94-4.94-4.94s-4.94,2.21-4.94,4.94c0,2.37,1.68,4.35,3.91,4.83Z"/>
            <polyline class="cls-2" points="175.54 146.63 175.54 166.81 173.48 166.81 173.48 146.63"/>
          </g>
          <g>
            <path class="cls-8" d="M159.67,152.5v14.31h2.06v-14.31c2.23-.47,3.91-2.45,3.91-4.83,0-2.73-2.21-4.94-4.94-4.94s-4.94,2.21-4.94,4.94c0,2.37,1.68,4.35,3.91,4.83Z"/>
            <polyline class="cls-2" points="161.73 146.63 161.73 166.81 159.67 166.81 159.67 146.63"/>
          </g>
          <g>
            <path class="cls-8" d="M145.86,152.5v14.31h2.06v-14.31c2.23-.47,3.91-2.45,3.91-4.83,0-2.73-2.21-4.94-4.94-4.94s-4.94,2.21-4.94,4.94c0,2.37,1.68,4.35,3.91,4.83Z"/>
            <polyline class="cls-2" points="147.92 146.63 147.92 166.81 145.86 166.81 145.86 146.63"/>
          </g>
          <g>
            <path class="cls-8" d="M132.05,152.5v14.31h2.06v-14.31c2.23-.47,3.91-2.45,3.91-4.83,0-2.73-2.21-4.94-4.94-4.94s-4.94,2.21-4.94,4.94c0,2.37,1.68,4.35,3.91,4.83Z"/>
            <polyline class="cls-2" points="134.11 146.63 134.11 166.81 132.05 166.81 132.05 146.63"/>
          </g>
          <g>
            <path class="cls-8" d="M118.24,152.5v14.31h2.06v-14.31c2.23-.47,3.91-2.45,3.91-4.83,0-2.73-2.21-4.94-4.94-4.94s-4.94,2.21-4.94,4.94c0,2.37,1.68,4.35,3.91,4.83Z"/>
            <polyline class="cls-2" points="120.3 146.63 120.3 166.81 118.24 166.81 118.24 146.63"/>
          </g>
          <g>
            <path class="cls-8" d="M104.43,152.5v14.31h2.06v-14.31c2.23-.47,3.91-2.45,3.91-4.83,0-2.73-2.21-4.94-4.94-4.94s-4.94,2.21-4.94,4.94c0,2.37,1.68,4.35,3.91,4.83Z"/>
            <polyline class="cls-2" points="106.49 146.63 106.49 166.81 104.43 166.81 104.43 146.63"/>
          </g>
          <g>
            <path class="cls-8" d="M90.62,152.5v14.31h2.06v-14.31c2.23-.47,3.91-2.45,3.91-4.83,0-2.73-2.21-4.94-4.94-4.94s-4.94,2.21-4.94,4.94c0,2.37,1.68,4.35,3.91,4.83Z"/>
            <polyline class="cls-2" points="92.68 146.63 92.68 166.81 90.62 166.81 90.62 146.63"/>
          </g>
          <g>
            <path class="cls-8" d="M76.81,152.5v14.31h2.06v-14.31c2.23-.47,3.91-2.45,3.91-4.83,0-2.73-2.21-4.94-4.94-4.94s-4.94,2.21-4.94,4.94c0,2.37,1.68,4.35,3.91,4.83Z"/>
            <polyline class="cls-2" points="78.87 146.63 78.87 166.81 76.81 166.81 76.81 146.63"/>
          </g>
          <g>
            <path class="cls-8" d="M63,152.5v14.31h2.06v-14.31c2.23-.47,3.91-2.45,3.91-4.83,0-2.73-2.21-4.94-4.94-4.94s-4.94,2.21-4.94,4.94c0,2.37,1.68,4.35,3.91,4.83Z"/>
            <polyline class="cls-2" points="65.06 146.63 65.06 166.81 63 166.81 63 146.63"/>
          </g>
          <g>
            <path class="cls-8" d="M49.19,152.5v14.31h2.06v-14.31c2.23-.47,3.91-2.45,3.91-4.83,0-2.73-2.21-4.94-4.94-4.94s-4.94,2.21-4.94,4.94c0,2.37,1.68,4.35,3.91,4.83Z"/>
            <polyline class="cls-2" points="51.25 146.63 51.25 166.81 49.19 166.81 49.19 146.63"/>
          </g>
        </g>
        <g>
          <path class="cls-16" d="M161.77,248.71h76.09v-67.46h-76.09c28.86,15.29,25.6,31.5,0,67.46Z"/>
          <path class="cls-17" d="M178.26,218.65l-20.93,26.29,8.46,6.74,33.61-42.22-42.22-33.61-2.26,2.83,20.67,16.46c7.23,5.76,8.43,16.28,2.67,23.51Z"/>
        </g>
      </g>
      <g>
        <path class="cls-11" d="M34.97,64.25v1.46c0,3.39,2.75,6.14,6.14,6.14h184.59c-5.41-4.73-12.51-7.61-20.26-7.61H34.97Z"/>
        <g>
          <path class="cls-19" d="M34.98,172.25c.22,9.2,7.68,16.6,16.9,16.7h117.17c15.64.19,31.23,3.83,44.81,11.71,5.5,3.27,11.25,6.99,14.12,12.9,2.72,5.4,1.83,12.53-1.94,17.06-8.13,9.48-28.63,11.47-40.59,11.8h-120.02c-5.68,0-10.29,4.61-10.29,10.29v6.17c0,1.41,1.14,2.55,2.55,2.55h259.12c1.4,0,2.54-1.14,2.54-2.54V102.44c0-23.01-13.49-42.87-33-52.09,1.4,2.03,2.22,4.5,2.22,7.15,0,3.97-1.61,7.56-4.2,10.16s-6.18,4.2-10.15,4.2c-18.07-10.14-34.68-12.5-48.51,0,6.45,5.64,10.52,13.94,10.52,23.17v46.43c0,9.46-4.26,17.91-10.97,23.55-5.36,4.51-12.27,7.23-19.81,7.23H34.98Z"/>
          <g class="cls-20">
            <g>
              <circle class="cls-7" cx="280.21" cy="212.55" r="19.65"/>
              <circle class="cls-17" cx="280.21" cy="212.55" r="4.92"/>
            </g>
            <path class="cls-13" d="M243.36,188.49c-4.71,6.16-14.47,12.4-23.04,14.21-2.94.62-3.65,4.53-1.17,6.22,15.52,10.58,34.75,14.55,46.32,2.04,7.37-7.97,9.82-25.56,2.84-31.24-8.42-6.85-18.34.15-24.94,8.77Z"/>
            <circle class="cls-17" cx="253.65" cy="196.36" r="4.25"/>
            <path class="cls-12" d="M260.55,212.55c0,.81.05,1.61.15,2.39,1.69-1.07,3.29-2.39,4.76-3.98,3.67-3.97,6.11-10.32,6.79-16.39-6.9,3.05-11.71,9.96-11.71,17.98Z"/>
            <path class="cls-12" d="M260.55,212.55c0,.81.05,1.61.15,2.39,1.69-1.07,3.29-2.39,4.76-3.98,3.67-3.97,6.11-10.32,6.79-16.39-6.9,3.05-11.71,9.96-11.71,17.98Z"/>
          </g>
          <path class="cls-3" d="M34.98,172.25c.22,9.2,7.68,16.6,16.9,16.7h117.17c15.64.19,31.23,3.83,44.81,11.71,5.5,3.27,11.25,6.99,14.12,12.9,2.72,5.4,1.83,12.53-1.94,17.06-8.13,9.48-28.63,11.47-40.59,11.8h-120.02c-5.68,0-10.29,4.61-10.29,10.29v6.17c0,1.41,1.14,2.55,2.55,2.55h259.12c1.4,0,2.54-1.14,2.54-2.54V102.44c0-23.01-13.49-42.87-33-52.09,1.4,2.03,2.22,4.5,2.22,7.15,0,3.97-1.61,7.56-4.2,10.16s-6.18,4.2-10.15,4.2c-18.07-10.14-34.68-12.5-48.51,0,6.45,5.64,10.52,13.94,10.52,23.17v46.43c0,9.46-4.26,17.91-10.97,23.55-5.36,4.51-12.27,7.23-19.81,7.23H34.98Z"/>
        </g>
        <path class="cls-14" d="M34.97,171.83c0,.14,0,.28,0,.42h170.47c7.54,0,14.45-2.72,19.81-7.23H41.78c-1.88,0-3.58.77-4.82,1.99-1.23,1.24-1.99,2.94-1.99,4.82Z"/>
        <path class="cls-10" d="M34.97,60.33v3.92h170.48c15.48.69,22.28,10.62,27.69,15.35-1.13-11.27,22.37-12.44,27.42-2.38l13.66-5.36c3.97,0,7.55-1.61,10.15-4.2s4.2-6.19,4.2-10.16c0-2.65-.82-5.12-2.22-7.15-7.46-3.52-15.8-5.5-24.59-5.5H50.45c-8.55,0-15.48,6.93-15.48,15.48Z"/>
        <circle class="cls-1" cx="277.82" cy="77.6" r="17.27"/>
        <circle class="cls-17" cx="277.82" cy="77.6" r="10.86"/>
        <line class="cls-3" x1="34.97" y1="261.44" x2="312.96" y2="261.44"/>
        <path class="cls-12" d="M303.53,62.29c4.46,9.22,6.13,15.93,5.82,26.17-.3,10.24-4.43,20.66-12.44,27.03-3.65,2.9-8.92,7.41-12.17,10.76-5.99,6.18-9.55,17.78-6.02,26.77.93,2.38,2.98,3.97,5.46,4.58,1.4.34,2.9-.33,3.86-1.4s1.46-2.47,1.78-3.87c1.1-4.88.23-9.94-.22-14.92s1.09-13.86,3.76-18.08"/>
      </g>
    </g>
  </g>
</svg>