<?xml version="1.0" encoding="UTF-8"?>
<svg id="Layer_2" data-name="Layer 2" xmlns="http://www.w3.org/2000/svg" viewBox="0 0 431.58 305.63">
  <defs>
    <style>
      .cls-1 {
        fill: #fcfaf9;
      }

      .cls-2, .cls-3, .cls-4, .cls-5, .cls-6, .cls-7, .cls-8, .cls-9, .cls-10, .cls-11, .cls-12, .cls-13, .cls-14, .cls-15, .cls-16 {
        stroke: #1c1b18;
      }

      .cls-2, .cls-13 {
        fill: #f8b836;
        stroke-miterlimit: 10;
      }

      .cls-3 {
        fill: #162d1f;
      }

      .cls-3, .cls-4, .cls-5, .cls-6, .cls-7, .cls-8, .cls-9, .cls-10, .cls-11, .cls-12, .cls-14, .cls-15, .cls-16 {
        stroke-linejoin: round;
      }

      .cls-3, .cls-4, .cls-5, .cls-6, .cls-7, .cls-9, .cls-10, .cls-11, .cls-12, .cls-14, .cls-15 {
        stroke-width: 2px;
      }

      .cls-5 {
        fill: #443629;
      }

      .cls-6 {
        fill: #eb5122;
      }

      .cls-7 {
        fill: #7eb4a6;
      }

      .cls-17 {
        fill: #1c1b18;
      }

      .cls-8 {
        fill: #f0dfc4;
      }

      .cls-18 {
        fill: #70645c;
      }

      .cls-9 {
        fill: #1b2f1c;
      }

      .cls-10 {
        fill: #5660b7;
      }

      .cls-11 {
        fill: #f8c338;
      }

      .cls-19 {
        fill: #356735;
      }

      .cls-12 {
        fill: #fdf0b9;
      }

      .cls-13 {
        stroke-width: 1.7px;
      }

      .cls-14 {
        fill: #80b4a7;
      }

      .cls-15 {
        fill: #5c6358;
      }

      .cls-16 {
        fill: #4c3628;
      }
    </style>
  </defs>
  <g id="Tailfeather">
    <g id="TailFeather">
      <path class="cls-14" d="M356.24,103.15h51.51v157.53c0,14.21-11.54,25.75-25.75,25.75h0c-14.21,0-25.75-11.54-25.75-25.75V103.15h0Z"/>
      <rect class="cls-11" x="378.16" y="103.28" width="7.68" height="183.15"/>
      <circle class="cls-3" cx="382" cy="79.49" r="23.79"/>
      <circle class="cls-6" cx="382" cy="79.49" r="7.93"/>
      <path class="cls-7" d="M149.35,147.28v27.08h-40.87c-7.48,0-13.54-6.06-13.54-13.54h0c0-7.48,6.06-13.54,13.54-13.54h40.87Z"/>
      <path class="cls-7" d="M149.35,119.68v27.6h-40.87c-7.48,0-13.54-6.06-13.54-13.54v-.52c0-7.48,6.06-13.54,13.54-13.54h40.87Z"/>
      <path class="cls-7" d="M149.35,92.08v27.6h-40.87c-7.48,0-13.54-6.06-13.54-13.54v-.52c0-7.48,6.06-13.54,13.54-13.54h40.87Z"/>
      <path class="cls-4" d="M136.01,31.61h0c0,9.39-7.61,17-17,17h-41.45c0-7.83-6.35-14.18-14.18-14.18H1V10.51h109.53c2.26,0,4.1,1.84,4.1,4.1h0s4.38,0,4.38,0c9.39,0,17,7.61,17,17Z"/>
      <circle class="cls-18" cx="23.1" cy="23.83" r="5.26"/>
      <path class="cls-10" d="M430.58,249.74v54.89H42v-50.31c0-24.83,17.19-45.63,40.32-51.17.04-.01.08-.02.12-.03,8.38-1.92,14.38-9.28,14.38-17.87v-10.89h52.53v15.39c0,12.93,10.48,23.42,23.42,23.42h221.23c20.2,0,36.58,16.37,36.58,36.57Z"/>
      <rect class="cls-15" x="94.46" y="174.36" width="57.25" height="4.07" rx="2.03" ry="2.03"/>
      <rect class="cls-5" x="94.46" y="178.43" width="57.25" height="5.21" rx="2.03" ry="2.03"/>
      <path class="cls-10" d="M149.34,31.21c0,.1.01.2.01.3v57.22h-52.53v-38.28c-4.53-5.25-7.28-12.07-7.28-19.55,0-13.71,9.24-25.26,21.83-28.79,2.12-.71,4.39-1.11,6.76-1.11h.71c.1,0,.2,0,.3,0s.2,0,.31,0c16.51,0,29.9,13.39,29.9,29.9,0,.1-.01.2-.01.31Z"/>
      <rect class="cls-15" x="94.46" y="93.94" width="57.25" height="4.07" rx="2.03" ry="2.03"/>
      <rect class="cls-5" x="94.46" y="88.73" width="57.25" height="5.21" rx="2.03" ry="2.03"/>
      <circle class="cls-1" cx="119.19" cy="31.71" r="2.71"/>
      <g>
        <rect class="cls-19" x="102.88" y="240.43" width="275.61" height="37.28"/>
        <path class="cls-17" d="M379.09,278.3c-4.08.86-12.31.36-16.81.51-56.71.13-133.29.22-190.27.07-15.78-.04-44.94-.1-60.49-.15-2.13-.04-6.43.08-8.64-.18,0,0-.85-.09-.85-.09v-38.03s0-.85,0-.85c0,0,.85,0,.85,0h276.46v.85c0,12.63-.1,25.32-.25,37.88h0ZM377.89,277.1c-.15-12.29-.26-24.45-.25-36.67,0,0,.85.85.85.85,0-.63-279.09,1.43-274.76-.85,0,0,0,37.27,0,37.27,0,0-.85-.85-.85-.85,2.4-.27,6.12-.14,8.59-.18,15.33-.05,44.44-.11,60.09-.15,56.6-.16,132.35-.05,188.69.07,5.12.12,12.25-.32,17.64.51h0Z"/>
      </g>
      <rect class="cls-2" x="102.88" y="259.39" width="275.61" height="7.03"/>
      <rect class="cls-13" x="102.88" y="254.64" width="275.47" height="7.03"/>
      <g>
        <circle class="cls-8" cx="381.42" cy="258.76" r="23.5"/>
        <circle class="cls-8" cx="381.42" cy="258.76" r="14.75"/>
        <rect class="cls-16" x="370.92" y="256.49" width="20.99" height="6.14" rx="3.07" ry="3.07" transform="translate(640.98 -121.86) rotate(90)"/>
      </g>
      <g>
        <circle class="cls-8" cx="98.4" cy="258.15" r="23.5"/>
        <circle class="cls-8" cx="98.4" cy="258.15" r="14.75"/>
        <rect class="cls-16" x="88.7" y="255.08" width="20.99" height="6.14" rx="3.07" ry="3.07"/>
      </g>
      <circle class="cls-12" cx="119.45" cy="31.17" r="16.56"/>
      <circle class="cls-9" cx="119.45" cy="31.17" r="10.99"/>
    </g>
  </g>
</svg>