<?xml version="1.0" encoding="UTF-8"?>
<svg xmlns="http://www.w3.org/2000/svg" xmlns:xlink="http://www.w3.org/1999/xlink" viewBox="0 0 146.43 143.95">
  <defs>
    <style>
      .cls-1, .cls-2, .cls-3, .cls-4, .cls-5 {
        fill: none;
      }

      .cls-6 {
        mix-blend-mode: color-burn;
      }

      .cls-2, .cls-7, .cls-8, .cls-9, .cls-10, .cls-11, .cls-12, .cls-13, .cls-14, .cls-3, .cls-15, .cls-4, .cls-16, .cls-5, .cls-17, .cls-18, .cls-19, .cls-20, .cls-21, .cls-22, .cls-23, .cls-24, .cls-25, .cls-26 {
        stroke: #010101;
      }

      .cls-2, .cls-7, .cls-9, .cls-10, .cls-11, .cls-12, .cls-14, .cls-16, .cls-27, .cls-5, .cls-17, .cls-18, .cls-19, .cls-20, .cls-21, .cls-24, .cls-25 {
        stroke-miterlimit: 10;
      }

      .cls-2, .cls-11 {
        stroke-width: 1.44px;
      }

      .cls-2, .cls-11, .cls-23 {
        stroke-linecap: round;
      }

      .cls-7 {
        fill: #428058;
      }

      .cls-7, .cls-9, .cls-10, .cls-12, .cls-13, .cls-14, .cls-15, .cls-4, .cls-16, .cls-27, .cls-5, .cls-17, .cls-18, .cls-19, .cls-20, .cls-21, .cls-22, .cls-23, .cls-24, .cls-25, .cls-26 {
        stroke-width: .72px;
      }

      .cls-8 {
        fill: url(#radial-gradient);
      }

      .cls-8, .cls-13, .cls-3, .cls-15, .cls-4, .cls-22, .cls-23, .cls-26 {
        stroke-linejoin: round;
      }

      .cls-8, .cls-3 {
        stroke-width: .27px;
      }

      .cls-28 {
        fill: #77b07d;
      }

      .cls-29 {
        fill: #edeec8;
      }

      .cls-30 {
        fill: #2a4ca1;
      }

      .cls-9 {
        fill: #fff6d7;
      }

      .cls-31, .cls-23 {
        fill: #010101;
      }

      .cls-10, .cls-32 {
        fill: #fbfcef;
      }

      .cls-11, .cls-14 {
        fill: #fae5c8;
      }

      .cls-12 {
        fill: #2a5632;
      }

      .cls-13 {
        fill: #428057;
      }

      .cls-15 {
        fill: #418252;
      }

      .cls-33 {
        isolation: isolate;
      }

      .cls-16 {
        fill: #f6b72f;
      }

      .cls-34 {
        clip-path: url(#clippath-1);
      }

      .cls-35 {
        clip-path: url(#clippath-3);
      }

      .cls-36 {
        clip-path: url(#clippath-2);
      }

      .cls-27 {
        fill: #437e5a;
        stroke: #090707;
      }

      .cls-37 {
        fill: #f9ba2f;
      }

      .cls-38 {
        fill: #5d5ca9;
      }

      .cls-39 {
        fill: #fff;
      }

      .cls-17 {
        fill: #f1562b;
      }

      .cls-40 {
        mix-blend-mode: color-dodge;
      }

      .cls-18 {
        fill: #f1552a;
      }

      .cls-41, .cls-42 {
        fill: #13110c;
      }

      .cls-43, .cls-22 {
        fill: #71b8ac;
      }

      .cls-19 {
        fill: #fabc30;
      }

      .cls-20 {
        fill: #f6e9c7;
      }

      .cls-21 {
        fill: #fffffb;
      }

      .cls-44 {
        opacity: .37;
      }

      .cls-45, .cls-42 {
        opacity: .52;
      }

      .cls-46 {
        fill: url(#radial-gradient-2);
        mix-blend-mode: difference;
      }

      .cls-47 {
        fill: #72c491;
      }

      .cls-24 {
        fill: #776aa3;
      }

      .cls-25 {
        fill: url(#Generated_Pattern_12);
      }

      .cls-48 {
        mix-blend-mode: soft-light;
      }

      .cls-49 {
        fill: #fcdd38;
      }

      .cls-50 {
        clip-path: url(#clippath);
      }

      .cls-26 {
        fill: #fcfcf1;
      }
    </style>
    <clipPath id="clippath">
      <path class="cls-22" d="M143.93,132.21c.05,1.7-1.43,3.09-3.13,3.09H14.77c-6.49,0-11.76-5.26-11.76-11.76V33.53c0-11.28,9.15-20.43,20.43-20.43h37.95c1.16,0,2.32-.2,3.39-.67.41-.18.81-.4,1.18-.72,2.07-1.79,3.2-4.43,3.23-7.16,0-.03,0-.05,0-.06v45.93c0-4.2-3.4-7.6-7.6-7.6h-24.86c-1.78,0-3.22-1.44-3.22-3.22h0c0-4.06-2.8-7.45-6.57-8.37-.65-.16-1.34-.25-2.04-.25h-7.93c-.7,0-1.39.09-2.04.25-2.9.7-5.22,2.87-6.14,5.68-.28.84-.43,1.75-.43,2.69v80.2c0,.6.15,1.16.43,1.64.58,1.03,1.67,1.72,2.93,1.72h-2.3c0,.29.02.57.06.85.19,1.32.81,2.51,1.7,3.4,1.08,1.09,2.59,1.76,4.25,1.76h34.05v.12h91.45c.83,0,1.58.34,2.13.88.52.52.85,1.24.88,2.04Z"/>
    </clipPath>
    <radialGradient id="radial-gradient" cx="125.21" cy="67.77" fx="125.21" fy="67.77" r="6.99" gradientUnits="userSpaceOnUse">
      <stop offset="0" stop-color="#80ac76"/>
      <stop offset="1" stop-color="#86c680"/>
    </radialGradient>
    <clipPath id="clippath-1">
      <path class="cls-10" d="M13.45,30.98h14.96c2.81,0,5.1,2.28,5.1,5.1v79.25c0,1.22-.99,2.22-2.22,2.22H10.57c-1.22,0-2.22-.99-2.22-2.22V36.08c0-2.81,2.28-5.1,5.1-5.1Z"/>
    </clipPath>
    <pattern id="Generated_Pattern_12" data-name="Generated Pattern 12" x="0" y="0" width="256" height="256" patternTransform="translate(-3267.51 -3999.74) scale(.51)" patternUnits="userSpaceOnUse" viewBox="0 0 256 256">
      <g>
        <rect class="cls-1" width="256" height="256"/>
        <path class="cls-49" d="M23.5,0c1.39,21.17,31.24,20.93,32.5,0h53c.8,21.05,31.26,21.03,32.25,0h53c1.16,21.09,31.13,20.94,32.5,0h29.25v26c-24.82-2.59-24.67,34.46,0,32v53c-24.96-1.71-24.67,34.27,0,32.5v53c-24.87-1.98-24.71,34.59,0,32.25v27.25h-29.25c-.38-22.17-32.15-22.06-32.5,0h-53c-.17-22.18-32.26-22.01-32.25,0h-53c-.37-22.18-31.98-22.08-32.5,0H0v-27.25c18.05-3,18.13-28.98,0-32v-53.5c18.17-2.99,18.13-29,0-32v-53.25c18.16-3.16,18.11-28.93,0-32V0h23.5ZM80.88,25.75c-20.27,1.88-18.59,34.34,3.5,32.5,20.6-1.72,18.59-34.55-3.5-32.5ZM166.38,25.75c-20.25,1.64-18.74,34.3,3.25,32.5,20.76-1.7,18.67-34.28-3.25-32.5ZM37.62,68.75c-20.13,2.1-17.88,34.42,3.75,32.5s18.69-34.84-3.75-32.5ZM123.12,68.75c-20.07,1.93-18.3,34.27,3.5,32.5s18.79-34.64-3.5-32.5ZM208.38,68.75c-20.06,1.96-18.09,34.45,3.75,32.5,20.51-1.83,18.88-34.71-3.75-32.5ZM80.62,111c-20.26,2.08-18.15,35.07,4.5,32.5,19.79-2.25,17.71-34.78-4.5-32.5ZM165.62,111c-19.72,2.41-17.64,34.97,4.75,32.5,20.03-2.21,17.81-35.25-4.75-32.5ZM37.38,154c-19.59,2.41-17.77,34.25,4,32.5,20.92-1.68,18.53-35.27-4-32.5ZM122.62,154c-20.21,2.49-17.14,36.1,5.5,32.25,19.79-3.37,16.24-34.93-5.5-32.25ZM208.12,154c-19.69,2.22-17.86,34.45,4,32.5,20.8-1.86,18.58-35.05-4-32.5ZM80.88,196.5c-20.54,1.96-18.2,34.44,3.5,32.5s18.49-34.6-3.5-32.5ZM165.88,196.5c-19.77,2.12-18.05,34.26,3.75,32.5s18.87-34.92-3.75-32.5Z"/>
        <path class="cls-39" d="M256,111v32.5c-24.67,1.77-24.96-34.21,0-32.5Z"/>
        <path class="cls-39" d="M256,196.5v32.25c-24.71,2.34-24.87-34.23,0-32.25Z"/>
        <path class="cls-39" d="M256,26v32c-24.67,2.46-24.82-34.59,0-32Z"/>
        <path class="cls-39" d="M226.75,256h-32.5c.35-22.06,32.12-22.17,32.5,0Z"/>
        <path class="cls-39" d="M56,256H23.5c.52-22.08,32.13-22.18,32.5,0Z"/>
        <path class="cls-39" d="M141.25,256h-32.25c0-22.01,32.08-22.18,32.25,0Z"/>
        <path class="cls-39" d="M56,0c-1.26,20.93-31.11,21.17-32.5,0h32.5Z"/>
        <path class="cls-39" d="M141.25,0c-.99,21.03-31.45,21.05-32.25,0h32.25Z"/>
        <path class="cls-39" d="M226.75,0c-1.37,20.94-31.34,21.09-32.5,0h32.5Z"/>
        <path class="cls-39" d="M0,143.25v-32c18.13,3,18.17,29.01,0,32Z"/>
        <path class="cls-39" d="M0,58V26c18.11,3.07,18.16,28.84,0,32Z"/>
        <path class="cls-39" d="M80.62,111c22.21-2.28,24.29,30.25,4.5,32.5-22.65,2.57-24.76-30.42-4.5-32.5Z"/>
        <path class="cls-39" d="M165.62,111c22.56-2.75,24.78,30.29,4.75,32.5-22.39,2.47-24.47-30.09-4.75-32.5Z"/>
        <path class="cls-39" d="M208.12,154c22.58-2.55,24.8,30.64,4,32.5-21.86,1.95-23.69-30.28-4-32.5Z"/>
        <path class="cls-39" d="M208.38,68.75c22.63-2.21,24.26,30.67,3.75,32.5-21.84,1.95-23.81-30.54-3.75-32.5Z"/>
        <path class="cls-39" d="M165.88,196.5c22.62-2.42,24.52,30.83,3.75,32.5-21.8,1.76-23.52-30.38-3.75-32.5Z"/>
        <path class="cls-39" d="M37.62,68.75c22.44-2.34,24.49,30.66,3.75,32.5s-23.88-30.4-3.75-32.5Z"/>
        <path class="cls-39" d="M80.88,25.75c22.09-2.05,24.1,30.78,3.5,32.5-22.09,1.84-23.77-30.62-3.5-32.5Z"/>
        <g>
          <path class="cls-39" d="M0,228.75v-32c18.13,3.02,18.05,29,0,32Z"/>
          <path class="cls-39" d="M80.88,196.5c21.99-2.1,24.25,30.64,3.5,32.5s-24.04-30.54-3.5-32.5Z"/>
        </g>
        <path class="cls-39" d="M37.38,154c22.53-2.77,24.92,30.82,4,32.5-21.77,1.75-23.59-30.09-4-32.5Z"/>
        <path class="cls-39" d="M123.12,68.75c22.29-2.14,24.29,30.81,3.5,32.5s-23.57-30.57-3.5-32.5Z"/>
        <path class="cls-39" d="M122.62,154c21.74-2.68,25.29,28.88,5.5,32.25-22.64,3.85-25.71-29.76-5.5-32.25Z"/>
        <path class="cls-39" d="M166.38,25.75c21.92-1.78,24.01,30.8,3.25,32.5-21.99,1.8-23.5-30.86-3.25-32.5Z"/>
      </g>
    </pattern>
    <clipPath id="clippath-2">
      <path class="cls-1" d="M55.13,61.93c.65-.81,0-1.99-1.03-1.88-4.52.51-9.36,1.6-10.96,3.21-1.81,1.82-2.42,4.75-1.47,7.14s3.39,4.11,5.96,4.2c2.72.09,5.27-1.51,6.99-3.62,1.39-1.7,1.37-4.64.19-6.21-.55-.72-.55-1.71,0-2.43.11-.14.22-.28.33-.42Z"/>
    </clipPath>
    <clipPath id="clippath-3">
      <circle class="cls-1" cx="125.21" cy="67.77" r="6.99"/>
    </clipPath>
    <radialGradient id="radial-gradient-2" cx="125.21" cy="67.77" fx="125.21" fy="67.77" r="6.99" gradientUnits="userSpaceOnUse">
      <stop offset="0" stop-color="#e3dc1b"/>
      <stop offset=".14" stop-color="#e1d61f"/>
      <stop offset=".32" stop-color="#ddc82d"/>
      <stop offset=".51" stop-color="#d7b043"/>
      <stop offset=".71" stop-color="#ce8e62"/>
      <stop offset=".91" stop-color="#c26389"/>
      <stop offset="1" stop-color="#bd4e9d"/>
    </radialGradient>
  </defs>
  <g class="cls-33">
    <g id="Layer_2" data-name="Layer 2">
      <g id="_1" data-name="1">
        <g>
          <g>
            <path class="cls-39" d="M141.82,143.95H4.61c-2.54,0-4.61-2.07-4.61-4.61v-1.8c0-2.54,2.07-4.61,4.61-4.61h137.21c2.54,0,4.61,2.07,4.61,4.61v1.8c0,2.54-2.07,4.61-4.61,4.61ZM5,138.95h136.43v-1.01H5v1.01ZM141.82,137.93h0,0Z"/>
            <path class="cls-39" d="M140.79,137.81H14.77c-7.86,0-14.26-6.4-14.26-14.26V33.53C.52,20.88,10.81,10.6,23.45,10.6h37.95c.89,0,1.69-.15,2.39-.46.24-.1.41-.2.54-.32,1.48-1.28,2.35-3.21,2.37-5.29,0,0,0-.01,0-.02v-.02c0-1.38,1.12-2.5,2.5-2.5s2.5,1.12,2.5,2.5v50.06c-.01,1.69-.02,3.29.09,4.83,0,.06,0,.12,0,.18v.85c0,5.42,4.62,9.82,10.29,9.82h5.06c.33,0,.63.01.91,0,.22,0,.45,0,.67,0h6.46c6.54,0,11.91-5.32,11.96-11.87.04-4.77,3.77-8.55,8.49-8.65.62-.01,1.21-.02,1.7-.02h20.47c3.05,0,5.55,2.48,5.58,5.52.01,1.33.02,2.99.02,4.8v53.68c0,2.59-.82,5-2.22,6.97,1.37.07,2.64.63,3.62,1.6,1.04,1.05,1.61,2.43,1.61,3.89,0,1.14-.35,2.19-.94,3.07.58.86.9,1.86.93,2.91.04,1.46-.51,2.86-1.55,3.94-1.07,1.1-2.56,1.73-4.08,1.73ZM23.45,15.6c-9.89,0-17.93,8.04-17.93,17.93v90.02c0,5.1,4.15,9.26,9.26,9.26h126.02c.18,0,.36-.08.49-.21.07-.07.14-.18.14-.31,0-.17-.09-.28-.15-.35-.05-.05-.17-.14-.35-.14h-.17c-1.38,0-2.5-1.12-2.5-2.5v-.12c0-1.38,1.12-2.5,2.5-2.5h.17c.28,0,.5-.23.5-.51,0-.17-.08-.29-.15-.37-.05-.05-.17-.14-.35-.14h-9.46c-1.38,0-2.5-1.12-2.5-2.5s1.12-2.5,2.5-2.5c.4,0,.8-.03,1.19-.1,3.34-.57,5.77-3.46,5.77-6.86v-53.68c0-1.79-.01-3.44-.02-4.75,0-.31-.26-.57-.58-.57h-20.47c-.47,0-1.01,0-1.6.02-2,.04-3.57,1.64-3.59,3.63-.08,9.34-7.69,16.88-16.97,16.88h-6.41c-.46.01-1.1,0-1.68,0h-5.02c-8.43,0-15.29-6.65-15.29-14.82v-.76c-.12-1.71-.11-3.45-.1-5.14v-15.19s0-25.08,0-25.08c-.28.17-.59.33-.91.47-1.33.58-2.81.87-4.38.87H23.45ZM9.32,124.66c-.63,0-1.26-.24-1.75-.72-.11-.11-.2-.22-.3-.33-.02-.02-.04-.05-.06-.08-.06-.06-.11-.13-.17-.2-.16-.22-.31-.44-.45-.68-.67-1.21-.23-2.72.97-3.39,1.21-.67,2.72-.24,3.4.96.01.02.03.05.04.07.02.02.04.04.06.07,0,0,.02.03.02.03.97.98.98,2.58,0,3.55-.49.49-1.13.74-1.77.74Z"/>
          </g>
          <g id="Calley-Oops">
            <path class="cls-14" d="M140.9,55.25c-.02-1.69-1.39-3.05-3.08-3.05h-20.47c-.48,0-1.05,0-1.65.02-3.33.07-6.01,2.77-6.04,6.11v.06c-.07,7.94-6.52,14.35-14.47,14.35h-6.41c-.24,0-.48,0-.72,0-.3,0-.61,0-.91,0h-5.06c-7.06,0-12.79-5.52-12.79-12.32v-.85c-.15-2.08-.1-4.26-.1-6.39v-13.85c0-4.2-3.4-7.6-7.6-7.6,0,0-46.01-.16-46.66,0-6.54,1.6-6.57,6.91-6.57,7.87v74.69c0,.59.15,1.14.43,1.62.56.98,1.62,1.64,2.83,1.64h18.63c.09,0,.17,0,.26-.01.06,0,.12-.01.17-.02.09-.01.18-.03.28-.05.09-.02.17-.04.26-.07.29-.09.55-.22.8-.37.05-.03.09-.06.14-.1.21-.15.39-.32.55-.51.04-.05.07-.09.11-.13.01,0,.02-.02.02-.03.07-.1.14-.2.21-.3.05-.08.1-.17.14-.26l.32,4.1c0,1.86-1.5,3.36-3.36,3.36h101.31c.54,0,1.08-.05,1.6-.13,4.46-.76,7.86-4.65,7.86-9.33v-53.68c0-1.8-.01-3.45-.02-4.77ZM125.21,75.63c-4.34,0-7.85-3.52-7.85-7.85s3.52-7.85,7.85-7.85,7.85,3.52,7.85,7.85-3.52,7.85-7.85,7.85Z"/>
            <path class="cls-20" d="M49.47,129.17v.12h91.28v-.12H49.47Z"/>
            <path class="cls-16" d="M33.51,119.8c0,1.86-1.5,3.36-3.36,3.36H11.7c-.16,0-.31-.01-.45-.03-.08-.01-.15-.02-.22-.04-.24-.05-.47-.13-.69-.23-.12-.05-.23-.11-.33-.17-.06-.03-.11-.06-.15-.1-.2-.13-.35-.27-.48-.38-.24-.23-.44-.49-.6-.78-.28-.49-.43-1.05-.43-1.64v-5.51c0,.59.15,1.14.43,1.62.56.98,1.62,1.64,2.83,1.64h18.63c.09,0,.17,0,.26-.01.06,0,.12-.01.17-.02.09-.01.18-.03.28-.05.09-.02.17-.04.26-.07.29-.09.55-.22.8-.37.05-.03.09-.06.14-.1.21-.15.39-.32.55-.51.04-.05.07-.09.11-.13.01,0,.02-.02.02-.03.07-.1.14-.2.21-.3.05-.08.1-.17.14-.26l.32,4.1Z"/>
            <path class="cls-16" d="M33.51,114.29v5.51l-.32-4.1s.02-.04.03-.06c.02-.04.04-.07.05-.11.01-.02.02-.03.02-.05.04-.07.06-.15.08-.23.04-.1.06-.21.08-.31.02-.09.04-.19.05-.28,0-.03,0-.06,0-.09.01-.09.02-.19.02-.29Z"/>
            <path class="cls-17" d="M143.93,126.16c0,1.66-1.35,3.01-3,3.01H15.43c-1.66,0-3.16-.67-4.25-1.76-.9-.9-1.51-2.08-1.7-3.4-.03-.21-.05-.43-.05-.64,0-.07-.02-.61-.04-1.15.13.11.28.25.48.38.05.04.1.07.15.1.1.07.21.12.33.17.2.1.43.18.69.23.07.02.14.03.22.04.14.02.29.03.45.03h129.22c.83,0,1.58.33,2.13.88.54.54.88,1.29.88,2.13Z"/>
            <rect class="cls-9" x="2.5" y="135.43" width="141.43" height="6.01" rx="2.11" ry="2.11"/>
            <rect class="cls-7" x="49.47" y="129.17" width="81.99" height=".12"/>
            <g id="Horn">
              <path class="cls-43" d="M143.93,132.21c.05,1.7-1.43,3.09-3.13,3.09H14.77c-6.49,0-11.76-5.26-11.76-11.76V33.53c0-11.28,9.15-20.43,20.43-20.43h37.95c1.16,0,2.32-.2,3.39-.67.41-.18.81-.4,1.18-.72,2.07-1.79,3.2-4.43,3.23-7.16,0-.03,0-.05,0-.06v45.93c0-4.2-3.4-7.6-7.6-7.6h-24.86c-1.78,0-3.22-1.44-3.22-3.22h0c0-4.06-2.8-7.45-6.57-8.37-.65-.16-1.34-.25-2.04-.25h-7.93c-.7,0-1.39.09-2.04.25-2.9.7-5.22,2.87-6.14,5.68-.28.84-.43,1.75-.43,2.69v80.2c0,.6.15,1.16.43,1.64.58,1.03,1.67,1.72,2.93,1.72h-2.3c0,.29.02.57.06.85.19,1.32.81,2.51,1.7,3.4,1.08,1.09,2.59,1.76,4.25,1.76h34.05v.12h91.45c.83,0,1.58.34,2.13.88.52.52.85,1.24.88,2.04Z"/>
              <g class="cls-50">
                <rect class="cls-18" x="56.1" y=".36" width="16.38" height="55.19" rx="3.09" ry="3.09"/>
                <rect class="cls-12" x="46.07" y="13.1" width="8.8" height="29.72" rx="3.09" ry="3.09"/>
                <rect class="cls-19" x="54.87" y="13.1" width="8.8" height="29.72" rx="3.09" ry="3.09"/>
              </g>
              <path class="cls-4" d="M143.93,132.21c.05,1.7-1.43,3.09-3.13,3.09H14.77c-6.49,0-11.76-5.26-11.76-11.76V33.53c0-11.28,9.15-20.43,20.43-20.43h37.95c1.16,0,2.32-.2,3.39-.67.41-.18.81-.4,1.18-.72,2.07-1.79,3.2-4.43,3.23-7.16,0-.03,0-.05,0-.06v45.93c0-4.2-3.4-7.6-7.6-7.6h-24.86c-1.78,0-3.22-1.44-3.22-3.22h0c0-4.06-2.8-7.45-6.57-8.37-.65-.16-1.34-.25-2.04-.25h-7.93c-.7,0-1.39.09-2.04.25-2.9.7-5.22,2.87-6.14,5.68-.28.84-.43,1.75-.43,2.69v80.2c0,.6.15,1.16.43,1.64.58,1.03,1.67,1.72,2.93,1.72h-2.3c0,.29.02.57.06.85.19,1.32.81,2.51,1.7,3.4,1.08,1.09,2.59,1.76,4.25,1.76h34.05v.12h91.45c.83,0,1.58.34,2.13.88.52.52.85,1.24.88,2.04Z"/>
            </g>
            <polygon class="cls-23" points="86.4 76.06 86.57 77.05 85.85 76.34 84.96 76.81 85.41 75.91 84.69 75.2 85.68 75.35 86.13 74.45 86.29 75.45 87.29 75.59 86.4 76.06"/>
            <polygon class="cls-23" points="92.25 75.98 92.56 76.94 91.75 76.35 90.94 76.94 91.24 75.98 90.43 75.39 91.43 75.39 91.75 74.44 92.05 75.39 93.06 75.39 92.25 75.98"/>
            <polygon class="cls-23" points="97.59 75.37 98.15 76.21 97.21 75.86 96.58 76.65 96.63 75.65 95.69 75.29 96.65 75.02 96.7 74.02 97.25 74.86 98.22 74.59 97.59 75.37"/>
            <g>
              <path class="cls-29" d="M125.21,75.87c-4.46,0-8.09-3.63-8.09-8.09s3.63-8.09,8.09-8.09,8.09,3.63,8.09,8.09-3.63,8.09-8.09,8.09Z"/>
              <path class="cls-31" d="M125.21,59.92c4.34,0,7.85,3.52,7.85,7.85s-3.52,7.85-7.85,7.85-7.85-3.52-7.85-7.85,3.52-7.85,7.85-7.85M125.21,59.45c-4.59,0-8.32,3.73-8.32,8.32s3.73,8.32,8.32,8.32,8.32-3.73,8.32-8.32-3.73-8.32-8.32-8.32h0Z"/>
            </g>
            <circle class="cls-8" cx="125.21" cy="67.77" r="6.99"/>
            <path class="cls-31" d="M125.21,64.2c-1.97,0-3.58,1.6-3.58,3.58s1.6,3.58,3.58,3.58,3.58-1.6,3.58-3.58-1.6-3.58-3.58-3.58ZM125.21,69.07c-.72,0-1.3-.58-1.3-1.3s.58-1.3,1.3-1.3,1.3.58,1.3,1.3-.58,1.3-1.3,1.3Z"/>
            <g class="cls-6">
              <g class="cls-44">
                <path class="cls-28" d="M125.21,64.2c1.97,0,3.58,1.6,3.58,3.58s-1.6,3.58-3.58,3.58-3.58-1.6-3.58-3.58,1.6-3.58,3.58-3.58M125.21,63.48c-2.37,0-4.3,1.93-4.3,4.3s1.93,4.3,4.3,4.3,4.3-1.93,4.3-4.3-1.93-4.3-4.3-4.3h0Z"/>
              </g>
            </g>
            <g>
              <path class="cls-32" d="M13.45,30.98h14.96c2.81,0,5.1,2.28,5.1,5.1v79.25c0,1.22-.99,2.22-2.22,2.22H10.57c-1.22,0-2.22-.99-2.22-2.22V36.08c0-2.81,2.28-5.1,5.1-5.1Z"/>
              <g class="cls-34">
                <rect class="cls-24" x="13.94" y="26.91" width="3.98" height="93.48"/>
                <rect class="cls-24" x="23.57" y="26.91" width="3.98" height="93.48"/>
              </g>
              <path class="cls-5" d="M13.45,30.98h14.96c2.81,0,5.1,2.28,5.1,5.1v79.25c0,1.22-.99,2.22-2.22,2.22H10.57c-1.22,0-2.22-.99-2.22-2.22V36.08c0-2.81,2.28-5.1,5.1-5.1Z"/>
            </g>
            <g>
              <path class="cls-13" d="M77.12,120.33c-2.93-5.99-4.64-13.24,0-23.18,3.74,7.15,3.75,14.75,0,23.18Z"/>
              <path class="cls-13" d="M106.28,120.33c-2.93-5.99-4.64-13.24,0-23.18,3.74,7.15,3.75,14.75,0,23.18Z"/>
              <g>
                <path class="cls-25" d="M91.58,98.22c-5.83,0-5.83,21.04,0,21.04s6.06-21.04,0-21.04ZM91.61,100.48c1.35,0,2.21,2.12,2.59,4.84h-5.07c.36-2.72,1.19-4.84,2.48-4.84ZM91.61,117c-1.41,0-2.27-2.55-2.58-5.65h5.26c-.32,3.1-1.21,5.65-2.68,5.65Z"/>
                <path class="cls-26" d="M94.3,111.35c-.32,3.1-1.21,5.65-2.68,5.65s-2.27-2.55-2.58-5.65h5.26Z"/>
                <path class="cls-15" d="M94.2,105.32h-5.07c.36-2.72,1.19-4.84,2.48-4.84s2.21,2.12,2.59,4.84Z"/>
              </g>
            </g>
            <path class="cls-27" d="M126.64,120.55v-26.82c0-3.75-3.25-6.79-7.24-6.79h-56.4c-3.99,0-7.24,3.05-7.24,6.79v26.82c0,3.49-6.29,3.49-6.29,0v-26.82c0-6.29,5.38-11.42,11.98-11.42h59.48c6.61,0,11.47,5.12,11.47,11.42v26.82c0,3.49-5.78,3.49-5.78,0Z"/>
            <path class="cls-27" d="M120.87,120.5v-25.39c0-.97-1.04-1.76-1.99-1.76l-55.61.51c-.95,0-1.73.79-1.73,1.76v24.88c0,1.3-1.93,2.35-3.21,2.35s-2.31-1.05-2.31-2.35v-27.11c0-3.56,2.85-6.46,6.35-6.46h57.68c3.5,0,6.6,2.9,6.6,6.46v27.11c0,3.54-5.77,3.54-5.77,0Z"/>
            <path class="cls-27" d="M115.28,120.26v-21.96c0-1.64-1.23-2.96-2.75-2.96h-40.7c-.63,0-1.24-.22-1.72-.63-.66-.57-1.69-1.36-2.78-1.7-1.46-.46-2.9.78-2.77,2.3l2.05,24.96c0,1.43-.97,2.7-2.29,2.84-1.51.16-2.79-1.12-2.79-2.72v-24.75c0-1.51,0-4.72,4.4-4.72h50.23c4.36,0,4.69,3.21,4.69,4.72v24.75c-.08,3.78-5.67,3.67-5.59-.12Z"/>
            <rect class="cls-21" x="61.54" y="92.83" width="7.13" height="30.33" rx="2.5" ry="2.5"/>
            <g>
              <g class="cls-36">
                <g>
                  <path class="cls-37" d="M43.71,56.39c-.28.69-1,1.06-1.7.91l-.87,2.15c.6.38.87,1.16.59,1.84s-1,1.06-1.7.91l-.87,2.15c.6.38.87,1.16.59,1.84s-1,1.06-1.7.91l-.87,2.15c.6.38.87,1.16.59,1.84-.1.26-.27.47-.48.63l2.86,1.16c.05.01.1.03.15.05s.1.04.14.07l2.85,1.16c-.04-.26,0-.52.09-.78.31-.77,1.2-1.15,1.97-.83s1.15,1.2.83,1.97c-.1.26-.27.47-.47.62l2.85,1.16c.05.01.1.03.15.05s.1.04.14.07l2.85,1.16c-.04-.26,0-.52.09-.78.31-.77,1.2-1.15,1.97-.83l.85-2.1c-.77-.31-1.15-1.2-.83-1.97s1.2-1.15,1.97-.83l.85-2.1c-.77-.31-1.15-1.2-.83-1.97s1.2-1.15,1.97-.83l.85-2.1c-.77-.31-1.15-1.2-.83-1.97s1.2-1.15,1.97-.83l.2-.49-2.99-1.21c-.41.33-.99.44-1.52.23s-.87-.69-.93-1.22l-5.97-2.42c-.41.33-.99.44-1.52.23s-.87-.69-.93-1.22l-2.73-1.11-.21.51c.6.38.87,1.16.59,1.84ZM54.67,61.64c.77.31,1.15,1.2.83,1.97s-1.2,1.15-1.97.83-1.15-1.2-.83-1.97,1.2-1.15,1.97-.83ZM52.68,66.55c.77.31,1.15,1.2.83,1.97s-1.2,1.15-1.97.83-1.15-1.2-.83-1.97,1.2-1.15,1.97-.83ZM50.69,71.46c.77.31,1.15,1.2.83,1.97s-1.2,1.15-1.97.83-1.15-1.2-.83-1.97,1.2-1.15,1.97-.83ZM51.3,57.84c.77.31,1.15,1.2.83,1.97s-1.2,1.15-1.97.83-1.15-1.2-.83-1.97,1.2-1.15,1.97-.83ZM49.31,62.75c.77.31,1.15,1.2.83,1.97s-1.2,1.15-1.97.83-1.15-1.2-.83-1.97,1.2-1.15,1.97-.83ZM47.33,67.66c.77.31,1.15,1.2.83,1.97s-1.2,1.15-1.97.83-1.15-1.2-.83-1.97,1.2-1.15,1.97-.83ZM46.24,58.23c.77.31,1.15,1.2.83,1.97s-1.2,1.15-1.97.83-1.15-1.2-.83-1.97,1.2-1.15,1.97-.83ZM44.25,63.14c.77.31,1.15,1.2.83,1.97s-1.2,1.15-1.97.83-1.15-1.2-.83-1.97,1.2-1.15,1.97-.83ZM42.26,68.05c.77.31,1.15,1.2.83,1.97s-1.2,1.15-1.97.83-1.15-1.2-.83-1.97,1.2-1.15,1.97-.83Z"/>
                  <g>
                    <g class="cls-6">
                      <circle class="cls-38" cx="54.1" cy="63.05" r="1.51"/>
                      <circle class="cls-38" cx="59.16" cy="62.66" r="1.51"/>
                      <circle class="cls-38" cx="52.11" cy="67.96" r="1.51"/>
                      <circle class="cls-38" cx="57.17" cy="67.56" r="1.51"/>
                      <circle class="cls-38" cx="45.67" cy="59.63" r="1.51"/>
                      <circle class="cls-38" cx="50.73" cy="59.24" r="1.51"/>
                      <circle class="cls-38" cx="42.31" cy="55.83" r="1.51"/>
                      <circle class="cls-38" cx="43.68" cy="64.54" r="1.51"/>
                      <circle class="cls-38" cx="48.75" cy="64.15" r="1.51"/>
                      <circle class="cls-38" cx="40.32" cy="60.73" r="1.51"/>
                    </g>
                    <g class="cls-6">
                      <circle class="cls-38" cx="50.12" cy="72.86" r="1.51"/>
                      <circle class="cls-38" cx="55.19" cy="72.47" r="1.51"/>
                      <circle class="cls-38" cx="48.14" cy="77.77" r="1.51"/>
                      <circle class="cls-38" cx="53.2" cy="77.38" r="1.51"/>
                      <circle class="cls-38" cx="41.7" cy="69.45" r="1.51"/>
                      <circle class="cls-38" cx="46.76" cy="69.06" r="1.51"/>
                      <circle class="cls-38" cx="38.33" cy="65.64" r="1.51"/>
                      <circle class="cls-38" cx="39.71" cy="74.36" r="1.51"/>
                      <circle class="cls-38" cx="55.99" cy="58.38" r="1.51"/>
                      <circle class="cls-38" cx="47.56" cy="54.97" r="1.51"/>
                      <circle class="cls-38" cx="44.77" cy="73.97" r="1.51"/>
                      <circle class="cls-38" cx="36.35" cy="70.55" r="1.51"/>
                    </g>
                  </g>
                  <g>
                    <g>
                      <circle class="cls-39" cx="53.83" cy="62.42" r="1.51"/>
                      <circle class="cls-39" cx="58.9" cy="62.03" r="1.51"/>
                      <circle class="cls-39" cx="51.85" cy="67.33" r="1.51"/>
                      <circle class="cls-39" cx="56.91" cy="66.94" r="1.51"/>
                      <circle class="cls-39" cx="45.4" cy="59.01" r="1.51"/>
                      <circle class="cls-39" cx="50.47" cy="58.62" r="1.51"/>
                      <circle class="cls-39" cx="42.04" cy="55.2" r="1.51"/>
                      <circle class="cls-39" cx="43.42" cy="63.92" r="1.51"/>
                      <circle class="cls-39" cx="48.48" cy="63.53" r="1.51"/>
                      <circle class="cls-39" cx="40.06" cy="60.11" r="1.51"/>
                    </g>
                    <g>
                      <circle class="cls-39" cx="49.86" cy="72.24" r="1.51"/>
                      <circle class="cls-39" cx="54.92" cy="71.85" r="1.51"/>
                      <circle class="cls-39" cx="47.87" cy="77.14" r="1.51"/>
                      <circle class="cls-39" cx="52.93" cy="76.75" r="1.51"/>
                      <circle class="cls-39" cx="41.43" cy="68.82" r="1.51"/>
                      <circle class="cls-39" cx="46.49" cy="68.43" r="1.51"/>
                      <circle class="cls-39" cx="38.07" cy="65.01" r="1.51"/>
                      <circle class="cls-39" cx="39.44" cy="73.73" r="1.51"/>
                      <circle class="cls-39" cx="55.72" cy="57.75" r="1.51"/>
                      <circle class="cls-39" cx="47.29" cy="54.34" r="1.51"/>
                      <circle class="cls-39" cx="44.51" cy="73.34" r="1.51"/>
                      <circle class="cls-39" cx="36.08" cy="69.92" r="1.51"/>
                    </g>
                  </g>
                </g>
              </g>
              <g>
                <path class="cls-2" d="M62.43,50.5c-.08-.07-.17-.13-.26-.18-.06-.04-.11-.07-.16-.11-.07-.04-.14-.08-.22-.12-.02-.02-.04-.03-.06-.03-.11-.06-.22-.11-.33-.15,0,0,0,0-.01,0-.09-.04-.19-.08-.29-.11"/>
                <path class="cls-2" d="M63.98,55.06c-.12.44-.31.87-.55,1.29,0,.01-.01.02-.02.03-.91,1.55-2.57,2.82-4.44,3.15-3.97.7-7.93.36-11.79,1.75-3.13.98-5.55,3.93-5.26,7.37.44,5.2,6.96,7.65,10.89,4.23,2.04-1.79,3.27-3.74,2.72-6.46"/>
                <path class="cls-11" d="M64.11,54.44c-.66,5.53-8.9,4.98-8.75-.63.43-5.96,9.04-5.45,8.76.53v.1Z"/>
              </g>
            </g>
            <circle class="cls-14" cx="125.21" cy="67.78" r="7.85" transform="translate(38.25 180.51) rotate(-80.78)"/>
            <g class="cls-35">
              <g class="cls-40">
                <g class="cls-45">
                  <path class="cls-41" d="M129.8,71.77c.15.11.31.21.5.22s.38-.1.42-.28c.02-.13-.04-.26-.13-.35s-.2-.16-.31-.24c-.23-.16-.44-.36-.65-.55-.27-.25-.53-.53-.81-.76-.43.64.49,1.6.98,1.97Z"/>
                  <path class="cls-30" d="M129.82,71.74c.17.17.62.18.61-.08-.28-.34-.59-.88-1.01-1.09-.27-.17-.57-.3-.81-.51l.49-.07c-.07.24.07.47.18.73.14.31.22.79.55,1.02h0ZM129.78,71.8c-.3-.25-.79-.34-1.09-.69-.34-.38-.51-1.03-.14-1.49,0,0,.25-.31.25-.31l.24.24c.43.47.67,1.17,1.33,1.38.15.08.34.12.5.27.45.46-.07,1.21-.67.9-.18-.09-.3-.2-.43-.3h0Z"/>
                </g>
                <g class="cls-45">
                  <path class="cls-41" d="M128.39,71.49l.51,1.96-1.38-1.28c-.15-.14-.3-.29-.32-.49-.01-.13.04-.27.09-.39.08-.17.17-.35.32-.46.55-.4.68.29.77.66Z"/>
                  <path class="cls-30" d="M128.42,71.48c.2.64.8,1.17.69,1.91,0,0-.03.81-.03.81-.3-.52-.62-1.16-1.17-1.45-.39-.27-.79-.35-1.03-.87-.23-.72.45-1.7,1.19-1.41.39.23.25.67.35.99h0ZM128.35,71.5c-.05-.18-.23-.62-.44-.53,0,.04,0,.06-.05.1-.1.06-.31.55-.32.6,0,.06.1.2.23.36.33.49.7,1.02,1.26,1.26,0,0-.37.22-.37.22-.46-.6-.19-1.35-.32-2.01h0Z"/>
                </g>
                <g class="cls-45">
                  <path class="cls-41" d="M121.86,72.88c-.23.18-.57.23-.84.12s-.5-.4-.53-.71c.38.33,1.05.2,1.3-.23.62-1.11-1.06-1.48-1.54-.55-.08.16-.13.35-.28.45-.11.08-.27.09-.39.03s-.19-.21-.17-.35c.02-.15.15-.27.29-.34s.28-.12.42-.2c.29-.17.45-.49.65-.76s.5-.53.83-.49c.1.26.18.77.37.97.18.18.63.26.85.42.44.31.82.7,1.31.94.68.33,1.28.22,1.97.05.23-.05.2-.17.36-.01.09.09.12.46.15.58.1.37.12.88.35,1.18.12.15.28.24.53.24,0,.04,0,.09,0,.13-.43.07-.86.14-1.29.22.19-.03-.26-1.47-.44-1.6-.34-.25-.86.01-1.03.37-.19.39,0,1.04.18,1.4-.48.04-.97-.07-1.39-.31.23.13.58-.86.6-.99.04-.24-.02-.52-.22-.67-.18-.14-.43-.15-.65-.24s-.39-.37-.24-.54c-.24-.09-.5.07-.66.27-.31.39-.99.94-.97,1.46-.66-.42-1.23-.97-1.67-1.62-.05-.07-.1-.15-.11-.24s.04-.19.13-.2c.09-.02.16.05.23.11.23.23.45.47.65.73l1.25.4Z"/>
                  <path class="cls-30" d="M121.89,72.87c-.51.58-1.48.16-1.57-.57,0,0-.06-.39-.06-.39l.33.25c.45.36,1.21-.12,1.05-.65-.17-.43-1.04-.28-1.17.17-.06.12-.12.4-.43.58-.73.37-1.33-.64-.72-1.12.23-.19.36-.19.52-.28.27-.11.4-.35.63-.67.23-.36.73-.74,1.3-.6.12.36.19.89.33,1.06.16.16.59.24.89.51.79.74,1.65,1.36,2.74,1.01.34-.04.58-.27.73-.11.3.33.26,1.03.44,1.45.12.43.39.56.75.47,0,.15.03.37.04.52,0,0-.19.04-.19.04l-1.28.27-.09-.52c-.14,0-.18.18-.18.13-.06-.4-.24-.91-.43-1.25-.77-.03-.59.87-.31,1.39,0,0,.23.46.23.46,0,0-.52.05-.52.05-.55.06-1.12-.06-1.61-.33l.38-.66c-.12-.08-.26-.02-.29,0,.09-.11.16-.28.23-.43.12-.32.19-.48-.01-.63-.24-.1-.66-.14-.87-.44-.18-.21-.25-.6-.03-.84,0,0,.15.57.15.57-.16-.02-.47.41-.63.54-.29.28-.57.62-.57.84v.57s-.46-.31-.46-.31c-.77-.54-1.42-1.16-1.8-2.03-.09-.4.39-.63.63-.35.25.28.45.55.66.83-.31-.17,1.24.5,1.19.46h0ZM121.82,72.89c-.47-.15-.93-.16-1.31-.33,0,0-.7-.7-.7-.7-.06-.05-.06-.01-.01-.03.02-.01,0,0,.02.02.41.63,1.08,1.22,1.72,1.61,0,0-.46.26-.46.26.02-.79.68-1.25,1.11-1.82.19-.19.53-.41.95-.26l.15.57c.06-.08,0-.14.05-.08.04.04.04.05.17.08.31.05.81.27.92.64.18.39.03.85-.07,1.09-.13.3-.23.62-.55.81-.1.06-.3.09-.47,0l.38-.66c.34.21.76.31,1.17.28l-.29.51c-.17-.38-.29-.76-.28-1.23-.01-.79,1.07-1.56,1.74-.83.23.41.3.72.4,1.14.06.28.17.75-.21.85,0,0-.09-.51-.09-.51,0,0,1.3-.16,1.3-.16l-.17.21s0-.13,0-.13l.21.19c-.96,0-.92-1.19-1.06-1.87-.03-.12-.01-.21-.1-.28-.05-.02.03,0,.01,0-.52.2-1.06.26-1.63.22-.77-.09-1.33-.66-1.89-1.04-.25-.2-.58-.17-.98-.46-.34-.38-.34-.76-.48-1.04,0,0,.21.17.21.17-.61.07-.73,1.04-1.38,1.31-.18.1-.43.17-.45.29.08.06.11-.04.22-.26.18-.41.63-.71,1.07-.73.71-.12,1.47.61,1.03,1.35-.26.62-1.16.82-1.66.36,0,0,.27-.14.27-.14.02.61.68.84,1.17.61h0Z"/>
                </g>
                <g class="cls-45">
                  <path class="cls-41" d="M120.94,68.71c-.1-.12-.27-.18-.43-.18-.16,0-.32.04-.47.09-.1.03-.18.08-.26.14-.2-.07-1.03-.16-1.03.07-.12.07-.22.16-.28.28-.06.12-.06.27.02.38.09.11.25.15.39.13.14-.02.27-.09.39-.16.1-.05.24-.11.37-.18.05.07.15.13.29.17.26.12.59.16.84,0,.15-.09.25-.26.26-.44,0-.11-.02-.22-.09-.31Z"/>
                  <path class="cls-30" d="M120.91,68.73c-.22-.26-.56,0-.78.14-.08.12-.2.16-.33.21-.26-.02-.55-.14-.81-.19-.08-.02-.13.01-.12-.05l-.06.11c-.47.21-.25.7.21.28.13-.09.3-.18.45-.28l.46.11s.02,0,.09.02c.02,0,.06.02.07.03.47.26,1.06.13.81-.37h0ZM120.97,68.69c.38.41.01,1.25-.63,1.23-.12.04-.73-.16-.49-.09-.15-.04-.35-.11-.49-.31l.46.11c-.38.11-.72.4-1.17.22-.27-.09-.4-.43-.31-.64,0-.17.52-.66.31-.37.05-.26.23-.27.31-.32.33-.11.61-.17.95-.05,0,0-.31.06-.31.06.13-.07.28-.14.41-.16.33.03.76.05.98.33h0Z"/>
                </g>
                <g class="cls-45">
                  <path class="cls-41" d="M120.96,67.35c0-.17,0-.34,0-.51-.55.16-1.17.31-1.66.03-.4-.22-.63-.73-.54-1.18.18.13.48,0,.51-.21s-.23-.43-.43-.35c-.37.14-.4,1.55-.21,1.9.17.32.63.45.96.49.13.01,1.38-.04,1.38-.18Z"/>
                  <path class="cls-30" d="M120.92,67.35c0-.17-.02-.34-.04-.51l.1.07c-1.3.9-2.77.21-2.28-1.45,0,0,.13.14.13.14.23.16.49-.22.15-.28-.08,0-.04.03-.05.06-.07.34-.16,1.26.14,1.59.46.31,1.31.51,1.86.38h0ZM120.99,67.35c-.16.19-.5.17-.72.28-.63.26-1.63.31-2.01-.46-.24-.59-.14-2.57.85-2.21.62.31.14,1.16-.43.83,0,0,.18-.07.18-.07,0,1.09,1.27,1.1,2.18,1.04-.03.2-.05.4-.05.59h0Z"/>
                </g>
                <g class="cls-45">
                  <path class="cls-41" d="M121.94,65.26c.09-.1.17-.22.24-.34.08-.15-.91.15-.98.19-.36.19-.53.22-.84-.17-.36-.46-.61-1.01-.69-1.59-.26.02-.45.26-.49.52s.05.51.14.75c.12.31.27.62.53.81.66.47,1.53.42,2.09-.18Z"/>
                  <path class="cls-30" d="M121.92,65.23c.04-.07.17-.25.2-.33.02-.05-.01.03.03.04-.23.07-.5.24-.71.37-1.26.96-1.6-1.09-1.9-1.94,0,0,.16.13.16.13-.12.04-.21.17-.22.31,0,1.16,1.53,2.29,2.46,1.42h0ZM121.97,65.28c-.73,1.01-2.4,1.06-2.87-.26-.3-.61-.39-1.74.56-1.82.17.01.16-.05.16.13-.04.62.52,1.39,1,1.59.1,0,.3-.11.44-.12.31-.01.62-.06.94.01.09.03.04.17.03.15-.06.06-.2.24-.26.32h0Z"/>
                </g>
                <g class="cls-45">
                  <path class="cls-41" d="M120.7,63.66c.26.35.75.57,1.15.38.22-.1.38-.36.29-.59-.04-.1-.13-.17-.21-.24-.29-.24-.8-.9-1.24-.7s-.2.86,0,1.14Z"/>
                  <path class="cls-30" d="M120.73,63.64c.22.33.71.14.98.13.11.02.33-.06.34-.21.02-.15-.23-.24-.42-.36-.23-.1-.63-.38-.78-.33-.2-.01-.29.6-.12.77h0ZM120.67,63.68c-.2-.29-.63-.58-.52-1.04.32-1,1.49-.44,1.75.28.08.2.3.31.38.61.05.28-.05.6-.33.79-.57.36-1.04-.24-1.28-.64h0Z"/>
                </g>
                <g class="cls-45">
                  <path class="cls-41" d="M131.57,65.08c.42.6.65,1.34.65,2.07,0,.12-.02.26-.13.3-.14.05-.26-.12-.35-.24-.13-.17-.33-.28-.54-.3-.33-.03-.69.15-.99,0-.3-.15-.37-.54-.34-.87.26-.1.55-.05.82-.04s.59-.04.75-.27c.4-.6-.55-1.92-.9-2.36-.6-.75-1.36-1.37-2.2-1.83-.66-.36-1.39-.61-2.13-.71-1.02-.15-2.07-.04-3.04.31-.24.09-1.16.34-1.09.7.06.27.7.44.87.7.14.21.21.45.34.66s.33.41.57.43.51-.21.45-.45c-.22-.23-.44-.46-.57-.75s-.14-.65.04-.9c.13-.18.34-.28.56-.31.51-.06,1.03.34,1.09.85.03.21-.01.42-.02.63s.03.44.19.59.44.16.55-.02c.03-.57.07-1.14.1-1.71.37,0,.75,0,1.1.12s.66.43.69.8c.05.57-.66,1.44-.27,1.98.17.23.56.26.74.04.17-.22.09-.53.07-.81-.02-.21.03-.93.28-1.03.19-.08.46.22.6.34.22.19.45.41.51.69.06.3-.1.6-.33.8-.15.13-.33.22-.46.37s-.19.39-.07.54c.15.18.45.12.62-.05s.24-.4.37-.59.35-.37.58-.31c.15.04.31.17.42.07l.48.56Z"/>
                  <path class="cls-30" d="M131.6,65.05c.37.3,1.25,3.06.18,2.35-.32-.45-.66-.4-1.16-.29-.74.15-1.06-.62-.99-1.25.42-.23.99-.11,1.26-.16.3-.06.34-.15.32-.43-1.1-3.41-5.59-5.57-8.86-3.68-.54.37.53.47.75.91.2.33.31.68.55.84.17.16.48.05.44-.12,0,0,.05.1.05.1-.34-.33-.81-.79-.77-1.46.08-1.16,1.75-1.23,2.23-.29.32.43.05,1.07.22,1.42.02.08.14,0,.04.07l-.05.16c.01-.24.09-1.85.1-2.05.71-.01,1.51-.15,2.19.52.57.5.27,1.39.03,1.93-.1.3-.19.66.11.63.14.06-.2-1.59.52-1.89.41-.1.54.11.67.19.44.39,1.06,1.03.67,1.67-.15.31-.47.48-.67.61-.57.39,0,.83.36.31.19-.3.46-.91.95-.74.15.06.28.16.38.05,0,0,.03.03.03.03l.47.57h0ZM131.54,65.1s-.48-.55-.48-.55h.06c-.17.12-.32-.02-.43-.04-.45-.1-.58.42-.78.74-.56.88-1.5-.01-.69-.65.49-.31.71-.77.41-1.09-.13-.15-.39-.35-.57-.5-.08-.08-.21-.07-.08-.08.08-.06-.02.04-.02.15-.04.22-.06.48-.02.71.07.35.08.86-.34,1.11-1.07.48-1.54-.71-1.17-1.48.55-1.17.13-1.5-1.16-1.48,0,0,.37-.35.37-.35l-.12,1.7v.11c-.37.56-1.05.37-1.27-.02-.21-.35-.16-.69-.14-.93.22-.81-.99-1.35-1.19-.52-.07.38.26.8.59,1.15.14.74-.78.92-1.08.56-.35-.29-.42-.7-.58-.98-.12-.25-.53-.32-.82-.64-.31-.45.38-.74.71-.86,2.75-1.16,6.16-.36,8.04,2.01.64.7,1.9,2.82.19,3.1-.45.03-.78-.11-1.02-.02,0,0,.15-.2.15-.2-.05.42.07.81.51.75.21,0,.47-.07.75,0,.26.06.48.31.58.48.07.09.12.11.17.07.2-.73-.15-1.62-.55-2.25h0Z"/>
                </g>
                <g class="cls-45">
                  <path class="cls-41" d="M130.18,67.46c-.16.06-.32.11-.48.17.2.64.27,1.31.21,1.98.55-.53,1.82,1.25,1.97.04.02-.17,0-.35-.06-.51-.66,0-.75-.01-1.13-.58-.06-.09-.74-1.02-.51-1.1Z"/>
                  <path class="cls-30" d="M130.19,67.49c-.14.12-.28.22-.43.31l.12-.24c.35.62.47,1.37.22,2.05,0,0-.34-.16-.34-.16.7-.37,1.16.47,1.8.36-.06-.1.05-.32-.09-.55,0,0,.34.24.34.24-.22,0-.44.05-.8-.09-.62-.4-.74-.97-.94-1.6,0-.13-.08-.32.09-.39,0,0,.02.07.02.07h0ZM130.19,67.49c.08.2.95,1.12,1.13,1.22.09.03.58.05.78.08,0,0,.06.21.06.21.14.48.08,1.29-.58,1.32-.53-.02-1.09-1-1.54-.58,0,0-.2.91-.2.91-.14-1-.31-2.19-.35-3.2.12,0,.7-.12.69.04h0Z"/>
                </g>
              </g>
              <g>
                <path class="cls-42" d="M129.8,71.77c.15.11.31.21.5.22s.38-.1.42-.28c.02-.13-.04-.26-.13-.35s-.2-.16-.31-.24c-.23-.16-.44-.36-.65-.55-.27-.25-.53-.53-.81-.76-.43.64.49,1.6.98,1.97Z"/>
                <path class="cls-42" d="M128.39,71.49l.51,1.96-1.38-1.28c-.15-.14-.3-.29-.32-.49-.01-.13.04-.27.09-.39.08-.17.17-.35.32-.46.55-.4.68.29.77.66Z"/>
                <path class="cls-42" d="M121.86,72.88c-.23.18-.57.23-.84.12s-.5-.4-.53-.71c.38.33,1.05.2,1.3-.23.62-1.11-1.06-1.48-1.54-.55-.08.16-.13.35-.28.45-.11.08-.27.09-.39.03s-.19-.21-.17-.35c.02-.15.15-.27.29-.34s.28-.12.42-.2c.29-.17.45-.49.65-.76s.5-.53.83-.49c.1.26.18.77.37.97.18.18.63.26.85.42.44.31.82.7,1.31.94.68.33,1.28.22,1.97.05.23-.05.2-.17.36-.01.09.09.12.46.15.58.1.37.12.88.35,1.18.12.15.28.24.53.24,0,.04,0,.09,0,.13-.43.07-.86.14-1.29.22.19-.03-.26-1.47-.44-1.6-.34-.25-.86.01-1.03.37-.19.39,0,1.04.18,1.4-.48.04-.97-.07-1.39-.31.23.13.58-.86.6-.99.04-.24-.02-.52-.22-.67-.18-.14-.43-.15-.65-.24s-.39-.37-.24-.54c-.24-.09-.5.07-.66.27-.31.39-.99.94-.97,1.46-.66-.42-1.23-.97-1.67-1.62-.05-.07-.1-.15-.11-.24s.04-.19.13-.2c.09-.02.16.05.23.11.23.23.45.47.65.73l1.25.4Z"/>
                <path class="cls-42" d="M120.94,68.71c-.1-.12-.27-.18-.43-.18-.16,0-.32.04-.47.09-.1.03-.18.08-.26.14-.2-.07-1.03-.16-1.03.07-.12.07-.22.16-.28.28-.06.12-.06.27.02.38.09.11.25.15.39.13.14-.02.27-.09.39-.16.1-.05.24-.11.37-.18.05.07.15.13.29.17.26.12.59.16.84,0,.15-.09.25-.26.26-.44,0-.11-.02-.22-.09-.31Z"/>
                <path class="cls-42" d="M120.96,67.35c0-.17,0-.34,0-.51-.55.16-1.17.31-1.66.03-.4-.22-.63-.73-.54-1.18.18.13.48,0,.51-.21s-.23-.43-.43-.35c-.37.14-.4,1.55-.21,1.9.17.32.63.45.96.49.13.01,1.38-.04,1.38-.18Z"/>
                <path class="cls-42" d="M121.94,65.26c.09-.1.17-.22.24-.34.08-.15-.91.15-.98.19-.36.19-.53.22-.84-.17-.36-.46-.61-1.01-.69-1.59-.26.02-.45.26-.49.52s.05.51.14.75c.12.31.27.62.53.81.66.47,1.53.42,2.09-.18Z"/>
                <path class="cls-42" d="M120.7,63.66c.26.35.75.57,1.15.38.22-.1.38-.36.29-.59-.04-.1-.13-.17-.21-.24-.29-.24-.8-.9-1.24-.7s-.2.86,0,1.14Z"/>
                <path class="cls-42" d="M131.57,65.08c.42.6.65,1.34.65,2.07,0,.12-.02.26-.13.3-.14.05-.26-.12-.35-.24-.13-.17-.33-.28-.54-.3-.33-.03-.69.15-.99,0-.3-.15-.37-.54-.34-.87.26-.1.55-.05.82-.04s.59-.04.75-.27c.4-.6-.55-1.92-.9-2.36-.6-.75-1.36-1.37-2.2-1.83-.66-.36-1.39-.61-2.13-.71-1.02-.15-2.07-.04-3.04.31-.24.09-1.16.34-1.09.7.06.27.7.44.87.7.14.21.21.45.34.66s.33.41.57.43.51-.21.45-.45c-.22-.23-.44-.46-.57-.75s-.14-.65.04-.9c.13-.18.34-.28.56-.31.51-.06,1.03.34,1.09.85.03.21-.01.42-.02.63s.03.44.19.59.44.16.55-.02c.03-.57.07-1.14.1-1.71.37,0,.75,0,1.1.12s.66.43.69.8c.05.57-.66,1.44-.27,1.98.17.23.56.26.74.04.17-.22.09-.53.07-.81-.02-.21.03-.93.28-1.03.19-.08.46.22.6.34.22.19.45.41.51.69.06.3-.1.6-.33.8-.15.13-.33.22-.46.37s-.19.39-.07.54c.15.18.45.12.62-.05s.24-.4.37-.59.35-.37.58-.31c.15.04.31.17.42.07l.48.56Z"/>
                <path class="cls-42" d="M130.18,67.46c-.16.06-.32.11-.48.17.2.64.27,1.31.21,1.98.55-.53,1.82,1.25,1.97.04.02-.17,0-.35-.06-.51-.66,0-.75-.01-1.13-.58-.06-.09-.74-1.02-.51-1.1Z"/>
              </g>
            </g>
            <g>
              <circle class="cls-46" cx="125.21" cy="67.77" r="6.99"/>
              <circle class="cls-3" cx="125.21" cy="67.77" r="6.99"/>
            </g>
            <g class="cls-48">
              <path class="cls-47" d="M125.21,60.79c-3.86,0-6.99,3.13-6.99,6.99s3.13,6.99,6.99,6.99,6.99-3.13,6.99-6.99-3.13-6.99-6.99-6.99Z"/>
            </g>
            <path class="cls-31" d="M125.21,65.39c-1.32,0-2.39,1.07-2.39,2.39s1.07,2.39,2.39,2.39,2.39-1.07,2.39-2.39-1.07-2.39-2.39-2.39Z"/>
          </g>
        </g>
      </g>
    </g>
  </g>
</svg>