<?xml version="1.0" encoding="UTF-8"?>
<svg id="Layer_2" data-name="Layer 2" xmlns="http://www.w3.org/2000/svg" xmlns:xlink="http://www.w3.org/1999/xlink" viewBox="0 0 412.05 441.15">
  <defs>
    <style>
      .cls-1, .cls-2, .cls-3 {
        fill: none;
      }

      .cls-4 {
        fill: #7bb889;
      }

      .cls-4, .cls-5, .cls-6, .cls-7, .cls-8, .cls-9, .cls-10, .cls-11, .cls-12, .cls-13, .cls-14, .cls-15, .cls-2, .cls-16, .cls-17, .cls-18, .cls-3, .cls-19, .cls-20, .cls-21, .cls-22, .cls-23, .cls-24, .cls-25, .cls-26, .cls-27, .cls-28, .cls-29, .cls-30, .cls-31, .cls-32, .cls-33, .cls-34, .cls-35, .cls-36 {
        stroke: #010101;
      }

      .cls-4, .cls-6, .cls-8, .cls-9, .cls-11, .cls-12, .cls-14, .cls-15, .cls-17, .cls-18, .cls-3, .cls-19, .cls-37, .cls-38, .cls-20, .cls-39, .cls-23, .cls-25, .cls-26, .cls-28, .cls-40, .cls-41, .cls-33, .cls-34 {
        stroke-miterlimit: 10;
      }

      .cls-5 {
        fill: #030006;
      }

      .cls-5, .cls-7, .cls-10, .cls-13, .cls-2, .cls-16, .cls-21, .cls-22, .cls-24, .cls-27, .cls-29, .cls-30, .cls-31, .cls-32, .cls-35, .cls-36 {
        stroke-linejoin: round;
      }

      .cls-42 {
        fill: #010101;
      }

      .cls-6 {
        fill: #ecdebc;
      }

      .cls-7 {
        fill: #708fbc;
      }

      .cls-8 {
        fill: #77bc88;
      }

      .cls-9 {
        fill: #e79a47;
      }

      .cls-10 {
        fill: #718fbc;
      }

      .cls-11 {
        fill: #df4f2b;
      }

      .cls-12, .cls-43 {
        fill: #ead15f;
      }

      .cls-13 {
        fill: #fecb41;
      }

      .cls-14, .cls-16 {
        fill: #eadebc;
      }

      .cls-15 {
        fill: #ea6445;
      }

      .cls-44 {
        fill: #12080c;
      }

      .cls-17 {
        fill: #f3e6c2;
      }

      .cls-45 {
        clip-path: url(#clippath-1);
      }

      .cls-18 {
        fill: #8fc57d;
      }

      .cls-19 {
        fill: #e65234;
      }

      .cls-37 {
        fill: #fed044;
      }

      .cls-37, .cls-38, .cls-39, .cls-40, .cls-41 {
        stroke: #010000;
      }

      .cls-38 {
        fill: #301e31;
      }

      .cls-20, .cls-24, .cls-46 {
        fill: #e89f43;
      }

      .cls-39 {
        fill: #e99ea8;
      }

      .cls-21, .cls-34 {
        fill: #ebdeb9;
      }

      .cls-22 {
        fill: #e29a47;
      }

      .cls-23 {
        fill: #301c31;
      }

      .cls-47 {
        fill: #a4d19a;
      }

      .cls-25 {
        fill: #e5d7b7;
      }

      .cls-26, .cls-48 {
        fill: #eee0bc;
      }

      .cls-27 {
        fill: #fdc83b;
      }

      .cls-28 {
        fill: #81bb87;
      }

      .cls-40 {
        fill: #fffdff;
      }

      .cls-49, .cls-32 {
        fill: #eddebb;
      }

      .cls-29 {
        fill: #311c32;
      }

      .cls-30 {
        fill: #301d2f;
      }

      .cls-31 {
        fill: #fbc93e;
      }

      .cls-41 {
        fill: #eca1a7;
      }

      .cls-33 {
        fill: #fdfdfe;
      }

      .cls-35 {
        fill: #ea6745;
      }

      .cls-36 {
        fill: #ea9f43;
      }

      .cls-50 {
        clip-path: url(#clippath);
      }
    </style>
    <clipPath id="clippath">
      <rect class="cls-32" x="90.14" y="49.07" width="157.39" height="24.04" rx="3.3" ry="3.3"/>
    </clipPath>
    <clipPath id="clippath-1">
      <path class="cls-1" d="M213.9,372.79v49.67h126.84v-49.67h-126.84ZM336.78,408.2h-11.13c3.24-2.8,5.1-6.61,5.1-10.58s-1.64-7.41-4.62-10.19l.02-.09h10.82c1.82,3.2,2.77,6.72,2.77,10.29s-1.02,7.31-2.96,10.58Z"/>
    </clipPath>
  </defs>
  <g id="GreenBody_Yellow_Bat" data-name="GreenBody Yellow Bat">
    <g id="GreenBody_YellowBat" data-name="GreenBody, YellowBat">
      <g>
        <path class="cls-23" d="M341.74,107.16h28.78v122.65c0,7.94-6.45,14.39-14.39,14.39h0c-7.94,0-14.39-6.45-14.39-14.39v-122.65h0Z"/>
        <path class="cls-23" d="M260.71,106.99h28.78v122.65c0,7.94-6.45,14.39-14.39,14.39h0c-7.94,0-14.39-6.45-14.39-14.39v-122.65h0Z"/>
      </g>
      <path class="cls-14" d="M287.5,107.16h28.78v150.33h-20.85c-4.38,0-7.93-3.55-7.93-7.93V107.16h0Z"/>
      <path class="cls-14" d="M315.18,107.16h28.78v142.4c0,4.38-3.55,7.93-7.93,7.93h-20.85V107.16h0Z"/>
      <circle class="cls-7" cx="239.88" cy="34.71" r="12.5"/>
      <circle class="cls-5" cx="239.88" cy="34.71" r="7.65"/>
      <g>
        <circle class="cls-29" cx="92.17" cy="61.09" r="9.14"/>
        <g>
          <rect class="cls-49" x="90.14" y="49.07" width="157.39" height="24.04" rx="3.3" ry="3.3"/>
          <g class="cls-50">
            <rect class="cls-30" x="104.07" y="47.21" width="16.67" height="27.35"/>
            <rect class="cls-35" x="88.06" y="47.21" width="16.67" height="27.35"/>
            <rect class="cls-30" x="214.72" y="47.21" width="16.67" height="27.35" transform="translate(446.11 121.76) rotate(180)"/>
            <rect class="cls-35" x="230.73" y="47.21" width="16.67" height="27.35" transform="translate(478.13 121.76) rotate(180)"/>
            <path class="cls-29" d="M176.57,74.56h-3.16c-8.48,0-15.36-6.12-15.36-13.67h0c0-7.55,6.88-13.67,15.36-13.67h3.16"/>
            <path class="cls-29" d="M167.31,74.56h3.16c8.48,0,15.36-6.12,15.36-13.67h0c0-7.55-6.88-13.67-15.36-13.67h-3.16"/>
          </g>
          <rect class="cls-2" x="90.14" y="49.07" width="157.39" height="24.04" rx="3.3" ry="3.3"/>
        </g>
      </g>
      <rect class="cls-36" x="373.45" y="124.83" width="13.27" height="30.77" rx="6.64" ry="6.64"/>
      <path class="cls-36" d="M380.09,179.04h0c3.66,0,6.64,2.97,6.64,6.64v8.91c0,6.55-5.32,11.87-11.87,11.87h0c-.77,0-1.4-.63-1.4-1.4v-19.37c0-3.66,2.97-6.64,6.64-6.64Z"/>
      <g>
        <path class="cls-22" d="M252.75,115.12l-50.18,3.18-.16-.36-1.7-3.74-8.05-17.68c.1,0,.19,0,.29,0l58.87-3.51c.16.42.25.88.25,1.38,0,5.37-10.32,5.53-10.97,10.59-.02.16-.03.33-.03.5,0,3.78,5.57,4.99,9.12,7.12,1.16.7,2.1,1.49,2.56,2.51Z"/>
        <path class="cls-22" d="M252.59,137c.14.23.25.48.32.74l-40.33,2.56-.8-1.76-.1-.23-2.49-5.46-6.62-14.55,50.18-3.18c.17.36.27.76.3,1.2.02.09.02.17.02.26,0,5.55-12,5.55-12,11.1,0,2.52,2.49,3.9,5.2,5.17,2.53,1.19,5.25,2.28,6.32,4.15Z"/>
        <path class="cls-22" d="M252.27,180.89c.14.18.27.37.37.57l-20.72,1.31-.86-1.88-3.58-7.86-3.51-7.71-1.89-4.16,30.54-1.93c.29.51.45,1.08.45,1.72,0,2-1.57,3.29-3.58,4.37-3.53,1.91-8.42,3.19-8.42,6.73,0,.35.05.67.13.98,1.1,3.81,8.59,4.68,11.07,7.86Z"/>
        <path class="cls-22" d="M250.4,212.8l-4.77.11-3.44-7.57-.77-1.7,10.73-.69c.58.67.92,1.45.92,2.39l.58,3.28c.49,2.11-1.08,4.13-3.25,4.18Z"/>
        <path class="cls-22" d="M252.62,159.23l-30.54,1.93-1.76-3.86-3.97-8.72-3.77-8.28,40.33-2.56c.09.25.14.52.15.8.01.08.01.15.01.23,0,5.08-10.08,5.5-11.76,9.81-.16.39-.24.82-.24,1.28,0,3.96,6.13,5.09,9.63,7.44.83.56,1.51,1.18,1.92,1.93Z"/>
        <path class="cls-22" d="M252.15,202.95l-10.73.69-1.16-2.55-.7-1.53-2.69-5.92-1.76-3.86-3.19-7.01,20.72-1.31c.28.5.43,1.06.43,1.68,0,3.49-4.74,4.78-8.26,6.64-1.87.99-3.4,2.14-3.68,3.86-.04.19-.06.39-.06.6,0,.52.11,1,.3,1.44.04.1.1.2.15.29.05.09.11.18.16.26.04.04.07.09.1.13,0,.02.03.04.04.06.04.05.08.1.12.15.03.04.06.08.09.11.06.07.12.14.19.21.02.02.03.03.05.05.08.08.18.17.27.25.11.1.22.2.34.29.12.09.24.19.37.28.24.16.48.32.74.48.03.01.05.02.07.04.28.16.56.31.85.47.17.08.34.17.5.25.32.16.64.31.96.46.02,0,.05.02.07.03,1.11.53,2.25,1.03,3.28,1.6.35.2.69.4,1.01.62.12.07.23.15.33.23.42.31.79.64,1.09,1.01Z"/>
      </g>
      <path class="cls-16" d="M253.07,136.99v1.55h-.01c-.03-.57-.2-1.08-.47-1.54h.48Z"/>
      <path class="cls-16" d="M253.07,116.32v.26c0-.09,0-.17-.02-.26h.02Z"/>
      <g>
        <path class="cls-46" d="M253.07,116.32v.26c0-.09,0-.17-.02-.26h.02Z"/>
        <path class="cls-46" d="M253.07,136.99v1.78c0-.08,0-.15-.01-.23-.03-.57-.2-1.08-.47-1.54h.48Z"/>
        <path class="cls-24" d="M250.83,209.96l-.07.13h-.17c.08-.04.16-.09.24-.13Z"/>
      </g>
      <path class="cls-2" d="M253.07,116.32v.26c0-.09,0-.17-.02-.26h.02Z"/>
      <path class="cls-2" d="M253.07,136.99v1.78c0-.08,0-.15-.01-.23-.03-.57-.2-1.08-.47-1.54h.48Z"/>
      <path class="cls-20" d="M253.07,205.34c0-1.44-.81-2.51-2.01-3.4-.1-.08-.21-.16-.33-.23-.32-.22-.66-.42-1.01-.62-1.03-.57-2.17-1.07-3.28-1.6l3.28-.03c.35.28.69.55,1.01.86.12.09.23.21.33.32,1.2,1.23,2.01,2.71,2.01,4.7Z"/>
      <path class="cls-2" d="M253.07,136.99v1.78c0-.08,0-.15-.01-.23-.03-.57-.2-1.08-.47-1.54h.48Z"/>
      <path class="cls-2" d="M253.07,116.32v.26c0-.09,0-.17-.02-.26h.02Z"/>
      <path class="cls-13" d="M377.91,109.92v3.44c0,3.2,2.6,5.8,5.8,5.8h1.17c1.45,0,2.62,1.17,2.62,2.62v2.33c0,1.45-1.17,2.62-2.62,2.62h0c-3.85,0-6.97,3.12-6.97,6.97v14.93c0,3.85,3.12,6.97,6.97,6.97h0c1.45,0,2.62,1.17,2.62,2.62v2.33c0,1.45-1.17,2.62-2.62,2.62h0c-3.85,0-6.97,3.12-6.97,6.97v2.27c0,3.2,2.6,5.8,5.8,5.8h0c2.09,0,3.79,1.7,3.79,3.79h0c0,2.1-1.7,3.8-3.79,3.8h0c-3.2,0-5.8,2.6-5.8,5.8v17.38l-4.46,6.76h-3.37v-84.33c0-1.83-.75-3.49-1.95-4.68-.62-.62-1.37-1.11-2.2-1.44-.72-.29-1.51-.46-2.33-.47v-42.61l14.31,14.3h.01s5.79,0,5.79,0c2.09,0,3.79,1.7,3.79,3.79h0c0,2.1-1.7,3.8-3.79,3.8h0c-3.2,0-5.8,2.6-5.8,5.8Z"/>
      <path class="cls-3" d="M373.45,215.75l-1.88,2.84c-.45.69-.95,1.32-1.49,1.9v-4.74h3.37Z"/>
      <path class="cls-27" d="M377.9,43.88c.14,3.77-.08,47.7,0,52.22-.01.15-.08.24-.27.24-.45.01-1.13-.28-1.68-.46-5.19-1.77-9.57-6.97-11.99-12.88-.46-1.09-.35-1.25-.36-2.16.04-8.91-.03-33.27,0-37.08.37-14.7-11.44-28.28-26.3-28.83-9.01-.52-17.66,3.39-23.24,10.32-2.77,3.59-4.7,7.85-7.03,11.74-7.57,13.35-16.02,27.72-23.66,39.87-5.1,8.12-10.43,16.27-15.75,23.85-2.94,4.19-5.84,8.15-8.64,11.81,0,0,0,.01-.01.02-.85,1.12-1,2.63-.41,3.9,1.55,3.31,5.79,8.39,6.82,8.39.69,0,.86.01.54.11-3.05.54-5.62,3.42-5.65,6.72,0,21.91,0,87.05,0,91.68-.01.1-.1.16-.36.19-.25.02-.68.01-1.22-.04-4.63-.34-9.12-3-11.55-7.47-.79-1.39-1.6-3.23-2.19-4.66-.16-.48-.15-.8.13-.94,1.34-.35,2.99.35,4.37-.04,2.99-.53,4.61-4.94,2.53-7.35-2.71-3.18-7.69-3.47-10.06-6.63-1.17-1.64-.67-3.87.87-5.13,3.34-3.08,10.49-3.66,10.03-8.64-.82-4.82-10.55-5.19-11.48-9.84-.71-5.51,7.76-5.69,10.77-9.64,4.15-7.68-12-7.35-10.8-13.79.66-4.55,9.91-5.22,11.37-9.4,1.66-5.28-6.62-6.3-9.54-8.94-2.6-1.85-2.4-5.13.25-6.83,1.9-1.38,4.65-2.35,6.66-3.62,3.69-2.03,3.7-5.82.09-7.88-3.66-2.4-9.75-3.45-8.76-8.18,1.05-4.02,8.75-4.88,10.23-8.72.63-1.53.1-3.59-1.42-4.34-.99-.52-2.2-.54-3.27-.84-3.82-.95-6.21-4.71-6.15-8.51.01-3.73-.04-26.13.02-34.56.01-.06.03-.1.07-.13.14-.15.7-.11,1.93-.12,3.02,0,9.32,0,12.2,0,1.62.07,2.37-.27,3.64-1.03,8.41-4.76,16.49-11.01,24.45-17.64,6.53-4.97,13.96-10.27,20.28-15.26,7.65-5.86,16.88-11.43,26.1-12.57,26.33-2.9,48.23,18.8,48.43,43.02v.09Z"/>
      <path class="cls-31" d="M363.6,43.31v81.51h-97.86c-4.19,0-7.62-3.32-7.75-7.5l-.06-2.01c-.03-.88.25-1.74.79-2.44,13.42-17.43,28.25-40.95,43.94-68.2,2.94-5.11,5.91-10.33,8.9-15.68.7-1.24,1.45-2.46,2.34-3.58,2.65-3.33,6.01-5.99,9.77-7.79,5.4-2.59,11.65-3.45,17.89-2.13,12.98,2.74,22.04,14.55,22.04,27.82Z"/>
      <path class="cls-22" d="M251.82,93.02l-58.87,3.51c-.1,0-.19,0-.29,0-1.93-.02-3.8-.28-5.59-.75-9.87-2.59-17.15-11.58-17.15-22.27v-1.29h70.86v10.46c0,2.29.93,4.36,2.43,5.87.09.09.19.19.29.28.2.18.4.35.62.51,1.38,1.04,3.1,1.65,4.97,1.65h1.11c.36.29.68.6.95.93.28.34.51.71.67,1.11Z"/>
      <path class="cls-27" d="M256.83,47.28h-16.05v24.93h-70.86v-22.2c0-4.11,3.34-7.45,7.45-7.45h68.03c2.91,0,5.65.77,8.02,2.12,1.25.71,2.4,1.59,3.41,2.6Z"/>
      <rect class="cls-21" x="169.92" y="68.86" width="70.86" height="5.34"/>
      <circle class="cls-21" cx="239.88" cy="34.71" r="20.84"/>
      <circle class="cls-10" cx="239.88" cy="34.71" r="11.94"/>
      <circle class="cls-42" cx="239.88" cy="34.71" r="5.41"/>
      <path class="cls-34" d="M318.61,253.23c-41.17-1.3-74.83,31.95-73.52,72.64,1.19,36.85,31.56,66.86,68.86,68.04,41.18,1.29,74.84-31.96,73.52-72.64-1.2-36.84-31.56-66.85-68.85-68.03ZM314.26,374.84c-27.36-1.03-49.52-23.54-50.14-50.91-.49-21.55,12.1-40.23,30.39-48.63,2.44-1.12,5.1-1.69,7.78-1.69h27.96c2.69,0,5.35.57,7.8,1.7,17.94,8.25,30.39,26.38,30.39,47.41,0,29.48-24.45,53.24-54.18,52.12Z"/>
      <circle class="cls-19" cx="316.27" cy="257.49" r="13.29"/>
      <path class="cls-15" d="M245.05,381.8v-77.25c0-4.72,3.83-8.55,8.55-8.55h125.34c4.72,0,8.55,3.83,8.55,8.55v77.25"/>
      <path class="cls-4" d="M398.25,361.17v73.16c0,3.49-2.83,6.32-6.32,6.32H99.95c-3.49,0-6.32-2.83-6.32-6.32v-134.86c0-14.54-11.78-26.31-26.31-26.31H.51c1.16-54.97,46.08-99.18,101.34-99.18,28,0,53.34,11.35,71.68,29.69,18.34,18.35,29.69,43.69,29.69,71.69v28.65c0,28.08,22.76,50.84,50.84,50.84h137.87c3.49,0,6.32,2.83,6.32,6.32Z"/>
      <path class="cls-23" d="M411.55,376.34v42.57c0,3.05-2.48,5.53-5.54,5.53h-173.97c-7.41,0-14.11-3-18.96-7.85-4.86-4.85-7.86-11.56-7.86-18.97,0-14.81,12.01-26.82,26.82-26.82h173.97c3.06,0,5.54,2.48,5.54,5.54Z"/>
      <g>
        <circle class="cls-17" cx="161.09" cy="390.63" r="21.86"/>
        <circle class="cls-33" cx="161.09" cy="390.63" r="15.48"/>
        <circle class="cls-25" cx="161.09" cy="390.63" r="8.82"/>
      </g>
      <path class="cls-9" d="M97.89,421.32l-22.86-22.86c-1.35-1.35-1.35-3.55,0-4.91l22.86-22.86c2.06-2.06,5.6-.6,5.6,2.32v45.99c0,2.92-3.53,4.38-5.6,2.32Z"/>
      <g>
        <path class="cls-6" d="M411.55,376.34v21.28h-1.28c-5.85,0-10.6-4.74-10.6-10.6v-16.22h6.34c3.06,0,5.54,2.48,5.54,5.54Z"/>
        <path class="cls-6" d="M411.55,397.62v21.29c0,3.05-2.48,5.53-5.54,5.53h-6.34v-16.22c0-5.85,4.75-10.6,10.6-10.6h1.28Z"/>
      </g>
      <g>
        <g>
          <rect class="cls-18" x="265.18" y="383.56" width="5.47" height="29.6"/>
          <rect class="cls-12" x="270.65" y="383.56" width="5.47" height="29.6"/>
        </g>
        <path class="cls-28" d="M270.65,378.79c-10.48,0-18.97,8.49-18.97,18.97s8.49,18.97,18.97,18.97,18.97-8.49,18.97-18.97-8.49-18.97-18.97-18.97ZM270.65,410.98c-7.3,0-13.22-5.92-13.22-13.22s5.92-13.22,13.22-13.22,13.22,5.92,13.22,13.22-5.92,13.22-13.22,13.22Z"/>
      </g>
      <g>
        <path class="cls-11" d="M311.49,375.29c-8.56,0-30.71,12.5-39.31,17.54-2.06,1.21-4.68.88-6.37-.82-1.92-1.92-4.49-4.49-6.7-6.7-.81-.81-1.91-1.27-3.07-1.27h-32.87c-3.74,0-6.77,3.03-6.77,6.77v13.59c0,3.74,3.04,6.78,6.78,6.78h32.86c1.15,0,2.25-.45,3.07-1.27,2.2-2.21,4.76-4.76,6.68-6.68,1.7-1.7,4.34-2.03,6.41-.79,8.5,5.08,30.23,17.51,39.3,17.51,14.77,0,26.75-10,26.75-22.34s-11.98-22.33-26.75-22.33ZM313.84,414c-3.38,0-7.12-1.14-10.81-2.81-5.05-2.29-9.99-5.59-13.72-8.37-3.48-2.58-3.46-7.78.02-10.36,3.77-2.78,8.76-6.1,13.81-8.41,3.68-1.68,7.39-2.81,10.7-2.81,10.17,0,18.41,7.34,18.41,16.38s-8.24,16.38-18.41,16.38Z"/>
        <rect class="cls-8" x="283.87" y="387.83" width="73.21" height="19.87"/>
        <g class="cls-45">
          <path class="cls-11" d="M311.49,375.29c-8.56,0-30.71,12.5-39.31,17.54-2.06,1.21-4.68.88-6.37-.82-1.92-1.92-4.49-4.49-6.7-6.7-.81-.81-1.91-1.27-3.07-1.27h-32.87c-3.74,0-6.77,3.03-6.77,6.77v13.59c0,3.74,3.04,6.78,6.78,6.78h32.86c1.15,0,2.25-.45,3.07-1.27,2.2-2.21,4.76-4.76,6.68-6.68,1.7-1.7,4.34-2.03,6.41-.79,8.5,5.08,30.23,17.51,39.3,17.51,14.77,0,26.75-10,26.75-22.34s-11.98-22.33-26.75-22.33ZM313.84,414c-3.38,0-7.12-1.14-10.81-2.81-5.05-2.29-9.99-5.59-13.72-8.37-3.48-2.58-3.46-7.78.02-10.36,3.77-2.78,8.76-6.1,13.81-8.41,3.68-1.68,7.39-2.81,10.7-2.81,10.17,0,18.41,7.34,18.41,16.38s-8.24,16.38-18.41,16.38Z"/>
        </g>
      </g>
      <g>
        <path class="cls-26" d="M364.3,409.88h-22.75c5.69,0,5.69-24.52,0-24.52h22.75c6.63,0,6.63,24.52,0,24.52Z"/>
        <g>
          <path class="cls-48" d="M364.3,410.84c-.28,0-.5-.22-.5-.5s.22-.5.5-.5c3.47,0,5.29-6.15,5.29-12.23,0-6.07-1.82-12.22-5.29-12.22-.28,0-.5-.22-.5-.5s.22-.5.5-.5h23.2c3.15,0,4.27,7.12,4.27,13.22s-1.12,13.22-4.27,13.22h-23.2Z"/>
          <path class="cls-42" d="M387.5,384.89c5.03,0,5.03,25.45,0,25.45h-23.2c7.72,0,7.72-25.45,0-25.45,0,0,0,0,0,0h23.2M387.5,383.89h-23.2c-.55,0-1,.45-1,1s.45,1,1,1c3.11,0,4.79,6.04,4.79,11.72,0,5.68-1.68,11.72-4.79,11.72-.55,0-1,.45-1,1s.45,1,1,1h23.2c4.54,0,4.77-11.43,4.77-13.72s-.23-13.72-4.77-13.72h0Z"/>
        </g>
      </g>
      <circle class="cls-47" cx="356.55" cy="398.36" r="7.75"/>
      <circle class="cls-44" cx="356.55" cy="398.36" r="4.5"/>
      <circle class="cls-43" cx="380.61" cy="398.36" r="7.75"/>
      <circle class="cls-47" cx="380.61" cy="398.36" r="4.43"/>
      <circle class="cls-39" cx="70.98" cy="237.83" r="22.36"/>
      <path class="cls-37" d="M88.55,226.93c0,9.71-7.87,17.58-17.58,17.58s-17.58-7.87-17.58-17.58c0-4.58,7.87-11.46,17.58-11.46s17.58,5.84,17.58,11.46Z"/>
      <path class="cls-37" d="M85.58,221.34c2.91,3.28,2.91,8.29,0,11.56-3.15,3.54-8.51,5.87-14.59,5.87s-11.45-2.33-14.6-5.87c-2.92-3.27-2.92-8.29,0-11.57,3.15-3.54,8.52-5.87,14.61-5.87s11.45,2.33,14.6,5.88Z"/>
      <path class="cls-40" d="M85.58,221.34c2.91,3.28,2.91,8.29,0,11.56-3.15,3.54-8.51,5.87-14.59,5.87s-11.45-2.33-14.6-5.87c-2.92-3.27-2.92-8.29,0-11.57,3.15-3.54,8.52-5.87,14.61-5.87s11.45,2.33,14.6,5.88Z"/>
      <circle class="cls-38" cx="70.98" cy="225.81" r="10.34"/>
      <path class="cls-41" d="M55.02,223.4h31.91c-.34-.73-.79-1.43-1.35-2.06-3.15-3.54-8.51-5.88-14.6-5.88s-11.45,2.33-14.61,5.87c-.56.63-1.01,1.33-1.36,2.06Z"/>
    </g>
  </g>
</svg>