<?xml version="1.0" encoding="UTF-8"?>
<svg id="Layer_2" data-name="Layer 2" xmlns="http://www.w3.org/2000/svg" viewBox="0 0 180.71 154.84">
  <defs>
    <style>
      .cls-1 {
        fill: #fec955;
      }

      .cls-2 {
        fill: #539e70;
      }

      .cls-2, .cls-3, .cls-4, .cls-5, .cls-6, .cls-7, .cls-8, .cls-9, .cls-10, .cls-11, .cls-12 {
        stroke-width: .72px;
      }

      .cls-2, .cls-3, .cls-5, .cls-6, .cls-7, .cls-8, .cls-9, .cls-11, .cls-12 {
        stroke-miterlimit: 10;
      }

      .cls-2, .cls-4, .cls-6, .cls-7, .cls-8, .cls-9, .cls-10, .cls-11, .cls-12 {
        stroke: #251d15;
      }

      .cls-3, .cls-5 {
        stroke: #010101;
      }

      .cls-3, .cls-6 {
        fill: none;
        stroke-linecap: round;
      }

      .cls-13 {
        fill: #010101;
      }

      .cls-14 {
        fill: #251d15;
      }

      .cls-15 {
        fill: #f69d9e;
      }

      .cls-4, .cls-10 {
        stroke-linejoin: round;
      }

      .cls-4, .cls-11 {
        fill: #f3b539;
      }

      .cls-16 {
        fill: #73a757;
      }

      .cls-5, .cls-9 {
        fill: #f1f1e4;
      }

      .cls-17 {
        fill: #549846;
      }

      .cls-18, .cls-10 {
        fill: #5f5d57;
      }

      .cls-7 {
        fill: #539d6e;
      }

      .cls-19 {
        fill: #f8b4b7;
      }

      .cls-20 {
        fill: #f15a50;
      }

      .cls-21 {
        fill: #fff;
      }

      .cls-8 {
        fill: #539c6f;
      }

      .cls-22 {
        fill: #f48484;
      }

      .cls-23 {
        fill: #fcb337;
      }

      .cls-24 {
        fill: #e92e27;
      }

      .cls-25 {
        fill: #fce16b;
      }

      .cls-12 {
        fill: #f5ba3a;
      }
    </style>
  </defs>
  <g id="_1" data-name="1">
    <g>
      <path class="cls-21" d="M178.21,154.84H2.5c-1.38,0-2.5-1.12-2.5-2.5v-4.58c0-1.38,1.12-2.5,2.5-2.5h10.08v-62.74c0-1.7,1.38-3.08,3.08-3.08h5.74c1.11,0,2.09.59,2.63,1.48v-32.98c0-3.31.57-6.55,1.7-9.61.08-.22.17-.45.26-.69-3.53-4.12-5.71-8.46-7-13.85-1.56-6.73.03-13.72,4.15-18.25,1.53-1.73,3.5-3.23,5.68-4.32,5.63-2.83,12.52-.55,15.36,5.08,1.85,3.68,1.54,8.05-.67,11.42l1.94,2.97c2.18-.53,4.41-.8,6.65-.8h46.63c14.09,0,27.4,6.16,36.51,16.9,4.09,4.81,7.14,10.28,9.08,16.25.42,1.29.75,2.63,1,4.05h11.17c7.56,0,13.72,6.15,13.72,13.72v74.45h8.02c1.38,0,2.5,1.12,2.5,2.5v4.58c0,1.38-1.12,2.5-2.5,2.5ZM27.92,149.84h138.37c-.67-.45-1.11-1.21-1.11-2.08v-76.95c0-4.81-3.91-8.72-8.72-8.72h-13.33c-1.27,0-2.34-.95-2.48-2.21-.22-1.94-.59-3.68-1.11-5.3-1.73-5.35-4.46-10.25-8.13-14.55-8.17-9.62-20.09-15.13-32.7-15.13h-46.63c-2.37,0-4.72.37-6.98,1.09-1.07.34-2.24-.08-2.85-1.02l-3.91-6.01c-.63-.97-.51-2.24.28-3.08,1.86-1.97,2.3-4.91,1.09-7.32-1.6-3.17-5.47-4.46-8.64-2.86-1.13.57-2.77,1.58-4.2,3.2-3.64,4.01-3.94,9.74-3,13.77,1.2,5.04,3.33,9,6.9,12.83.66.71.85,1.73.49,2.63-.02.05-.05.11-.07.17l-.12.25c-.13.27-.25.54-.37.81-.09.22-.18.45-.26.68-.94,2.55-1.4,5.21-1.4,7.93v41.53c0,.64-.24,1.22-.63,1.66.39.44.63,1.02.63,1.66v2.38c0,.64-.24,1.22-.63,1.66.39.44.63,1.02.63,1.66v2.38c0,.64-.24,1.22-.63,1.66.39.44.63,1.02.63,1.66v2.38c0,.64-.24,1.22-.63,1.66.39.44.63,1.02.63,1.66v2.38c0,.64-.24,1.22-.63,1.66.39.44.63,1.02.63,1.66v2.38c0,.64-.24,1.22-.63,1.66.39.44.63,1.02.63,1.66v2.38c0,.64-.24,1.22-.63,1.66.39.44.63,1.02.63,1.66v2.38c0,.64-.24,1.22-.63,1.66.39.44.63,1.02.63,1.66v2.38c0,.64-.24,1.22-.63,1.66.39.44.63,1.02.63,1.66v2.38c0,.64-.24,1.22-.63,1.66.39.44.63,1.02.63,1.66v3.67c0,.87-.44,1.63-1.11,2.08ZM16.47,149.84h4.11c-.67-.45-1.11-1.21-1.11-2.08v-3.67c0-.64.24-1.22.63-1.66-.39-.44-.63-1.02-.63-1.66v-2.38c0-.64.24-1.22.63-1.66-.39-.44-.63-1.02-.63-1.66v-2.38c0-.64.24-1.22.63-1.66-.39-.44-.63-1.02-.63-1.66v-2.38c0-.64.24-1.22.63-1.66-.39-.44-.63-1.02-.63-1.66v-2.38c0-.64.24-1.22.63-1.66-.39-.44-.63-1.02-.63-1.66v-2.38c0-.64.24-1.22.63-1.66-.39-.44-.63-1.02-.63-1.66v-2.38c0-.64.24-1.22.63-1.66-.39-.44-.63-1.02-.63-1.66v-2.38c0-.64.24-1.22.63-1.66-.39-.44-.63-1.02-.63-1.66v-2.38c0-.64.24-1.22.63-1.66-.39-.44-.63-1.02-.63-1.66v-2.38c0-.64.24-1.22.63-1.66-.39-.44-.63-1.02-.63-1.66v-5.03h-1.89v63.31c0,.87-.44,1.63-1.11,2.08ZM131.71,62.09h-63.85c-.75,0-1.46-.34-1.94-.92-.48-.58-.66-1.34-.52-2.08.25-1.22.37-2.48.37-3.74,0-5.51-2.42-10.7-6.64-14.25-.29-.24-.59-.48-.89-.7-1.06-.79-2.21-1.46-3.41-2.01-1.32-.6-2.03-2-1.73-3.42.3-1.41,1.53-2.4,2.97-2.4h43.85c5.52,0,10.84,1.2,15.79,3.57.33.16.66.32.99.49,4.56,2.36,8.48,5.72,11.52,9.8.11-.63.47-1.23,1.04-1.62,1.14-.78,2.69-.5,3.48.64,1.95,2.83,3.45,5.96,4.46,9.32.07.24.11.48.11.72,0,1.07-.7,2.07-1.78,2.39-.59.18-1.2.13-1.73-.1.11.4.22.8.32,1.21.18.75.01,1.54-.46,2.14-.47.6-1.2.96-1.97.96ZM70.72,57.09h57.62c-2.51-6.94-7.46-12.67-13.93-16.01-.28-.15-.57-.29-.85-.42-4.27-2.04-8.86-3.08-13.63-3.08h-37.23c5.14,4.49,8.08,10.94,8.08,17.78,0,.58-.02,1.16-.06,1.73Z"/>
      <g id="Green_Beret" data-name="Green Beret">
        <path class="cls-5" d="M36.96,46.54l-8.11-9.43.46.49c-4.07-4.25-6.51-8.64-7.89-14.39-1.23-5.32-.36-11.66,3.57-15.99,1.48-1.67,3.25-2.92,4.95-3.77,4.41-2.22,9.78-.44,12,3.97s.44,9.78-3.97,12c.05.07.1.12.14.16.24.15.54.09.79,0,.44-.15.82-.52,1.09-.75.24-.25.37-.37.51-.32.14.04.25.23.42.5.64,1.17,1.82,3.09,2.89,4.09,0,0,.28.26.28.26l.32.38c2.57,3.03,4.77,6.46,5.92,10.3.2.56.94,4.97,1.07,5.63,1.43,8.34-8.93,13.17-14.42,6.87h0Z"/>
        <path class="cls-3" d="M35.99,10.77c-.21.57.47,1.21,1.06,1.05s.89-.91.66-1.48-.85-.91-1.46-.91c-1.24,0-2.24,1.4-1.91,2.6s1.79,1.91,2.96,1.51,1.91-1.76,1.68-2.98-1.32-2.2-2.54-2.4c-2.16-.35-4.27,1.88-3.93,4.04s2.88,3.63,4.97,2.99,3.37-3.12,2.81-5.24-2.75-3.63-4.94-3.55-4.21,1.64-4.99,3.68c-.65,1.7-.51,3.64.1,5.36s1.64,3.26,2.75,4.71c1.98,2.58,4.23,4.95,6.72,7.04l13.76,10.76"/>
        <g>
          <g>
            <rect class="cls-10" x="21.66" y="89.48" width="9.79" height="3.32"/>
            <rect class="cls-10" x="21.66" y="95.18" width="9.79" height="3.32"/>
            <rect class="cls-10" x="21.66" y="100.88" width="9.79" height="3.32"/>
            <rect class="cls-10" x="21.66" y="106.58" width="9.79" height="3.32"/>
            <rect class="cls-10" x="21.66" y="112.28" width="9.79" height="3.32"/>
            <rect class="cls-10" x="21.66" y="117.98" width="9.79" height="3.32"/>
            <rect class="cls-10" x="21.66" y="123.68" width="9.79" height="3.32"/>
            <rect class="cls-10" x="21.66" y="129.38" width="9.79" height="3.32"/>
            <rect class="cls-10" x="21.66" y="135.07" width="9.79" height="3.32"/>
            <rect class="cls-10" x="21.66" y="140.77" width="9.79" height="3.32"/>
          </g>
          <rect class="cls-10" x="15.08" y="81.95" width="6.89" height="69.67" rx=".58" ry=".58"/>
        </g>
        <rect class="cls-2" x="26.52" y="147.76" width="141.16" height="2.29"/>
        <rect class="cls-4" x="2.5" y="147.76" width="175.7" height="4.58"/>
        <g>
          <path class="cls-8" d="M143.37,63.41v77.25h-7.16v-75.69c0-6.44-1.86-12.79-5.51-18.09-2.24-3.25-5.01-6.12-8.17-8.48-6-4.47-13.44-7.12-21.5-7.12H32.71c4.69-5.44,11.62-8.89,19.37-8.89h46.63c13.87,0,26.29,6.21,34.61,16.01,3.81,4.47,6.76,9.69,8.6,15.4,1,3.1,1.45,6.35,1.45,9.6Z"/>
          <path class="cls-11" d="M136.21,64.97v75.69h-3.53v-73.22c0-11.95-6.49-23.09-17.11-28.58-.3-.16-.61-.31-.92-.46-4.45-2.13-9.45-3.33-14.71-3.33h-43.85c-.59,0-.75.8-.21,1.04,1.38.62,2.68,1.39,3.88,2.29.34.25.67.52,1,.79H28.07c.09-.27.2-.53.3-.79,1.05-2.62,2.53-5.02,4.34-7.12h68.31c8.06,0,15.5,2.65,21.5,7.12,3.17,2.36,5.93,5.22,8.17,8.48,3.66,5.31,5.51,11.65,5.51,18.09Z"/>
        </g>
        <path class="cls-7" d="M167.68,70.81v76.95H26.52V47.95c0-3.08.54-6.02,1.54-8.75h32.68c4.61,3.87,7.53,9.68,7.53,16.16,0,1.45-.15,2.86-.42,4.23h88.61c6.2,0,11.22,5.02,11.22,11.22Z"/>
        <path class="cls-9" d="M75.57,105.06c0-19.42-24.52-45.61-49.05-35.49v78.19h49.05v-42.71Z"/>
        <g>
          <circle class="cls-12" cx="47.17" cy="55.36" r="17.41"/>
          <circle class="cls-13" cx="47.17" cy="55.36" r="13.44"/>
        </g>
        <g>
          <line class="cls-6" x1="33.67" y1="91.14" x2="58.3" y2="91.14"/>
          <g>
            <line class="cls-6" x1="35.62" y1="87.82" x2="35.62" y2="94.45"/>
            <line class="cls-6" x1="39.76" y1="87.82" x2="39.76" y2="94.45"/>
            <line class="cls-6" x1="43.91" y1="87.82" x2="43.91" y2="94.45"/>
            <line class="cls-6" x1="48.06" y1="87.82" x2="48.06" y2="94.45"/>
            <line class="cls-6" x1="52.2" y1="87.82" x2="52.2" y2="94.45"/>
            <line class="cls-6" x1="56.35" y1="87.82" x2="56.35" y2="94.45"/>
          </g>
        </g>
        <path class="cls-10" d="M41.88,131.98l2.47-.3c.04.92-.66,1.81-1.56,1.98s-1.89-.38-2.2-1.24c1.24-1.37,1.8-3.33,1.48-5.15-.05-.3-.14-.61-.34-.83-.42-.45-1.24-.31-1.61.17s-.38,1.18-.16,1.75.63,1.05,1.03,1.52c.33.46-.48,1.05-.96.75s-.55-.98-.47-1.54.26-1.15.08-1.69c-.23-.69-.99-1.09-1.72-1.11s-1.43.27-2.09.57c-.63.29-1.36.78-1.26,1.46.07.52.62.85,1.14.9s1.03-.11,1.55-.19c2.07-.32,4.2.67,5.58,2.25s2.08,3.65,2.32,5.73.07,4.18-.1,6.26c.04-4.17,2.77-7.85,3.5-11.96.41-2.3.17-4.66.02-6.99-.2-3.2-.24-6.42.11-9.6.2-1.81.55-3.66,1.54-5.19s2.75-2.68,4.56-2.48c-.49,1.76-1.47,3.34-2.43,4.89-.78,1.26-1.56,2.53-2.34,3.79-.23.37-.47.75-.84.98s-.9.25-1.19-.07c-.37-.41-.15-1.08.21-1.49s.85-.75,1.06-1.26c.25-.63.01-1.34.09-2.01s.86-1.35,1.36-.9c-1.96-1.11-3.93-2.22-5.89-3.33-1.02-.58-2.06-1.16-3.2-1.46s-2.41-.27-3.42.32c.07,1.51,1.06,2.83,2.21,3.8s2.5,1.71,3.64,2.69c2.42,2.09,3.8,5.34,3.61,8.54-.06.97-.22,2.04.34,2.83.46.65,1.32.94,2.12.86s1.53-.46,2.18-.93c.94-.67,1.82-1.92,1.2-2.89-.53-.84-1.8-.78-2.69-.33-1.34.68-2.26,2-2.78,3.41s-.68,2.92-.83,4.41c-.36,3.48-.73,6.97-1.09,10.45-.53-1.96-1.05-3.92-1.58-5.88-.18-.67-.36-1.37-.18-2.04.24-.92,1.09-1.54,1.88-2.07-.6,1.25-1.2,2.51-1.79,3.76"/>
        <g id="Generative_Object" data-name="Generative Object">
          <path class="cls-19" d="M50.08,115.5c-.41.59-.72,1.44-1.63,1.22-.18-.02-.1-.23-.08-.35l1.72-.87Z"/>
          <g>
            <g>
              <path class="cls-20" d="M44.88,107.66c.15.42.45.78.63,1.19.83,1.93.84,4.11.9,6.18,1.01-1.9,1.65-3.83,1.07-5.99.75.43,1.46.87,2.18,1.34-.25.54-.39,1.1-.54,1.68-.24.88-.46,1.76-.54,2.68-.33.41-1.11,1.04-.59,1.55.09.24.23.26.29.38l-.04.08c-.6.18-1.1-.02-1.55-.46-.05-.05-.08-.14-.17-.17-.05-.13-.11-.25-.17-.38-1.72-4.08-4.24-7.11-8.13-9.3.27-.47,2.68-.42,3.21-.34,1.45.22,2.25.92,3.46,1.55Z"/>
              <path class="cls-24" d="M46.35,115.75l-.13-.04c-1.7-3.28-4.84-3.96-6.91-6.47-.39-.48-1.42-2.21-1.09-2.79,3.88,2.19,6.41,5.22,8.13,9.3Z"/>
              <path class="cls-15" d="M50.66,110.97c.37.27.74.55,1.05.9l.25.69c-.62,1.02-1.2,1.95-1.89,2.93l-1.71.89c.03-.3-.06-.57-.06-.57,0,0,.21,1.52-.33.47-.52-.51.26-1.14.59-1.55.1-.12.33-.26.42-.4.42-.63.36-1.59.13-2.28.16-.57.29-1.14.54-1.68,0,0,.03,0,.04,0,.31.2.66.37.96.59Z"/>
              <path class="cls-24" d="M47.48,109.04c.58,2.17-.06,4.09-1.07,5.99-.06-2.07-.07-4.25-.9-6.18-.18-.41-.48-.77-.63-1.19.89.47,1.72.87,2.6,1.38Z"/>
              <path class="cls-19" d="M54.81,107.07c.22.35-2.46,4.85-2.85,5.49l-.25-.69c-.31-.35-.67-.63-1.05-.9,1.23-1.46,2.59-2.79,4.15-3.9Z"/>
              <path class="cls-19" d="M54.81,107.07c-1.56,1.11-2.92,2.44-4.15,3.9-.3-.22-.66-.39-.96-.59.57-1.31,1.72-2.63,3.08-3.14.57-.21,1.47-.44,2.03-.17Z"/>
              <path class="cls-22" d="M48.57,114.74c.08-.92.3-1.8.54-2.68.24.69.29,1.65-.13,2.28-.09.14-.32.28-.42.4Z"/>
            </g>
            <g>
              <path class="cls-1" d="M42.03,130.41c-.4-.34-1.14-.8-1.61-1.01-.06-.03-.95-.39-.84-.21.53.24,1.07.46,1.57.75.02.11-.19.31-.29.42-.02.02-.07.07-.08.08-.83.7-1.42-.53-1.26-1.28-.55-.18-1.19-.26-1.78-.23-.89.05-3.28.88-3.25-.92,1.79-.52,3.62-.2,5.01,1.05l.23-.5c0,.08-.13.42-.13.44.01.04.6.3.71.25.01-.03-.39-.49-.42-.54-.07-.16.05-.36-.13-.4.04-.47-.08-.26-.13-.4-.05-.16-.06-.34-.13-.5.19,0,.07.58.29.44,0,.1.31.89.38.98.27.4.68.68,1.07.94.71-1.23-.13-2.43-1.32-2.89.27-.61,1.05-.98,1.66-.63.98.57.38,3.18.44,4.15Z"/>
              <path class="cls-25" d="M39.81,127.31s0,.5,0,.54c-.23.14-.11-.44-.29-.44.06.16.08.34.13.5.04.14.16-.08.13.4,0,.07-.03.16-.04.25l-.23.5c-1.38-1.25-3.22-1.56-5.01-1.05.03-1.34,3.88-2.63,4.9-1.24.12.16.43,1.09.42.52Z"/>
              <path class="cls-23" d="M39.81,127.86s0-.52,0-.54c.02-.17.06-.26.13-.42,1.18.46,2.03,1.66,1.32,2.89-.39-.26-.8-.54-1.07-.94-.06-.1-.37-.89-.38-.98Z"/>
              <path class="cls-17" d="M45.22,131.46c-.26.02-.6,1.11-.67,1.15-.03.01-.12-.14-.13-.15-.47-1.14.74-2.57,1.72-3.04-.23.71-.61,1.36-.92,2.03Z"/>
              <path class="cls-1" d="M41.95,130.54c-.34.45-1.19.8-1.09-.08,0,0,.11-.04,0-.08.1-.1.31-.31.29-.42.33.2.51.34.8.59Z"/>
              <path class="cls-21" d="M40.86,130.46h-.08s.06-.06.08-.08c.11.05,0,.08,0,.08Z"/>
              <g>
                <path class="cls-16" d="M48.4,116.82c.02.63.13,6.17.08,6.81.03.08.05.07.08,0,.12-.21.21-.66.38-.94.75-1.24,3.5-2.93,4.57-1.3,1.21,1.85-3.18,4.98-4.86,3.46l.04-.13c.12-.01,1.76-1.17,2.01-1.34.76-.53,1.52-1.06,2.26-1.61-.82.33-1.56.85-2.3,1.32-.68.43-1.36.85-2.03,1.3-.15.08-.02.29-.02.34,0,.05,0,.08,0,.13-.03,2.28.35,4.59-.04,6.85s-1.71,4.22-2.3,6.33c-.07.24-.18,1.37-.25,1.47-.07.11-.14-.06-.15-.06-.17.03-.56,2.15-.61,2.45-.06.38-.02.97-.21,1.24l.06-1.01c-.14.3-.06.72-.1,1.01,0,.05-.07.11-.04.19-.02.04-.08-.03-.08-.04-.11-.36.3-1.67.34-2.1.15-1.6-.07-6.9-1.22-8.04-.14-.14-.18-.08-.34-.15-.13-.06-.12-.05-.25-.08-.36-.1-.72-.12-1.09-.17-.04,0-.09-.03-.17-.04-.04,0-.08,0-.13,0-.29-.03-.58-.11-.88-.06.29.05.59.13.88.19.04,0,.09,0,.13,0,.05,0,.1.03.17.04.35.07.69.14,1.05.17.01,0,.11.08.21.04.11.05.02.12-.02.17-1,1.28-3.94-.3-2.47-1.22.93-.58,1.86.11,2.49.71.04.04.09.22.25.19.04-.14-.14-.23-.17-.27-.45-.81-1.01-1.5-1.72-2.1-.29-.24-.46-.39-.8-.59-.5-.3-1.04-.52-1.57-.75-.11-.18.78.18.84.21.47.21,1.21.67,1.61,1.01,1.18.99,1.54,2.1,2.39,3.23.01.01-.03.1.06.08.05-.02-.02-.04-.02-.08.02-.41.05-.76-.04-1.17,0,0,.1.16.13.15.07-.04.41-1.13.67-1.15-1.14,2.51-.49,2.3.13,4.67.22.86.27,1.75.46,2.58.01.05,0,.09.06.13.04,0,0-.1.02-.13.69-1.35.63-4.33.8-5.93.2-1.92.32-4.85.8-6.62.07-.25.5-1.13.5-1.26,0-.14-.25-.57-.29-.75-.31-1.41,0-2.43-.08-3.77s-.79-3.53-1.38-4.67l.13.04c.05.13.12.25.17.38.03.07.06.14.08.21.46,1.17,1,2.62,1.09,3.88s-.38,3.32.34,4.46c0,.01-.02.07.02.08.04,0,.01-.06.02-.08.56-1.31.2-6.53.21-7.9,0-1,.08-1.61.13.05Z"/>
                <g>
                  <path class="cls-16" d="M45.05,143.11h-.04c.05-.28-.03-.71.1-1.01l-.06,1.01Z"/>
                  <path class="cls-16" d="M48.7,124.71l-.04.13h-.04s0-.08,0-.13c.03,0,.06,0,.08,0Z"/>
                  <path class="cls-14" d="M45.89,138.71s.02.12-.02.13c-.06-.04-.05-.07-.06-.13h.08Z"/>
                  <path class="cls-14" d="M44.42,133.64h.04s.07.06.02.08c-.09.02-.05-.07-.06-.08Z"/>
                  <path class="cls-14" d="M48.57,123.63c-.04.07-.06.08-.08,0h.08Z"/>
                  <path class="cls-20" d="M46.68,116.29l-.08.04c-.03-.07-.06-.14-.08-.21.08.02.11.11.17.17Z"/>
                  <path class="cls-16" d="M46.03,138.67l-.13.67c-.07-.22.05-.46.13-.67Z"/>
                  <path class="cls-16" d="M45.18,135.94h-.08c-.02-.14-.13-.32-.06-.46.07.15.1.31.15.46Z"/>
                  <g>
                    <path class="cls-14" d="M43.58,132.72l.08-.08s.21.14.17.27c-.16.03-.21-.15-.25-.19Z"/>
                    <path class="cls-18" d="M43.67,132.97c-.11-.03-.08.08-.08.08-.1.03-.2-.04-.21-.04l.04-.13c.13.04.12.03.25.08Z"/>
                    <path class="cls-18" d="M50.71,123.37l-.04-.29c.74-.47,1.48-.99,2.3-1.32-.74.55-1.5,1.09-2.26,1.61Z"/>
                    <path class="cls-18" d="M42.03,132.68v.13c-.29-.06-.59-.13-.88-.19.3-.05.59.03.88.06Z"/>
                    <path class="cls-18" d="M42.33,132.72v.13c-.07-.01-.12-.03-.17-.04v-.13c.08,0,.13.04.17.04Z"/>
                  </g>
                  <path class="cls-16" d="M45.39,140.47c-.02.05.03.12-.06.17-.04-.04-.02-.11-.02-.17h.08Z"/>
                  <path class="cls-9" d="M46.47,137.2s0,.09-.06.13l-.02-.13h.08Z"/>
                  <path class="cls-16" d="M48.28,124.67s-.16.11-.08,0h.08Z"/>
                  <path class="cls-14" d="M48.03,124.67h.04s.02.08-.02.08c-.04-.02-.01-.07-.02-.08Z"/>
                </g>
              </g>
              <path class="cls-1" d="M39.73,128.57c.01-.09.04-.18.04-.25.18.04.05.24.13.4.03.06.43.51.42.54-.11.05-.7-.21-.71-.25,0-.02.12-.36.13-.44Z"/>
            </g>
          </g>
        </g>
      </g>
    </g>
  </g>
</svg>