<?xml version="1.0" encoding="UTF-8"?>
<svg id="Layer_2" data-name="Layer 2" xmlns="http://www.w3.org/2000/svg" viewBox="0 0 195.02 420.57">
  <defs>
    <style>
      .cls-1 {
        fill: #6599ad;
      }

      .cls-1, .cls-2, .cls-3, .cls-4, .cls-5, .cls-6, .cls-7, .cls-8, .cls-9, .cls-10, .cls-11, .cls-12, .cls-13, .cls-14 {
        stroke: #080a07;
        stroke-miterlimit: 10;
      }

      .cls-1, .cls-2, .cls-3, .cls-4, .cls-5, .cls-7, .cls-8, .cls-9, .cls-11, .cls-13, .cls-14 {
        stroke-width: 1.22px;
      }

      .cls-15 {
        fill: #fff;
        stroke: #fff;
        stroke-linecap: round;
        stroke-linejoin: round;
        stroke-width: 4.27px;
      }

      .cls-2 {
        fill: #f5bb98;
      }

      .cls-3 {
        fill: #e59a24;
      }

      .cls-4 {
        fill: #f89a62;
      }

      .cls-5 {
        fill: #6f88c4;
      }

      .cls-6 {
        fill: none;
        stroke-width: 1.83px;
      }

      .cls-7 {
        fill: #6f87c4;
      }

      .cls-8 {
        fill: #fbf7e7;
      }

      .cls-16 {
        fill: #080a07;
      }

      .cls-9 {
        fill: #f8db69;
      }

      .cls-10 {
        fill: #e79924;
      }

      .cls-10, .cls-12 {
        stroke-width: .61px;
      }

      .cls-11 {
        fill: #eedebe;
      }

      .cls-12 {
        fill: #f4dea0;
      }

      .cls-17, .cls-14 {
        fill: #6397ae;
      }

      .cls-13 {
        fill: #57b680;
      }
    </style>
  </defs>
  <g id="_8" data-name="8">
    <g>
      <path class="cls-15" d="M192.88,25.04c0-1.92-1.56-3.48-3.48-3.48H48.22v-8.98c0-5.77-4.68-10.45-10.45-10.45h0c-5.77,0-10.45,4.68-10.45,10.45v9c-13.99.47-25.18,11.95-25.18,26.05v370.55h28.68v.25h25.78c.65,0,1.24-.26,1.67-.69.43-.43.69-1.02.69-1.67,0-2.13-1.73-3.86-3.86-3.86h-14.68v-105.31c10.74-2.37,20.86-7.54,28.67-15.35,18.56-18.56,21.79-46.66,9.67-68.53-1.73-3.11-5.89-11.03-8.97-16.92.87.19,1.76.31,2.69.32l15.35.26c3.1.05,5.58-2.49,5.39-5.51l-.24-3.81c1.06-.42,1.84-1.42,1.88-2.63l.08-2.48c.29-.71.41-1.49.34-2.29l-.19-2.21.08-2.39c.06-1.73-1.4-3.11-3.13-3.03l-1.18-18.85c0-.08-.01-.17-.02-.25,2.13-.89,3.43-3.08,3.1-5.37l-.43-2.95c-.34-2.38-2.33-4.17-4.73-4.35-1.76-6.71-4.53-12.82-8.23-18.14l.15-.18c1.63-1.99,1.49-4.86-.32-6.7l-2.11-2.14c-1.74-1.77-4.51-2.04-6.58-.71-6.09-5.11-13.49-8.75-22.02-10.53-.47-2.32-2.53-4.04-4.99-4.09l-3.04-.05c-2.08-.04-3.91,1.14-4.77,2.9l-12.96-.22v-39.53c0-11.25,9.12-20.37,20.37-20.37h15.22v-.34h129.91c1.92,0,3.48-1.56,3.48-3.48v-8.63h-12.58c.07-.3.1-.61.1-.93v-3.2c0-.2-.01-.4-.04-.6h12.52v-8.55ZM157.57,36.71c-.04-.23-.06-.46-.06-.69,0,.24.02.47.06.69ZM161.3,40.19c-1.75-.17-3.16-1.39-3.63-3,.47,1.61,1.88,2.84,3.63,3l14.51,1.37-14.52-1.37ZM157.58,36.81c.02.11.05.22.08.32-.03-.11-.06-.21-.08-.32Z"/>
      <g id="Wind-Up_Guit-Mane_-_Blue" data-name="Wind-Up Guit-Mane - Blue">
        <g>
          <path class="cls-5" d="M35.24,121.47l1.16-9.03c.33-2.57,2.59-4.48,5.23-4.44l3.04.05c2.61.04,4.77,1.98,5.06,4.51l1.05,9.25c.2,1.78-1.26,3.33-3.09,3.27l-9.57-.31c-1.77-.06-3.11-1.59-2.89-3.31Z"/>
          <path class="cls-5" d="M64.02,128.46l7.34-5.58c2.09-1.59,5.07-1.38,6.9.48l2.11,2.14c1.81,1.84,1.95,4.7.32,6.7l-5.94,7.27c-1.14,1.4-3.29,1.48-4.54.17l-6.55-6.85c-1.21-1.27-1.05-3.28.35-4.34Z"/>
          <path class="cls-5" d="M80.68,182.13l9.29.21c2.64.06,4.82,2.06,5.04,4.64l.26,2.97c.22,2.54-1.52,4.85-4.07,5.39l-9.29,1.97c-1.79.38-3.51-.88-3.63-2.67l-.67-9.36c-.12-1.73,1.3-3.19,3.07-3.15Z"/>
          <path class="cls-5" d="M78.92,150.81l9.29-.29c2.64-.08,4.93,1.8,5.3,4.36l.43,2.95c.36,2.53-1.24,4.93-3.76,5.6l-9.17,2.47c-1.77.48-3.55-.69-3.78-2.47l-1.19-9.31c-.22-1.72,1.12-3.26,2.89-3.31Z"/>
          <path class="cls-13" d="M87.82,206.68l-15.35-.26c-6.82-.12-12.41-5.35-12.83-12.02l-.15-2.4c.52-29.05-10.01-44.61-33.56-49.15-5.46-1.05-8.65-6.79-8.56-12.24l.36-20.04,20.82.35c30.76.52,50.35,22.77,52.29,52.54l2.36,37.71c.18,3.03-2.3,5.56-5.39,5.51Z"/>
          <path class="cls-5" d="M78.72,148.17l-.59,2.58c-.04.19-.1.37-.16.54-.69,1.91-2.54,3.17-4.54,3l-1.26-.11c-1.49-.13-2.95-.45-4.35-.96l-1.19-.43c-1.57-.57-2.62-2.01-2.8-3.64-.05-.5,0-1,.13-1.49l.65-2.66c.32-1.31,1.15-2.46,2.33-3.05.72-.36,1.53-.52,2.36-.43l1.52.16c1.25.13,2.49.4,3.68.81l1.44.49c1.81.62,2.95,2.37,2.9,4.27,0,.31-.04.62-.12.93Z"/>
          <path class="cls-5" d="M52.37,127.32l1.09,1.61c.08.12.15.24.21.35.7,1.31.51,2.86-.5,3.75l-.64.56c-.75.66-1.59,1.21-2.5,1.63l-.77.36c-1.02.47-2.27.25-3.21-.5-.29-.23-.53-.52-.73-.83l-1.11-1.68c-.54-.82-.78-1.82-.54-2.7.14-.53.43-1.01.85-1.37l.78-.66c.64-.54,1.35-1.01,2.11-1.38l.92-.45c1.16-.56,2.6-.23,3.59.77.16.16.31.34.44.53Z"/>
          <path class="cls-5" d="M65.44,180.92c.12.56.19,1.13.16,1.68-.1,1.8-.96,3.32-2.31,3.83h0c-1.86.72-3.84,1.1-5.85,1.14h0c-1.73.04-3.39-1.52-4.04-3.71-.06-.2-.11-.4-.15-.61l-.6-2.92c-.07-.35-.11-.7-.13-1.05-.1-2.13.83-3.99,2.38-4.54l.37-.13c1.59-.56,3.26-.89,4.95-.97l.39-.02c.72-.03,1.43.21,2.06.66,1.04.75,1.8,2.1,2.12,3.58l.65,3.03Z"/>
          <path class="cls-5" d="M91.47,197.55l-9.22-1.14c-2.62-.32-4.58-2.53-4.53-5.12l.05-2.98c.05-2.55,2.02-4.67,4.61-4.96l9.45-1.03c1.82-.2,3.4,1.23,3.34,3.02l-.31,9.38c-.06,1.73-1.62,3.04-3.38,2.83Z"/>
        </g>
        <path class="cls-1" d="M30.82,308.27v109.91H2.14v-114.99c7.62,3.5,16.07,5.21,24.56,5.21,1.37,0,2.75-.04,4.12-.13Z"/>
        <path class="cls-1" d="M30.82,308.27v102.95H2.14v-108.02c7.62,3.5,16.07,5.21,24.56,5.21,1.37,0,2.75-.04,4.12-.13Z"/>
        <path class="cls-4" d="M58.96,416.07c0,.65-.26,1.24-.69,1.67-.43.43-1.02.69-1.67.69h-25.78v-115.34h9.61v109.12h14.68c2.13,0,3.86,1.73,3.86,3.86Z"/>
        <path class="cls-7" d="M69.09,291.56c-10.11,10.11-24.09,15.8-38.27,16.72-1.37.09-2.75.13-4.12.13-8.5,0-16.94-1.71-24.56-5.21v-39.2c1.75.25,3.54.38,5.37.38,8.78,0,16.87-2.97,23.32-7.97,9-6.97,14.79-17.88,14.79-30.14s-5.79-23.17-14.79-30.14c-6.45-5-14.53-7.97-23.32-7.97-1.82,0-3.61.13-5.37.38v-69.42h23.94c1.61,0,3.2.13,4.74.35,15.89,2.25,27.87,15.41,27.87,31.64l.5,24.9c0,11.16,6.91,23.02,6.91,23.02,0,0,9.77,18.77,12.67,23.99,12.12,21.87,8.89,49.97-9.67,68.53Z"/>
        <path class="cls-11" d="M30.82,308.27v59.65H2.14v-64.72c7.62,3.5,16.07,5.21,24.56,5.21,1.37,0,2.75-.04,4.12-.13Z"/>
        <path class="cls-3" d="M45.61,226.27c0,12.26-5.79,23.17-14.79,30.14-6.45,5-14.53,7.97-23.32,7.97-1.82,0-3.61-.13-5.37-.38v-75.46c1.75-.25,3.54-.38,5.37-.38,8.78,0,16.87,2.97,23.32,7.97,9,6.97,14.79,17.88,14.79,30.14Z"/>
        <g>
          <circle class="cls-2" cx="20.81" cy="289.99" r="12.36"/>
          <circle class="cls-8" cx="20.81" cy="289.99" r="6.03"/>
        </g>
        <g>
          <circle class="cls-2" cx="32.7" cy="144.91" r="12.36"/>
          <circle class="cls-8" cx="32.7" cy="144.91" r="6.03"/>
        </g>
        <g>
          <path class="cls-17" d="M25.54,319.25c0,1.48-.68,2.81-1.75,3.67-.82.66-1.85,1.06-2.98,1.06-1.43,0-2.71-.63-3.57-1.63-.72-.83-1.16-1.91-1.16-3.1s.44-2.26,1.16-3.09c.09-.11.19-.21.29-.31v-25.42c0-1.81,1.46-3.27,3.27-3.27.91,0,1.72.37,2.31.96s.96,1.41.96,2.31v25.14c-.82-.66-1.85-1.06-2.98-1.06-.07,0-.14,0-.21,0,1.09.01,2.1.4,2.9,1.05,1.07.87,1.75,2.19,1.75,3.67Z"/>
          <path class="cls-16" d="M25.6,319.25c-.12,5.95-8.55,6.79-9.91.95-.37-1.68.2-3.55,1.47-4.74l-.17.4c.03-7.61.54-15.21.31-22.82.04-1.16-.26-2.75.15-3.9,1.02-3.02,5.39-3.26,6.79-.36.62,1.09.36,2.8.43,3.98.09,7.38.16,15.48-.2,22.82,0,0-.04.82-.04.82l-.58-.53c-.78-.71-1.85-1.12-2.93-1.11v-.47c2.57.09,4.74,2.4,4.69,4.96h0ZM25.48,319.25c.04-2.45-2.15-4.62-4.59-4.49,0,0-.01-.47-.01-.47,1.21-.1,2.45.25,3.45.99,0,0-.62.29-.62.29-.23-5.07-.29-10.14-.27-15.21,0,0,.07-7.61.07-7.61-.01-.51.06-2.28,0-2.76-.17-1.35-1.43-2.44-2.81-2.38-1.1-.01-2.19.71-2.62,1.76-.39.88-.21,2.65-.3,3.65-.23,7.69.29,15.37.31,23.06-1.11.95-1.68,2.47-1.45,3.93.92,5.35,8.77,4.7,8.84-.77h0Z"/>
        </g>
        <path class="cls-14" d="M25.54,319.25c0,1.48-.68,2.81-1.75,3.67-.82.66-1.85,1.06-2.98,1.06-1.43,0-2.71-.63-3.57-1.63-.72-.83-1.16-1.91-1.16-3.1s.44-2.26,1.16-3.09c.86-1.01,2.14-1.64,3.57-1.64,1.13,0,2.17.39,2.98,1.06,1.07.87,1.75,2.19,1.75,3.67Z"/>
        <path class="cls-6" d="M38.43,39.63c4.08,0,6.1-3.84,6.1-3.84.87-1.88,3.31-1.88,4.18,0l.78,1.68c.87,1.88,3.31,1.88,4.18,0l.78-1.68c.87-1.88,3.31-1.88,4.18,0l.78,1.68c.87,1.88,3.31,1.88,4.18,0l.78-1.68c.87-1.88,3.31-1.88,4.18,0l.78,1.68c.87,1.88,3.31,1.88,4.18,0l.78-1.68c.87-1.88,3.31-1.88,4.18,0l.78,1.68c.87,1.88,3.31,1.88,4.18,0l.78-1.68c.87-1.88,3.31-1.88,4.18,0l.78,1.68c.87,1.88,3.31,1.88,4.18,0l.78-1.68c.87-1.88,3.31-1.88,4.18,0l.78,1.68c.87,1.88,3.31,1.88,4.18,0l.78-1.68c.87-1.88,3.31-1.88,4.18,0l.78,1.68c.87,1.88,3.31,1.88,4.18,0l.78-1.68c.87-1.88,3.31-1.88,4.18,0l.78,1.68c.87,1.88,3.31,1.88,4.18,0l.78-1.68c.87-1.88,3.31-1.88,4.18,0l.78,1.68c.87,1.88,3.31,1.88,4.18,0l.78-1.68c.87-1.88,3.31-1.88,4.18,0l.78,1.68c.87,1.88,3.31,1.88,4.18,0l.78-1.68c.87-1.88,3.31-1.88,4.18,0l1.05,2.27c.71,1.53,2.93,1.53,3.64,0l1.02-1.91c.62-1.15,1.74-1.86,2.96-1.86h3.17"/>
        <path class="cls-10" d="M157.51,35.66v.36c0,2.16,1.64,3.97,3.79,4.17l14.52,1.37c2.14.2,4.03-1.23,4.48-3.24h12.58v8.63c0,1.92-1.56,3.48-3.48,3.48H59.5v-28.87h129.91c1.92,0,3.48,1.56,3.48,3.48v8.55h-12.52c-.31-2.19-2.3-3.8-4.56-3.57l-14.52,1.47c-2.14.21-3.77,2.02-3.77,4.17Z"/>
        <path class="cls-12" d="M180.4,34.19v3.2c0,.32-.03.63-.1.93-.45,2.01-2.34,3.44-4.48,3.24l-14.51-1.37c-2.16-.2-3.8-2.01-3.8-4.17v-.36c0-2.15,1.63-3.95,3.77-4.17l14.52-1.47c2.26-.23,4.26,1.38,4.56,3.57.03.19.04.39.04.6Z"/>
        <rect class="cls-3" x="27.32" y="2.14" width="20.9" height="45.79" rx="10.45" ry="10.45"/>
        <path class="cls-5" d="M59.5,21.57v29.21h-15.22c-11.25,0-20.37,9.12-20.37,20.37v47.98H2.14V47.64c0-14.4,11.68-26.07,26.07-26.07h31.29Z"/>
        <circle class="cls-9" cx="39.48" cy="35.5" r="11.09"/>
        <circle class="cls-16" cx="39.48" cy="35.5" r="5.07"/>
      </g>
    </g>
  </g>
</svg>