<?xml version="1.0" encoding="UTF-8"?>
<svg id="Layer_2" data-name="Layer 2" xmlns="http://www.w3.org/2000/svg" viewBox="0 0 364.84 438.2">
  <defs>
    <style>
      .cls-1 {
        fill: #ffdd6f;
      }

      .cls-1, .cls-2, .cls-3, .cls-4, .cls-5, .cls-6, .cls-7, .cls-8, .cls-9, .cls-10, .cls-11, .cls-12, .cls-13, .cls-14, .cls-15, .cls-16, .cls-17 {
        stroke-linecap: round;
        stroke-linejoin: round;
      }

      .cls-1, .cls-2, .cls-4, .cls-5, .cls-6, .cls-8, .cls-9, .cls-10, .cls-11, .cls-12, .cls-13, .cls-14, .cls-15, .cls-16, .cls-17 {
        stroke: #010100;
      }

      .cls-2 {
        fill: #d5b295;
      }

      .cls-3, .cls-18 {
        fill: #fff;
        stroke: #fff;
        stroke-width: 10px;
      }

      .cls-4 {
        fill: #00b67a;
      }

      .cls-5 {
        fill: #ab0002;
      }

      .cls-6 {
        fill: #232ed7;
      }

      .cls-7 {
        fill: #fe4711;
        stroke: #040403;
      }

      .cls-8 {
        fill: #010102;
      }

      .cls-9 {
        fill: #ff89ef;
      }

      .cls-10 {
        stroke-width: 1.3px;
      }

      .cls-10, .cls-15 {
        fill: none;
      }

      .cls-11 {
        fill: #f0d4a8;
      }

      .cls-12, .cls-19 {
        fill: #fffdff;
      }

      .cls-13 {
        fill: #fe4717;
      }

      .cls-14 {
        fill: #0a0806;
      }

      .cls-16 {
        fill: #ffd16e;
      }

      .cls-20 {
        fill: #010100;
      }

      .cls-18 {
        stroke-miterlimit: 10;
      }

      .cls-17 {
        fill: #f4e29a;
      }
    </style>
  </defs>
  <g id="Generative_Recolor_Stickers" data-name="Generative Recolor Stickers">
    <g>
      <g>
        <g>
          <path class="cls-3" d="M141.89,97.45h43.99v16.51c0,1.38-1.12,2.5-2.5,2.5h-38.99c-1.38,0-2.5-1.12-2.5-2.5v-16.51h0Z"/>
          <g>
            <rect class="cls-3" x="143.25" y="122.14" width="41.28" height="5.65" rx=".41" ry=".41"/>
            <path class="cls-3" d="M177.37,127.79c-2.59,4.79-7.66,8.04-13.48,8.04s-10.9-3.25-13.49-8.04h26.97Z"/>
          </g>
        </g>
        <circle class="cls-3" cx="32.25" cy="113.38" r="18.41"/>
        <circle class="cls-3" cx="30.62" cy="122.83" r="5.01"/>
        <path class="cls-3" d="M335.53,58.83H126.29v9.98h209.24c7.89,0,14.31,6.4,14.31,14.27v185.24h-42.53v9.89h42.53v123.75c0,10.74,3.51,21.19,10,29.74V83.08c0-13.37-10.9-24.25-24.31-24.25Z"/>
        <ellipse class="cls-3" cx="241.45" cy="51.97" rx="11.69" ry="12.09"/>
        <path class="cls-3" d="M311.09,94.89c-.4,16.9-1.17,33.8-3.17,50.7h-40c-1.13-14.08-4.56-35.41-4.56-35.41,0,0,.29-26.03,0-31.41-.3-5.57.12-11.27-1-16.8-1.11-5.53-3.86-10.77-8.38-14.24-5.95-4.55-13.85-4.99-20.78-2.68-8.33,2.79-11.93,11.16-15.4,18.43-3.59,7.52-8.4,14.42-13.88,20.67-2.38,2.71-4.75,5.25-7.37,7.46-2.96,2.52-6.21,4.61-10.1,6.04-5.65,2.07-11.5,2.57-17.47,2.57-1.14,0-6.7-.21-7.93-.22-7.34-.22-15.37-.36-23.7-.44-11.66-.12-23.88-.11-35.56-.03-8.62.06-16.95.17-24.54.31-.85,1.14-3.33,3.25-6.32,5.58-6.39,4.99-15.08,11.04-15.08,11.04l-50.85-.67c0-7.58,5.19-16.11,8.47-21.19,12.69-19.62,36.1-29.92,57.46-34.07,7.53-1.47,14.81-2.17,21.27-2.25,1.09-.01,2.2-.03,3.34-.04,10.69-.14,23.41-.32,36.17-.49,1.88-.03,3.76-.05,5.64-.08,9.38-.13,18.62-.25,26.93-.35.44-.01.87-.13,1.23-.35.36-.22.66-.52.87-.9,2.88-5.07,5.93-10.26,8.74-15.22.59-1.04,1.59-2.58,2.22-3.6,12.55-19.55,35.15-32.5,58.57-32.25,3.46.03,6.95.22,10.4.45,23.98,1.31,44.93,17.32,57.19,37.43,4.46,7.68,6.78,16.2,7.1,25.07.59,8.97.73,17.95.49,26.94Z"/>
        <path class="cls-3" d="M137.35,57.67v41.89c-11.66-.12-23.88-.11-35.56-.03-8.62.06-16.95.17-24.54.31-.85,1.14-3.33,3.25-6.32,5.58v-44.89c7.53-1.47,14.81-2.17,21.27-2.25,1.09-.01,2.2-.03,3.34-.04,10.69-.14,23.41-.32,36.17-.49,1.88-.03,3.76-.05,5.64-.08Z"/>
        <path class="cls-3" d="M87.03,92.9l-9.78,6.94c-.85,1.14-3.33,3.25-6.32,5.58-6.39,4.99-15.08,11.04-15.08,11.04l-50.85-.67c0-7.58,5.19-16.11,8.47-21.19,12.69-19.62,36.1-29.92,57.46-34.07,7.53-1.47,14.81-2.17,21.27-2.25,1.09-.01,2.2-.03,3.34-.04l.76,15.6c.36,7.52-3.13,14.7-9.27,19.06Z"/>
        <circle class="cls-3" cx="103" cy="73.59" r="5.01"/>
        <circle class="cls-3" cx="106.11" cy="67.75" r="3.69"/>
        <path class="cls-3" d="M196.55,91.61c-2.96,2.52-6.21,4.61-10.1,6.04-5.65,2.07-11.5,2.57-17.47,2.57-1.14,0-6.7-.21-7.93-.22-7.34-.22-15.37-.36-23.7-.44-11.66-.12-23.88-.11-35.56-.03-.6-.9-1.18-1.76-1.74-2.59-3.53-5.26-2.41-12.35,2.56-16.27l29.1-22.92c1.88-.03,3.76-.05,5.64-.08,9.38-.13,18.62-.25,26.93-.35.44-.01.87-.13,1.23-.35l31.04,34.64Z"/>
        <path class="cls-3" d="M254.27,103.43v125.09h-8.15c-45.83,0-82.98,37.15-82.98,82.98v117.73c0,2.19,1.78,3.97,3.97,3.97h151.82c.79,0,1.42-.64,1.42-1.42V103.43h-66.09Z"/>
        <path class="cls-3" d="M246.46,245.42c-36.36,0-65.83,29.47-65.83,65.83v121.95"/>
        <rect class="cls-3" x="214.92" y="363.86" width="16.88" height="34.99"/>
        <rect class="cls-3" x="214.92" y="355.4" width="2.58" height="71.6"/>
        <g>
          <path class="cls-3" d="M191.14,424.38h-10.51v-124.35c0-2.9,2.35-5.26,5.26-5.26h0c2.9,0,5.26,2.35,5.26,5.26v124.35Z"/>
          <g>
            <path class="cls-3" d="M192.56,304.55h0c-.91.91-1.42,2.15-1.42,3.43v86c0,1.29.51,2.52,1.42,3.43h0c1.9,1.9,4.97,1.9,6.87,0l43-43c1.9-1.9,1.9-4.97,0-6.87l-43-43c-1.9-1.9-4.97-1.9-6.87,0Z"/>
            <line class="cls-3" x1="203.84" y1="311.96" x2="203.84" y2="392.78"/>
          </g>
        </g>
        <path class="cls-3" d="M221.78,411.29h78.66c3.79,0,6.86,3.07,6.86,6.86v15.04h-92.38v-15.04c0-3.79,3.07-6.86,6.86-6.86Z"/>
        <path class="cls-3" d="M163.14,420.79h157.22v12.41h-153.62c-1.98,0-3.6-1.61-3.6-3.6v-8.81h0Z"/>
        <g>
          <circle class="cls-3" cx="265.56" cy="292.51" r="44.66"/>
          <circle class="cls-3" cx="265.56" cy="292.51" r="33.76"/>
          <circle class="cls-3" cx="265.56" cy="292.51" r="22.36"/>
          <circle class="cls-18" cx="265.56" cy="292.51" r="15.81"/>
          <circle class="cls-18" cx="275.16" cy="282.92" r="6.22"/>
        </g>
        <path class="cls-3" d="M254.27,103.43h66.09v9.16c0,4.22-3.43,7.65-7.65,7.65h-50.8c-4.22,0-7.65-3.43-7.65-7.65v-9.16h0Z"/>
      </g>
      <g>
        <g>
          <path class="cls-6" d="M141.89,97.45h43.99v16.51c0,1.38-1.12,2.5-2.5,2.5h-38.99c-1.38,0-2.5-1.12-2.5-2.5v-16.51h0Z"/>
          <g>
            <rect class="cls-8" x="143.25" y="122.14" width="41.28" height="5.65" rx=".41" ry=".41"/>
            <path class="cls-16" d="M177.37,127.79c-2.59,4.79-7.66,8.04-13.48,8.04s-10.9-3.25-13.49-8.04h26.97Z"/>
          </g>
        </g>
        <path class="cls-7" d="M335.53,58.83H126.29v9.98h209.24c7.89,0,14.31,6.4,14.31,14.27v185.24h-42.53v9.89h42.53v123.75c0,10.74,3.51,21.19,10,29.74V83.08c0-13.37-10.9-24.25-24.31-24.25Z"/>
        <ellipse class="cls-6" cx="241.45" cy="51.97" rx="11.69" ry="12.09"/>
        <path class="cls-11" d="M311.09,94.89c-.4,16.9-1.17,33.8-3.17,50.7h-40c-1.13-14.08-4.56-35.41-4.56-35.41,0,0,.29-26.03,0-31.41-.3-5.57.12-11.27-1-16.8-1.11-5.53-3.86-10.77-8.38-14.24-5.95-4.55-13.85-4.99-20.78-2.68-8.33,2.79-11.93,11.16-15.4,18.43-3.59,7.52-8.4,14.42-13.88,20.67-2.38,2.71-4.75,5.25-7.37,7.46-2.96,2.52-6.21,4.61-10.1,6.04-5.65,2.07-11.5,2.57-17.47,2.57-1.14,0-6.7-.21-7.93-.22-7.34-.22-15.37-.36-23.7-.44-11.66-.12-23.88-.11-35.56-.03-8.62.06-16.95.17-24.54.31-.85,1.14-3.33,3.25-6.32,5.58-6.39,4.99-15.08,11.04-15.08,11.04l-50.85-.67c0-7.58,5.19-16.11,8.47-21.19,12.69-19.62,36.1-29.92,57.46-34.07,7.53-1.47,14.81-2.17,21.27-2.25,1.09-.01,2.2-.03,3.34-.04,10.69-.14,23.41-.32,36.17-.49,1.88-.03,3.76-.05,5.64-.08,9.38-.13,18.62-.25,26.93-.35.44-.01.87-.13,1.23-.35.36-.22.66-.52.87-.9,2.88-5.07,5.93-10.26,8.74-15.22.59-1.04,1.59-2.58,2.22-3.6,12.55-19.55,35.15-32.5,58.57-32.25,3.46.03,6.95.22,10.4.45,23.98,1.31,44.93,17.32,57.19,37.43,4.46,7.68,6.78,16.2,7.1,25.07.59,8.97.73,17.95.49,26.94Z"/>
        <path class="cls-13" d="M137.35,57.67v41.89c-11.66-.12-23.88-.11-35.56-.03-8.62.06-16.95.17-24.54.31-.85,1.14-3.33,3.25-6.32,5.58v-44.89c7.53-1.47,14.81-2.17,21.27-2.25,1.09-.01,2.2-.03,3.34-.04,10.69-.14,23.41-.32,36.17-.49,1.88-.03,3.76-.05,5.64-.08Z"/>
        <path class="cls-11" d="M87.03,92.9l-9.78,6.94c-.85,1.14-3.33,3.25-6.32,5.58-6.39,4.99-15.08,11.04-15.08,11.04l-50.85-.67c0-7.58,5.19-16.11,8.47-21.19,12.69-19.62,36.1-29.92,57.46-34.07,7.53-1.47,14.81-2.17,21.27-2.25,1.09-.01,2.2-.03,3.34-.04l.76,15.6c.36,7.52-3.13,14.7-9.27,19.06Z"/>
        <circle class="cls-14" cx="103" cy="73.59" r="5.01"/>
        <circle class="cls-2" cx="106.11" cy="67.75" r="3.69"/>
        <path class="cls-11" d="M196.55,91.61c-2.96,2.52-6.21,4.61-10.1,6.04-5.65,2.07-11.5,2.57-17.47,2.57-1.14,0-6.7-.21-7.93-.22-7.34-.22-15.37-.36-23.7-.44-11.66-.12-23.88-.11-35.56-.03-.6-.9-1.18-1.76-1.74-2.59-3.53-5.26-2.41-12.35,2.56-16.27l29.1-22.92c1.88-.03,3.76-.05,5.64-.08,9.38-.13,18.62-.25,26.93-.35.44-.01.87-.13,1.23-.35l31.04,34.64Z"/>
        <path class="cls-4" d="M254.27,103.43v125.09h-8.15c-45.83,0-82.98,37.15-82.98,82.98v117.73c0,2.19,1.78,3.97,3.97,3.97h151.82c.79,0,1.42-.64,1.42-1.42V103.43h-66.09Z"/>
        <path class="cls-15" d="M246.46,245.42c-36.36,0-65.83,29.47-65.83,65.83v121.95"/>
        <rect class="cls-14" x="214.92" y="363.86" width="16.88" height="34.99"/>
        <rect class="cls-14" x="214.92" y="355.4" width="2.58" height="71.6"/>
        <g>
          <path class="cls-9" d="M191.14,424.38h-10.51v-124.35c0-2.9,2.35-5.26,5.26-5.26h0c2.9,0,5.26,2.35,5.26,5.26v124.35Z"/>
          <g>
            <path class="cls-9" d="M192.56,304.55h0c-.91.91-1.42,2.15-1.42,3.43v86c0,1.29.51,2.52,1.42,3.43h0c1.9,1.9,4.97,1.9,6.87,0l43-43c1.9-1.9,1.9-4.97,0-6.87l-43-43c-1.9-1.9-4.97-1.9-6.87,0Z"/>
            <line class="cls-10" x1="203.84" y1="311.96" x2="203.84" y2="392.78"/>
          </g>
        </g>
        <path class="cls-9" d="M221.78,411.29h78.66c3.79,0,6.86,3.07,6.86,6.86v15.04h-92.38v-15.04c0-3.79,3.07-6.86,6.86-6.86Z"/>
        <path class="cls-1" d="M163.14,420.79h157.22v12.41h-153.62c-1.98,0-3.6-1.61-3.6-3.6v-8.81h0Z"/>
        <g>
          <circle class="cls-17" cx="265.56" cy="292.51" r="44.66"/>
          <circle class="cls-12" cx="265.56" cy="292.51" r="33.76"/>
          <circle class="cls-5" cx="265.56" cy="292.51" r="22.36"/>
          <circle class="cls-20" cx="265.56" cy="292.51" r="15.81"/>
          <circle class="cls-19" cx="278.38" cy="280.22" r="7.35"/>
        </g>
        <path class="cls-11" d="M254.27,103.43h66.09v9.16c0,4.22-3.43,7.65-7.65,7.65h-50.8c-4.22,0-7.65-3.43-7.65-7.65v-9.16h0Z"/>
      </g>
    </g>
  </g>
</svg>