<?xml version="1.0" encoding="UTF-8"?>
<svg id="Layer_2" data-name="Layer 2" xmlns="http://www.w3.org/2000/svg" xmlns:xlink="http://www.w3.org/1999/xlink" viewBox="0 0 518.36 801.03">
  <defs>
    <style>
      .cls-1 {
        fill: #f9ba04;
      }

      .cls-1, .cls-2, .cls-3, .cls-4, .cls-5, .cls-6, .cls-7, .cls-8, .cls-9, .cls-10, .cls-11, .cls-12, .cls-13, .cls-14 {
        stroke-miterlimit: 10;
      }

      .cls-1, .cls-2, .cls-3, .cls-4, .cls-6, .cls-7, .cls-8, .cls-9, .cls-10, .cls-11, .cls-12, .cls-13, .cls-14 {
        stroke: #000;
      }

      .cls-1, .cls-3, .cls-4, .cls-6, .cls-7, .cls-9, .cls-10, .cls-12, .cls-13, .cls-14 {
        stroke-width: 2px;
      }

      .cls-2 {
        fill: #f7efcf;
        stroke-width: 1.98px;
      }

      .cls-3, .cls-5, .cls-11, .cls-13 {
        stroke-linecap: round;
      }

      .cls-3, .cls-5, .cls-12 {
        fill: none;
      }

      .cls-4 {
        fill: #f9f3dc;
      }

      .cls-15 {
        fill: #4e3a63;
      }

      .cls-5 {
        stroke: #ecaf8f;
        stroke-width: 3px;
      }

      .cls-6 {
        fill: #328245;
      }

      .cls-16 {
        clip-path: url(#clippath-1);
      }

      .cls-7, .cls-13, .cls-17 {
        fill: #dd6553;
      }

      .cls-8 {
        stroke-width: 2.35px;
      }

      .cls-8, .cls-11 {
        fill: #a496b1;
      }

      .cls-9 {
        fill: #d45539;
      }

      .cls-18, .cls-10 {
        fill: #3959ba;
      }

      .cls-11 {
        stroke-width: 2.34px;
      }

      .cls-19 {
        clip-path: url(#clippath);
      }

      .cls-14 {
        fill: #928993;
      }
    </style>
    <clipPath id="clippath">
      <path class="cls-10" d="M313.99,528.92V51.7c0-28-22.7-50.7-50.7-50.7h0c-28,0-50.7,22.7-50.7,50.7v201.13c0,4.53-3.67,8.2-8.2,8.2h-95.51c-52.72,0-95.46,42.74-95.46,95.46v8.22c-7.99,5.3-13.07,14.63-12.34,25.1.96,13.71,12.15,24.8,25.86,25.66,16.12,1.01,29.5-11.76,29.5-27.66,0-5.49-1.6-10.61-4.36-14.92v-10.72c0-12.72,3.86-25.23,11.48-35.42,8.49-11.35,21.09-19.64,36.25-19.64h104.59c4.53,0,8.2,3.67,8.2,8.2v451.54c0,18.32,14.85,33.17,33.17,33.17h236.44c18.32,0,33.17-14.85,33.17-33.17v-237.94h-201.37Z"/>
    </clipPath>
    <clipPath id="clippath-1">
      <ellipse class="cls-7" cx="373.49" cy="653.22" rx="12.22" ry="15.55"/>
    </clipPath>
  </defs>
  <g id="Bottom_Right" data-name="Bottom Right">
    <g>
      <path class="cls-14" d="M296.92,239.75h191.36c14.95,0,27.08,12.13,27.08,27.08v262.09h-218.44V239.75h0Z"/>
      <path class="cls-2" d="M509.41,266.83c1.67-1.39,2.74-3.48,2.74-5.83,0-4.17-3.38-7.56-7.56-7.56s-7.56,3.38-7.56,7.56c0,2.34,1.07,4.44,2.74,5.83h-5.48c1.67-1.39,2.74-3.48,2.74-5.83,0-4.17-3.38-7.56-7.56-7.56s-7.56,3.38-7.56,7.56c0,2.34,1.07,4.44,2.74,5.83h-5.48c1.67-1.39,2.74-3.48,2.74-5.83,0-4.17-3.38-7.56-7.56-7.56s-7.56,3.38-7.56,7.56c0,2.34,1.07,4.44,2.74,5.83h-5.48c1.67-1.39,2.74-3.48,2.74-5.83,0-4.17-3.38-7.56-7.56-7.56s-7.56,3.38-7.56,7.56c0,2.34,1.07,4.44,2.74,5.83h-5.48c1.67-1.39,2.74-3.48,2.74-5.83,0-4.17-3.38-7.56-7.56-7.56s-7.56,3.38-7.56,7.56c0,2.34,1.07,4.44,2.74,5.83h-5.48c1.67-1.39,2.74-3.48,2.74-5.83,0-4.17-3.38-7.56-7.56-7.56s-7.56,3.38-7.56,7.56c0,2.34,1.07,4.44,2.74,5.83h-5.48c1.67-1.39,2.74-3.48,2.74-5.83,0-4.17-3.38-7.56-7.56-7.56s-7.56,3.38-7.56,7.56c0,2.34,1.07,4.44,2.74,5.83h-5.48c1.67-1.39,2.74-3.48,2.74-5.83,0-4.17-3.38-7.56-7.56-7.56s-7.56,3.38-7.56,7.56c0,2.34,1.07,4.44,2.74,5.83h-5.48c1.67-1.39,2.74-3.48,2.74-5.83,0-4.17-3.38-7.56-7.56-7.56s-7.56,3.38-7.56,7.56c0,2.34,1.07,4.44,2.74,5.83h-5.48c1.67-1.39,2.74-3.48,2.74-5.83,0-4.17-3.38-7.56-7.56-7.56s-7.56,3.38-7.56,7.56c0,2.34,1.07,4.44,2.74,5.83h-5.48c1.67-1.39,2.74-3.48,2.74-5.83,0-4.17-3.38-7.56-7.56-7.56s-7.56,3.38-7.56,7.56c0,2.34,1.07,4.44,2.74,5.83h-5.48c1.67-1.39,2.74-3.48,2.74-5.83,0-4.17-3.38-7.56-7.56-7.56s-7.56,3.38-7.56,7.56c0,2.34,1.07,4.44,2.74,5.83h-5.48c1.67-1.39,2.74-3.48,2.74-5.83,0-4.17-3.38-7.56-7.56-7.56s-7.56,3.38-7.56,7.56c0,2.34,1.07,4.44,2.74,5.83h-5.48c1.67-1.39,2.74-3.48,2.74-5.83,0-4.17-3.38-7.56-7.56-7.56s-7.56,3.38-7.56,7.56c0,3.76,2.76,6.88,6.36,7.45v260.46h208.48v-262.09h-5.95Z"/>
      <g>
        <path class="cls-18" d="M313.99,528.92V51.7c0-28-22.7-50.7-50.7-50.7h0c-28,0-50.7,22.7-50.7,50.7v201.13c0,4.53-3.67,8.2-8.2,8.2h-95.51c-52.72,0-95.46,42.74-95.46,95.46v8.22c-7.99,5.3-13.07,14.63-12.34,25.1.96,13.71,12.15,24.8,25.86,25.66,16.12,1.01,29.5-11.76,29.5-27.66,0-5.49-1.6-10.61-4.36-14.92v-10.72c0-12.72,3.86-25.23,11.48-35.42,8.49-11.35,21.09-19.64,36.25-19.64h104.59c4.53,0,8.2,3.67,8.2,8.2v451.54c0,18.32,14.85,33.17,33.17,33.17h236.44c18.32,0,33.17-14.85,33.17-33.17v-237.94h-201.37Z"/>
        <g class="cls-19">
          <g>
            <path class="cls-10" d="M313.99,528.92V51.7h0c0-.88-.02-1.75-.07-2.61-.04-.86-.11-1.72-.2-2.57-2.42-23.86-21.39-42.83-45.26-45.26-.85-.09-1.71-.15-2.57-.2-.86-.04-1.73-.07-2.61-.07h0c-.88,0-1.75.02-2.61.07-.86.04-1.72.11-2.57.2-23.86,2.42-42.83,21.39-45.26,45.26-.09.85-.15,1.71-.2,2.57-.04.86-.07,1.73-.07,2.61h0v201.12c0,4.53-3.67,8.2-8.2,8.2h-95.51c-52.72,0-95.46,42.74-95.46,95.46v8.22c-7.99,5.3-13.07,14.63-12.34,25.1.96,13.71,12.14,24.8,25.86,25.67,16.12,1.01,29.5-11.76,29.5-27.66,0-5.49-1.6-10.61-4.36-14.92v-10.72c0-12.72,3.86-25.23,11.48-35.42,8.49-11.35,21.09-19.64,36.25-19.64h104.59c4.53,0,8.2,3.67,8.2,8.2v451.54h0c0,3.19.46,6.27,1.3,9.18.11.4.23.79.36,1.18,4.35,13.24,16.81,22.81,31.51,22.81h236.44c13.7,0,25.46-8.31,30.52-20.16.06-.14.11-.28.17-.42.3-.73.57-1.48.82-2.23.13-.39.25-.78.36-1.18.84-2.92,1.3-6,1.3-9.18h0v-237.94h-201.37Z"/>
            <rect class="cls-15" x="283.27" y="565.24" width="232.09" height="41.29"/>
            <rect class="cls-4" x="324.5" y="565.24" width="157.61" height="41.29" rx="20.62" ry="20.62"/>
            <path class="cls-1" d="M312.34,629.5h205.02v47.45h-205.02c-5.11,0-9.26-4.15-9.26-9.26v-28.94c0-5.11,4.15-9.26,9.26-9.26Z"/>
          </g>
          <path class="cls-6" d="M212.59,250.52v70.65l-112.8-14.05c-15.16,0-27.75,8.29-36.25,19.64-7.62,10.19-11.48,22.7-11.48,35.42v13.39s-38.66-4.08-38.66-4.08v-15c0-52.72,42.74-95.46,95.46-95.46l103.72-10.51Z"/>
        </g>
        <path class="cls-12" d="M313.99,528.92V51.7c0-28-22.7-50.7-50.7-50.7h0c-28,0-50.7,22.7-50.7,50.7v201.13c0,4.53-3.67,8.2-8.2,8.2h-95.51c-52.72,0-95.46,42.74-95.46,95.46v8.22c-7.99,5.3-13.07,14.63-12.34,25.1.96,13.71,12.15,24.8,25.86,25.66,16.12,1.01,29.5-11.76,29.5-27.66,0-5.49-1.6-10.61-4.36-14.92v-10.72c0-12.72,3.86-25.23,11.48-35.42,8.49-11.35,21.09-19.64,36.25-19.64h104.59c4.53,0,8.2,3.67,8.2,8.2v451.54c0,18.32,14.85,33.17,33.17,33.17h236.44c18.32,0,33.17-14.85,33.17-33.17v-237.94h-201.37Z"/>
      </g>
      <path class="cls-8" d="M489.82,754.45h-149.47v-13.33c0-25.41-20.6-46.01-46.01-46.01h-11.07V23.62c0-5.52-4.47-9.99-9.99-9.99s-9.99,4.47-9.99,9.99c0-5.52-4.47-9.99-9.99-9.99h0c-5.52,0-9.99,4.47-9.99,9.99v722.3c0,15.75,12.77,28.52,28.52,28.52h217.99c5.52,0,10-4.48,10-10s-4.48-10-10-10Z"/>
      <path class="cls-11" d="M263.29,709.21V23.62c0-5.52-4.47-9.99-9.99-9.99"/>
      <ellipse class="cls-13" cx="326.89" cy="653.22" rx="12.22" ry="15.55"/>
      <g>
        <ellipse class="cls-17" cx="373.49" cy="653.22" rx="12.22" ry="15.55"/>
        <g class="cls-16">
          <line class="cls-5" x1="373.49" y1="637.68" x2="373.49" y2="658.57"/>
        </g>
        <ellipse class="cls-12" cx="373.49" cy="653.22" rx="12.22" ry="15.55"/>
      </g>
      <ellipse class="cls-7" cx="441.01" cy="653.22" rx="12.22" ry="15.55"/>
      <ellipse class="cls-7" cx="487.6" cy="653.22" rx="12.22" ry="15.55"/>
      <circle class="cls-9" cx="409.22" cy="653.22" r="8.84"/>
      <line class="cls-3" x1="326.89" y1="647.88" x2="326.89" y2="658.57"/>
      <line class="cls-3" x1="487.6" y1="647.88" x2="487.6" y2="658.57"/>
      <circle class="cls-10" cx="28.71" cy="387.81" r="27.71"/>
    </g>
  </g>
</svg>