<?xml version="1.0" encoding="UTF-8"?>
<svg id="Layer_2" data-name="Layer 2" xmlns="http://www.w3.org/2000/svg" xmlns:xlink="http://www.w3.org/1999/xlink" viewBox="0 0 411.3 367.22">
  <defs>
    <style>
      .cls-1 {
        fill: #e49e4b;
      }

      .cls-1, .cls-2, .cls-3, .cls-4, .cls-5, .cls-6, .cls-7, .cls-8, .cls-9, .cls-10, .cls-11, .cls-12, .cls-13, .cls-14, .cls-15, .cls-16, .cls-17, .cls-18, .cls-19, .cls-20, .cls-21 {
        stroke: #1c1b18;
      }

      .cls-1, .cls-2, .cls-3, .cls-4, .cls-5, .cls-6, .cls-7, .cls-8, .cls-9, .cls-10, .cls-11, .cls-13, .cls-14, .cls-15, .cls-16, .cls-17, .cls-18, .cls-19, .cls-20, .cls-21 {
        stroke-miterlimit: 10;
      }

      .cls-1, .cls-2, .cls-3, .cls-4, .cls-5, .cls-7, .cls-8, .cls-10, .cls-11, .cls-12, .cls-13, .cls-14, .cls-15, .cls-16, .cls-17, .cls-18, .cls-19, .cls-20, .cls-21 {
        stroke-width: 2px;
      }

      .cls-2 {
        fill: #5a68b1;
      }

      .cls-3, .cls-22 {
        fill: #80b889;
      }

      .cls-4 {
        fill: #ecddb9;
      }

      .cls-5 {
        fill: #fbc83e;
      }

      .cls-6 {
        fill: #5969b2;
      }

      .cls-7 {
        fill: #e99fa8;
      }

      .cls-8 {
        fill: #e29a47;
      }

      .cls-9 {
        fill: #e89b47;
      }

      .cls-10 {
        fill: #f68104;
      }

      .cls-23 {
        fill: #1c1b18;
      }

      .cls-11 {
        fill: #e9a0a9;
      }

      .cls-12 {
        stroke-linejoin: round;
      }

      .cls-12, .cls-17 {
        fill: #e2d2bd;
      }

      .cls-13 {
        fill: #5967b2;
      }

      .cls-14 {
        fill: #5b4aaf;
      }

      .cls-15 {
        fill: none;
      }

      .cls-16 {
        fill: #301c32;
      }

      .cls-18 {
        fill: #80b98b;
      }

      .cls-19 {
        fill: #301c30;
      }

      .cls-20 {
        fill: #ded0ba;
      }

      .cls-21 {
        fill: #ecdfbc;
      }

      .cls-24 {
        clip-path: url(#clippath);
      }
    </style>
    <clipPath id="clippath">
      <circle class="cls-3" cx="108.34" cy="98.41" r="15.89"/>
    </clipPath>
  </defs>
  <g id="BlueBowler_Bulb" data-name="BlueBowler &amp;amp; Bulb">
    <g id="Orbit">
      <g>
        <path class="cls-17" d="M300.7,233.14h-20.52l-.7-17.83c-.24-6.22,4.73-11.39,10.96-11.39h0c6.22,0,11.2,5.17,10.96,11.39l-.7,17.83Z"/>
        <polygon class="cls-12" points="286.38 222.92 290.44 212.03 293.65 222.92 286.38 222.92"/>
      </g>
      <path class="cls-16" d="M325.11,246.33h-67.73l11.26-21.94c1.4-2.73,4.21-4.45,7.28-4.45h30.63c3.07,0,5.88,1.72,7.28,4.45l11.26,21.94Z"/>
      <path class="cls-10" d="M31.11,46.05h38.85v47.09H9.73c-4.82,0-8.73-3.91-8.73-8.73v-8.25c0-16.62,13.49-30.11,30.11-30.11Z"/>
      <path class="cls-4" d="M161.46,72.1v150.82c0,2.32-.66,4.5-1.81,6.33-2.12,3.37-5.87,5.62-10.15,5.62H56.45V102.7c0-4.92-3.49-9.02-8.12-9.96v-31.49c0-5.84,3.29-10.91,8.12-13.45,2.11-1.12,4.52-1.75,7.08-1.75h71.88c14.38,0,26.05,11.66,26.05,26.05Z"/>
      <path class="cls-2" d="M362.41,293.44v67.19h-39.65v5.59H67.01c-5.83,0-10.56-4.73-10.56-10.56v-120.79h93.05c4.28,0,8.03-2.25,10.15-5.62,1.15-1.83,1.81-4.01,1.81-6.33v7.36c0,7.13,2.65,14.07,7.66,19.14.04.04.07.07.11.11,18.3,18.3,46.91,19.97,67.1,5.03h.01c2.03-1.51,3.98-3.19,5.82-5.03l1.34-1.34c10.32-10.32,24.08-16.69,38.67-17.18.69-.02,1.39-.04,2.09-.04h15.68c34.5,0,62.47,27.97,62.47,62.47Z"/>
      <path class="cls-14" d="M375.24,348.21v10.98c0,3.88-3.15,7.03-7.04,7.03h-45.44v-5.59h39.65v-16c2.67,2.24,6.11,3.58,9.84,3.58h2.99Z"/>
      <path class="cls-15" d="M375.24,308.27v39.94h-2.99c-3.73,0-7.17-1.34-9.84-3.58v-43.86l12.83,7.5Z"/>
      <path class="cls-19" d="M410.3,328.36v16.31c-2.03,2.14-4.91,3.54-8.45,3.54h-26.61v-39.94l-12.83-7.5v-.34l46.02,26.38c.7.47,1.32.99,1.87,1.55Z"/>
      <path class="cls-11" d="M56.45,279.76h121.51c18.89,0,34.23,15.34,34.23,34.23h0c0,18.89-15.34,34.23-34.23,34.23H56.45v-68.45h0Z"/>
      <path class="cls-1" d="M56.45,297.43h121.94c9.14,0,16.55,7.41,16.55,16.55h0c0,9.14-7.41,16.55-16.55,16.55H56.45"/>
      <circle class="cls-21" cx="176.42" cy="313.98" r="8.19"/>
      <circle class="cls-13" cx="75.88" cy="313.98" r="8.19"/>
      <rect class="cls-5" x="251.41" y="281.91" width="80.17" height="66.3" rx="33.15" ry="33.15"/>
      <path class="cls-8" d="M291.49,281.91h6.93c18.3,0,33.15,14.85,33.15,33.15h0c0,18.3-14.85,33.15-33.15,33.15h-6.93v-66.3h0Z"/>
      <circle class="cls-18" cx="108.34" cy="93.14" r="24.77"/>
      <g>
        <line class="cls-15" x1="100.65" y1="29.15" x2="100.65" y2="46.83"/>
        <path class="cls-6" d="M119.8,19.82c0,1.58-.19,3.11-.55,4.58-.89,3.7-2.86,6.98-5.54,9.5h-26.44c-2.69-2.52-4.65-5.8-5.55-9.5-.36-1.47-.55-3-.55-4.58,0-10.67,8.65-19.32,19.32-19.32s19.31,8.65,19.31,19.32Z"/>
        <polygon class="cls-6" points="90.67 29.15 100.66 3.45 109.99 29.15 90.67 29.15"/>
        <path class="cls-9" d="M125.04,29.15c0,1.31-.53,2.5-1.39,3.36-.85.86-2.04,1.39-3.35,1.39h-39.29c-2.62,0-4.75-2.13-4.75-4.75,0-1.31.53-2.5,1.39-3.36s2.05-1.39,3.36-1.39h39.29c2.62,0,4.74,2.13,4.74,4.75Z"/>
      </g>
      <g>
        <circle class="cls-22" cx="108.34" cy="98.41" r="15.89"/>
        <g class="cls-24">
          <circle class="cls-23" cx="108.34" cy="104.86" r="11.72"/>
        </g>
        <circle class="cls-15" cx="108.34" cy="98.41" r="15.89"/>
      </g>
      <circle class="cls-20" cx="293.65" cy="294.84" r="8.19"/>
      <circle class="cls-7" cx="293.65" cy="336.44" r="8.19"/>
    </g>
  </g>
</svg>