<?xml version="1.0" encoding="UTF-8"?>
<svg id="Layer_2" data-name="Layer 2" xmlns="http://www.w3.org/2000/svg" viewBox="0 0 392.66 343.39">
  <defs>
    <style>
      .cls-1 {
        fill: #3c3388;
      }

      .cls-1, .cls-2, .cls-3, .cls-4, .cls-5, .cls-6, .cls-7, .cls-8, .cls-9, .cls-10, .cls-11, .cls-12, .cls-13, .cls-14, .cls-15, .cls-16, .cls-17 {
        stroke-linecap: round;
        stroke-linejoin: round;
      }

      .cls-1, .cls-2, .cls-3, .cls-4, .cls-7, .cls-8, .cls-9, .cls-10, .cls-11, .cls-12, .cls-13, .cls-14, .cls-15, .cls-16, .cls-17 {
        stroke: #1b0e1f;
      }

      .cls-2 {
        fill: #3e3488;
      }

      .cls-3 {
        fill: #ff8128;
      }

      .cls-4 {
        fill: #252ba9;
      }

      .cls-5 {
        fill: #141215;
        stroke: #161417;
      }

      .cls-6, .cls-18 {
        fill: #fff;
        stroke: #fff;
        stroke-width: 10px;
      }

      .cls-7 {
        fill: #ff732b;
      }

      .cls-19 {
        fill: #1b0e1f;
      }

      .cls-8 {
        fill: #cf3c11;
      }

      .cls-9 {
        fill: #eedcb1;
      }

      .cls-10 {
        fill: #d13d11;
      }

      .cls-11 {
        fill: #f9edb6;
      }

      .cls-12 {
        fill: #ff534c;
      }

      .cls-13 {
        fill: #00ba78;
      }

      .cls-14 {
        fill: #ffcd19;
      }

      .cls-15 {
        fill: #ab8ffb;
      }

      .cls-18 {
        stroke-miterlimit: 10;
      }

      .cls-16 {
        fill: #ff6c49;
      }

      .cls-17 {
        fill: #f0b528;
      }
    </style>
  </defs>
  <g id="Generative_Recolor_Stickers" data-name="Generative Recolor Stickers">
    <g>
      <g>
        <path class="cls-6" d="M387.66,59.37c.07,8.98-7.18,16.28-16.14,16.28h-20.17v-32.55h20.17c8.96,0,16.21,7.3,16.14,16.27Z"/>
        <polygon class="cls-6" points="363.23 75.65 361.18 85.73 357.37 85.16 359.3 75.65 363.23 75.65"/>
        <polygon class="cls-6" points="362.95 43.1 359.23 43.1 357.46 35.52 361.12 34.98 362.95 43.1"/>
        <rect class="cls-6" x="231.73" y="46.67" width="120.91" height="21.1"/>
        <rect class="cls-6" x="231.78" y="41.9" width="120.91" height="35.38"/>
        <path class="cls-6" d="M86.18,43.16l-3.12,44.87-36.06,19.9-6.98,3.85H5v-28.29c0-21.72,8.87-41.36,23.18-55.51l36.98,39.79,17.9-21.65,3.12-2.96Z"/>
        <rect class="cls-6" x="223.67" y="57.22" width="129.02" height="4.31"/>
        <g>
          <path class="cls-6" d="M111.7,10.86l-18.6,25.74-6.92,6.56-3.12,2.96-17.9,21.65L28.18,27.98C42.28,14.04,61.66,5.43,83.06,5.43c4.38,0,8.67.36,12.85,1.06,5.48.9,10.76,2.38,15.79,4.37Z"/>
          <path class="cls-6" d="M86.18,43.16l-3.12,44.87-36.06,19.9-6.98,3.85H5v-28.29c0-21.72,8.87-41.36,23.18-55.51l36.98,39.79,17.9-21.65,3.12-2.96Z"/>
          <polygon class="cls-6" points="47 88.03 47 107.93 40.02 111.78 5 111.78 5 88.03 47 88.03"/>
        </g>
        <path class="cls-6" d="M151.48,83.36c-16.61,0-30.08,11.46-30.08,28.08v-28.08h30.08Z"/>
        <path class="cls-6" d="M288.66,285.89l-2.81,1.18c-9.13,3.82-16.19,11.37-19.39,20.73l-1.22,3.56h0c-2.6,12.85-12.25,23.12-24.91,26.53l-1.86.5H18.03c-7.2,0-13.03-5.83-13.03-13.03V111.78h35.02v-31.16c0-25.74,20.86-46.6,46.6-46.6h188.38v49.34H121.4v40.73c0,38.25,31,69.25,69.25,69.25h84.35v92.55h13.66Z"/>
        <path class="cls-6" d="M151.48,83.36c-16.61,0-30.08,13.84-30.08,30.46v-30.46h30.08Z"/>
        <rect class="cls-6" x="208.41" y="34.02" width="92.18" height="49.34"/>
        <rect class="cls-6" x="221.39" y="34.02" width="92.18" height="49.34"/>
        <rect class="cls-6" x="221.39" y="34.02" width="79.2" height="49.34"/>
        <g>
          <circle class="cls-6" cx="90.6" cy="67.77" r="21.1"/>
          <circle class="cls-6" cx="90.6" cy="67.77" r="16.85"/>
          <circle class="cls-6" cx="90.6" cy="67.77" r="13.12"/>
          <path class="cls-18" d="M93.94,68.6c-2.31,0-4.18-1.87-4.18-4.18,0-1.81,1.16-3.34,2.77-3.92-.62-.16-1.26-.26-1.93-.26-4.15,0-7.51,3.36-7.51,7.51s3.36,7.51,7.51,7.51,7.51-3.36,7.51-7.51c0-.67-.1-1.31-.26-1.93-.58,1.61-2.11,2.77-3.92,2.77Z"/>
        </g>
        <path class="cls-6" d="M270.76,263.92h0c-.49,1.37-1.04,2.7-1.67,4-.84,1.79-1.81,3.52-2.9,5.17-7.77,11.87-21.19,19.7-36.44,19.7H24.32c-5.26,0-9.95-2.42-13.02-6.22-2.34-2.87-3.73-6.53-3.73-10.53l25.72-13.67,12.71-6.75,14.14-7.51,12.61-6.7,38.95-20.69c25.33,30.63,51.9,30.2,79.44,5.5,3.57-3.21,8.84-3.7,12.98-1.27l27.54,16.1,12.07,7.06,23.85,13.95,1.51.88,1.67.98Z"/>
        <path class="cls-6" d="M62.45,270.62c0,4.03-1.63,7.67-4.27,10.31s-6.28,4.27-10.31,4.27c-6.5,0-12-4.25-13.89-10.12-.45-1.41-.69-2.9-.69-4.46v-8.25l12.71-6.75,14.14-7.51,12.61-6.7c-5.24,6.73-11.19,14.01-10.3,29.21Z"/>
        <path class="cls-6" d="M46,255.62c-4.1,4.87-8.31,10.8-11.84,18.94-.06.17-.12.35-.18.52-1.43,4.17-3.02,7.63-5.2,10.07-2.27,2.55-5.18,4-9.2,4-3.07,0-5.93-.95-8.28-2.58-2.34-2.87-3.73-6.53-3.73-10.53l25.72-13.67,12.71-6.75Z"/>
        <path class="cls-6" d="M116.43,231.66h.85v42.78c0,5.93-4.82,10.75-10.75,10.75h-4.68c-5.93,0-10.75-4.82-10.75-10.75v-17.45c0-13.98,11.35-25.33,25.33-25.33Z"/>
        <path class="cls-6" d="M99.58,227.5c-23.26,7.41-37.64,17.22-37.64,33.33v9.79c0,8.05,6.53,14.58,14.58,14.58h0c8.05,0,14.58-6.53,14.58-14.58-1.34-22.93,4.6-30.9,8.48-43.12Z"/>
        <path class="cls-6" d="M135.9,273.09h-24.55c-11.19,0-20.25-9.07-20.25-20.25v-3.54c0-7.2,2.29-14.27,6.81-19.88,3.07-3.81,6.45-6.21,9.71-7.44,2.73-1.03,5.68-1.45,8.55-.97,3.25.55,8.53,6.15,9.13,9.26,1.5,7.82,3.85,15.45,6.37,22.99l4.23,19.83Z"/>
        <path class="cls-6" d="M170.1,273.09h-30.75c-7.76,0-14.05-6.29-14.05-14.05v-27.94c0-8.49,6.88-15.38,15.38-15.38h0c8.49,0,15.38,6.88,15.38,15.38l14.05,41.99Z"/>
        <path class="cls-6" d="M204.1,273.09h-34c-7.76,0-14.05-6.29-14.05-14.05v-27.94c0-8.49,6.88-15.38,15.38-15.38h0c8.49,0,15.38,6.88,15.38,15.38l17.3,41.99Z"/>
        <path class="cls-6" d="M221.39,273.09h-24.67c-5.48,0-9.92-4.59-9.92-10.25v-30.5c0-6.42,4.03-10.62,10.24-10.62h1c6.21,0,16.07,9.07,17.11,21.72l6.24,29.65Z"/>
        <path class="cls-6" d="M269.09,262.06v11.03h-41.22c-8.84,0-16.02-7.17-16.02-16.02,0-4.42,1.79-8.42,4.69-11.32s6.91-4.7,11.33-4.7h3.79l12.07,7.06,23.85,13.95h1.51Z"/>
        <path class="cls-6" d="M298.26,278.08v7.25h-32.31c-9.72,0-18.24,5.12-23.03,12.8-3.38,5.44-11.15,5.9-15.27,1-1.5-1.78-2.32-4.04-2.24-6.34,0-.29.02-.56.06-.85.9-7.24,4.06-13.76,8.76-18.85,6.24-6.78,15.19-11.03,25.13-11.03h22.88c8.85,0,16.02,7.18,16.02,16.02Z"/>
        <path class="cls-6" d="M379.53,299c-.65,2.02-3.29,2.49-4.62.85-3.66-4.5-10.63-11.57-19.51-13.55-11.08-2.47-25.89-.42-37.73-.95l-18.66-.1,27.36-56.6,28.94,13.99c21.25,10.28,31.22,34.51,24.22,56.36Z"/>
        <path class="cls-6" d="M306.16,286.3h-33.67v-92.96h26.52c25.67,0,53.63,24.84,53.63,50.51h0c0,16.17-15.29,41.23-46.48,42.45Z"/>
        <g>
          <circle class="cls-6" cx="317.15" cy="242.25" r="28.04"/>
          <circle class="cls-6" cx="317.15" cy="242.24" r="24.92"/>
          <circle class="cls-6" cx="317.15" cy="242.24" r="19.82"/>
          <path class="cls-18" d="M323.01,242.25c-3.24,0-5.87-2.63-5.87-5.87,0-2.38,1.42-4.43,3.46-5.35-1.09-.34-2.25-.52-3.46-.52-6.48,0-11.73,5.25-11.73,11.73s5.25,11.73,11.73,11.73,11.73-5.25,11.73-11.73c0-1.2-.18-2.36-.52-3.46-.92,2.04-2.97,3.46-5.35,3.46Z"/>
        </g>
        <path class="cls-6" d="M352.06,78.9h-7.29c12.6-10.35-8.09-24.65,0-38.48h7.29c1.64,0,2.97,1.33,2.97,2.97v32.55c0,1.64-1.33,2.97-2.97,2.97Z"/>
        <polygon class="cls-6" points="363.23 75.65 361.18 85.73 357.37 85.16 359.3 75.65 363.23 75.65"/>
        <path class="cls-6" d="M367.7,113.75c-9.64-2.81-12.4-9.77-12.55-16.75-.02-.7,0-1.41.03-2.11.18-3.58.57-6.88,1.11-9.89l1.08.16,3.81.57.86.13c-.23,2.95-.23,6.14.3,9.03.19,1.03.36,2.08.54,3.15.82,4.87,1.76,10.05,4.82,15.71Z"/>
        <polygon class="cls-6" points="362.95 43.1 359.23 43.1 357.46 35.52 361.12 34.98 362.95 43.1"/>
        <path class="cls-6" d="M367.7,5c-3.46,6.39-4.21,12.18-5.14,17.59-.07.43-.14.85-.22,1.27-.64,3.53-.5,7.51-.12,10.95l-1.1.17-3.66.54-.81.12c-.72-3.5-1.26-7.43-1.47-11.78,0-.05,0-.11-.01-.16-.33-7.59,1.99-15.64,12.53-18.7Z"/>
      </g>
      <g>
        <path class="cls-1" d="M387.66,59.37c.07,8.98-7.18,16.28-16.14,16.28h-20.17v-32.55h20.17c8.96,0,16.21,7.3,16.14,16.27Z"/>
        <polygon class="cls-1" points="363.23 75.65 361.18 85.73 357.37 85.16 359.3 75.65 363.23 75.65"/>
        <polygon class="cls-1" points="362.95 43.1 359.23 43.1 357.46 35.52 361.12 34.98 362.95 43.1"/>
        <rect class="cls-17" x="231.73" y="46.67" width="120.91" height="21.1"/>
        <rect class="cls-17" x="231.78" y="41.9" width="120.91" height="35.38"/>
        <path class="cls-9" d="M86.18,43.16l-3.12,44.87-36.06,19.9-6.98,3.85H5v-28.29c0-21.72,8.87-41.36,23.18-55.51l36.98,39.79,17.9-21.65,3.12-2.96Z"/>
        <rect class="cls-4" x="223.67" y="57.22" width="129.02" height="4.31"/>
        <g>
          <path class="cls-2" d="M111.7,10.86l-18.6,25.74-6.92,6.56-3.12,2.96-17.9,21.65L28.18,27.98C42.28,14.04,61.66,5.43,83.06,5.43c4.38,0,8.67.36,12.85,1.06,5.48.9,10.76,2.38,15.79,4.37Z"/>
          <path class="cls-9" d="M86.18,43.16l-3.12,44.87-36.06,19.9-6.98,3.85H5v-28.29c0-21.72,8.87-41.36,23.18-55.51l36.98,39.79,17.9-21.65,3.12-2.96Z"/>
          <polygon class="cls-8" points="47 88.03 47 107.93 40.02 111.78 5 111.78 5 88.03 47 88.03"/>
        </g>
        <path class="cls-13" d="M151.48,83.36c-16.61,0-30.08,11.46-30.08,28.08v-28.08h30.08Z"/>
        <path class="cls-13" d="M288.66,285.89l-2.81,1.18c-9.13,3.82-16.19,11.37-19.39,20.73l-1.22,3.56h0c-2.6,12.85-12.25,23.12-24.91,26.53l-1.86.5H18.03c-7.2,0-13.03-5.83-13.03-13.03V111.78h35.02v-31.16c0-25.74,20.86-46.6,46.6-46.6h188.38v49.34H121.4v40.73c0,38.25,31,69.25,69.25,69.25h84.35v92.55h13.66Z"/>
        <path class="cls-16" d="M151.48,83.36c-16.61,0-30.08,13.84-30.08,30.46v-30.46h30.08Z"/>
        <rect class="cls-12" x="208.41" y="34.02" width="92.18" height="49.34"/>
        <rect class="cls-2" x="221.39" y="34.02" width="92.18" height="49.34"/>
        <rect class="cls-9" x="221.39" y="34.02" width="79.2" height="49.34"/>
        <g>
          <circle class="cls-9" cx="90.6" cy="67.77" r="21.1"/>
          <circle class="cls-5" cx="90.6" cy="67.77" r="16.85"/>
          <circle class="cls-11" cx="90.6" cy="67.77" r="13.12"/>
          <path class="cls-19" d="M93.94,68.6c-2.31,0-4.18-1.87-4.18-4.18,0-1.81,1.16-3.34,2.77-3.92-.62-.16-1.26-.26-1.93-.26-4.15,0-7.51,3.36-7.51,7.51s3.36,7.51,7.51,7.51,7.51-3.36,7.51-7.51c0-.67-.1-1.31-.26-1.93-.58,1.61-2.11,2.77-3.92,2.77Z"/>
        </g>
        <path class="cls-15" d="M270.76,263.92h0c-.49,1.37-1.04,2.7-1.67,4-.84,1.79-1.81,3.52-2.9,5.17-7.77,11.87-21.19,19.7-36.44,19.7H24.32c-5.26,0-9.95-2.42-13.02-6.22-2.34-2.87-3.73-6.53-3.73-10.53l25.72-13.67,12.71-6.75,14.14-7.51,12.61-6.7,38.95-20.69c25.33,30.63,51.9,30.2,79.44,5.5,3.57-3.21,8.84-3.7,12.98-1.27l27.54,16.1,12.07,7.06,23.85,13.95,1.51.88,1.67.98Z"/>
        <path class="cls-9" d="M62.45,270.62c0,4.03-1.63,7.67-4.27,10.31s-6.28,4.27-10.31,4.27c-6.5,0-12-4.25-13.89-10.12-.45-1.41-.69-2.9-.69-4.46v-8.25l12.71-6.75,14.14-7.51,12.61-6.7c-5.24,6.73-11.19,14.01-10.3,29.21Z"/>
        <path class="cls-9" d="M46,255.62c-4.1,4.87-8.31,10.8-11.84,18.94-.06.17-.12.35-.18.52-1.43,4.17-3.02,7.63-5.2,10.07-2.27,2.55-5.18,4-9.2,4-3.07,0-5.93-.95-8.28-2.58-2.34-2.87-3.73-6.53-3.73-10.53l25.72-13.67,12.71-6.75Z"/>
        <path class="cls-9" d="M116.43,231.66h.85v42.78c0,5.93-4.82,10.75-10.75,10.75h-4.68c-5.93,0-10.75-4.82-10.75-10.75v-17.45c0-13.98,11.35-25.33,25.33-25.33Z"/>
        <path class="cls-9" d="M99.58,227.5c-23.26,7.41-37.64,17.22-37.64,33.33v9.79c0,8.05,6.53,14.58,14.58,14.58h0c8.05,0,14.58-6.53,14.58-14.58-1.34-22.93,4.6-30.9,8.48-43.12Z"/>
        <path class="cls-9" d="M135.9,273.09h-24.55c-11.19,0-20.25-9.07-20.25-20.25v-3.54c0-7.2,2.29-14.27,6.81-19.88,3.07-3.81,6.45-6.21,9.71-7.44,2.73-1.03,5.68-1.45,8.55-.97,3.25.55,8.53,6.15,9.13,9.26,1.5,7.82,3.85,15.45,6.37,22.99l4.23,19.83Z"/>
        <path class="cls-9" d="M170.1,273.09h-30.75c-7.76,0-14.05-6.29-14.05-14.05v-27.94c0-8.49,6.88-15.38,15.38-15.38h0c8.49,0,15.38,6.88,15.38,15.38l14.05,41.99Z"/>
        <path class="cls-9" d="M204.1,273.09h-34c-7.76,0-14.05-6.29-14.05-14.05v-27.94c0-8.49,6.88-15.38,15.38-15.38h0c8.49,0,15.38,6.88,15.38,15.38l17.3,41.99Z"/>
        <path class="cls-9" d="M221.39,273.09h-24.67c-5.48,0-9.92-4.59-9.92-10.25v-30.5c0-6.42,4.03-10.62,10.24-10.62h1c6.21,0,16.07,9.07,17.11,21.72l6.24,29.65Z"/>
        <path class="cls-9" d="M269.09,262.06v11.03h-41.22c-8.84,0-16.02-7.17-16.02-16.02,0-4.42,1.79-8.42,4.69-11.32s6.91-4.7,11.33-4.7h3.79l12.07,7.06,23.85,13.95h1.51Z"/>
        <path class="cls-9" d="M298.26,278.08v7.25h-32.31c-9.72,0-18.24,5.12-23.03,12.8-3.38,5.44-11.15,5.9-15.27,1-1.5-1.78-2.32-4.04-2.24-6.34,0-.29.02-.56.06-.85.9-7.24,4.06-13.76,8.76-18.85,6.24-6.78,15.19-11.03,25.13-11.03h22.88c8.85,0,16.02,7.18,16.02,16.02Z"/>
        <path class="cls-7" d="M379.53,299c-.65,2.02-3.29,2.49-4.62.85-3.66-4.5-10.63-11.57-19.51-13.55-11.08-2.47-25.89-.42-37.73-.95l-18.66-.1,27.36-56.6,28.94,13.99c21.25,10.28,31.22,34.51,24.22,56.36Z"/>
        <path class="cls-10" d="M306.16,286.3h-33.67v-92.96h26.52c25.67,0,53.63,24.84,53.63,50.51h0c0,16.17-15.29,41.23-46.48,42.45Z"/>
        <g>
          <circle class="cls-9" cx="317.15" cy="242.25" r="28.04"/>
          <circle class="cls-5" cx="317.15" cy="242.24" r="24.92"/>
          <circle class="cls-11" cx="317.15" cy="242.24" r="19.82"/>
          <path class="cls-19" d="M323.01,242.25c-3.24,0-5.87-2.63-5.87-5.87,0-2.38,1.42-4.43,3.46-5.35-1.09-.34-2.25-.52-3.46-.52-6.48,0-11.73,5.25-11.73,11.73s5.25,11.73,11.73,11.73,11.73-5.25,11.73-11.73c0-1.2-.18-2.36-.52-3.46-.92,2.04-2.97,3.46-5.35,3.46Z"/>
        </g>
        <path class="cls-3" d="M352.06,78.9h-7.29c12.6-10.35-8.09-24.65,0-38.48h7.29c1.64,0,2.97,1.33,2.97,2.97v32.55c0,1.64-1.33,2.97-2.97,2.97Z"/>
        <polygon class="cls-14" points="363.23 75.65 361.18 85.73 357.37 85.16 359.3 75.65 363.23 75.65"/>
        <path class="cls-1" d="M367.7,113.75c-9.64-2.81-12.4-9.77-12.55-16.75-.02-.7,0-1.41.03-2.11.18-3.58.57-6.88,1.11-9.89l1.08.16,3.81.57.86.13c-.23,2.95-.23,6.14.3,9.03.19,1.03.36,2.08.54,3.15.82,4.87,1.76,10.05,4.82,15.71Z"/>
        <polygon class="cls-14" points="362.95 43.1 359.23 43.1 357.46 35.52 361.12 34.98 362.95 43.1"/>
        <path class="cls-1" d="M367.7,5c-3.46,6.39-4.21,12.18-5.14,17.59-.07.43-.14.85-.22,1.27-.64,3.53-.5,7.51-.12,10.95l-1.1.17-3.66.54-.81.12c-.72-3.5-1.26-7.43-1.47-11.78,0-.05,0-.11-.01-.16-.33-7.59,1.99-15.64,12.53-18.7Z"/>
      </g>
    </g>
  </g>
</svg>