<?xml version="1.0" encoding="UTF-8"?>
<svg xmlns="http://www.w3.org/2000/svg" xmlns:xlink="http://www.w3.org/1999/xlink" viewBox="0 0 193.73 159.85">
  <defs>
    <style>
      .cls-1 {
        fill: none;
      }

      .cls-2 {
        mix-blend-mode: color-burn;
      }

      .cls-3 {
        fill: #f9bf3b;
      }

      .cls-3, .cls-4, .cls-5, .cls-6, .cls-7, .cls-8, .cls-9, .cls-10, .cls-11, .cls-12, .cls-13, .cls-14, .cls-15, .cls-16, .cls-17 {
        stroke-width: .36px;
      }

      .cls-3, .cls-4, .cls-6, .cls-7, .cls-8, .cls-9, .cls-10, .cls-11, .cls-12, .cls-13, .cls-14, .cls-15, .cls-16, .cls-17 {
        stroke-miterlimit: 10;
      }

      .cls-3, .cls-4, .cls-6, .cls-7, .cls-8, .cls-9, .cls-10, .cls-11, .cls-12, .cls-14, .cls-15, .cls-16, .cls-17 {
        stroke: #010101;
      }

      .cls-4 {
        fill: #c3cda6;
      }

      .cls-5 {
        fill: #c3d0a5;
        stroke: #22211d;
        stroke-linejoin: round;
      }

      .cls-18, .cls-13 {
        fill: #010101;
      }

      .cls-6 {
        fill: #da7c72;
      }

      .cls-7 {
        fill: #f3b284;
      }

      .cls-19 {
        fill: #f6b284;
      }

      .cls-8 {
        fill: #f1562d;
      }

      .cls-20 {
        isolation: isolate;
      }

      .cls-9 {
        fill: #6964a6;
      }

      .cls-10 {
        fill: #9593c8;
      }

      .cls-11 {
        fill: #f7f6f7;
      }

      .cls-21 {
        fill: #fff;
      }

      .cls-12 {
        fill: #6965a3;
      }

      .cls-22 {
        fill: url(#radial-gradient-2);
        mix-blend-mode: luminosity;
      }

      .cls-22, .cls-23 {
        opacity: .31;
      }

      .cls-13 {
        stroke: #221f2f;
      }

      .cls-14 {
        fill: #d46035;
      }

      .cls-15 {
        fill: #6965a6;
      }

      .cls-16 {
        fill: url(#radial-gradient);
      }

      .cls-24 {
        clip-path: url(#clippath);
      }

      .cls-17 {
        fill: #bfcfa3;
      }
    </style>
    <clipPath id="clippath">
      <path class="cls-1" d="M178.51,152.71h-81.2c-2.56,0-4.59-2.17-4.4-4.73l1.47-20.3c1.29-23.22,18.01-37,39.39-37h11.88c20.95,0,37.94,16.99,37.94,37.94v18.89c0,2.82-2.25,5.13-5.08,5.2Z"/>
    </clipPath>
    <radialGradient id="radial-gradient" cx="33.27" cy="16.09" fx="33.27" fy="16.09" r="1.81" gradientTransform="translate(70.44 65.49) rotate(175.6) scale(1 3.24)" gradientUnits="userSpaceOnUse">
      <stop offset=".51" stop-color="#51220e"/>
      <stop offset="1" stop-color="#b03c25"/>
    </radialGradient>
    <radialGradient id="radial-gradient-2" cx="63.22" cy="12.05" fx="50.52" fy="12.05" r="13.49" gradientTransform="translate(-42.04 4.48) scale(.91 1.01)" gradientUnits="userSpaceOnUse">
      <stop offset=".51" stop-color="#bbb"/>
      <stop offset="1" stop-color="#b03c25"/>
    </radialGradient>
  </defs>
  <g class="cls-20">
    <g id="Layer_2" data-name="Layer 2">
      <g id="_1" data-name="1">
        <g>
          <g>
            <g>
              <g id="_Radial_Repeat_" data-name="&amp;lt;Radial Repeat&amp;gt;">
                <g class="cls-2">
                  <line class="cls-21" x1="151.13" y1="43.79" x2="148.23" y2="35.47"/>
                  <path class="cls-21" d="M150.89,43.87c-.88-.81-1.67-1.75-2.42-2.65-.41-.58-.96-1.33-1.49-1.81-.96-1.2.04-2.74,1.02-3.85,0,0,.47-.16.47-.16,1.45.26,3.2.85,3.19,2.39-.17,1.1,0,2.42-.07,3.52-.05.79-.09,1.58-.22,2.41l-.47.16h0Z"/>
                </g>
              </g>
              <g id="_Radial_Repeat_-2" data-name="&amp;lt;Radial Repeat&amp;gt;">
                <g class="cls-2">
                  <line class="cls-21" x1="146.76" y1="44.57" x2="146.58" y2="35.77"/>
                  <path class="cls-21" d="M146.51,44.58c-.58-1.04-1.05-2.18-1.48-3.27-.21-.68-.5-1.56-.86-2.18-.54-1.44.89-2.6,2.16-3.35,0,0,.5-.01.5-.01,1.3.69,2.78,1.8,2.29,3.25-.5.99-.74,2.3-1.16,3.33-.29.74-.57,1.48-.95,2.22h-.5Z"/>
                </g>
              </g>
              <g id="_Radial_Repeat_-3" data-name="&amp;lt;Radial Repeat&amp;gt;">
                <g class="cls-2">
                  <line class="cls-21" x1="142.36" y1="43.97" x2="144.91" y2="35.54"/>
                  <path class="cls-21" d="M142.12,43.9c-.23-1.17-.33-2.4-.4-3.57.01-.71,0-1.64-.14-2.34-.07-1.53,1.65-2.2,3.09-2.52,0,0,.48.14.48.14,1.02,1.06,2.08,2.57,1.17,3.8-.78.79-1.42,1.96-2.13,2.81-.51.61-1,1.23-1.59,1.82l-.48-.14h0Z"/>
                </g>
              </g>
              <g id="_Radial_Repeat_-4" data-name="&amp;lt;Radial Repeat&amp;gt;">
                <g class="cls-2">
                  <line class="cls-21" x1="138.37" y1="42.03" x2="143.4" y2="34.81"/>
                  <path class="cls-21" d="M138.17,41.89c.14-1.18.43-2.38.73-3.52.23-.67.51-1.56.59-2.27.41-1.48,2.24-1.58,3.71-1.44,0,0,.41.29.41.29.64,1.32,1.19,3.09-.06,3.98-.99.51-1.95,1.42-2.89,2.01-.67.43-1.33.86-2.08,1.24l-.41-.29h0Z"/>
                </g>
              </g>
              <g id="_Radial_Repeat_-5" data-name="&amp;lt;Radial Repeat&amp;gt;">
                <g class="cls-2">
                  <line class="cls-21" x1="135.17" y1="38.96" x2="142.19" y2="33.64"/>
                  <path class="cls-21" d="M135.02,38.76c.5-1.08,1.15-2.13,1.78-3.12.43-.57.97-1.33,1.26-1.98.84-1.28,2.62-.81,3.97-.22,0,0,.3.4.3.4.2,1.46.18,3.3-1.29,3.77-1.1.17-2.3.75-3.37,1.02-.77.2-1.53.4-2.36.53l-.3-.4h0Z"/>
                </g>
              </g>
              <g id="_Radial_Repeat_-6" data-name="&amp;lt;Radial Repeat&amp;gt;">
                <g class="cls-2">
                  <line class="cls-21" x1="133.08" y1="35.05" x2="141.39" y2="32.16"/>
                  <path class="cls-21" d="M132.99,34.82c.81-.88,1.75-1.67,2.65-2.42.58-.41,1.33-.96,1.81-1.49,1.2-.96,2.74.04,3.85,1.02,0,0,.16.47.16.47-.26,1.45-.85,3.2-2.39,3.19-1.1-.17-2.42,0-3.52-.07-.79-.05-1.58-.09-2.41-.22l-.16-.47h0Z"/>
                </g>
              </g>
              <g id="_Radial_Repeat_-7" data-name="&amp;lt;Radial Repeat&amp;gt;">
                <g class="cls-2">
                  <line class="cls-21" x1="132.29" y1="30.69" x2="141.09" y2="30.51"/>
                  <path class="cls-21" d="M132.29,30.44c1.04-.58,2.18-1.05,3.27-1.48.68-.21,1.56-.5,2.18-.86,1.44-.54,2.6.89,3.35,2.16,0,0,.01.5.01.5-.69,1.3-1.8,2.78-3.25,2.29-.99-.5-2.3-.74-3.33-1.16-.74-.29-1.48-.57-2.22-.95v-.5h-.01Z"/>
                </g>
              </g>
              <g id="_Radial_Repeat_-8" data-name="&amp;lt;Radial Repeat&amp;gt;">
                <g class="cls-2">
                  <line class="cls-21" x1="132.9" y1="26.29" x2="141.32" y2="28.84"/>
                  <path class="cls-21" d="M132.97,26.05c1.17-.23,2.4-.33,3.57-.4.71.01,1.64,0,2.34-.14,1.53-.07,2.2,1.65,2.52,3.09,0,0-.14.48-.14.48-1.06,1.02-2.57,2.08-3.8,1.17-.79-.78-1.96-1.42-2.81-2.13-.61-.51-1.23-1-1.82-1.59l.14-.48h0Z"/>
                </g>
              </g>
              <g id="_Radial_Repeat_-9" data-name="&amp;lt;Radial Repeat&amp;gt;">
                <g class="cls-2">
                  <line class="cls-21" x1="134.83" y1="22.3" x2="142.06" y2="27.33"/>
                  <path class="cls-21" d="M134.97,22.09c1.18.14,2.38.43,3.52.73.67.23,1.56.51,2.27.59,1.48.41,1.58,2.24,1.44,3.71,0,0-.29.41-.29.41-1.32.64-3.09,1.19-3.98-.06-.51-.99-1.42-1.95-2.01-2.89-.43-.67-.86-1.33-1.24-2.08l.29-.41h0Z"/>
                </g>
              </g>
              <g id="_Radial_Repeat_-10" data-name="&amp;lt;Radial Repeat&amp;gt;">
                <g class="cls-2">
                  <line class="cls-21" x1="137.9" y1="19.1" x2="143.22" y2="26.11"/>
                  <path class="cls-21" d="M138.1,18.95c1.08.5,2.13,1.15,3.12,1.78.57.43,1.33.97,1.98,1.26,1.28.84.81,2.62.22,3.97,0,0-.4.3-.4.3-1.46.2-3.3.18-3.77-1.29-.17-1.1-.75-2.3-1.02-3.37-.2-.77-.4-1.53-.53-2.36,0,0,.4-.3.4-.3h0Z"/>
                </g>
              </g>
              <g id="_Radial_Repeat_-11" data-name="&amp;lt;Radial Repeat&amp;gt;">
                <g class="cls-2">
                  <line class="cls-21" x1="141.81" y1="17" x2="144.7" y2="25.32"/>
                  <path class="cls-21" d="M142.05,16.92c.88.81,1.67,1.75,2.42,2.65.41.58.96,1.33,1.49,1.81.96,1.2-.04,2.74-1.02,3.85,0,0-.47.16-.47.16-1.45-.26-3.2-.85-3.19-2.39.17-1.1,0-2.42.07-3.52.05-.79.09-1.58.22-2.41,0,0,.47-.16.47-.16h0Z"/>
                </g>
              </g>
              <g id="_Radial_Repeat_-12" data-name="&amp;lt;Radial Repeat&amp;gt;">
                <g class="cls-2">
                  <line class="cls-21" x1="146.18" y1="16.22" x2="146.36" y2="25.02"/>
                  <path class="cls-21" d="M146.43,16.22c.58,1.04,1.05,2.18,1.48,3.27.21.68.5,1.56.86,2.18.54,1.44-.89,2.6-2.16,3.35,0,0-.5.01-.5.01-1.3-.69-2.78-1.8-2.29-3.25.5-.99.74-2.3,1.16-3.33.29-.74.57-1.48.95-2.22h.5Z"/>
                </g>
              </g>
              <g id="_Radial_Repeat_-13" data-name="&amp;lt;Radial Repeat&amp;gt;">
                <g class="cls-2">
                  <line class="cls-21" x1="150.57" y1="16.82" x2="148.02" y2="25.25"/>
                  <path class="cls-21" d="M150.81,16.9c.23,1.17.33,2.4.4,3.57-.01.71,0,1.64.14,2.34.07,1.53-1.65,2.2-3.09,2.52,0,0-.48-.14-.48-.14-1.02-1.06-2.08-2.57-1.17-3.8.78-.79,1.42-1.96,2.13-2.81.51-.61,1-1.23,1.59-1.82l.48.14h0Z"/>
                </g>
              </g>
              <g id="_Radial_Repeat_-14" data-name="&amp;lt;Radial Repeat&amp;gt;">
                <g class="cls-2">
                  <line class="cls-21" x1="154.57" y1="18.76" x2="149.54" y2="25.98"/>
                  <path class="cls-21" d="M154.77,18.9c-.14,1.18-.43,2.38-.73,3.52-.23.67-.51,1.56-.59,2.27-.41,1.48-2.24,1.58-3.71,1.44,0,0-.41-.29-.41-.29-.64-1.32-1.19-3.09.06-3.98.99-.51,1.95-1.42,2.89-2.01.67-.43,1.33-.86,2.08-1.24l.41.29h0Z"/>
                </g>
              </g>
              <g id="_Radial_Repeat_-15" data-name="&amp;lt;Radial Repeat&amp;gt;">
                <g class="cls-2">
                  <line class="cls-21" x1="157.77" y1="21.83" x2="150.75" y2="27.15"/>
                  <path class="cls-21" d="M157.92,22.03c-.5,1.08-1.15,2.13-1.78,3.12-.43.57-.97,1.33-1.26,1.98-.84,1.28-2.62.81-3.97.22,0,0-.3-.4-.3-.4-.2-1.46-.18-3.3,1.29-3.77,1.1-.17,2.3-.75,3.37-1.02.77-.2,1.53-.4,2.36-.53l.3.4h0Z"/>
                </g>
              </g>
              <g id="_Radial_Repeat_-16" data-name="&amp;lt;Radial Repeat&amp;gt;">
                <g class="cls-2">
                  <line class="cls-21" x1="159.86" y1="25.74" x2="151.55" y2="28.63"/>
                  <path class="cls-21" d="M159.94,25.98c-.81.88-1.75,1.67-2.65,2.42-.58.41-1.33.96-1.81,1.49-1.2.96-2.74-.04-3.85-1.02,0,0-.16-.47-.16-.47.26-1.45.85-3.2,2.39-3.19,1.1.17,2.42,0,3.52.07.79.05,1.58.09,2.41.22l.16.47h0Z"/>
                </g>
              </g>
              <g id="_Radial_Repeat_-17" data-name="&amp;lt;Radial Repeat&amp;gt;">
                <g class="cls-2">
                  <line class="cls-21" x1="160.64" y1="30.11" x2="151.84" y2="30.29"/>
                  <path class="cls-21" d="M160.65,30.36c-1.04.58-2.18,1.05-3.27,1.48-.68.21-1.56.5-2.18.86-1.44.54-2.6-.89-3.35-2.16,0,0-.01-.5-.01-.5.69-1.3,1.8-2.78,3.25-2.29.99.5,2.3.74,3.33,1.16.74.29,1.48.57,2.22.95v.5h.01Z"/>
                </g>
              </g>
              <g id="_Radial_Repeat_-18" data-name="&amp;lt;Radial Repeat&amp;gt;">
                <g class="cls-2">
                  <line class="cls-21" x1="160.04" y1="34.5" x2="151.61" y2="31.95"/>
                  <path class="cls-21" d="M159.97,34.74c-1.17.23-2.4.33-3.57.4-.71-.01-1.64,0-2.34.14-1.53.07-2.2-1.65-2.52-3.09,0,0,.14-.48.14-.48,1.06-1.02,2.57-2.08,3.8-1.17.79.78,1.96,1.42,2.81,2.13.61.51,1.23,1,1.82,1.59,0,0-.14.48-.14.48h0Z"/>
                </g>
              </g>
              <g id="_Radial_Repeat_-19" data-name="&amp;lt;Radial Repeat&amp;gt;">
                <g class="cls-2">
                  <line class="cls-21" x1="158.11" y1="38.49" x2="150.88" y2="33.47"/>
                  <path class="cls-21" d="M157.97,38.7c-1.18-.14-2.38-.43-3.52-.73-.67-.23-1.56-.51-2.27-.59-1.48-.41-1.58-2.24-1.44-3.71,0,0,.29-.41.29-.41,1.32-.64,3.09-1.19,3.98.06.51.99,1.42,1.95,2.01,2.89.43.67.86,1.33,1.24,2.08,0,0-.29.41-.29.41h0Z"/>
                </g>
              </g>
              <g id="_Radial_Repeat_-20" data-name="&amp;lt;Radial Repeat&amp;gt;">
                <g class="cls-2">
                  <line class="cls-21" x1="155.04" y1="41.69" x2="149.72" y2="34.68"/>
                  <path class="cls-21" d="M154.84,41.84c-1.08-.5-2.13-1.15-3.12-1.78-.57-.43-1.33-.97-1.98-1.26-1.28-.84-.81-2.62-.22-3.97,0,0,.4-.3.4-.3,1.46-.2,3.3-.18,3.77,1.29.17,1.1.75,2.3,1.02,3.37.2.77.4,1.53.53,2.36l-.4.3h0Z"/>
                </g>
              </g>
            </g>
            <g>
              <g id="_Radial_Repeat_-21" data-name="&amp;lt;Radial Repeat&amp;gt;">
                <g>
                  <line class="cls-21" x1="41.3" y1="64.37" x2="41.63" y2="57.81"/>
                  <path class="cls-21" d="M41.05,64.36c-.52-.81-.92-1.67-1.29-2.53-.17-.53-.42-1.2-.73-1.68-.51-1.14,1.26-1.97,2.34-2.35,0,0,.5.02.5.02,1.06.5,1.71.93,2.17,1.75.33.61-.38,1.11-.58,1.61,0,0-.38.8-.38.8-.46.82-.93,1.63-1.53,2.39,0,0-.5-.02-.5-.02h0Z"/>
                </g>
              </g>
              <g id="_Radial_Repeat_-22" data-name="&amp;lt;Radial Repeat&amp;gt;">
                <g>
                  <line class="cls-21" x1="35.2" y1="62.04" x2="39.31" y2="56.93"/>
                  <path class="cls-21" d="M35,61.89c.05-.96.24-1.89.44-2.8.17-.53.37-1.22.4-1.79.26-1.22,2.18-.85,3.28-.52,0,0,.39.31.39.31.57,1.03.84,1.76.72,2.69-.09.69-.96.68-1.42.97,0,0-.78.43-.78.43-.85.39-1.72.77-2.64,1.03,0,0-.39-.31-.39-.31h0Z"/>
                </g>
              </g>
              <g id="_Radial_Repeat_-23" data-name="&amp;lt;Radial Repeat&amp;gt;">
                <g>
                  <line class="cls-21" x1="31.62" y1="56.57" x2="37.96" y2="54.85"/>
                  <path class="cls-21" d="M31.56,56.33c.61-.74,1.31-1.39,2.01-2.01.45-.33,1.01-.77,1.37-1.21.93-.83,2.27.59,2.96,1.5,0,0,.13.48.13.48-.14,1.16-.35,1.91-1,2.6-.48.51-1.17-.01-1.72-.05,0,0-.88-.11-.88-.11-.92-.18-1.84-.38-2.75-.72,0,0-.13-.48-.13-.48h0Z"/>
                </g>
              </g>
              <g id="_Radial_Repeat_-24" data-name="&amp;lt;Radial Repeat&amp;gt;">
                <g>
                  <line class="cls-21" x1="31.94" y1="50.04" x2="38.08" y2="52.38"/>
                  <path class="cls-21" d="M32.03,49.81c.93-.24,1.87-.35,2.8-.44.56,0,1.27-.02,1.82-.18,1.24-.13,1.48,1.81,1.51,2.96,0,0-.18.47-.18.47-.8.86-1.41,1.34-2.33,1.52-.69.13-.94-.7-1.36-1.05,0,0-.65-.61-.65-.61-.63-.69-1.27-1.39-1.8-2.2,0,0,.18-.47.18-.47h0Z"/>
                </g>
              </g>
              <g id="_Radial_Repeat_-25" data-name="&amp;lt;Radial Repeat&amp;gt;">
                <g>
                  <line class="cls-21" x1="36.04" y1="44.95" x2="39.63" y2="50.45"/>
                  <path class="cls-21" d="M36.25,44.82c.9.35,1.72.81,2.53,1.29.45.33,1.04.73,1.58.93,1.08.63.14,2.34-.52,3.28,0,0-.42.27-.42.27-1.15.22-1.93.25-2.78-.14-.63-.3-.35-1.12-.48-1.65,0,0-.17-.87-.17-.87-.11-.93-.2-1.87-.16-2.83,0,0,.42-.27.42-.27h0Z"/>
                </g>
              </g>
              <g id="_Radial_Repeat_-26" data-name="&amp;lt;Radial Repeat&amp;gt;">
                <g>
                  <line class="cls-21" x1="42.35" y1="43.24" x2="42.03" y2="49.8"/>
                  <path class="cls-21" d="M42.6,43.26c.52.81.92,1.67,1.29,2.53.17.53.42,1.2.73,1.68.51,1.14-1.26,1.97-2.34,2.35,0,0-.5-.02-.5-.02-1.06-.5-1.71-.93-2.17-1.75-.33-.61.38-1.11.58-1.61,0,0,.38-.8.38-.8.46-.82.93-1.63,1.53-2.39,0,0,.5.02.5.02h0Z"/>
                </g>
              </g>
              <g id="_Radial_Repeat_-27" data-name="&amp;lt;Radial Repeat&amp;gt;">
                <g>
                  <line class="cls-21" x1="48.46" y1="45.57" x2="44.34" y2="50.68"/>
                  <path class="cls-21" d="M48.65,45.73c-.05.96-.24,1.89-.44,2.8-.17.53-.37,1.22-.4,1.79-.26,1.22-2.18.85-3.28.52,0,0-.39-.31-.39-.31-.57-1.03-.84-1.76-.72-2.69.09-.69.96-.68,1.42-.97,0,0,.78-.43.78-.43.85-.39,1.72-.77,2.64-1.03,0,0,.39.31.39.31h0Z"/>
                </g>
              </g>
              <g id="_Radial_Repeat_-28" data-name="&amp;lt;Radial Repeat&amp;gt;">
                <g>
                  <line class="cls-21" x1="52.03" y1="51.04" x2="45.7" y2="52.76"/>
                  <path class="cls-21" d="M52.1,51.28c-.61.74-1.31,1.39-2.01,2.01-.45.33-1.01.77-1.37,1.21-.93.83-2.27-.59-2.96-1.5,0,0-.13-.48-.13-.48.14-1.16.35-1.91,1-2.6.48-.51,1.17.01,1.72.05,0,0,.88.11.88.11.92.18,1.84.38,2.75.72,0,0,.13.48.13.48h0Z"/>
                </g>
              </g>
              <g id="_Radial_Repeat_-29" data-name="&amp;lt;Radial Repeat&amp;gt;">
                <g>
                  <line class="cls-21" x1="51.71" y1="57.57" x2="45.58" y2="55.23"/>
                  <path class="cls-21" d="M51.62,57.8c-.93.24-1.87.35-2.8.44-.56,0-1.27.02-1.82.18-1.24.13-1.48-1.81-1.51-2.96,0,0,.18-.47.18-.47.8-.86,1.41-1.34,2.33-1.52.69-.13.94.7,1.36,1.05,0,0,.65.61.65.61.63.69,1.27,1.39,1.8,2.2,0,0-.18.47-.18.47h0Z"/>
                </g>
              </g>
              <g id="_Radial_Repeat_-30" data-name="&amp;lt;Radial Repeat&amp;gt;">
                <g>
                  <line class="cls-21" x1="47.61" y1="62.66" x2="44.02" y2="57.16"/>
                  <path class="cls-21" d="M47.4,62.79c-.9-.35-1.72-.81-2.53-1.29-.45-.33-1.04-.73-1.58-.93-1.08-.63-.14-2.34.52-3.28,0,0,.42-.27.42-.27,1.15-.22,1.93-.25,2.78.14.63.3.35,1.12.48,1.65,0,0,.17.87.17.87.11.93.2,1.87.16,2.83,0,0-.42.27-.42.27h0Z"/>
                </g>
              </g>
            </g>
            <g>
              <g id="_Radial_Repeat_-31" data-name="&amp;lt;Radial Repeat&amp;gt;">
                <g>
                  <line class="cls-21" x1="137.65" y1="69.06" x2="137.48" y2="59.59"/>
                  <path class="cls-21" d="M137.4,69.06c-.75-1.49-1.37-3.11-1.84-4.7-.11-.39-.32-.78-.5-1.17-.37-.88.07-1.66.67-2.38.34-.4.78-.8,1.49-1.21,0,0,.5,0,.5,0,1.36.79,2.76,1.96,2.29,3.51-.33.68-.59,1.65-.77,2.38-.38,1.19-.81,2.43-1.35,3.58,0,0-.5,0-.5,0h0Z"/>
                </g>
              </g>
              <g id="_Radial_Repeat_-32" data-name="&amp;lt;Radial Repeat&amp;gt;">
                <g>
                  <line class="cls-21" x1="128.63" y1="66.31" x2="134.06" y2="58.55"/>
                  <path class="cls-21" d="M128.43,66.16c.26-1.65.72-3.33,1.28-4.88.14-.38.2-.82.29-1.24.21-.93,1.03-1.3,1.94-1.53.51-.12,1.1-.19,1.91-.11l.41.29c.63,1.44,1.08,3.21-.21,4.19-.67.36-1.45.99-2.02,1.47-1.01.73-2.08,1.49-3.19,2.1,0,0-.41-.29-.41-.29h0Z"/>
                </g>
              </g>
              <g id="_Radial_Repeat_-33" data-name="&amp;lt;Radial Repeat&amp;gt;">
                <g>
                  <line class="cls-21" x1="122.95" y1="58.78" x2="131.9" y2="55.69"/>
                  <path class="cls-21" d="M122.87,58.55c1.18-1.18,2.54-2.27,3.9-3.2.34-.23.65-.55.96-.84.72-.63,1.6-.44,2.47-.1.49.2,1,.49,1.61,1.04l.16.47c-.33,1.54-1.01,3.23-2.63,3.26-.75-.1-1.75-.05-2.5,0-1.25,0-2.56-.01-3.82-.18,0,0-.16-.47-.16-.47h0Z"/>
                </g>
              </g>
              <g id="_Radial_Repeat_-34" data-name="&amp;lt;Radial Repeat&amp;gt;">
                <g>
                  <line class="cls-21" x1="122.78" y1="49.36" x2="131.84" y2="52.12"/>
                  <path class="cls-21" d="M122.85,49.12c1.65-.26,3.39-.34,5.04-.29.41.01.84-.06,1.27-.11.95-.08,1.55.58,2.06,1.38.28.45.52.99.69,1.79l-.15.48c-1.17,1.05-2.72,2.02-4.05,1.09-.54-.52-1.39-1.07-2.03-1.47-1.01-.73-2.06-1.52-2.99-2.39,0,0,.15-.48.15-.48h0Z"/>
                </g>
              </g>
              <g id="_Radial_Repeat_-35" data-name="&amp;lt;Radial Repeat&amp;gt;">
                <g>
                  <line class="cls-21" x1="128.18" y1="41.63" x2="133.89" y2="49.19"/>
                  <path class="cls-21" d="M128.38,41.48c1.48.76,2.94,1.71,4.25,2.72.32.25.72.45,1.09.66.82.49.92,1.38.85,2.32-.04.52-.16,1.11-.49,1.85l-.4.3c-1.56.16-3.39.04-3.92-1.49-.13-.74-.5-1.68-.78-2.38-.39-1.19-.78-2.44-1.01-3.69,0,0,.4-.3.4-.3h0Z"/>
                </g>
              </g>
              <g id="_Radial_Repeat_-36" data-name="&amp;lt;Radial Repeat&amp;gt;">
                <g>
                  <line class="cls-21" x1="137.09" y1="38.56" x2="137.26" y2="48.02"/>
                  <path class="cls-21" d="M137.34,38.55c.75,1.49,1.37,3.11,1.84,4.7.11.39.32.78.5,1.17.37.88-.07,1.66-.67,2.38-.34.4-.78.8-1.49,1.21,0,0-.5,0-.5,0-1.36-.79-2.76-1.96-2.29-3.51.33-.68.59-1.65.77-2.38.38-1.19.81-2.43,1.35-3.58,0,0,.5,0,.5,0h0Z"/>
                </g>
              </g>
              <g id="_Radial_Repeat_-37" data-name="&amp;lt;Radial Repeat&amp;gt;">
                <g>
                  <line class="cls-21" x1="146.11" y1="41.3" x2="140.68" y2="49.07"/>
                  <path class="cls-21" d="M146.31,41.45c-.26,1.65-.72,3.33-1.28,4.88-.14.38-.2.82-.29,1.24-.21.93-1.03,1.3-1.94,1.53-.51.12-1.1.19-1.91.11l-.41-.29c-.63-1.44-1.08-3.21.21-4.19.67-.36,1.45-.99,2.02-1.47,1.01-.73,2.08-1.49,3.19-2.1,0,0,.41.29.41.29h0Z"/>
                </g>
              </g>
              <g id="_Radial_Repeat_-38" data-name="&amp;lt;Radial Repeat&amp;gt;">
                <g>
                  <line class="cls-21" x1="151.79" y1="48.83" x2="142.84" y2="51.92"/>
                  <path class="cls-21" d="M151.87,49.07c-1.18,1.18-2.54,2.27-3.9,3.2-.34.23-.65.55-.96.84-.72.63-1.6.44-2.47.1-.49-.2-1-.49-1.61-1.04l-.16-.47c.33-1.54,1.01-3.23,2.63-3.26.75.1,1.75.05,2.5,0,1.25,0,2.56.01,3.82.18,0,0,.16.47.16.47h0Z"/>
                </g>
              </g>
              <g id="_Radial_Repeat_-39" data-name="&amp;lt;Radial Repeat&amp;gt;">
                <g>
                  <line class="cls-21" x1="151.96" y1="58.25" x2="142.9" y2="55.49"/>
                  <path class="cls-21" d="M151.89,58.49c-1.65.26-3.39.34-5.04.29-.41-.01-.84.06-1.27.11-.95.08-1.55-.58-2.06-1.38-.28-.45-.52-.99-.69-1.79l.15-.48c1.17-1.05,2.72-2.02,4.05-1.09.54.52,1.39,1.07,2.03,1.47,1.01.73,2.06,1.52,2.99,2.39,0,0-.15.48-.15.48h0Z"/>
                </g>
              </g>
              <g id="_Radial_Repeat_-40" data-name="&amp;lt;Radial Repeat&amp;gt;">
                <g>
                  <line class="cls-21" x1="146.56" y1="65.98" x2="140.85" y2="58.42"/>
                  <path class="cls-21" d="M146.36,66.13c-1.48-.76-2.94-1.71-4.25-2.72-.32-.25-.72-.45-1.09-.66-.82-.49-.92-1.38-.85-2.32.04-.52.16-1.11.49-1.85l.4-.3c1.56-.16,3.39-.04,3.92,1.49.13.74.5,1.68.78,2.38.39,1.19.78,2.44,1.01,3.69,0,0-.4.3-.4.3h0Z"/>
                </g>
              </g>
            </g>
          </g>
          <path class="cls-21" d="M189.47,159.85h-110.74c-2.35,0-4.26-1.91-4.26-4.26v-2.25c0-1.25.54-2.38,1.4-3.16-.51-1.02-.8-2.17-.8-3.37v-.42c0-4.15,3.38-7.54,7.54-7.54h8.45l.82-11.35c.24-4.3,1.01-8.46,2.3-12.32,3.4-11.73,11.77-17.64,14.92-19.87,6.95-4.67,15.46-7.13,24.67-7.13h9.67v-5.32c0-5.1-4.15-9.25-9.25-9.25H48.79c-10.93,0-19.99-8.73-20.2-19.47-.1-5.45,1.96-10.57,5.81-14.42,3.6-3.6,8.34-5.65,13.41-5.81l.41-5.95c.05-.72-.49-1.94-.88-2.38l-2.14-.38c-.49.24-1.04.35-1.59.32l-2.56-.14c-.33-.02-.64-.08-.93-.19-.31.07-.63.1-.96.08l-2.04-.11c-.56-.03-1.1-.17-1.59-.39-.45.17-.93.24-1.42.22l-.63-.04c-.58-.03-1.13-.16-1.63-.38-.88,1.75-1.96,3.37-3.23,4.83-1.61,1.86-3.3,3.25-5.15,4.22-.86.51-1.69.9-2.53,1.2-7.55,2.85-16.33-1.21-19.53-9.06-.47-1.11-.84-2.34-1.08-3.63-1.16-5.52.61-11.32,4.53-14.71,2.81-2.58,6.52-3.86,11.27-3.86h.05c3.26,0,6.62.87,9.73,2.5l4.28,2.24c.21-.3.46-.56.74-.8.98-.8,2.31-1.14,3.63-.93l.64.1c.49.08.95.26,1.35.52.55-.13,1.13-.15,1.71-.05l2.08.33c.35.06.69.17,1,.32.3-.04.61-.04.92.01l2.6.42c.4.06.77.2,1.12.4l10.52,1.12s.09.01.13.02c3.05.49,5.22,3.68,4.98,7.29l.45,16.81h68.03c-.05-.22-.09-.45-.13-.67-1.19,0-2.46,0-3.82-.05-1.1-.04-2.23-.05-3.36-.06-1.96-.02-3.98-.03-5.88-.2-1.32-.11-2.32-1.24-2.29-2.56.04-1.32,1.1-2.39,2.42-2.43,3.04-.09,6.09-.17,9.13-.23l1.34-.03c.8-.02,1.61-.04,2.43-.04.27-1.61.77-3.17,1.49-4.64-.97-.69-1.98-1.45-3.06-2.28-.87-.68-1.78-1.35-2.68-2.02-1.57-1.16-3.2-2.36-4.64-3.61-1-.87-1.15-2.36-.34-3.41.81-1.05,2.29-1.29,3.39-.54,2.52,1.71,5.02,3.44,7.52,5.18l1.1.76c.66.46,1.33.92,2,1.4,1.17-1.15,2.49-2.11,3.93-2.87-.38-1.13-.76-2.34-1.13-3.65-.3-1.06-.64-2.13-.98-3.21-.59-1.87-1.2-3.79-1.63-5.66-.3-1.29.46-2.59,1.73-2.96,1.27-.37,2.61.31,3.06,1.55,1.03,2.87,2.04,5.74,3.04,8.61l.44,1.27c.26.75.53,1.51.79,2.29,1.61-.24,3.26-.24,4.88,0,.36-1.14.76-2.33,1.22-3.61.38-1.04.73-2.11,1.09-3.18.62-1.85,1.26-3.77,2-5.53.52-1.22,1.89-1.83,3.14-1.38,1.25.44,1.93,1.78,1.56,3.06-.85,2.92-1.72,5.84-2.6,8.75l-.32,1.06c-.25.84-.51,1.69-.79,2.55,1.45.75,2.78,1.72,3.95,2.86.96-.71,1.99-1.44,3.12-2.21.92-.62,1.83-1.27,2.75-1.93,1.59-1.14,3.23-2.31,4.87-3.3,1.14-.68,2.6-.37,3.35.73.75,1.09.52,2.58-.53,3.39-2.41,1.86-4.82,3.71-7.25,5.55l-1.07.82c-.63.48-1.28.98-1.94,1.46.73,1.46,1.24,3.02,1.51,4.63,1.19,0,2.46,0,3.82.05,1.1.04,2.23.05,3.36.06,1.96.02,3.98.03,5.88.2,1.32.11,2.32,1.24,2.29,2.56-.04,1.32-1.1,2.39-2.42,2.43-3.04.09-6.09.17-9.13.23l-1.33.03c-.8.02-1.62.04-2.44.04-.04.25-.09.5-.14.74h.48c15.54,0,28.19,12.65,28.19,28.19v60.93c0,6.32-1.87,12.38-5.41,17.58v6.91c0,.53-.05,1.06-.16,1.57h3.55c2.35,0,4.26,1.91,4.26,4.26v2.25c0,2.35-1.91,4.26-4.26,4.26ZM79.47,154.85h109.26v-.78h-7.14c-1.06,0-2.01-.67-2.36-1.68-.35-1-.02-2.12.81-2.78.66-.52,1.04-1.29,1.04-2.11v-7.69c0-.52.16-1.03.47-1.46,3.23-4.49,4.94-9.8,4.94-15.34v-60.93c0-12.79-10.4-23.19-23.19-23.19h-3.95c-.85,0-1.65-.44-2.11-1.16-.46-.72-.52-1.63-.16-2.4.7-1.5,1.07-3.1,1.1-4.75,0-.07,0-.14.01-.2,0-.07-.01-.14-.01-.21-.04-2.35-.78-4.59-2.12-6.51-.03-.05-.07-.1-.1-.15-.05-.06-.1-.12-.15-.18-1.42-1.88-3.34-3.27-5.55-4.02-.08-.03-.16-.06-.23-.09-.05-.01-.1-.03-.15-.04-2.23-.68-4.63-.67-6.85,0-.05.01-.09.03-.14.04-.08.04-.16.07-.25.1-2.2.76-4.12,2.16-5.53,4.04-.05.07-.1.13-.16.19-.03.05-.06.1-.09.14-1.34,1.91-2.06,4.17-2.1,6.51,0,.07,0,.13-.01.2,0,.07.01.14.01.21.03,1.64.4,3.23,1.09,4.72.36.77.3,1.68-.16,2.4s-1.25,1.16-2.11,1.16H59.66c-1.35,0-2.46-1.08-2.5-2.43l-.52-19.37c0-.09,0-.18,0-.27.1-1.16-.46-1.99-.76-2.08l-11.12-1.18c-.43-.05-.83-.2-1.18-.44l-1.34-.22c-.42.21-.89.3-1.38.25l-.39-.04c-.6-.06-1.14-.34-1.55-.77l-1.19-.19c-.5.37-1.13.55-1.75.48l-.58-.06c-.5-.05-.95-.25-1.31-.55-.03.05-.05.09-.08.14-.02.05-.05.14-.09.29-.19.74-.71,1.35-1.4,1.67-.7.31-1.5.29-2.18-.07l-6.73-3.53c-2.4-1.26-4.97-1.93-7.42-1.93h-.04c-3.49,0-6.02.82-7.94,2.59-2.58,2.23-3.74,6.24-2.95,10.01.18.99.44,1.87.79,2.68,2.46,6.04,8.76,7.96,13.19,6.29.59-.21,1.16-.49,1.76-.85.04-.02.08-.05.12-.07,1.31-.68,2.53-1.69,3.74-3.09,1.38-1.6,2.49-3.45,3.3-5.51.3-.75.63-1.51,1-2.25.48-.95,1.51-1.5,2.57-1.35.99.14,1.79.84,2.06,1.79.54-.37,1.21-.51,1.85-.39.93.17,1.75.86,2.03,1.76l.71.04c.13-.16.29-.31.46-.44.55-.41,1.24-.57,1.92-.45.71.12,1.32.54,1.69,1.12l.66.04c.53-.37,1.2-.52,1.86-.41l3.32.59c.74.08,1.78.44,2.79,1.59,1.4,1.58,2.27,4.07,2.14,6.04l-.58,8.27c-.09,1.31-1.18,2.33-2.49,2.33h-1.7c-3.97,0-7.7,1.55-10.5,4.35-2.88,2.88-4.43,6.72-4.35,10.79.15,8.03,6.97,14.56,15.2,14.56h85.39c7.86,0,14.25,6.39,14.25,14.25v7.83c0,.67-.27,1.3-.74,1.77-.47.47-1.07.73-1.78.73h-.37s-11.79,0-11.79,0c-8.2,0-15.75,2.16-21.83,6.24-2.71,1.92-10.04,7.1-12.98,17.24-1.18,3.53-1.87,7.25-2.08,11.15l-.99,13.71c-.09,1.31-1.18,2.32-2.49,2.32h-10.77c-1.4,0-2.54,1.14-2.54,2.54v.42c0,1.09.71,2.05,1.76,2.39,1.17.38,1.89,1.56,1.69,2.77-.19,1.21-1.24,2.11-2.47,2.11h-1.59v.78ZM189.47,154.07h0,0ZM34.08,20.57h0s0,0,0,0ZM33.9,12.31s0,0,0,0c0,0,0,0,0,0ZM33.18,10.09h0s0,0,0,0Z"/>
          <g>
            <g class="cls-23">
              <g id="_Radial_Repeat_-41" data-name="&amp;lt;Radial Repeat&amp;gt;">
                <path class="cls-18" d="M155.57,58.27c-1.03-2.86-2.04-5.72-3.03-8.58-.98-2.83-2.14-5.85-2.58-8.73,1.24,2.78,2.18,5.67,3.03,8.58.83,2.88,1.93,5.92,2.58,8.73h0Z"/>
              </g>
              <g id="_Radial_Repeat_-42" data-name="&amp;lt;Radial Repeat&amp;gt;">
                <path class="cls-18" d="M137.45,58.29c.85-2.91,1.71-5.82,2.6-8.73.87-2.87,1.71-5.99,3.04-8.58-.63,2.98-1.57,5.87-2.59,8.73-1.02,2.82-1.92,5.92-3.04,8.58h0Z"/>
              </g>
              <g id="_Radial_Repeat_-43" data-name="&amp;lt;Radial Repeat&amp;gt;">
                <path class="cls-18" d="M122.77,47.66c2.4-1.86,4.81-3.7,7.23-5.53,2.39-1.8,4.9-3.85,7.51-5.15-2.26,2.04-4.72,3.82-7.23,5.53-2.48,1.68-5.03,3.66-7.51,5.15h0Z"/>
              </g>
              <g id="_Radial_Repeat_-44" data-name="&amp;lt;Radial Repeat&amp;gt;">
                <path class="cls-18" d="M117.15,30.44c3.03-.09,6.07-.17,9.1-.23,3-.05,6.23-.23,9.1.24-3.03.32-6.06.32-9.1.23-2.99-.1-6.22,0-9.1-.24h0Z"/>
              </g>
              <g id="_Radial_Repeat_-45" data-name="&amp;lt;Radial Repeat&amp;gt;">
                <path class="cls-18" d="M122.73,13.2c2.51,1.71,5.01,3.43,7.5,5.16,2.45,1.72,5.17,3.47,7.22,5.55-2.64-1.52-5.09-3.3-7.5-5.16-2.36-1.84-5.03-3.65-7.22-5.55h0Z"/>
              </g>
              <g id="_Radial_Repeat_-46" data-name="&amp;lt;Radial Repeat&amp;gt;">
                <path class="cls-18" d="M137.37,2.53c1.03,2.86,2.04,5.72,3.03,8.58.98,2.83,2.14,5.85,2.58,8.73-1.24-2.78-2.18-5.67-3.03-8.58-.83-2.88-1.93-5.92-2.58-8.73h0Z"/>
              </g>
              <g id="_Radial_Repeat_-47" data-name="&amp;lt;Radial Repeat&amp;gt;">
                <path class="cls-18" d="M155.49,2.5c-.85,2.91-1.71,5.82-2.6,8.73-.87,2.87-1.71,5.99-3.04,8.58.63-2.98,1.57-5.87,2.59-8.73,1.02-2.82,1.92-5.92,3.04-8.58h0Z"/>
              </g>
              <g id="_Radial_Repeat_-48" data-name="&amp;lt;Radial Repeat&amp;gt;">
                <path class="cls-18" d="M170.16,13.13c-2.4,1.86-4.81,3.7-7.23,5.53-2.39,1.8-4.9,3.85-7.51,5.15,2.26-2.04,4.72-3.82,7.23-5.53,2.48-1.68,5.03-3.66,7.51-5.15h0Z"/>
              </g>
              <g id="_Radial_Repeat_-49" data-name="&amp;lt;Radial Repeat&amp;gt;">
                <path class="cls-18" d="M175.79,30.35c-3.03.09-6.07.17-9.1.23-3,.05-6.23.23-9.1-.24,3.03-.32,6.06-.32,9.1-.23,2.99.1,6.22,0,9.1.24h0Z"/>
              </g>
              <g id="_Radial_Repeat_-50" data-name="&amp;lt;Radial Repeat&amp;gt;">
                <path class="cls-18" d="M170.21,47.59c-2.51-1.71-5.01-3.43-7.5-5.16-2.45-1.72-5.17-3.47-7.22-5.55,2.64,1.52,5.09,3.3,7.5,5.16,2.36,1.84,5.03,3.65,7.22,5.55h0Z"/>
              </g>
            </g>
            <circle class="cls-7" cx="146.47" cy="30.4" r="14.23"/>
            <g>
              <g id="_Radial_Repeat_-51" data-name="&amp;lt;Radial Repeat&amp;gt;">
                <g class="cls-2">
                  <path class="cls-19" d="M151.11,43.79c-.88-2.45-2.38-5.79-2.89-8.31.72,1.2,1.16,2.73,1.6,4.1-.03,0,1.4,4.25,1.29,4.21h0Z"/>
                </g>
              </g>
              <g id="_Radial_Repeat_-52" data-name="&amp;lt;Radial Repeat&amp;gt;">
                <g class="cls-2">
                  <path class="cls-19" d="M146.74,44.57c-.08-2.6-.48-6.24-.18-8.8.32,1.37.26,2.95.25,4.4-.03,0,.02,4.48-.07,4.4h0Z"/>
                </g>
              </g>
              <g id="_Radial_Repeat_-53" data-name="&amp;lt;Radial Repeat&amp;gt;">
                <g class="cls-2">
                  <path class="cls-19" d="M142.35,43.96c.73-2.5,1.48-6.08,2.55-8.43-.12,1.4-.67,2.89-1.12,4.26-.03,0-1.37,4.26-1.43,4.17h0Z"/>
                </g>
              </g>
              <g id="_Radial_Repeat_-54" data-name="&amp;lt;Radial Repeat&amp;gt;">
                <g class="cls-2">
                  <path class="cls-19" d="M138.36,42.02c1.47-2.15,3.28-5.33,5.03-7.23-.55,1.29-1.53,2.54-2.38,3.71-.02-.02-2.62,3.63-2.65,3.52h0Z"/>
                </g>
              </g>
              <g id="_Radial_Repeat_-55" data-name="&amp;lt;Radial Repeat&amp;gt;">
                <g class="cls-2">
                  <path class="cls-19" d="M135.16,38.95c2.06-1.59,4.77-4.05,7.01-5.32-.92,1.06-2.24,1.95-3.41,2.79-.02-.02-3.61,2.65-3.61,2.53h0Z"/>
                </g>
              </g>
              <g id="_Radial_Repeat_-56" data-name="&amp;lt;Radial Repeat&amp;gt;">
                <g class="cls-2">
                  <path class="cls-19" d="M133.07,35.03c2.45-.88,5.79-2.38,8.31-2.89-1.2.72-2.73,1.16-4.1,1.6,0-.03-4.25,1.4-4.21,1.29h0Z"/>
                </g>
              </g>
              <g id="_Radial_Repeat_-57" data-name="&amp;lt;Radial Repeat&amp;gt;">
                <g class="cls-2">
                  <path class="cls-19" d="M132.29,30.67c2.6-.08,6.24-.48,8.8-.18-1.37.32-2.95.26-4.4.25,0-.03-4.48.02-4.4-.07h0Z"/>
                </g>
              </g>
              <g id="_Radial_Repeat_-58" data-name="&amp;lt;Radial Repeat&amp;gt;">
                <g class="cls-2">
                  <path class="cls-19" d="M132.9,26.27c2.5.73,6.08,1.48,8.43,2.55-1.4-.12-2.89-.67-4.26-1.12,0-.03-4.26-1.37-4.17-1.43h0Z"/>
                </g>
              </g>
              <g id="_Radial_Repeat_-59" data-name="&amp;lt;Radial Repeat&amp;gt;">
                <g class="cls-2">
                  <path class="cls-19" d="M134.84,22.28c2.15,1.47,5.33,3.28,7.23,5.03-1.29-.55-2.54-1.53-3.71-2.38.02-.02-3.63-2.62-3.52-2.65h0Z"/>
                </g>
              </g>
              <g id="_Radial_Repeat_-60" data-name="&amp;lt;Radial Repeat&amp;gt;">
                <g class="cls-2">
                  <path class="cls-19" d="M137.92,19.09c1.59,2.06,4.05,4.77,5.32,7.01-1.06-.92-1.95-2.24-2.79-3.41.02-.02-2.65-3.61-2.53-3.61h0Z"/>
                </g>
              </g>
              <g id="_Radial_Repeat_-61" data-name="&amp;lt;Radial Repeat&amp;gt;">
                <g class="cls-2">
                  <path class="cls-19" d="M141.83,17c.88,2.45,2.38,5.79,2.89,8.31-.72-1.2-1.16-2.73-1.6-4.1.03,0-1.4-4.25-1.29-4.21h0Z"/>
                </g>
              </g>
              <g id="_Radial_Repeat_-62" data-name="&amp;lt;Radial Repeat&amp;gt;">
                <g class="cls-2">
                  <path class="cls-19" d="M146.2,16.22c.08,2.6.48,6.24.18,8.8-.32-1.37-.26-2.95-.25-4.4.03,0-.02-4.48.07-4.4h0Z"/>
                </g>
              </g>
              <g id="_Radial_Repeat_-63" data-name="&amp;lt;Radial Repeat&amp;gt;">
                <g class="cls-2">
                  <path class="cls-19" d="M150.59,16.83c-.73,2.5-1.48,6.08-2.55,8.43.12-1.4.67-2.89,1.12-4.26.03,0,1.37-4.26,1.43-4.17h0Z"/>
                </g>
              </g>
              <g id="_Radial_Repeat_-64" data-name="&amp;lt;Radial Repeat&amp;gt;">
                <g class="cls-2">
                  <path class="cls-19" d="M154.58,18.77c-1.47,2.15-3.28,5.33-5.03,7.23.55-1.29,1.53-2.54,2.38-3.71.02.02,2.62-3.63,2.65-3.52h0Z"/>
                </g>
              </g>
              <g id="_Radial_Repeat_-65" data-name="&amp;lt;Radial Repeat&amp;gt;">
                <g class="cls-2">
                  <path class="cls-19" d="M157.78,21.84c-2.06,1.59-4.77,4.05-7.01,5.32.92-1.06,2.24-1.95,3.41-2.79.02.02,3.61-2.65,3.61-2.53h0Z"/>
                </g>
              </g>
              <g id="_Radial_Repeat_-66" data-name="&amp;lt;Radial Repeat&amp;gt;">
                <g class="cls-2">
                  <path class="cls-19" d="M159.87,25.76c-2.45.88-5.79,2.38-8.31,2.89,1.2-.72,2.73-1.16,4.1-1.6,0,.03,4.25-1.4,4.21-1.29h0Z"/>
                </g>
              </g>
              <g id="_Radial_Repeat_-67" data-name="&amp;lt;Radial Repeat&amp;gt;">
                <g class="cls-2">
                  <path class="cls-19" d="M160.64,30.12c-2.6.08-6.24.48-8.8.18,1.37-.32,2.95-.26,4.4-.25,0,.03,4.48-.02,4.4.07h0Z"/>
                </g>
              </g>
              <g id="_Radial_Repeat_-68" data-name="&amp;lt;Radial Repeat&amp;gt;">
                <g class="cls-2">
                  <path class="cls-19" d="M160.03,34.52c-2.5-.73-6.08-1.48-8.43-2.55,1.4.12,2.89.67,4.26,1.12,0,.03,4.26,1.37,4.17,1.43h0Z"/>
                </g>
              </g>
              <g id="_Radial_Repeat_-69" data-name="&amp;lt;Radial Repeat&amp;gt;">
                <g class="cls-2">
                  <path class="cls-19" d="M158.1,38.51c-2.15-1.47-5.33-3.28-7.23-5.03,1.29.55,2.54,1.53,3.71,2.38-.02.02,3.63,2.62,3.52,2.65h0Z"/>
                </g>
              </g>
              <g id="_Radial_Repeat_-70" data-name="&amp;lt;Radial Repeat&amp;gt;">
                <g class="cls-2">
                  <path class="cls-19" d="M155.02,41.7c-1.59-2.06-4.05-4.77-5.32-7.01,1.06.92,1.95,2.24,2.79,3.41-.02.02,2.65,3.61,2.53,3.61h0Z"/>
                </g>
              </g>
            </g>
            <path class="cls-17" d="M178.51,152.71h-81.2c-2.56,0-4.59-2.17-4.4-4.73l1.47-20.3c1.29-23.22,18.01-37,39.39-37h11.79c21,0,38.03,17.03,38.03,38.03v18.79c0,2.82-2.25,5.13-5.08,5.2Z"/>
            <g class="cls-24">
              <circle class="cls-12" cx="102.07" cy="105.56" r="11.8"/>
              <circle class="cls-10" cx="170.16" cy="108.64" r="11.8"/>
            </g>
            <path class="cls-14" d="M146.29,130.05h35.33v15.44c0,1.73-1.4,3.14-3.14,3.14h-36.18v-14.58c0-2.2,1.79-3.99,3.99-3.99Z"/>
            <path class="cls-15" d="M188.99,62.09v60.93c0,15.92-12.9,28.82-28.82,28.82h-77.55c-2.78,0-5.04-2.25-5.04-5.04v-.42c0-2.78,2.25-5.04,5.04-5.04h77.05c5.94,0,10.76-4.82,10.76-10.76v-12.11c0-5.94-4.82-10.76-10.76-10.76h-8.19c-3.05,0-5.53-2.48-5.53-5.53v-19.32c0-6.49-5.26-11.75-11.75-11.75H48.79c-9.51,0-17.52-7.51-17.7-17.02-.09-4.93,1.87-9.39,5.08-12.61s7.48-5.08,12.27-5.08h114.85c14.19,0,25.69,11.5,25.69,25.69Z"/>
            <g>
              <g>
                <g id="_Radial_Repeat_-71" data-name="&amp;lt;Radial Repeat&amp;gt;">
                  <path class="cls-18" d="M41.29,64.37c.1-1.91-.18-4.77.36-6.56.14,1.1.09,2.2-.04,3.29-.03,0-.24,3.35-.32,3.27h0Z"/>
                </g>
                <g id="_Radial_Repeat_-72" data-name="&amp;lt;Radial Repeat&amp;gt;">
                  <path class="cls-18" d="M35.18,62.03c1.21-1.49,2.66-3.96,4.15-5.09-.54.97-1.22,1.83-1.96,2.64-.02-.02-2.16,2.57-2.18,2.46h0Z"/>
                </g>
                <g id="_Radial_Repeat_-73" data-name="&amp;lt;Radial Repeat&amp;gt;">
                  <path class="cls-18" d="M31.62,56.55c1.85-.49,4.48-1.64,6.35-1.68-1.01.47-2.06.76-3.14.98,0-.03-3.26.81-3.21.7h0Z"/>
                </g>
                <g id="_Radial_Repeat_-74" data-name="&amp;lt;Radial Repeat&amp;gt;">
                  <path class="cls-18" d="M31.95,50.03c1.79.69,4.59,1.31,6.12,2.37-1.09-.21-2.11-.6-3.11-1.05.01-.02-3.11-1.26-3.01-1.32h0Z"/>
                </g>
                <g id="_Radial_Repeat_-75" data-name="&amp;lt;Radial Repeat&amp;gt;">
                  <path class="cls-18" d="M36.06,44.94c1.04,1.61,2.95,3.75,3.56,5.52-.76-.81-1.36-1.73-1.9-2.68.02-.01-1.77-2.85-1.66-2.84h0Z"/>
                </g>
                <g id="_Radial_Repeat_-76" data-name="&amp;lt;Radial Repeat&amp;gt;">
                  <path class="cls-18" d="M42.37,43.24c-.1,1.91.18,4.77-.36,6.56-.14-1.1-.09-2.2.04-3.29.03,0,.24-3.35.32-3.27h0Z"/>
                </g>
                <g id="_Radial_Repeat_-77" data-name="&amp;lt;Radial Repeat&amp;gt;">
                  <path class="cls-18" d="M48.47,45.58c-1.21,1.49-2.66,3.96-4.15,5.09.54-.97,1.22-1.83,1.96-2.64.02.02,2.16-2.57,2.18-2.46h0Z"/>
                </g>
                <g id="_Radial_Repeat_-78" data-name="&amp;lt;Radial Repeat&amp;gt;">
                  <path class="cls-18" d="M52.04,51.06c-1.85.49-4.48,1.64-6.35,1.68,1.01-.47,2.06-.76,3.14-.98,0,.03,3.26-.81,3.21-.7h0Z"/>
                </g>
                <g id="_Radial_Repeat_-79" data-name="&amp;lt;Radial Repeat&amp;gt;">
                  <path class="cls-18" d="M51.71,57.58c-1.79-.69-4.59-1.31-6.12-2.37,1.09.21,2.11.6,3.11,1.05-.01.02,3.11,1.26,3.01,1.32h0Z"/>
                </g>
                <g id="_Radial_Repeat_-80" data-name="&amp;lt;Radial Repeat&amp;gt;">
                  <path class="cls-18" d="M47.6,62.67c-1.04-1.61-2.95-3.75-3.56-5.52.76.81,1.36,1.73,1.9,2.68-.02.01,1.77,2.85,1.66,2.84h0Z"/>
                </g>
              </g>
              <ellipse class="cls-6" cx="41.83" cy="53.81" rx="3.68" ry="4.29"/>
              <ellipse class="cls-13" cx="41.83" cy="53.81" rx="1.94" ry="2.27"/>
            </g>
            <g>
              <g>
                <g id="_Radial_Repeat_-81" data-name="&amp;lt;Radial Repeat&amp;gt;">
                  <path class="cls-18" d="M137.63,69.06c-.08-2.8-.47-6.71-.17-9.47.31,1.48.26,3.18.25,4.73-.03,0,.02,4.81-.08,4.74h0Z"/>
                </g>
                <g id="_Radial_Repeat_-82" data-name="&amp;lt;Radial Repeat&amp;gt;">
                  <path class="cls-18" d="M128.62,66.3c1.58-2.31,3.56-5.71,5.43-7.76-.61,1.38-1.66,2.72-2.58,3.97-.02-.02-2.81,3.9-2.85,3.79h0Z"/>
                </g>
                <g id="_Radial_Repeat_-83" data-name="&amp;lt;Radial Repeat&amp;gt;">
                  <path class="cls-18" d="M122.95,58.77c2.64-.94,6.24-2.52,8.95-3.09-1.31.76-2.94,1.23-4.42,1.7,0-.03-4.57,1.5-4.53,1.39h0Z"/>
                </g>
                <g id="_Radial_Repeat_-84" data-name="&amp;lt;Radial Repeat&amp;gt;">
                  <path class="cls-18" d="M122.79,49.34c2.68.79,6.53,1.63,9.06,2.76-1.5-.16-3.1-.74-4.58-1.23,0-.03-4.58-1.47-4.48-1.54h0Z"/>
                </g>
                <g id="_Radial_Repeat_-85" data-name="&amp;lt;Radial Repeat&amp;gt;">
                  <path class="cls-18" d="M128.2,41.62c1.7,2.22,4.33,5.15,5.71,7.56-1.12-1.01-2.07-2.42-2.98-3.68.02-.02-2.84-3.88-2.72-3.88h0Z"/>
                </g>
                <g id="_Radial_Repeat_-86" data-name="&amp;lt;Radial Repeat&amp;gt;">
                  <path class="cls-18" d="M137.11,38.56c.08,2.8.47,6.71.17,9.47-.31-1.48-.26-3.18-.25-4.73.03,0-.02-4.81.08-4.74h0Z"/>
                </g>
                <g id="_Radial_Repeat_-87" data-name="&amp;lt;Radial Repeat&amp;gt;">
                  <path class="cls-18" d="M146.12,41.32c-1.58,2.31-3.56,5.71-5.43,7.76.61-1.38,1.66-2.72,2.58-3.97.02.02,2.81-3.9,2.85-3.79h0Z"/>
                </g>
                <g id="_Radial_Repeat_-88" data-name="&amp;lt;Radial Repeat&amp;gt;">
                  <path class="cls-18" d="M151.79,48.85c-2.64.94-6.24,2.52-8.95,3.09,1.31-.76,2.94-1.23,4.42-1.7,0,.03,4.57-1.5,4.53-1.39h0Z"/>
                </g>
                <g id="_Radial_Repeat_-89" data-name="&amp;lt;Radial Repeat&amp;gt;">
                  <path class="cls-18" d="M151.95,58.27c-2.68-.79-6.53-1.63-9.06-2.76,1.5.16,3.1.74,4.58,1.23,0,.03,4.58,1.47,4.48,1.54h0Z"/>
                </g>
                <g id="_Radial_Repeat_-90" data-name="&amp;lt;Radial Repeat&amp;gt;">
                  <path class="cls-18" d="M146.54,65.99c-1.7-2.22-4.33-5.15-5.71-7.56,1.12,1.01,2.07,2.42,2.98,3.68-.02.02,2.84,3.88,2.72,3.88h0Z"/>
                </g>
              </g>
              <circle class="cls-11" cx="137.37" cy="53.81" r="6.19"/>
              <circle class="cls-13" cx="137.37" cy="53.81" r="3.27"/>
            </g>
            <path class="cls-5" d="M180.65,68.74l-1.99,23.79c-.16,1.94-1.79,3.43-3.74,3.42h-.33c-1.44-.01-2.73-.85-3.35-2.15-.8-1.67-2.5-2.82-4.47-2.82s-3.67,1.15-4.46,2.82c-.62,1.3-1.91,2.14-3.35,2.14h0c-1.95.01-3.58-1.48-3.74-3.42l-1.99-23.79c-.13-1.57,1.04-2.95,2.61-3.09h0c1.57-.13,2.95,1.04,3.09,2.61l.1,1.15.04.48c.06.78.37,1.52.89,2.11.76.86,1.68,1.57,2.71,2.09v-21.38c0-2.18,1.63-4.09,3.81-4.25,1.25-.09,2.4.39,3.2,1.19.74.74,1.2,1.77,1.2,2.91v21.52c1.24-.63,2.32-1.53,3.15-2.64.37-.5.59-1.09.66-1.71l.04-.34.14-1.24c.17-1.54,1.54-2.65,3.08-2.52h.08c1.57.14,2.74,1.52,2.61,3.09Z"/>
            <path class="cls-4" d="M162.68,87.24v-34.66c0-2.27,1.84-4.11,4.11-4.11h0c2.27,0,4.11,1.84,4.11,4.11v34.66"/>
            <rect class="cls-3" x="76.97" y="151.57" width="114.26" height="5.78" rx="1.76" ry="1.76"/>
            <g>
              <g>
                <path class="cls-8" d="M59.14,17.03l.52,19.39c-.19,2.22-8.53,2.69-9.55.61l.62-8.89c.14-1.95-1.4-4.9-2.77-4.98l-14.36-2.55.4-10.71,22.26,2.37c1.81.29,3.07,2.43,2.88,4.76Z"/>
                <g>
                  <path class="cls-8" d="M45.33,12l-.62,10c-.04.6-.47,1.06-.97,1.03l-2.56-.14c-.5-.03-.88-.52-.84-1.11l.56-10.51c.03-.61.47-1.04.98-.96l2.6.42c.51.08.88.65.85,1.27Z"/>
                  <path class="cls-8" d="M40.91,11.31l-.56,10.41c-.03.62-.5,1.1-1.05,1.07l-2.04-.11c-1.17-.07-2.09-1.12-2.04-2.36l.38-8.7c.06-1.28,1.09-2.17,2.28-1.97l2.08.34c.56.09.97.69.94,1.34Z"/>
                  <path class="cls-8" d="M35.68,10.11l-.52,11.68c-.02.42-.42.74-.9.71l-.63-.04c-1.17-.07-2.09-.95-2.06-1.98l.37-9.83c.04-1.07,1.05-1.78,2.24-1.59l.64.1c.49.08.87.5.85.94Z"/>
                </g>
              </g>
              <ellipse class="cls-16" cx="32.24" cy="15.92" rx="1.15" ry="5.37"/>
              <g>
                <path class="cls-9" d="M33.4,16.8c-.8.3-2.04,2.52-2.91,4.74s-2.18,4.43-3.74,6.24-3.18,3.19-5.23,4.06c-6.6,3.11-15.75-.33-18.31-8.65-1.66-5-.32-10.73,3.31-13.87,2.73-2.51,6.17-3.26,9.68-3.25,2.96,0,5.88.8,8.58,2.22l8.35,4.38c.14,1.09.26,2.56.27,4.13Z"/>
                <path class="cls-22" d="M33.4,16.8l-.2-4.09s-4.38-1.95-8.4-4.12c-2.04-1.1-4.22-1.82-6.46-2.13-3-.41-6.01-.33-8.78,1.03C3.51,10.18.82,17.96,3.74,24.83c2.83,6.95,10.35,9.92,16.37,7.65,4.72-1.69,8.52-6.56,10.33-11.41.77-1.84,1.59-3.59,2.96-4.28Z"/>
              </g>
            </g>
          </g>
        </g>
      </g>
    </g>
  </g>
</svg>