<?xml version="1.0" encoding="UTF-8"?>
<svg id="Layer_2" data-name="Layer 2" xmlns="http://www.w3.org/2000/svg" xmlns:xlink="http://www.w3.org/1999/xlink" viewBox="0 0 149.59 170.83">
  <defs>
    <style>
      .cls-1, .cls-2, .cls-3, .cls-4, .cls-5, .cls-6, .cls-7, .cls-8, .cls-9, .cls-10, .cls-11, .cls-12, .cls-13, .cls-14, .cls-15, .cls-16 {
        stroke: #010101;
      }

      .cls-1, .cls-2, .cls-3, .cls-4, .cls-5, .cls-7, .cls-8, .cls-9, .cls-10, .cls-11, .cls-13, .cls-14, .cls-16 {
        stroke-miterlimit: 10;
      }

      .cls-1, .cls-2, .cls-3, .cls-5, .cls-6, .cls-8, .cls-9, .cls-10, .cls-13, .cls-14, .cls-15, .cls-16 {
        stroke-width: .72px;
      }

      .cls-1, .cls-2, .cls-4, .cls-5, .cls-6, .cls-8, .cls-9, .cls-10, .cls-12, .cls-14, .cls-15 {
        stroke-linecap: round;
      }

      .cls-1, .cls-6 {
        fill: none;
      }

      .cls-2, .cls-4 {
        fill: #fcd3c4;
      }

      .cls-3, .cls-5 {
        fill: #539e70;
      }

      .cls-17, .cls-10 {
        fill: #010101;
      }

      .cls-4 {
        stroke-width: 1.08px;
      }

      .cls-6, .cls-12, .cls-15 {
        stroke-linejoin: round;
      }

      .cls-7 {
        fill: #828771;
      }

      .cls-7, .cls-11 {
        stroke-width: .47px;
      }

      .cls-18 {
        fill: #eca44c;
      }

      .cls-19, .cls-9 {
        fill: #eca947;
      }

      .cls-8 {
        fill: #f6ba3b;
      }

      .cls-20 {
        clip-path: url(#clippath-1);
      }

      .cls-21 {
        fill: #fff;
      }

      .cls-11 {
        fill: #747072;
      }

      .cls-12 {
        fill: #938d84;
        stroke-width: .9px;
      }

      .cls-13 {
        fill: #747672;
      }

      .cls-14 {
        fill: #fae5c8;
      }

      .cls-22, .cls-15 {
        fill: #f6b737;
      }

      .cls-16 {
        fill: #f36f3b;
      }

      .cls-23 {
        clip-path: url(#clippath);
      }
    </style>
    <clipPath id="clippath">
      <path class="cls-15" d="M108.21,38.6c-3.15.06-6.96,1.4-10.31,2.93-4.47,2.04-5.64,7.85-2.32,11.48,2.32,2.52,4.63,4.93,5.59,5.61.89.62,1.88,1.21,2.86,1.72,2.8,1.49,5.95,2.27,9.15,2.27h33.92l-10.33-12.15c-.83-.98-1.62-1.99-2.38-3.01-5.33-7.16-10.69-10.27-22.81-9.29-.49.04-2.69.43-3.37.44Z"/>
    </clipPath>
    <clipPath id="clippath-1">
      <rect class="cls-10" x="24.15" y="80.37" width="7.71" height="78.47" rx="3.34" ry="3.34"/>
    </clipPath>
  </defs>
  <g id="_1" data-name="1">
    <g>
      <path class="cls-21" d="M58.34,170.83H12.42c-6.16,0-11.17-5.01-11.17-11.17V38.05c0-.6.21-1.15.56-1.58v-7.3c-1.07-.53-1.81-1.64-1.81-2.91v-.23c0-.47.1-.92.28-1.33-.18-.41-.28-.85-.28-1.33v-.23c0-.47.1-.92.28-1.33-.18-.41-.28-.85-.28-1.33v-.23c0-.47.1-.92.28-1.33-.18-.41-.28-.85-.28-1.33v-.23c0-1.27.74-2.38,1.81-2.91v-.96C1.81,6.05,7.84,0,15.25,0h56.54c7.41,0,13.45,6.05,13.45,13.49v1.05c.98.56,1.64,1.62,1.64,2.82v.23c0,.47-.1.92-.28,1.33.18.41.28.85.28,1.33v.23c0,.47-.1.92-.28,1.33.18.41.28.85.28,1.33v.23c0,.47-.1.92-.28,1.33.18.41.28.85.28,1.33v.23c0,1.21-.66,2.26-1.64,2.82v.7c0,2.93-2.18,5.37-5,5.77h30.18c2.23-.39,16.51-2.3,25.97,10.4.83,1.11,1.57,2.05,2.28,2.89l10.33,12.15c.63.74.77,1.78.36,2.67-.41.88-1.29,1.45-2.27,1.45h-31.59c-.08.02-.16.03-.25.04-2.44.29-4.75,1.42-6.49,3.16-1.49,1.49-2.5,3.33-2.96,5.33h8.68c2.85,0,5.17,2.32,5.17,5.17v30.71c0,33.81-27.51,61.32-61.32,61.32ZM6.25,39.63v120.03c0,3.4,2.77,6.17,6.17,6.17h45.92c31.05,0,56.32-25.26,56.32-56.32v-30.71c0-.09-.08-.17-.17-.17h-11.46c-1.38,0-2.5-1.12-2.5-2.5,0-4.29,1.67-8.33,4.71-11.36,2.38-2.38,5.48-3.96,8.79-4.5.27-.11.57-.17.88-.17h26.79l-6.83-8.03h0c-.78-.92-1.59-1.94-2.48-3.14-8.16-10.96-20.69-8.54-21.22-8.44-.17.03-.34.05-.51.05H10.97c-1.38,0-2.5-1.12-2.5-2.5v-11.04c0-.3.05-.6.15-.87-.1-.27-.15-.56-.15-.87v-1.16c0-.3.05-.6.15-.87-.1-.27-.15-.56-.15-.87v-1.16c0-.3.05-.6.15-.87-.1-.27-.15-.56-.15-.87v-1.16c0-.3.05-.6.15-.87-.1-.27-.15-.56-.15-.87v-3.12c0-3.77,3.04-6.83,6.79-6.83h56.54c3.74,0,6.79,3.07,6.79,6.83v3.12c0,.3-.05.6-.15.87.1.27.15.56.15.87v1.16c0,.3-.05.6-.15.87.1.27.15.56.15.87v1.16c0,.3-.05.6-.15.87.1.27.15.56.15.87v1.16c0,.3-.05.6-.15.87.1.27.15.56.15.87v2.77c0,.46.37.83.83.83s.83-.37.83-.83v-2.77c0-.3.05-.6.15-.87-.1-.27-.15-.56-.15-.87v-1.16c0-.3.05-.6.15-.87-.1-.27-.15-.56-.15-.87v-1.16c0-.3.05-.6.15-.87-.1-.27-.15-.56-.15-.87v-1.16c0-.3.05-.6.15-.87-.1-.27-.15-.56-.15-.87v-3.12c0-4.68-3.79-8.49-8.45-8.49H15.25c-4.66,0-8.44,3.81-8.44,8.49v3.12c0,.3-.05.6-.15.87.1.27.15.56.15.87v1.16c0,.3-.05.6-.15.87.1.27.15.56.15.87v1.16c0,.3-.05.6-.15.87.1.27.15.56.15.87v1.16c0,.3-.05.6-.15.87.1.27.15.56.15.87v11.04c0,.6-.21,1.15-.56,1.58ZM13.47,35.55h65.11c-2.82-.4-5-2.84-5-5.77v-.57c-1.11-.52-1.88-1.64-1.88-2.95v-.23c0-.47.1-.92.28-1.33-.18-.41-.28-.85-.28-1.33v-.23c0-.47.1-.92.28-1.33-.18-.41-.28-.85-.28-1.33v-.23c0-.47.1-.92.28-1.33-.18-.41-.28-.85-.28-1.33v-.23c0-1.3.77-2.43,1.88-2.95v-.92c0-1.01-.8-1.83-1.79-1.83H15.25c-.98,0-1.79.82-1.79,1.83v1.01c1.02.55,1.71,1.63,1.71,2.86v.23c0,.47-.1.92-.28,1.33.18.41.28.85.28,1.33v.23c0,.47-.1.92-.28,1.33.18.41.28.85.28,1.33v.23c0,.47-.1.92-.28,1.33.18.41.28.85.28,1.33v.23c0,1.24-.69,2.31-1.71,2.86v6.43Z"/>
      <g id="Wall-Mounted_Meegle-head" data-name="Wall-Mounted Meegle-head">
        <g>
          <path class="cls-22" d="M108.21,38.6c-3.15.06-6.96,1.4-10.31,2.93-4.47,2.04-5.64,7.85-2.32,11.48,2.32,2.52,4.63,4.93,5.59,5.61.89.62,1.88,1.21,2.86,1.72,2.8,1.49,5.95,2.27,9.15,2.27h33.92l-10.33-12.15c-.83-.98-1.62-1.99-2.38-3.01-5.33-7.16-10.69-10.27-22.81-9.29-.49.04-2.69.43-3.37.44Z"/>
          <g class="cls-23">
            <g>
              <path class="cls-12" d="M88.89,47.05h36.78c1.71,0,3.09,1.39,3.09,3.09v.97c0,1.71-1.39,3.09-3.09,3.09h-36.78v-7.16h0Z"/>
              <path class="cls-17" d="M123.15,50.71c0,2.06,2.12,3.08,2.3,4.01,3.11,0,4.63-1.95,4.63-4.01s-1.56-4.12-4.36-4.12c-1.11,1.26-2.57,2.06-2.57,4.12Z"/>
            </g>
          </g>
          <path class="cls-6" d="M108.21,38.6c-3.15.06-6.96,1.4-10.31,2.93-4.47,2.04-5.64,7.85-2.32,11.48,2.32,2.52,4.63,4.93,5.59,5.61.89.62,1.88,1.21,2.86,1.72,2.8,1.49,5.95,2.27,9.15,2.27h33.92l-10.33-12.15c-.83-.98-1.62-1.99-2.38-3.01-5.33-7.16-10.69-10.27-22.81-9.29-.49.04-2.69.43-3.37.44Z"/>
        </g>
        <path class="cls-16" d="M7.64,41.38c-1.84,0-3.33-1.49-3.33-3.33V13.49c0-6.06,4.91-10.99,10.94-10.99h56.54c6.04,0,10.95,4.93,10.95,10.99v16.29c0,1.84-1.49,3.33-3.33,3.33s-3.33-1.49-3.33-3.33V13.49c0-2.39-1.92-4.33-4.29-4.33H15.25c-2.36,0-4.29,1.94-4.29,4.33v24.56c0,1.84-1.49,3.33-3.33,3.33Z"/>
        <path class="cls-3" d="M4.31,16.61v21.44c0,1.84,1.49,3.33,3.33,3.33s3.33-1.49,3.33-3.33v-21.44h-6.66Z"/>
        <path class="cls-2" d="M103.07,43.35l6.79-4.97.78-.32H3.75v121.61c0,4.79,3.88,8.67,8.67,8.67h25.18v-92.2h65.42c0-3.75,1.52-7.14,3.97-9.6,2.09-2.09,4.87-3.5,7.96-3.87l-12.4-12.18c-2.07-2.03-1.82-5.43.52-7.14Z"/>
        <path class="cls-13" d="M82.74,16.61v13.17c0,1.84-1.49,3.33-3.33,3.33s-3.33-1.49-3.33-3.33v-13.17h6.66Z"/>
        <g>
          <rect class="cls-7" x="74.2" y="19.5" width="10.18" height="1.73" rx=".75" ry=".75"/>
          <rect class="cls-7" x="74.2" y="22.39" width="10.18" height="1.73" rx=".75" ry=".75"/>
          <rect class="cls-11" x="74.2" y="25.28" width="10.18" height="1.73" rx=".75" ry=".75"/>
          <rect class="cls-7" x="74.2" y="16.61" width="10.18" height="1.73" rx=".75" ry=".75"/>
        </g>
        <g>
          <rect class="cls-7" x="2.5" y="19.5" width="10.18" height="1.73" rx=".75" ry=".75"/>
          <rect class="cls-7" x="2.5" y="22.39" width="10.18" height="1.73" rx=".75" ry=".75"/>
          <rect class="cls-11" x="2.5" y="25.28" width="10.18" height="1.73" rx=".75" ry=".75"/>
          <rect class="cls-7" x="2.5" y="16.61" width="10.18" height="1.73" rx=".75" ry=".75"/>
        </g>
        <path class="cls-14" d="M117.15,78.8v30.71c0,32.48-26.33,58.82-58.82,58.82h-23.86l3.12-90.09c0-1.16.94-2.1,2.1-2.1h74.78c1.47,0,2.67,1.19,2.67,2.67Z"/>
        <path class="cls-5" d="M42.16,65.4v8.45c0,1.26-1.02,2.28-2.28,2.28h0c-1.26,0-2.28,1.02-2.28,2.28v87.63c0,1.26-1.02,2.28-2.28,2.28h-2.19c-9.98,0-18.06-8.09-18.06-18.06v-66.03c0-12.68,10.28-22.97,22.97-22.97h0c2.28,0,4.13,1.85,4.13,4.13Z"/>
        <g>
          <g>
            <g id="_Radial_Repeat_" data-name="&amp;lt;Radial Repeat&amp;gt;">
              <g>
                <path class="cls-19" d="M33.98,64.74c.32-1.39.32-2.85.03-4.25-.02-.1-.05-.2-.07-.3-.02-.1-.05-.2-.07-.3-.45-1.65-1.32-3.21-2.57-4.49-.02-.01-.03-.03-.05-.05-.02-.01-.03-.03-.05-.04-.96-.96-2.13-1.76-3.51-2.31-.05-.02-.11-.05-.17-.07,0,0-.02,0-.03-.01-.07-.02-.14-.05-.2-.07-.82-.3-1.64-.47-2.43-.52-.12-.01-.25-.02-.37-.02-.14,0-.27,0-.4,0-.38,0-.76.03-1.12.08-.21-.24-.42-.46-.65-.67.47-.47.99-.89,1.56-1.25.07-.05.15-.1.23-.14.03-.02.07-.05.11-.07.04-.02.07-.04.11-.06,1.27-.72,2.59-1.06,3.88-1.08.02,0,.04,0,.06,0h.07c1.78,0,3.5.6,4.92,1.63.07.05.14.1.21.16.07.05.14.11.21.16,1.3,1.06,2.32,2.5,2.87,4.17h0c.12.36.22.74.29,1.12.06.32.11.64.13.97h0c0,.08.01.16.02.25.2,2.9-1.05,5.44-3,7.18Z"/>
                <path class="cls-19" d="M23.02,54.36c-.42-.2-.85-.37-1.29-.52-.45.16-.89.35-1.31.56-.2.42-.37.85-.52,1.29h0c.16.45.35.89.56,1.31.42.2.85.37,1.29.52h0c.45-.16.88-.35,1.3-.56.2-.42.37-.85.52-1.29h0c-.16-.45-.35-.88-.56-1.3ZM24.94,53.28c-.14,0-.28,0-.42.01-.16,0-.31.02-.47.04-.12,0-.23.02-.35.04-.03,0-.07,0-.11.01.06.03.12.06.17.09.08.05.17.09.25.14.16.09.31.19.47.29.15.1.3.2.44.31.02-.31.02-.62.01-.93ZM22.3,51.71c-.1.1-.2.2-.3.31-.11.12-.21.24-.31.36-.07.09-.15.18-.22.27-.02.03-.05.06-.07.1.07-.02.13-.05.2-.07h0c.09-.03.18-.06.27-.08.17-.05.35-.09.53-.12.18-.04.36-.07.54-.09-.21-.24-.42-.46-.65-.67ZM23.02,54.36c-.42-.2-.85-.37-1.29-.52-.45.16-.89.35-1.31.56-.2.42-.37.85-.52,1.29h0c.16.45.35.89.56,1.31.42.2.85.37,1.29.52h0c.45-.16.88-.35,1.3-.56.2-.42.37-.85.52-1.29h0c-.16-.45-.35-.88-.56-1.3ZM24.94,53.28c-.14,0-.28,0-.42.01-.16,0-.31.02-.47.04-.12,0-.23.02-.35.04-.03,0-.07,0-.11.01.06.03.12.06.17.09.08.05.17.09.25.14.16.09.31.19.47.29.15.1.3.2.44.31.02-.31.02-.62.01-.93ZM22.3,51.71c-.1.1-.2.2-.3.31-.11.12-.21.24-.31.36-.07.09-.15.18-.22.27-.02.03-.05.06-.07.1.07-.02.13-.05.2-.07h0c.09-.03.18-.06.27-.08.17-.05.35-.09.53-.12.18-.04.36-.07.54-.09-.21-.24-.42-.46-.65-.67ZM23.02,54.36c-.42-.2-.85-.37-1.29-.52-.45.16-.89.35-1.31.56-.2.42-.37.85-.52,1.29h0c.16.45.35.89.56,1.31.42.2.85.37,1.29.52h0c.45-.16.88-.35,1.3-.56.2-.42.37-.85.52-1.29h0c-.16-.45-.35-.88-.56-1.3ZM23.7,53.37s-.07,0-.11.01c.06.03.12.06.17.09.08.05.17.09.25.14.01-.1.02-.19.03-.28-.12,0-.23.02-.35.04ZM22.3,51.71c-.1.1-.2.2-.3.31-.11.12-.21.24-.31.36-.07.09-.15.18-.22.27-.02.03-.05.06-.07.1.07-.02.13-.05.2-.07h0c.09-.03.18-.06.27-.08.17-.05.35-.09.53-.12.18-.04.36-.07.54-.09-.21-.24-.42-.46-.65-.67ZM23.02,54.36c-.42-.2-.85-.37-1.29-.52-.45.16-.89.35-1.31.56-.2.42-.37.85-.52,1.29h0c.16.45.35.89.56,1.31.42.2.85.37,1.29.52h0c.45-.16.88-.35,1.3-.56.2-.42.37-.85.52-1.29h0c-.16-.45-.35-.88-.56-1.3ZM23.7,53.37s-.07,0-.11.01c.06.03.12.06.17.09.08.05.17.09.25.14.01-.1.02-.19.03-.28-.12,0-.23.02-.35.04ZM22.3,51.71c-.1.1-.2.2-.3.31-.11.12-.21.24-.31.36-.07.09-.15.18-.22.27-.02.03-.05.06-.07.1.07-.02.13-.05.2-.07h0c.09-.03.18-.06.27-.08.17-.05.35-.09.53-.12.18-.04.36-.07.54-.09-.21-.24-.42-.46-.65-.67ZM23.02,54.36c-.42-.2-.85-.37-1.29-.52-.45.16-.89.35-1.31.56-.2.42-.37.85-.52,1.29h0c.16.45.35.89.56,1.31.42.2.85.37,1.29.52h0c.45-.16.88-.35,1.3-.56.2-.42.37-.85.52-1.29h0c-.16-.45-.35-.88-.56-1.3ZM23.7,53.37s-.07,0-.11.01c.06.03.12.06.17.09.08.05.17.09.25.14.01-.1.02-.19.03-.28-.12,0-.23.02-.35.04ZM22.3,51.71c-.1.1-.2.2-.3.31-.11.12-.21.24-.31.36-.07.09-.15.18-.22.27-.02.03-.05.06-.07.1.07-.02.13-.05.2-.07h0c.09-.03.18-.06.27-.08.17-.05.35-.09.53-.12.18-.04.36-.07.54-.09-.21-.24-.42-.46-.65-.67ZM23.02,54.36c-.42-.2-.85-.37-1.29-.52-.45.16-.89.35-1.31.56-.2.42-.37.85-.52,1.29h0c.16.45.35.89.56,1.31.42.2.85.37,1.29.52h0c.45-.16.88-.35,1.3-.56.2-.42.37-.85.52-1.29h0c-.16-.45-.35-.88-.56-1.3ZM23.7,53.37s-.07,0-.11.01c.06.03.12.06.17.09.08.05.17.09.25.14.01-.1.02-.19.03-.28-.12,0-.23.02-.35.04ZM22.3,51.71c-.1.1-.2.2-.3.31-.11.12-.21.24-.31.36-.07.09-.15.18-.22.27-.02.03-.05.06-.07.1.07-.02.13-.05.2-.07h0c.09-.03.18-.06.27-.08.17-.05.35-.09.53-.12.18-.04.36-.07.54-.09-.21-.24-.42-.46-.65-.67ZM21.86,58.68c-.09.03-.18.06-.27.08.06.07.12.15.19.22.07-.09.15-.18.22-.27.02-.03.05-.06.07-.1-.07.02-.14.05-.21.06ZM23.02,54.36c-.42-.2-.85-.37-1.29-.52-.45.16-.89.35-1.31.56-.2.42-.37.85-.52,1.29h0c.16.45.35.89.56,1.31.42.2.85.37,1.29.52h0c.45-.16.88-.35,1.3-.56.2-.42.37-.85.52-1.29h0c-.16-.45-.35-.88-.56-1.3ZM24.14,58.46c0-.16-.02-.32-.04-.47,0-.12-.02-.24-.04-.35,0-.04,0-.07-.01-.11-.03.06-.06.12-.09.18-.05.09-.09.17-.14.25-.09.16-.19.32-.29.47-.1.15-.2.3-.31.44.31.02.62.02.94.01,0-.14,0-.28-.01-.42ZM24.94,53.28c-.14,0-.28,0-.42.01-.16,0-.31.02-.47.04-.12,0-.23.02-.35.04-.03,0-.07,0-.11.01.06.03.12.06.17.09.08.05.17.09.25.14.16.09.31.19.47.29.15.1.3.2.44.31.02-.31.02-.62.01-.93ZM22.3,51.71c-.1.1-.2.2-.3.31-.11.12-.21.24-.31.36-.07.09-.15.18-.22.27-.02.03-.05.06-.07.1.07-.02.13-.05.2-.07h0c.09-.03.18-.06.27-.08.17-.05.35-.09.53-.12.18-.04.36-.07.54-.09-.21-.24-.42-.46-.65-.67ZM23.02,54.36c-.42-.2-.85-.37-1.29-.52-.45.16-.89.35-1.31.56-.2.42-.37.85-.52,1.29h0c.16.45.35.89.56,1.31.42.2.85.37,1.29.52h0c.45-.16.88-.35,1.3-.56.2-.42.37-.85.52-1.29h0c-.16-.45-.35-.88-.56-1.3ZM23.7,53.37s-.07,0-.11.01c.06.03.12.06.17.09.08.05.17.09.25.14.01-.1.02-.19.03-.28-.12,0-.23.02-.35.04ZM22.3,51.71c-.1.1-.2.2-.3.31-.11.12-.21.24-.31.36-.07.09-.15.18-.22.27-.02.03-.05.06-.07.1.07-.02.13-.05.2-.07h0c.09-.03.18-.06.27-.08.17-.05.35-.09.53-.12.18-.04.36-.07.54-.09-.21-.24-.42-.46-.65-.67ZM23.02,54.36c-.42-.2-.85-.37-1.29-.52-.45.16-.89.35-1.31.56-.2.42-.37.85-.52,1.29h0c.16.45.35.89.56,1.31.42.2.85.37,1.29.52h0c.45-.16.88-.35,1.3-.56.2-.42.37-.85.52-1.29h0c-.16-.45-.35-.88-.56-1.3ZM23.7,53.37s-.07,0-.11.01c.06.03.12.06.17.09.08.05.17.09.25.14.01-.1.02-.19.03-.28-.12,0-.23.02-.35.04ZM22.3,51.71c-.1.1-.2.2-.3.31-.11.12-.21.24-.31.36-.07.09-.15.18-.22.27-.02.03-.05.06-.07.1.07-.02.13-.05.2-.07h0c.09-.03.18-.06.27-.08.17-.05.35-.09.53-.12.18-.04.36-.07.54-.09-.21-.24-.42-.46-.65-.67ZM23.02,54.36c-.42-.2-.85-.37-1.29-.52-.45.16-.89.35-1.31.56-.2.42-.37.85-.52,1.29h0c.16.45.35.89.56,1.31.42.2.85.37,1.29.52h0c.45-.16.88-.35,1.3-.56.2-.42.37-.85.52-1.29h0c-.16-.45-.35-.88-.56-1.3ZM23.7,53.37s-.07,0-.11.01c.06.03.12.06.17.09.08.05.17.09.25.14.01-.1.02-.19.03-.28-.12,0-.23.02-.35.04ZM22.3,51.71c-.1.1-.2.2-.3.31-.11.12-.21.24-.31.36-.07.09-.15.18-.22.27-.02.03-.05.06-.07.1.07-.02.13-.05.2-.07h0c.09-.03.18-.06.27-.08.17-.05.35-.09.53-.12.18-.04.36-.07.54-.09-.21-.24-.42-.46-.65-.67ZM23.02,54.36c-.42-.2-.85-.37-1.29-.52-.45.16-.89.35-1.31.56-.2.42-.37.85-.52,1.29h0c.16.45.35.89.56,1.31.42.2.85.37,1.29.52h0c.45-.16.88-.35,1.3-.56.2-.42.37-.85.52-1.29h0c-.16-.45-.35-.88-.56-1.3ZM23.7,53.37s-.07,0-.11.01c.06.03.12.06.17.09.08.05.17.09.25.14.01-.1.02-.19.03-.28-.12,0-.23.02-.35.04ZM22.3,51.71c-.1.1-.2.2-.3.31-.11.12-.21.24-.31.36-.07.09-.15.18-.22.27-.02.03-.05.06-.07.1.07-.02.13-.05.2-.07h0c.09-.03.18-.06.27-.08.17-.05.35-.09.53-.12.18-.04.36-.07.54-.09-.21-.24-.42-.46-.65-.67ZM23.02,54.36c-.42-.2-.85-.37-1.29-.52-.45.16-.89.35-1.31.56-.2.42-.37.85-.52,1.29h0c.16.45.35.89.56,1.31.42.2.85.37,1.29.52h0c.45-.16.88-.35,1.3-.56.2-.42.37-.85.52-1.29h0c-.16-.45-.35-.88-.56-1.3ZM23.7,53.37s-.07,0-.11.01c.06.03.12.06.17.09.08.05.17.09.25.14.01-.1.02-.19.03-.28-.12,0-.23.02-.35.04ZM22.3,51.71c-.1.1-.2.2-.3.31-.11.12-.21.24-.31.36-.07.09-.15.18-.22.27-.02.03-.05.06-.07.1.07-.02.13-.05.2-.07h0c.09-.03.18-.06.27-.08.17-.05.35-.09.53-.12.18-.04.36-.07.54-.09-.21-.24-.42-.46-.65-.67ZM23.02,54.36c-.42-.2-.85-.37-1.29-.52-.45.16-.89.35-1.31.56-.2.42-.37.85-.52,1.29h0c.16.45.35.89.56,1.31.42.2.85.37,1.29.52h0c.45-.16.88-.35,1.3-.56.2-.42.37-.85.52-1.29h0c-.16-.45-.35-.88-.56-1.3ZM24.94,53.28c-.14,0-.28,0-.42.01-.16,0-.31.02-.47.04-.12,0-.23.02-.35.04-.03,0-.07,0-.11.01.06.03.12.06.17.09.08.05.17.09.25.14.16.09.31.19.47.29.15.1.3.2.44.31.02-.31.02-.62.01-.93ZM22.3,51.71c-.1.1-.2.2-.3.31-.11.12-.21.24-.31.36-.07.09-.15.18-.22.27-.02.03-.05.06-.07.1.07-.02.13-.05.2-.07h0c.09-.03.18-.06.27-.08.17-.05.35-.09.53-.12.18-.04.36-.07.54-.09-.21-.24-.42-.46-.65-.67ZM23.02,54.36c-.42-.2-.85-.37-1.29-.52-.45.16-.89.35-1.31.56-.2.42-.37.85-.52,1.29h0c.16.45.35.89.56,1.31.42.2.85.37,1.29.52h0c.45-.16.88-.35,1.3-.56.2-.42.37-.85.52-1.29h0c-.16-.45-.35-.88-.56-1.3ZM24.94,53.28c-.14,0-.28,0-.42.01-.16,0-.31.02-.47.04-.12,0-.23.02-.35.04-.03,0-.07,0-.11.01.06.03.12.06.17.09.08.05.17.09.25.14.16.09.31.19.47.29.15.1.3.2.44.31.02-.31.02-.62.01-.93ZM22.3,51.71c-.1.1-.2.2-.3.31-.11.12-.21.24-.31.36-.07.09-.15.18-.22.27-.02.03-.05.06-.07.1.07-.02.13-.05.2-.07h0c.09-.03.18-.06.27-.08.17-.05.35-.09.53-.12.18-.04.36-.07.54-.09-.21-.24-.42-.46-.65-.67Z"/>
                <path class="cls-17" d="M18.74,55.81s-.02.08-.03.13c.03.02.06.05.09.07-.02-.07-.04-.13-.06-.2Z"/>
              </g>
            </g>
            <g id="_Radial_Repeat_-2" data-name="&amp;lt;Radial Repeat&amp;gt;">
              <g>
                <path class="cls-19" d="M24.94,53.28c-.14,0-.28,0-.42.01-.16,0-.31.02-.47.04,0,.1-.02.19-.03.28.16.09.31.19.47.29.15.1.3.2.44.31.02-.31.02-.62.01-.93ZM24.94,53.28c-.14,0-.28,0-.42.01-.16,0-.31.02-.47.04,0,.1-.02.19-.03.28.16.09.31.19.47.29.15.1.3.2.44.31.02-.31.02-.62.01-.93ZM24.94,53.28c-.14,0-.28,0-.42.01-.16,0-.31.02-.47.04,0,.1-.02.19-.03.28.16.09.31.19.47.29.15.1.3.2.44.31.02-.31.02-.62.01-.93ZM24.94,53.28c-.14,0-.28,0-.42.01-.16,0-.31.02-.47.04,0,.1-.02.19-.03.28.16.09.31.19.47.29.15.1.3.2.44.31.02-.31.02-.62.01-.93ZM24.94,53.28c-.14,0-.28,0-.42.01-.16,0-.31.02-.47.04,0,.1-.02.19-.03.28.16.09.31.19.47.29.15.1.3.2.44.31.02-.31.02-.62.01-.93ZM24.94,53.28c-.14,0-.28,0-.42.01-.16,0-.31.02-.47.04,0,.1-.02.19-.03.28.16.09.31.19.47.29.15.1.3.2.44.31.02-.31.02-.62.01-.93ZM24.94,53.28c-.14,0-.28,0-.42.01-.16,0-.31.02-.47.04,0,.1-.02.19-.03.28.16.09.31.19.47.29.15.1.3.2.44.31.02-.31.02-.62.01-.93ZM18.74,55.81c-.03-.09-.05-.18-.08-.27-.05-.18-.09-.36-.12-.54-.16.13-.31.27-.45.41.12.11.24.21.36.31.09.08.18.15.27.22h0s.06.05.09.07c-.02-.07-.04-.13-.06-.2ZM21.86,58.68c-.09.03-.18.06-.27.08.06.07.12.15.19.22.07-.09.15-.18.22-.27.02-.03.05-.06.07-.1-.07.02-.14.05-.21.06ZM23.02,54.36c-.42-.2-.85-.37-1.29-.52-.45.16-.89.35-1.31.56-.2.42-.37.85-.52,1.29h0c.16.45.35.89.56,1.31.42.2.85.37,1.29.52h0c.45-.16.88-.35,1.3-.56.2-.42.37-.85.52-1.29h0c-.16-.45-.35-.88-.56-1.3ZM24.14,58.46c0-.16-.02-.32-.04-.47,0-.12-.02-.24-.04-.35,0-.04,0-.07-.01-.11-.03.06-.06.12-.09.18-.05.09-.09.17-.14.25-.09.16-.19.32-.29.47-.1.15-.2.3-.31.44.31.02.62.02.94.01,0-.14,0-.28-.01-.42ZM24.94,53.28c-.14,0-.28,0-.42.01-.16,0-.31.02-.47.04-.12,0-.23.02-.35.04-.03,0-.07,0-.11.01.06.03.12.06.17.09.08.05.17.09.25.14.16.09.31.19.47.29.15.1.3.2.44.31.02-.31.02-.62.01-.93ZM24.94,53.28c-.14,0-.28,0-.42.01-.16,0-.31.02-.47.04,0,.1-.02.19-.03.28.16.09.31.19.47.29.15.1.3.2.44.31.02-.31.02-.62.01-.93ZM24.94,53.28c-.14,0-.28,0-.42.01-.16,0-.31.02-.47.04,0,.1-.02.19-.03.28.16.09.31.19.47.29.15.1.3.2.44.31.02-.31.02-.62.01-.93Z"/>
                <path class="cls-19" d="M32.52,65.83c-.17.34-.36.67-.58.99h0c-.18.27-.37.53-.59.78h0c-.05.07-.1.12-.15.19-1.91,2.19-4.59,3.1-7.2,2.96,1.21-.75,2.24-1.78,3.02-2.98.06-.08.11-.17.16-.25.06-.09.11-.18.16-.27.85-1.49,1.34-3.2,1.36-4.99,0-.02,0-.05,0-.07v-.06c0-1.36-.27-2.75-.85-4.12-.02-.06-.05-.11-.07-.17,0,0,0-.02-.01-.02-.03-.07-.06-.13-.09-.2-.38-.79-.83-1.49-1.35-2.09-.08-.1-.17-.19-.25-.28-.09-.1-.19-.2-.28-.29-.27-.27-.56-.52-.86-.74.02-.31.02-.62.01-.93.67,0,1.33.07,1.99.22.09.02.18.04.27.06.04.01.08.02.12.03.05.01.09.02.13.04,1.4.39,2.57,1.08,3.5,1.98.02.02.03.03.05.04.02.02.03.03.05.05,1.26,1.26,2.05,2.9,2.33,4.64.02.09.03.17.04.26.01.09.02.18.03.27.17,1.67-.12,3.4-.91,4.97Z"/>
                <path class="cls-17" d="M19.42,53.72s0,.07.01.11c.03-.06.06-.12.1-.18-.04.02-.07.05-.11.07ZM18.54,55c-.04-.17-.07-.35-.09-.54-.24.21-.46.42-.67.65h0c.1.11.2.2.31.3.12.11.24.21.36.31.07-.06.15-.12.22-.18-.05-.18-.09-.36-.12-.54Z"/>
              </g>
            </g>
            <g id="_Radial_Repeat_-3" data-name="&amp;lt;Radial Repeat&amp;gt;">
              <g>
                <path class="cls-19" d="M18.74,55.81c-.03-.09-.05-.18-.08-.27-.05-.18-.09-.36-.12-.54-.04-.17-.07-.35-.09-.54-.24.21-.46.42-.67.65h0c.1.11.2.2.31.3.12.11.24.21.36.31.09.08.18.15.27.22h0s.06.05.09.07c-.02-.07-.04-.13-.06-.2ZM19.34,52.9c0,.16.02.32.04.47,0,.12.02.23.04.35,0,.04,0,.07.01.11.03-.06.06-.12.1-.18.04-.08.09-.17.13-.25.09-.16.19-.32.29-.47-.2-.02-.41-.03-.61-.03ZM21.86,58.68c-.09.03-.18.06-.27.08.06.07.12.15.19.22.07-.09.15-.18.22-.27.02-.03.05-.06.07-.1-.07.02-.14.05-.21.06ZM23.02,54.36c-.42-.2-.85-.37-1.29-.52-.45.16-.89.35-1.31.56-.2.42-.37.85-.52,1.29h0c.16.45.35.89.56,1.31.42.2.85.37,1.29.52h0c.45-.16.88-.35,1.3-.56.2-.42.37-.85.52-1.29h0c-.16-.45-.35-.88-.56-1.3ZM24.14,58.46c0-.16-.02-.32-.04-.47,0-.12-.02-.24-.04-.35,0-.04,0-.07-.01-.11-.03.06-.06.12-.09.18-.05.09-.09.17-.14.25-.09.16-.19.32-.29.47-.1.15-.2.3-.31.44.31.02.62.02.94.01,0-.14,0-.28-.01-.42Z"/>
                <path class="cls-17" d="M19.33,52.48c0,.14,0,.28.01.42,0,.16.02.32.04.47.1,0,.19.02.28.03.09-.16.19-.32.29-.47.1-.15.2-.3.31-.44-.31-.02-.62-.02-.93-.01ZM21.48,52.65s-.05.06-.07.1c.07-.02.13-.05.2-.07-.05-.01-.09-.02-.13-.03Z"/>
              </g>
            </g>
            <g id="_Radial_Repeat_-4" data-name="&amp;lt;Radial Repeat&amp;gt;">
              <g>
                <path class="cls-19" d="M24.14,58.46c0-.16-.02-.32-.04-.47,0-.12-.02-.24-.04-.35,0-.04,0-.07-.01-.11-.03.06-.06.12-.09.18-.05.09-.09.17-.14.25-.09.16-.19.32-.29.47-.1.15-.2.3-.31.44.31.02.62.02.94.01,0-.14,0-.28-.01-.42ZM24.14,58.46c0-.16-.02-.32-.04-.47,0-.12-.02-.24-.04-.35,0-.04,0-.07-.01-.11-.03.06-.06.12-.09.18-.05.09-.09.17-.14.25-.09.16-.19.32-.29.47-.1.15-.2.3-.31.44.31.02.62.02.94.01,0-.14,0-.28-.01-.42ZM24.14,58.46c0-.16-.02-.32-.04-.47,0-.12-.02-.24-.04-.35,0-.04,0-.07-.01-.11-.03.06-.06.12-.09.18-.05.09-.09.17-.14.25-.09.16-.19.32-.29.47-.1.15-.2.3-.31.44.31.02.62.02.94.01,0-.14,0-.28-.01-.42ZM18.74,55.81c-.03-.09-.05-.18-.08-.27-.05-.18-.09-.36-.12-.54-.04-.17-.07-.35-.09-.54-.24.21-.46.42-.67.65h0c.1.11.2.2.31.3.12.11.24.21.36.31.09.08.18.15.27.22h0s.06.05.09.07c-.02-.07-.04-.13-.06-.2ZM19.33,52.48c0,.14,0,.28.01.42,0,.16.02.32.04.47,0,.12.02.23.04.35,0,.04,0,.07.01.11.03-.06.06-.12.1-.18.04-.08.09-.17.13-.25.09-.16.19-.32.29-.47.1-.15.2-.3.31-.44-.31-.02-.62-.02-.93-.01ZM21.86,58.68c-.09.03-.18.06-.27.08.06.07.12.15.19.22.07-.09.15-.18.22-.27.02-.03.05-.06.07-.1-.07.02-.14.05-.21.06ZM23.02,54.36c-.42-.2-.85-.37-1.29-.52-.45.16-.89.35-1.31.56-.2.42-.37.85-.52,1.29h0c.16.45.35.89.56,1.31.42.2.85.37,1.29.52h0c.45-.16.88-.35,1.3-.56.2-.42.37-.85.52-1.29h0c-.16-.45-.35-.88-.56-1.3ZM24.14,58.46c0-.16-.02-.32-.04-.47,0-.12-.02-.24-.04-.35,0-.04,0-.07-.01-.11-.03.06-.06.12-.09.18-.05.09-.09.17-.14.25-.09.16-.19.32-.29.47-.1.15-.2.3-.31.44.31.02.62.02.94.01,0-.14,0-.28-.01-.42ZM22.01,52.02c-.11.12-.21.24-.31.36-.07.09-.15.18-.22.27-.02.03-.05.06-.07.1.07-.02.13-.05.2-.07h0c.09-.03.18-.06.27-.08.17-.05.35-.09.53-.12-.13-.16-.27-.31-.41-.45ZM24.14,58.46c0-.16-.02-.32-.04-.47,0-.12-.02-.24-.04-.35,0-.04,0-.07-.01-.11-.03.06-.06.12-.09.18-.05.09-.09.17-.14.25-.09.16-.19.32-.29.47-.1.15-.2.3-.31.44.31.02.62.02.94.01,0-.14,0-.28-.01-.42ZM24.14,58.46c0-.16-.02-.32-.04-.47,0-.12-.02-.24-.04-.35,0-.04,0-.07-.01-.11-.03.06-.06.12-.09.18-.05.09-.09.17-.14.25-.09.16-.19.32-.29.47-.1.15-.2.3-.31.44.31.02.62.02.94.01,0-.14,0-.28-.01-.42ZM24.14,58.46c0-.16-.02-.32-.04-.47,0-.12-.02-.24-.04-.35,0-.04,0-.07-.01-.11-.03.06-.06.12-.09.18-.05.09-.09.17-.14.25-.09.16-.19.32-.29.47-.1.15-.2.3-.31.44.31.02.62.02.94.01,0-.14,0-.28-.01-.42Z"/>
                <path class="cls-19" d="M24.15,58.88c0,.66-.07,1.33-.22,1.98-.02.09-.04.18-.06.27-.01.04-.02.08-.03.12-.01.05-.02.09-.04.13-.39,1.4-1.09,2.58-1.98,3.5-.01.02-.02.03-.04.04-.02.02-.03.04-.05.05-1.26,1.27-2.89,2.05-4.63,2.33-.09.02-.17.03-.27.04-.09.01-.17.02-.26.03h0c-1.67.17-3.4-.12-4.97-.91-.34-.17-.67-.36-.99-.58-.27-.18-.53-.38-.78-.6-.06-.05-.12-.1-.19-.16-2.19-1.91-3.1-4.59-2.96-7.2.76,1.22,1.79,2.25,2.99,3.03.08.06.17.11.25.16.09.06.18.11.27.16,1.48.85,3.2,1.34,4.99,1.36.02,0,.05,0,.07,0h.06c1.36,0,2.75-.27,4.12-.85.06-.02.11-.05.17-.07,0,0,.02,0,.03-.01.07-.03.13-.06.19-.09.79-.38,1.49-.84,2.09-1.35.1-.08.19-.17.28-.25.1-.09.2-.19.29-.28.27-.27.52-.56.74-.85.31.02.62.02.94.01Z"/>
                <path class="cls-17" d="M23.7,53.37s-.07,0-.11.01c.06.03.12.06.17.09-.02-.03-.04-.07-.07-.1ZM22.3,51.71c-.1.1-.2.2-.3.31-.11.12-.21.24-.31.36.07.07.12.15.19.22.17-.05.35-.09.53-.12.18-.04.36-.07.54-.09-.21-.24-.42-.46-.65-.67Z"/>
                <path class="cls-17" d="M37.76,55.48h0c.69-2.21.55-4.72-.7-7.14-1.04-1.93-2.49-3.3-4.14-4.13-1.07-2.05-2.95-3.72-5.54-4.56-2.1-.63-4.09-.57-5.85,0-2.21-.69-4.71-.55-7.14.7-1.94,1.04-3.3,2.49-4.14,4.14-2.04,1.07-3.72,2.95-4.55,5.54-.63,2.1-.57,4.1,0,5.85-.69,2.21-.55,4.72.7,7.14,1.04,1.93,2.49,3.3,4.14,4.13,1.07,2.05,2.95,3.72,5.54,4.55,2.1.63,4.09.57,5.85,0h0c2.21.68,4.71.55,7.13-.7,1.94-1.04,3.3-2.49,4.13-4.14,2.05-1.07,3.72-2.95,4.55-5.54.63-2.1.57-4.09,0-5.84ZM31.89,44.9c.34.17.67.36.99.58.27.18.53.38.78.6.06.05.12.1.18.16,2.19,1.91,3.1,4.59,2.96,7.2-.76-1.22-1.79-2.25-2.99-3.03h0c-.08-.06-.17-.11-.25-.16-.09-.06-.18-.11-.27-.16-1.48-.85-3.2-1.34-4.99-1.36-.02,0-.05,0-.07,0h-.06c-1.36,0-2.76.27-4.12.85-.06.02-.11.05-.17.07,0,0-.02,0-.03.01-.06.03-.12.06-.19.09-.79.37-1.49.83-2.09,1.35-.1.08-.19.17-.28.25-.1.09-.2.19-.29.28-.27.27-.52.56-.74.86-.11.15-.21.29-.31.44-.1.15-.2.31-.29.47-.05.08-.09.17-.13.25-.03.06-.06.12-.1.18,0-.04-.01-.07-.01-.11-.02-.12-.03-.23-.04-.35-.02-.15-.03-.31-.04-.47,0-.14-.01-.28-.01-.42,0-.67.07-1.33.22-1.99.02-.09.04-.18.06-.27.01-.04.02-.08.03-.12.01-.05.02-.09.04-.13.39-1.4,1.08-2.57,1.98-3.5.01-.02.02-.03.04-.05.02-.02.04-.03.05-.05,1.26-1.26,2.9-2.05,4.64-2.33.09-.02.17-.03.27-.04.09-.01.17-.02.26-.03,1.67-.17,3.4.12,4.97.91ZM21.72,53.85c.44.15.87.32,1.29.52.22.42.4.85.56,1.3h0c-.15.45-.32.88-.52,1.3-.42.22-.85.4-1.3.56h0c-.45-.15-.88-.32-1.29-.52-.22-.42-.4-.85-.56-1.3h0c.15-.45.32-.88.52-1.29.42-.22.86-.4,1.31-.56ZM22.41,40.59c.32-.06.64-.11.97-.13.08-.01.16-.02.24-.02,2.9-.2,5.43,1.05,7.18,3-1.39-.32-2.84-.32-4.24-.02-.1.02-.2.04-.3.07-.1.02-.2.05-.3.07-1.65.45-3.21,1.32-4.49,2.57-.02.01-.03.03-.05.05-.01.01-.02.03-.04.04-.96.96-1.76,2.13-2.31,3.51-.02.05-.05.11-.07.17,0,.01,0,.02-.01.03-.02.07-.05.13-.07.2-.3.82-.46,1.64-.52,2.43-.01.12-.02.25-.02.37,0,.14-.01.27,0,.41,0,.38.03.75.08,1.12.02.18.05.36.09.54.03.18.08.36.12.54.03.09.05.18.08.27.02.07.04.13.06.2-.03-.02-.06-.04-.09-.07h0c-.1-.07-.18-.14-.27-.22-.12-.1-.24-.2-.36-.31-.1-.09-.21-.19-.31-.29h0c-.48-.47-.89-.99-1.25-1.56-.05-.08-.1-.16-.15-.24-.02-.03-.04-.07-.06-.1-.02-.04-.05-.08-.06-.12-.72-1.27-1.06-2.59-1.08-3.88,0-.02,0-.04,0-.06v-.07c0-1.78.6-3.5,1.63-4.92.05-.07.1-.14.16-.21.05-.07.1-.14.16-.21,1.06-1.3,2.49-2.32,4.16-2.87.36-.12.74-.22,1.12-.29ZM10.96,45.53c.17-.34.36-.67.58-.99.18-.27.37-.52.59-.77.05-.06.1-.12.16-.19,1.91-2.19,4.59-3.1,7.2-2.96-1.21.75-2.24,1.78-3.03,2.98-.06.08-.11.17-.16.25-.05.09-.11.18-.16.27-.85,1.49-1.34,3.2-1.36,4.99,0,.02,0,.05,0,.07v.06c0,1.36.27,2.75.85,4.12.02.06.05.11.07.17,0,0,0,.02.01.03.03.07.06.13.09.2.38.79.84,1.48,1.35,2.08.08.1.17.19.25.28.09.1.18.2.28.29.27.27.56.52.86.74.15.11.29.21.44.31.15.1.31.2.47.28.08.05.17.1.26.14.06.03.11.06.17.09-.04,0-.07.01-.1.01-.12.02-.24.03-.35.04-.15.02-.31.03-.47.04-.14,0-.28.01-.42.01-.67,0-1.33-.07-1.99-.22-.09-.02-.18-.04-.27-.06-.04-.01-.08-.02-.12-.03-.05-.01-.09-.02-.13-.04-1.4-.39-2.57-1.08-3.5-1.98-.02-.01-.03-.03-.05-.04l-.05-.05c-1.26-1.26-2.06-2.9-2.33-4.64-.02-.09-.03-.18-.04-.27-.01-.09-.02-.17-.03-.26-.17-1.67.12-3.41.92-4.98ZM6.52,54.05c-.01-.08-.02-.17-.02-.25-.2-2.9,1.05-5.44,3-7.19-.32,1.39-.32,2.85-.02,4.25.02.1.04.2.07.3.02.1.05.2.07.3.45,1.65,1.32,3.21,2.57,4.49.01.02.03.03.05.05.01.02.03.03.04.05.96.96,2.13,1.75,3.51,2.31.05.02.11.05.17.07.01,0,.02,0,.03.01.07.02.13.05.2.07.83.3,1.64.46,2.43.52.12.01.25.02.37.02.13,0,.27.01.4,0,.38,0,.76-.03,1.12-.08.18-.02.36-.05.54-.09.18-.03.36-.08.53-.12.09-.02.18-.05.27-.08.07-.02.14-.04.21-.06-.02.03-.05.06-.07.1-.07.09-.14.18-.22.27-.1.12-.2.24-.31.36-.1.11-.19.21-.3.31-.47.47-.99.89-1.56,1.25-.07.05-.15.1-.23.14-.03.02-.07.04-.11.06-.04.02-.07.04-.11.06-1.27.72-2.59,1.06-3.88,1.08-.02,0-.04,0-.06,0h-.07c-1.78,0-3.5-.6-4.92-1.63-.07-.05-.15-.1-.21-.16-.07-.05-.15-.11-.21-.16-1.3-1.06-2.32-2.5-2.87-4.17-.12-.36-.22-.73-.29-1.11-.07-.32-.11-.64-.13-.97ZM11.59,66.47c-.34-.17-.67-.36-.99-.58-.27-.18-.53-.38-.78-.6-.06-.05-.12-.1-.19-.16-2.19-1.91-3.1-4.59-2.96-7.2.76,1.22,1.79,2.25,2.99,3.03.08.06.17.11.25.16.09.06.18.11.27.16,1.48.85,3.2,1.34,4.99,1.36.02,0,.05,0,.07,0h.06c1.36,0,2.75-.27,4.12-.85.06-.02.11-.05.17-.07,0,0,.02,0,.03-.01.07-.03.13-.06.19-.09.79-.38,1.49-.84,2.09-1.35.1-.08.19-.17.28-.25.1-.09.2-.19.29-.28.27-.27.52-.56.74-.85.11-.15.22-.29.31-.44.1-.15.2-.31.29-.47.05-.08.1-.17.14-.25.03-.06.06-.12.09-.18,0,.04,0,.07.01.11.02.12.03.23.04.35.02.15.03.31.04.47,0,.14.01.28.01.42,0,.66-.07,1.33-.22,1.98-.02.09-.04.18-.06.27-.01.04-.02.08-.03.12-.01.05-.02.09-.04.13-.39,1.4-1.09,2.58-1.98,3.5-.01.02-.02.03-.04.04-.02.02-.03.04-.05.05-1.26,1.27-2.89,2.05-4.63,2.33-.09.02-.17.03-.27.04-.09.01-.17.02-.26.03h0c-1.67.17-3.4-.12-4.97-.91ZM21.07,70.77c-.32.06-.64.11-.97.13-.08.01-.16.02-.24.02-2.9.2-5.44-1.05-7.18-3,1.39.32,2.84.32,4.24.02h0c.1-.02.2-.04.29-.07.1-.02.2-.05.3-.07,1.65-.45,3.21-1.32,4.5-2.57.01-.02.03-.03.05-.05.01-.01.02-.03.04-.04.96-.96,1.76-2.13,2.31-3.52.02-.05.05-.11.07-.17,0,0,0-.02,0-.03.03-.07.05-.14.07-.2.3-.82.46-1.64.52-2.43.01-.12.02-.25.02-.37,0-.14,0-.27,0-.41,0-.38-.03-.76-.08-1.12-.02-.18-.05-.36-.09-.53-.03-.18-.08-.36-.12-.54-.02-.09-.05-.18-.08-.27-.02-.07-.04-.13-.06-.2.03.02.06.04.09.07.1.07.19.14.28.22.12.1.24.2.36.31.11.09.21.19.31.3.47.47.89.99,1.25,1.55.05.08.1.16.14.24.02.03.04.07.06.1.02.04.05.08.06.12.72,1.27,1.06,2.59,1.08,3.87,0,.02,0,.04,0,.06v.07c0,1.78-.6,3.5-1.63,4.93-.05.07-.1.15-.16.21-.05.07-.1.14-.16.21-1.06,1.3-2.49,2.32-4.16,2.87-.36.12-.74.22-1.12.29ZM32.52,65.83c-.17.34-.36.67-.58.99h0c-.18.27-.37.53-.59.78h0c-.05.07-.1.12-.15.19-1.91,2.19-4.59,3.1-7.2,2.96,1.21-.75,2.24-1.78,3.02-2.98.06-.08.11-.17.16-.25.06-.09.11-.18.16-.27.85-1.49,1.34-3.2,1.36-4.99,0-.02,0-.05,0-.07v-.06c0-1.36-.27-2.75-.85-4.12-.02-.06-.05-.11-.07-.17,0,0,0-.02-.01-.02-.03-.07-.06-.13-.09-.2-.38-.79-.83-1.49-1.35-2.09-.08-.1-.17-.19-.25-.28-.09-.1-.19-.2-.28-.29-.27-.27-.56-.52-.86-.74-.15-.11-.29-.21-.44-.31-.15-.1-.31-.2-.47-.29-.08-.05-.17-.1-.25-.14-.06-.03-.12-.06-.17-.09.04,0,.07-.01.11-.01.12-.02.23-.03.35-.04.15-.02.31-.03.47-.04.14,0,.28-.01.42-.01.67,0,1.33.07,1.99.22.09.02.18.04.27.06.04.01.08.02.12.03.05.01.09.02.13.04,1.4.39,2.57,1.08,3.5,1.98.02.02.03.03.05.04.02.02.03.03.05.05,1.26,1.26,2.05,2.9,2.33,4.64.02.09.03.17.04.26.01.09.02.18.03.27.17,1.67-.12,3.4-.91,4.97ZM33.98,64.74c.32-1.39.32-2.85.03-4.25-.02-.1-.05-.2-.07-.3-.02-.1-.05-.2-.07-.3-.45-1.65-1.32-3.21-2.57-4.49-.02-.01-.03-.03-.05-.05-.02-.01-.03-.03-.05-.04-.96-.96-2.13-1.76-3.51-2.31-.05-.02-.11-.05-.17-.07,0,0-.02,0-.03-.01-.07-.02-.14-.05-.2-.07-.82-.3-1.64-.47-2.43-.52-.12-.01-.25-.02-.37-.02-.14,0-.27,0-.4,0-.38,0-.76.03-1.12.08-.18.02-.36.05-.54.09-.18.04-.36.08-.53.12-.09.02-.18.05-.27.08h0c-.07.02-.13.04-.2.07.02-.03.05-.06.07-.1.07-.09.14-.18.22-.27.1-.12.2-.24.31-.36.1-.11.19-.21.3-.31.47-.47.99-.89,1.56-1.25.07-.05.15-.1.23-.14.03-.02.07-.05.11-.07.04-.02.07-.04.11-.06,1.27-.72,2.59-1.06,3.88-1.08.02,0,.04,0,.06,0h.07c1.78,0,3.5.6,4.92,1.63.07.05.14.1.21.16.07.05.14.11.21.16,1.3,1.06,2.32,2.5,2.87,4.17h0c.12.36.22.74.29,1.12.06.32.11.64.13.97h0c0,.08.01.16.02.25.2,2.9-1.05,5.44-3,7.18Z"/>
              </g>
            </g>
            <g id="_Radial_Repeat_-5" data-name="&amp;lt;Radial Repeat&amp;gt;">
              <g>
                <path class="cls-19" d="M21.86,58.68c-.09.03-.18.06-.27.08.06.07.12.15.19.22.07-.09.15-.18.22-.27.02-.03.05-.06.07-.1-.07.02-.14.05-.21.06ZM21.86,58.68c-.09.03-.18.06-.27.08.06.07.12.15.19.22.07-.09.15-.18.22-.27.02-.03.05-.06.07-.1-.07.02-.14.05-.21.06ZM21.86,58.68c-.09.03-.18.06-.27.08.06.07.12.15.19.22.07-.09.15-.18.22-.27.02-.03.05-.06.07-.1-.07.02-.14.05-.21.06ZM21.86,58.68c-.09.03-.18.06-.27.08.06.07.12.15.19.22.07-.09.15-.18.22-.27.02-.03.05-.06.07-.1-.07.02-.14.05-.21.06ZM21.86,58.68c-.09.03-.18.06-.27.08.06.07.12.15.19.22.07-.09.15-.18.22-.27.02-.03.05-.06.07-.1-.07.02-.14.05-.21.06ZM21.86,58.68c-.09.03-.18.06-.27.08.06.07.12.15.19.22.07-.09.15-.18.22-.27.02-.03.05-.06.07-.1-.07.02-.14.05-.21.06ZM21.86,58.68c-.09.03-.18.06-.27.08.06.07.12.15.19.22.07-.09.15-.18.22-.27.02-.03.05-.06.07-.1-.07.02-.14.05-.21.06ZM21.86,58.68c-.09.03-.18.06-.27.08.06.07.12.15.19.22.07-.09.15-.18.22-.27.02-.03.05-.06.07-.1-.07.02-.14.05-.21.06ZM21.86,58.68c-.09.03-.18.06-.27.08.06.07.12.15.19.22.07-.09.15-.18.22-.27.02-.03.05-.06.07-.1-.07.02-.14.05-.21.06ZM21.86,58.68c-.09.03-.18.06-.27.08.06.07.12.15.19.22.07-.09.15-.18.22-.27.02-.03.05-.06.07-.1-.07.02-.14.05-.21.06ZM21.86,58.68c-.09.03-.18.06-.27.08.06.07.12.15.19.22.07-.09.15-.18.22-.27.02-.03.05-.06.07-.1-.07.02-.14.05-.21.06ZM18.74,55.81c-.03-.09-.05-.18-.08-.27-.05-.18-.09-.36-.12-.54-.04-.17-.07-.35-.09-.54-.24.21-.46.42-.67.65h0c.1.11.2.2.31.3.12.11.24.21.36.31.09.08.18.15.27.22h0s.06.05.09.07c-.02-.07-.04-.13-.06-.2ZM19.33,52.48c0,.14,0,.28.01.42,0,.16.02.32.04.47,0,.12.02.23.04.35,0,.04,0,.07.01.11.03-.06.06-.12.1-.18.04-.08.09-.17.13-.25.09-.16.19-.32.29-.47.1-.15.2-.3.31-.44-.31-.02-.62-.02-.93-.01ZM21.86,58.68c-.09.03-.18.06-.27.08.06.07.12.15.19.22.07-.09.15-.18.22-.27.02-.03.05-.06.07-.1-.07.02-.14.05-.21.06ZM23.02,54.36c-.42-.2-.85-.37-1.29-.52-.45.16-.89.35-1.31.56-.2.42-.37.85-.52,1.29h0c.16.45.35.89.56,1.31.42.2.85.37,1.29.52h0c.45-.16.88-.35,1.3-.56.2-.42.37-.85.52-1.29h0c-.16-.45-.35-.88-.56-1.3ZM21.86,58.68c-.09.03-.18.06-.27.08.06.07.12.15.19.22.07-.09.15-.18.22-.27.02-.03.05-.06.07-.1-.07.02-.14.05-.21.06ZM21.86,58.68c-.09.03-.18.06-.27.08.06.07.12.15.19.22.07-.09.15-.18.22-.27.02-.03.05-.06.07-.1-.07.02-.14.05-.21.06ZM24.05,53.32c-.12,0-.23.02-.35.04-.03,0-.07,0-.11.01.06.03.12.06.17.09.08.05.17.09.25.14.16.09.31.19.47.29.02-.2.03-.4.03-.61-.16,0-.31.02-.47.04ZM21.86,58.68c-.09.03-.18.06-.27.08.06.07.12.15.19.22.07-.09.15-.18.22-.27.02-.03.05-.06.07-.1-.07.02-.14.05-.21.06ZM22.3,51.71c-.1.1-.2.2-.3.31-.11.12-.21.24-.31.36-.07.09-.15.18-.22.27-.02.03-.05.06-.07.1.07-.02.13-.05.2-.07h0c.09-.03.18-.06.27-.08.17-.05.35-.09.53-.12.18-.04.36-.07.54-.09-.21-.24-.42-.46-.65-.67ZM21.86,58.68c-.09.03-.18.06-.27.08.06.07.12.15.19.22.07-.09.15-.18.22-.27.02-.03.05-.06.07-.1-.07.02-.14.05-.21.06ZM21.86,58.68c-.09.03-.18.06-.27.08.06.07.12.15.19.22.07-.09.15-.18.22-.27.02-.03.05-.06.07-.1-.07.02-.14.05-.21.06ZM21.86,58.68c-.09.03-.18.06-.27.08.06.07.12.15.19.22.07-.09.15-.18.22-.27.02-.03.05-.06.07-.1-.07.02-.14.05-.21.06ZM21.86,58.68c-.09.03-.18.06-.27.08.06.07.12.15.19.22.07-.09.15-.18.22-.27.02-.03.05-.06.07-.1-.07.02-.14.05-.21.06ZM21.86,58.68c-.09.03-.18.06-.27.08.06.07.12.15.19.22.07-.09.15-.18.22-.27.02-.03.05-.06.07-.1-.07.02-.14.05-.21.06ZM21.86,58.68c-.09.03-.18.06-.27.08.06.07.12.15.19.22.07-.09.15-.18.22-.27.02-.03.05-.06.07-.1-.07.02-.14.05-.21.06ZM21.86,58.68c-.09.03-.18.06-.27.08.06.07.12.15.19.22.07-.09.15-.18.22-.27.02-.03.05-.06.07-.1-.07.02-.14.05-.21.06ZM21.86,58.68c-.09.03-.18.06-.27.08.06.07.12.15.19.22.07-.09.15-.18.22-.27.02-.03.05-.06.07-.1-.07.02-.14.05-.21.06Z"/>
                <path class="cls-19" d="M21.78,58.98c-.1.12-.2.24-.31.36-.1.11-.19.21-.3.31-.47.47-.99.89-1.56,1.25-.07.05-.15.1-.23.14-.03.02-.07.04-.11.06-.04.02-.07.04-.11.06-1.27.72-2.59,1.06-3.88,1.08-.02,0-.04,0-.06,0h-.07c-1.78,0-3.5-.6-4.92-1.63-.07-.05-.15-.1-.21-.16-.07-.05-.15-.11-.21-.16-1.3-1.06-2.32-2.5-2.87-4.17-.12-.36-.22-.73-.29-1.11-.07-.32-.11-.64-.13-.97-.01-.08-.02-.17-.02-.25-.2-2.9,1.05-5.44,3-7.19-.32,1.39-.32,2.85-.02,4.25.02.1.04.2.07.3.02.1.05.2.07.3.45,1.65,1.32,3.21,2.57,4.49.01.02.03.03.05.05.01.02.03.03.04.05.96.96,2.13,1.75,3.51,2.31.05.02.11.05.17.07.01,0,.02,0,.03.01.07.02.13.05.2.07.83.3,1.64.46,2.43.52.12.01.25.02.37.02.13,0,.27.01.4,0,.38,0,.76-.03,1.12-.08.18-.02.36-.05.54-.09.18-.03.36-.08.53-.12.06.07.12.15.19.22Z"/>
                <path class="cls-17" d="M24.94,53.28c-.14,0-.28,0-.42.01-.16,0-.31.02-.47.04,0,.1-.02.19-.03.28.16.09.31.19.47.29.15.1.3.2.44.31.02-.31.02-.62.01-.93Z"/>
              </g>
            </g>
            <g id="_Radial_Repeat_-6" data-name="&amp;lt;Radial Repeat&amp;gt;">
              <g>
                <path class="cls-19" d="M23.02,54.36c-.42-.2-.85-.37-1.29-.52-.45.16-.89.35-1.31.56-.2.42-.37.85-.52,1.29h0c.16.45.35.89.56,1.31.42.2.85.37,1.29.52h0c.45-.16.88-.35,1.3-.56.2-.42.37-.85.52-1.29h0c-.16-.45-.35-.88-.56-1.3ZM19.33,52.48c0,.14,0,.28.01.42,0,.16.02.32.04.47,0,.12.02.23.04.35,0,.04,0,.07.01.11.03-.06.06-.12.1-.18.04-.08.09-.17.13-.25.09-.16.19-.32.29-.47.1-.15.2-.3.31-.44-.31-.02-.62-.02-.93-.01ZM18.74,55.81c-.03-.09-.05-.18-.08-.27-.05-.18-.09-.36-.12-.54-.04-.17-.07-.35-.09-.54-.24.21-.46.42-.67.65h0c.1.11.2.2.31.3.12.11.24.21.36.31.09.08.18.15.27.22h0s.06.05.09.07c-.02-.07-.04-.13-.06-.2ZM24.94,53.28c-.14,0-.28,0-.42.01-.16,0-.31.02-.47.04-.12,0-.23.02-.35.04-.03,0-.07,0-.11.01.06.03.12.06.17.09.08.05.17.09.25.14.16.09.31.19.47.29.15.1.3.2.44.31.02-.31.02-.62.01-.93ZM22.3,51.71c-.1.1-.2.2-.3.31-.11.12-.21.24-.31.36-.07.09-.15.18-.22.27-.02.03-.05.06-.07.1.07-.02.13-.05.2-.07h0c.09-.03.18-.06.27-.08.17-.05.35-.09.53-.12.18-.04.36-.07.54-.09-.21-.24-.42-.46-.65-.67Z"/>
                <path class="cls-19" d="M19.89,57.99s-.07.01-.1.01c-.12.02-.24.03-.35.04-.15.02-.31.03-.47.04-.14,0-.28.01-.42.01-.67,0-1.33-.07-1.99-.22-.09-.02-.18-.04-.27-.06-.04-.01-.08-.02-.12-.03-.05-.01-.09-.02-.13-.04-1.4-.39-2.57-1.08-3.5-1.98-.02-.01-.03-.03-.05-.04l-.05-.05c-1.26-1.26-2.06-2.9-2.33-4.64-.02-.09-.03-.18-.04-.27-.01-.09-.02-.17-.03-.26-.17-1.67.12-3.41.92-4.98.17-.34.36-.67.58-.99.18-.27.37-.52.59-.77.05-.06.1-.12.16-.19,1.91-2.19,4.59-3.1,7.2-2.96-1.21.75-2.24,1.78-3.03,2.98-.06.08-.11.17-.16.25-.05.09-.11.18-.16.27-.85,1.49-1.34,3.2-1.36,4.99,0,.02,0,.05,0,.07v.06c0,1.36.27,2.75.85,4.12.02.06.05.11.07.17,0,0,0,.02.01.03.03.07.06.13.09.2.38.79.84,1.48,1.35,2.08.08.1.17.19.25.28.09.1.18.2.28.29.27.27.56.52.86.74.15.11.29.21.44.31.15.1.31.2.47.28.08.05.17.1.26.14.06.03.11.06.17.09Z"/>
                <path class="cls-17" d="M24.05,57.53c-.03.06-.06.12-.09.18.04-.02.07-.05.1-.07,0-.04,0-.07-.01-.11Z"/>
              </g>
            </g>
            <g id="_Radial_Repeat_-7" data-name="&amp;lt;Radial Repeat&amp;gt;">
              <g>
                <g>
                  <path class="cls-18" d="M23.02,54.36c-.42-.2-.85-.37-1.29-.52-.45.16-.89.35-1.31.56-.2.42-.37.85-.52,1.29h0c.16.45.35.89.56,1.31.42.2.85.37,1.29.52h0c.45-.16.88-.35,1.3-.56.2-.42.37-.85.52-1.29h0c-.16-.45-.35-.88-.56-1.3ZM19.33,52.48c0,.14,0,.28.01.42,0,.16.02.32.04.47,0,.12.02.23.04.35,0,.04,0,.07.01.11.03-.06.06-.12.1-.18.04-.08.09-.17.13-.25.09-.16.19-.32.29-.47.1-.15.2-.3.31-.44-.31-.02-.62-.02-.93-.01ZM18.74,55.81c-.03-.09-.05-.18-.08-.27-.05-.18-.09-.36-.12-.54-.04-.17-.07-.35-.09-.54-.24.21-.46.42-.67.65h0c.1.11.2.2.31.3.12.11.24.21.36.31.09.08.18.15.27.22h0s.06.05.09.07c-.02-.07-.04-.13-.06-.2ZM21.7,52.38c-.07.09-.15.18-.22.27-.02.03-.05.06-.07.1.07-.02.13-.05.2-.07h0c.09-.03.18-.06.27-.08-.06-.07-.12-.15-.19-.22ZM18.74,55.81c-.03-.09-.05-.18-.08-.27-.05-.18-.09-.36-.12-.54-.04-.17-.07-.35-.09-.54-.24.21-.46.42-.67.65h0c.1.11.2.2.31.3.12.11.24.21.36.31.09.08.18.15.27.22h0s.06.05.09.07c-.02-.07-.04-.13-.06-.2ZM18.74,55.81c-.03-.09-.05-.18-.08-.27-.05-.18-.09-.36-.12-.54-.04-.17-.07-.35-.09-.54-.24.21-.46.42-.67.65h0c.1.11.2.2.31.3.12.11.24.21.36.31.09.08.18.15.27.22h0s.06.05.09.07c-.02-.07-.04-.13-.06-.2ZM18.74,55.81c-.03-.09-.05-.18-.08-.27-.05-.18-.09-.36-.12-.54-.04-.17-.07-.35-.09-.54-.24.21-.46.42-.67.65h0c.1.11.2.2.31.3.12.11.24.21.36.31.09.08.18.15.27.22h0s.06.05.09.07c-.02-.07-.04-.13-.06-.2ZM18.74,55.81c-.03-.09-.05-.18-.08-.27-.05-.18-.09-.36-.12-.54-.04-.17-.07-.35-.09-.54-.24.21-.46.42-.67.65h0c.1.11.2.2.31.3.12.11.24.21.36.31.09.08.18.15.27.22h0s.06.05.09.07c-.02-.07-.04-.13-.06-.2ZM18.74,55.81c-.03-.09-.05-.18-.08-.27-.05-.18-.09-.36-.12-.54-.04-.17-.07-.35-.09-.54-.24.21-.46.42-.67.65h0c.1.11.2.2.31.3.12.11.24.21.36.31.09.08.18.15.27.22h0s.06.05.09.07c-.02-.07-.04-.13-.06-.2ZM18.74,55.81c-.03-.09-.05-.18-.08-.27-.05-.18-.09-.36-.12-.54-.04-.17-.07-.35-.09-.54-.24.21-.46.42-.67.65h0c.1.11.2.2.31.3.12.11.24.21.36.31.09.08.18.15.27.22h0s.06.05.09.07c-.02-.07-.04-.13-.06-.2ZM18.74,55.81c-.03-.09-.05-.18-.08-.27-.05-.18-.09-.36-.12-.54-.04-.17-.07-.35-.09-.54-.24.21-.46.42-.67.65h0c.1.11.2.2.31.3.12.11.24.21.36.31.09.08.18.15.27.22h0s.06.05.09.07c-.02-.07-.04-.13-.06-.2ZM18.74,55.81c-.03-.09-.05-.18-.08-.27-.05-.18-.09-.36-.12-.54-.04-.17-.07-.35-.09-.54-.24.21-.46.42-.67.65h0c.1.11.2.2.31.3.12.11.24.21.36.31.09.08.18.15.27.22h0s.06.05.09.07c-.02-.07-.04-.13-.06-.2ZM18.74,55.81c-.03-.09-.05-.18-.08-.27-.05-.18-.09-.36-.12-.54-.04-.17-.07-.35-.09-.54-.24.21-.46.42-.67.65h0c.1.11.2.2.31.3.12.11.24.21.36.31.09.08.18.15.27.22h0s.06.05.09.07c-.02-.07-.04-.13-.06-.2ZM18.74,55.81c-.03-.09-.05-.18-.08-.27-.05-.18-.09-.36-.12-.54-.04-.17-.07-.35-.09-.54-.24.21-.46.42-.67.65h0c.1.11.2.2.31.3.12.11.24.21.36.31.09.08.18.15.27.22h0s.06.05.09.07c-.02-.07-.04-.13-.06-.2ZM24.94,53.28c-.14,0-.28,0-.42.01-.16,0-.31.02-.47.04-.12,0-.23.02-.35.04-.03,0-.07,0-.11.01.06.03.12.06.17.09.08.05.17.09.25.14.16.09.31.19.47.29.15.1.3.2.44.31.02-.31.02-.62.01-.93ZM24.1,57.99c0-.12-.02-.24-.04-.35,0-.04,0-.07-.01-.11-.03.06-.06.12-.09.18-.05.09-.09.17-.14.25-.09.16-.19.32-.29.47.2.02.41.03.61.03,0-.16-.02-.32-.04-.47ZM23.02,54.36c-.42-.2-.85-.37-1.29-.52-.45.16-.89.35-1.31.56-.2.42-.37.85-.52,1.29h0c.16.45.35.89.56,1.31.42.2.85.37,1.29.52h0c.45-.16.88-.35,1.3-.56.2-.42.37-.85.52-1.29h0c-.16-.45-.35-.88-.56-1.3ZM19.33,52.48c0,.14,0,.28.01.42,0,.16.02.32.04.47,0,.12.02.23.04.35,0,.04,0,.07.01.11.03-.06.06-.12.1-.18.04-.08.09-.17.13-.25.09-.16.19-.32.29-.47.1-.15.2-.3.31-.44-.31-.02-.62-.02-.93-.01ZM18.74,55.81c-.03-.09-.05-.18-.08-.27-.05-.18-.09-.36-.12-.54-.04-.17-.07-.35-.09-.54-.24.21-.46.42-.67.65h0c.1.11.2.2.31.3.12.11.24.21.36.31.09.08.18.15.27.22h0s.06.05.09.07c-.02-.07-.04-.13-.06-.2ZM22.3,51.71c-.1.1-.2.2-.3.31-.11.12-.21.24-.31.36-.07.09-.15.18-.22.27-.02.03-.05.06-.07.1.07-.02.13-.05.2-.07h0c.09-.03.18-.06.27-.08.17-.05.35-.09.53-.12.18-.04.36-.07.54-.09-.21-.24-.42-.46-.65-.67ZM18.74,55.81c-.03-.09-.05-.18-.08-.27-.05-.18-.09-.36-.12-.54-.04-.17-.07-.35-.09-.54-.24.21-.46.42-.67.65h0c.1.11.2.2.31.3.12.11.24.21.36.31.09.08.18.15.27.22h0s.06.05.09.07c-.02-.07-.04-.13-.06-.2ZM18.74,55.81c-.03-.09-.05-.18-.08-.27-.05-.18-.09-.36-.12-.54-.04-.17-.07-.35-.09-.54-.24.21-.46.42-.67.65h0c.1.11.2.2.31.3.12.11.24.21.36.31.09.08.18.15.27.22h0s.06.05.09.07c-.02-.07-.04-.13-.06-.2ZM18.74,55.81c-.03-.09-.05-.18-.08-.27-.05-.18-.09-.36-.12-.54-.04-.17-.07-.35-.09-.54-.24.21-.46.42-.67.65h0c.1.11.2.2.31.3.12.11.24.21.36.31.09.08.18.15.27.22h0s.06.05.09.07c-.02-.07-.04-.13-.06-.2ZM18.74,55.81c-.03-.09-.05-.18-.08-.27-.05-.18-.09-.36-.12-.54-.04-.17-.07-.35-.09-.54-.24.21-.46.42-.67.65h0c.1.11.2.2.31.3.12.11.24.21.36.31.09.08.18.15.27.22h0s.06.05.09.07c-.02-.07-.04-.13-.06-.2ZM18.74,55.81c-.03-.09-.05-.18-.08-.27-.05-.18-.09-.36-.12-.54-.04-.17-.07-.35-.09-.54-.24.21-.46.42-.67.65h0c.1.11.2.2.31.3.12.11.24.21.36.31.09.08.18.15.27.22h0s.06.05.09.07c-.02-.07-.04-.13-.06-.2ZM18.74,55.81c-.03-.09-.05-.18-.08-.27-.05-.18-.09-.36-.12-.54-.04-.17-.07-.35-.09-.54-.24.21-.46.42-.67.65h0c.1.11.2.2.31.3.12.11.24.21.36.31.09.08.18.15.27.22h0s.06.05.09.07c-.02-.07-.04-.13-.06-.2ZM18.74,55.81c-.03-.09-.05-.18-.08-.27-.05-.18-.09-.36-.12-.54-.04-.17-.07-.35-.09-.54-.24.21-.46.42-.67.65h0c.1.11.2.2.31.3.12.11.24.21.36.31.09.08.18.15.27.22h0s.06.05.09.07c-.02-.07-.04-.13-.06-.2ZM18.74,55.81c-.03-.09-.05-.18-.08-.27-.05-.18-.09-.36-.12-.54-.04-.17-.07-.35-.09-.54-.24.21-.46.42-.67.65h0c.1.11.2.2.31.3.12.11.24.21.36.31.09.08.18.15.27.22h0s.06.05.09.07c-.02-.07-.04-.13-.06-.2ZM18.74,55.81c-.03-.09-.05-.18-.08-.27-.05-.18-.09-.36-.12-.54-.04-.17-.07-.35-.09-.54-.24.21-.46.42-.67.65h0c.1.11.2.2.31.3.12.11.24.21.36.31.09.08.18.15.27.22h0s.06.05.09.07c-.02-.07-.04-.13-.06-.2ZM18.74,55.81c-.03-.09-.05-.18-.08-.27-.05-.18-.09-.36-.12-.54-.04-.17-.07-.35-.09-.54-.24.21-.46.42-.67.65h0c.1.11.2.2.31.3.12.11.24.21.36.31.09.08.18.15.27.22h0s.06.05.09.07c-.02-.07-.04-.13-.06-.2ZM19.33,52.48c0,.14,0,.28.01.42,0,.16.02.32.04.47,0,.12.02.23.04.35,0,.04,0,.07.01.11.03-.06.06-.12.1-.18.04-.08.09-.17.13-.25.09-.16.19-.32.29-.47.1-.15.2-.3.31-.44-.31-.02-.62-.02-.93-.01ZM18.74,55.81c-.03-.09-.05-.18-.08-.27-.05-.18-.09-.36-.12-.54-.04-.17-.07-.35-.09-.54-.24.21-.46.42-.67.65h0c.1.11.2.2.31.3.12.11.24.21.36.31.09.08.18.15.27.22h0s.06.05.09.07c-.02-.07-.04-.13-.06-.2ZM23.02,54.36c-.42-.2-.85-.37-1.29-.52-.45.16-.89.35-1.31.56-.2.42-.37.85-.52,1.29h0c.16.45.35.89.56,1.31.42.2.85.37,1.29.52h0c.45-.16.88-.35,1.3-.56.2-.42.37-.85.52-1.29h0c-.16-.45-.35-.88-.56-1.3ZM19.33,52.48c0,.14,0,.28.01.42,0,.16.02.32.04.47,0,.12.02.23.04.35,0,.04,0,.07.01.11.03-.06.06-.12.1-.18.04-.08.09-.17.13-.25.09-.16.19-.32.29-.47.1-.15.2-.3.31-.44-.31-.02-.62-.02-.93-.01ZM18.74,55.81c-.03-.09-.05-.18-.08-.27-.05-.18-.09-.36-.12-.54-.04-.17-.07-.35-.09-.54-.24.21-.46.42-.67.65h0c.1.11.2.2.31.3.12.11.24.21.36.31.09.08.18.15.27.22h0s.06.05.09.07c-.02-.07-.04-.13-.06-.2ZM21.7,52.38c-.07.09-.15.18-.22.27-.02.03-.05.06-.07.1.07-.02.13-.05.2-.07h0c.09-.03.18-.06.27-.08-.06-.07-.12-.15-.19-.22Z"/>
                  <path class="cls-18" d="M21.86,58.68s.09.02.14.03c.02-.03.05-.06.07-.1-.07.02-.14.05-.21.06ZM24.14,58.46c0-.16-.02-.32-.04-.47-.1,0-.19-.02-.29-.03-.09.16-.19.32-.29.47-.1.15-.2.3-.31.44.31.02.62.02.94.01,0-.14,0-.28-.01-.42Z"/>
                  <path class="cls-18" d="M30.8,43.44c-1.39-.32-2.84-.32-4.24-.02-.1.02-.2.04-.3.07-.1.02-.2.05-.3.07-1.65.45-3.21,1.32-4.49,2.57-.02.01-.03.03-.05.05-.01.01-.02.03-.04.04-.96.96-1.76,2.13-2.31,3.51-.02.05-.05.11-.07.17,0,.01,0,.02-.01.03-.02.07-.05.13-.07.2-.3.82-.46,1.64-.52,2.43-.01.12-.02.25-.02.37,0,.14-.01.27,0,.41,0,.38.03.75.08,1.12-.24.21-.46.42-.67.65-.48-.47-.89-.98-1.25-1.55-.05-.08-.1-.16-.15-.24-.02-.03-.04-.07-.06-.1-.02-.04-.05-.08-.06-.12-.72-1.27-1.06-2.59-1.08-3.88,0-.02,0-.04,0-.06v-.07c0-1.78.6-3.5,1.63-4.92.05-.07.1-.14.16-.21.05-.07.1-.14.16-.21,1.06-1.3,2.49-2.32,4.16-2.87.36-.12.74-.22,1.12-.29.32-.06.64-.11.97-.13.08-.01.16-.02.24-.02,2.9-.2,5.43,1.05,7.18,3Z"/>
                </g>
                <g>
                  <path class="cls-19" d="M23.02,54.36c-.42-.2-.85-.37-1.29-.52-.45.16-.89.35-1.31.56-.2.42-.37.85-.52,1.29h0c.16.45.35.89.56,1.31.42.2.85.37,1.29.52h0c.45-.16.88-.35,1.3-.56.2-.42.37-.85.52-1.29h0c-.16-.45-.35-.88-.56-1.3ZM19.33,52.48c0,.14,0,.28.01.42,0,.16.02.32.04.47,0,.12.02.23.04.35,0,.04,0,.07.01.11.03-.06.06-.12.1-.18.04-.08.09-.17.13-.25.09-.16.19-.32.29-.47.1-.15.2-.3.31-.44-.31-.02-.62-.02-.93-.01ZM18.74,55.81c-.03-.09-.05-.18-.08-.27-.05-.18-.09-.36-.12-.54-.04-.17-.07-.35-.09-.54-.24.21-.46.42-.67.65h0c.1.11.2.2.31.3.12.11.24.21.36.31.09.08.18.15.27.22h0s.06.05.09.07c-.02-.07-.04-.13-.06-.2ZM21.7,52.38c-.07.09-.15.18-.22.27-.02.03-.05.06-.07.1.07-.02.13-.05.2-.07h0c.09-.03.18-.06.27-.08-.06-.07-.12-.15-.19-.22ZM18.74,55.81c-.03-.09-.05-.18-.08-.27-.05-.18-.09-.36-.12-.54-.04-.17-.07-.35-.09-.54-.24.21-.46.42-.67.65h0c.1.11.2.2.31.3.12.11.24.21.36.31.09.08.18.15.27.22h0s.06.05.09.07c-.02-.07-.04-.13-.06-.2ZM18.74,55.81c-.03-.09-.05-.18-.08-.27-.05-.18-.09-.36-.12-.54-.04-.17-.07-.35-.09-.54-.24.21-.46.42-.67.65h0c.1.11.2.2.31.3.12.11.24.21.36.31.09.08.18.15.27.22h0s.06.05.09.07c-.02-.07-.04-.13-.06-.2ZM18.74,55.81c-.03-.09-.05-.18-.08-.27-.05-.18-.09-.36-.12-.54-.04-.17-.07-.35-.09-.54-.24.21-.46.42-.67.65h0c.1.11.2.2.31.3.12.11.24.21.36.31.09.08.18.15.27.22h0s.06.05.09.07c-.02-.07-.04-.13-.06-.2ZM18.74,55.81c-.03-.09-.05-.18-.08-.27-.05-.18-.09-.36-.12-.54-.04-.17-.07-.35-.09-.54-.24.21-.46.42-.67.65h0c.1.11.2.2.31.3.12.11.24.21.36.31.09.08.18.15.27.22h0s.06.05.09.07c-.02-.07-.04-.13-.06-.2ZM18.74,55.81c-.03-.09-.05-.18-.08-.27-.05-.18-.09-.36-.12-.54-.04-.17-.07-.35-.09-.54-.24.21-.46.42-.67.65h0c.1.11.2.2.31.3.12.11.24.21.36.31.09.08.18.15.27.22h0s.06.05.09.07c-.02-.07-.04-.13-.06-.2ZM18.74,55.81c-.03-.09-.05-.18-.08-.27-.05-.18-.09-.36-.12-.54-.04-.17-.07-.35-.09-.54-.24.21-.46.42-.67.65h0c.1.11.2.2.31.3.12.11.24.21.36.31.09.08.18.15.27.22h0s.06.05.09.07c-.02-.07-.04-.13-.06-.2ZM18.74,55.81c-.03-.09-.05-.18-.08-.27-.05-.18-.09-.36-.12-.54-.04-.17-.07-.35-.09-.54-.24.21-.46.42-.67.65h0c.1.11.2.2.31.3.12.11.24.21.36.31.09.08.18.15.27.22h0s.06.05.09.07c-.02-.07-.04-.13-.06-.2ZM18.74,55.81c-.03-.09-.05-.18-.08-.27-.05-.18-.09-.36-.12-.54-.04-.17-.07-.35-.09-.54-.24.21-.46.42-.67.65h0c.1.11.2.2.31.3.12.11.24.21.36.31.09.08.18.15.27.22h0s.06.05.09.07c-.02-.07-.04-.13-.06-.2ZM18.74,55.81c-.03-.09-.05-.18-.08-.27-.05-.18-.09-.36-.12-.54-.04-.17-.07-.35-.09-.54-.24.21-.46.42-.67.65h0c.1.11.2.2.31.3.12.11.24.21.36.31.09.08.18.15.27.22h0s.06.05.09.07c-.02-.07-.04-.13-.06-.2ZM18.74,55.81c-.03-.09-.05-.18-.08-.27-.05-.18-.09-.36-.12-.54-.04-.17-.07-.35-.09-.54-.24.21-.46.42-.67.65h0c.1.11.2.2.31.3.12.11.24.21.36.31.09.08.18.15.27.22h0s.06.05.09.07c-.02-.07-.04-.13-.06-.2ZM24.94,53.28c-.14,0-.28,0-.42.01-.16,0-.31.02-.47.04-.12,0-.23.02-.35.04-.03,0-.07,0-.11.01.06.03.12.06.17.09.08.05.17.09.25.14.16.09.31.19.47.29.15.1.3.2.44.31.02-.31.02-.62.01-.93ZM24.1,57.99c0-.12-.02-.24-.04-.35,0-.04,0-.07-.01-.11-.03.06-.06.12-.09.18-.05.09-.09.17-.14.25-.09.16-.19.32-.29.47.2.02.41.03.61.03,0-.16-.02-.32-.04-.47ZM23.02,54.36c-.42-.2-.85-.37-1.29-.52-.45.16-.89.35-1.31.56-.2.42-.37.85-.52,1.29h0c.16.45.35.89.56,1.31.42.2.85.37,1.29.52h0c.45-.16.88-.35,1.3-.56.2-.42.37-.85.52-1.29h0c-.16-.45-.35-.88-.56-1.3ZM19.33,52.48c0,.14,0,.28.01.42,0,.16.02.32.04.47,0,.12.02.23.04.35,0,.04,0,.07.01.11.03-.06.06-.12.1-.18.04-.08.09-.17.13-.25.09-.16.19-.32.29-.47.1-.15.2-.3.31-.44-.31-.02-.62-.02-.93-.01ZM18.74,55.81c-.03-.09-.05-.18-.08-.27-.05-.18-.09-.36-.12-.54-.04-.17-.07-.35-.09-.54-.24.21-.46.42-.67.65h0c.1.11.2.2.31.3.12.11.24.21.36.31.09.08.18.15.27.22h0s.06.05.09.07c-.02-.07-.04-.13-.06-.2ZM22.3,51.71c-.1.1-.2.2-.3.31-.11.12-.21.24-.31.36-.07.09-.15.18-.22.27-.02.03-.05.06-.07.1.07-.02.13-.05.2-.07h0c.09-.03.18-.06.27-.08.17-.05.35-.09.53-.12.18-.04.36-.07.54-.09-.21-.24-.42-.46-.65-.67ZM18.74,55.81c-.03-.09-.05-.18-.08-.27-.05-.18-.09-.36-.12-.54-.04-.17-.07-.35-.09-.54-.24.21-.46.42-.67.65h0c.1.11.2.2.31.3.12.11.24.21.36.31.09.08.18.15.27.22h0s.06.05.09.07c-.02-.07-.04-.13-.06-.2ZM18.74,55.81c-.03-.09-.05-.18-.08-.27-.05-.18-.09-.36-.12-.54-.04-.17-.07-.35-.09-.54-.24.21-.46.42-.67.65h0c.1.11.2.2.31.3.12.11.24.21.36.31.09.08.18.15.27.22h0s.06.05.09.07c-.02-.07-.04-.13-.06-.2ZM18.74,55.81c-.03-.09-.05-.18-.08-.27-.05-.18-.09-.36-.12-.54-.04-.17-.07-.35-.09-.54-.24.21-.46.42-.67.65h0c.1.11.2.2.31.3.12.11.24.21.36.31.09.08.18.15.27.22h0s.06.05.09.07c-.02-.07-.04-.13-.06-.2ZM18.74,55.81c-.03-.09-.05-.18-.08-.27-.05-.18-.09-.36-.12-.54-.04-.17-.07-.35-.09-.54-.24.21-.46.42-.67.65h0c.1.11.2.2.31.3.12.11.24.21.36.31.09.08.18.15.27.22h0s.06.05.09.07c-.02-.07-.04-.13-.06-.2ZM18.74,55.81c-.03-.09-.05-.18-.08-.27-.05-.18-.09-.36-.12-.54-.04-.17-.07-.35-.09-.54-.24.21-.46.42-.67.65h0c.1.11.2.2.31.3.12.11.24.21.36.31.09.08.18.15.27.22h0s.06.05.09.07c-.02-.07-.04-.13-.06-.2ZM18.74,55.81c-.03-.09-.05-.18-.08-.27-.05-.18-.09-.36-.12-.54-.04-.17-.07-.35-.09-.54-.24.21-.46.42-.67.65h0c.1.11.2.2.31.3.12.11.24.21.36.31.09.08.18.15.27.22h0s.06.05.09.07c-.02-.07-.04-.13-.06-.2ZM18.74,55.81c-.03-.09-.05-.18-.08-.27-.05-.18-.09-.36-.12-.54-.04-.17-.07-.35-.09-.54-.24.21-.46.42-.67.65h0c.1.11.2.2.31.3.12.11.24.21.36.31.09.08.18.15.27.22h0s.06.05.09.07c-.02-.07-.04-.13-.06-.2ZM18.74,55.81c-.03-.09-.05-.18-.08-.27-.05-.18-.09-.36-.12-.54-.04-.17-.07-.35-.09-.54-.24.21-.46.42-.67.65h0c.1.11.2.2.31.3.12.11.24.21.36.31.09.08.18.15.27.22h0s.06.05.09.07c-.02-.07-.04-.13-.06-.2ZM18.74,55.81c-.03-.09-.05-.18-.08-.27-.05-.18-.09-.36-.12-.54-.04-.17-.07-.35-.09-.54-.24.21-.46.42-.67.65h0c.1.11.2.2.31.3.12.11.24.21.36.31.09.08.18.15.27.22h0s.06.05.09.07c-.02-.07-.04-.13-.06-.2ZM18.74,55.81c-.03-.09-.05-.18-.08-.27-.05-.18-.09-.36-.12-.54-.04-.17-.07-.35-.09-.54-.24.21-.46.42-.67.65h0c.1.11.2.2.31.3.12.11.24.21.36.31.09.08.18.15.27.22h0s.06.05.09.07c-.02-.07-.04-.13-.06-.2ZM19.33,52.48c0,.14,0,.28.01.42,0,.16.02.32.04.47,0,.12.02.23.04.35,0,.04,0,.07.01.11.03-.06.06-.12.1-.18.04-.08.09-.17.13-.25.09-.16.19-.32.29-.47.1-.15.2-.3.31-.44-.31-.02-.62-.02-.93-.01ZM18.74,55.81c-.03-.09-.05-.18-.08-.27-.05-.18-.09-.36-.12-.54-.04-.17-.07-.35-.09-.54-.24.21-.46.42-.67.65h0c.1.11.2.2.31.3.12.11.24.21.36.31.09.08.18.15.27.22h0s.06.05.09.07c-.02-.07-.04-.13-.06-.2ZM23.02,54.36c-.42-.2-.85-.37-1.29-.52-.45.16-.89.35-1.31.56-.2.42-.37.85-.52,1.29h0c.16.45.35.89.56,1.31.42.2.85.37,1.29.52h0c.45-.16.88-.35,1.3-.56.2-.42.37-.85.52-1.29h0c-.16-.45-.35-.88-.56-1.3ZM19.33,52.48c0,.14,0,.28.01.42,0,.16.02.32.04.47,0,.12.02.23.04.35,0,.04,0,.07.01.11.03-.06.06-.12.1-.18.04-.08.09-.17.13-.25.09-.16.19-.32.29-.47.1-.15.2-.3.31-.44-.31-.02-.62-.02-.93-.01ZM18.74,55.81c-.03-.09-.05-.18-.08-.27-.05-.18-.09-.36-.12-.54-.04-.17-.07-.35-.09-.54-.24.21-.46.42-.67.65h0c.1.11.2.2.31.3.12.11.24.21.36.31.09.08.18.15.27.22h0s.06.05.09.07c-.02-.07-.04-.13-.06-.2ZM21.7,52.38c-.07.09-.15.18-.22.27-.02.03-.05.06-.07.1.07-.02.13-.05.2-.07h0c.09-.03.18-.06.27-.08-.06-.07-.12-.15-.19-.22Z"/>
                  <path class="cls-17" d="M21.86,58.68s.09.02.14.03c.02-.03.05-.06.07-.1-.07.02-.14.05-.21.06ZM24.14,58.46c0-.16-.02-.32-.04-.47-.1,0-.19-.02-.29-.03-.09.16-.19.32-.29.47-.1.15-.2.3-.31.44.31.02.62.02.94.01,0-.14,0-.28-.01-.42Z"/>
                  <path class="cls-19" d="M30.8,43.44c-1.39-.32-2.84-.32-4.24-.02-.1.02-.2.04-.3.07-.1.02-.2.05-.3.07-1.65.45-3.21,1.32-4.49,2.57-.02.01-.03.03-.05.05-.01.01-.02.03-.04.04-.96.96-1.76,2.13-2.31,3.51-.02.05-.05.11-.07.17,0,.01,0,.02-.01.03-.02.07-.05.13-.07.2-.3.82-.46,1.64-.52,2.43-.01.12-.02.25-.02.37,0,.14-.01.27,0,.41,0,.38.03.75.08,1.12-.24.21-.46.42-.67.65-.48-.47-.89-.98-1.25-1.55-.05-.08-.1-.16-.15-.24-.02-.03-.04-.07-.06-.1-.02-.04-.05-.08-.06-.12-.72-1.27-1.06-2.59-1.08-3.88,0-.02,0-.04,0-.06v-.07c0-1.78.6-3.5,1.63-4.92.05-.07.1-.14.16-.21.05-.07.1-.14.16-.21,1.06-1.3,2.49-2.32,4.16-2.87.36-.12.74-.22,1.12-.29.32-.06.64-.11.97-.13.08-.01.16-.02.24-.02,2.9-.2,5.43,1.05,7.18,3Z"/>
                </g>
              </g>
            </g>
            <g id="_Radial_Repeat_-8" data-name="&amp;lt;Radial Repeat&amp;gt;">
              <g>
                <path class="cls-19" d="M36.81,53.44c-.76-1.22-1.79-2.25-2.99-3.03h0c-.08-.06-.17-.11-.25-.16-.09-.06-.18-.11-.27-.16-1.48-.85-3.2-1.34-4.99-1.36-.02,0-.05,0-.07,0h-.06c-1.36,0-2.76.27-4.12.85-.06.02-.11.05-.17.07,0,0-.02,0-.03.01-.06.03-.12.06-.19.09-.79.37-1.49.83-2.09,1.35-.1.08-.19.17-.28.25-.1.09-.2.19-.29.28-.27.27-.52.56-.74.86-.31-.02-.62-.02-.93-.01,0-.67.07-1.33.22-1.99.02-.09.04-.18.06-.27.01-.04.02-.08.03-.12.01-.05.02-.09.04-.13.39-1.4,1.08-2.57,1.98-3.5.01-.02.02-.03.04-.05.02-.02.04-.03.05-.05,1.26-1.26,2.9-2.05,4.64-2.33.09-.02.17-.03.27-.04.09-.01.17-.02.26-.03,1.67-.17,3.4.12,4.97.91.34.17.67.36.99.58.27.18.53.38.78.6.06.05.12.1.18.16,2.19,1.91,3.1,4.59,2.96,7.2Z"/>
                <path class="cls-19" d="M19.33,52.48c0,.14,0,.28.01.42,0,.16.02.32.04.47,0,.12.02.23.04.35,0,.04,0,.07.01.11.03-.06.06-.12.1-.18.04-.08.09-.17.13-.25.09-.16.19-.32.29-.47.1-.15.2-.3.31-.44-.31-.02-.62-.02-.93-.01ZM19.33,52.48c0,.14,0,.28.01.42,0,.16.02.32.04.47,0,.12.02.23.04.35,0,.04,0,.07.01.11.03-.06.06-.12.1-.18.04-.08.09-.17.13-.25.09-.16.19-.32.29-.47.1-.15.2-.3.31-.44-.31-.02-.62-.02-.93-.01ZM19.33,52.48c0,.14,0,.28.01.42,0,.16.02.32.04.47,0,.12.02.23.04.35,0,.04,0,.07.01.11.03-.06.06-.12.1-.18.04-.08.09-.17.13-.25.09-.16.19-.32.29-.47.1-.15.2-.3.31-.44-.31-.02-.62-.02-.93-.01ZM19.33,52.48c0,.14,0,.28.01.42,0,.16.02.32.04.47,0,.12.02.23.04.35,0,.04,0,.07.01.11.03-.06.06-.12.1-.18.04-.08.09-.17.13-.25.09-.16.19-.32.29-.47.1-.15.2-.3.31-.44-.31-.02-.62-.02-.93-.01ZM19.33,52.48c0,.14,0,.28.01.42,0,.16.02.32.04.47,0,.12.02.23.04.35,0,.04,0,.07.01.11.03-.06.06-.12.1-.18.04-.08.09-.17.13-.25.09-.16.19-.32.29-.47.1-.15.2-.3.31-.44-.31-.02-.62-.02-.93-.01ZM19.33,52.48c0,.14,0,.28.01.42,0,.16.02.32.04.47,0,.12.02.23.04.35,0,.04,0,.07.01.11.03-.06.06-.12.1-.18.04-.08.09-.17.13-.25.09-.16.19-.32.29-.47.1-.15.2-.3.31-.44-.31-.02-.62-.02-.93-.01ZM19.33,52.48c0,.14,0,.28.01.42,0,.16.02.32.04.47,0,.12.02.23.04.35,0,.04,0,.07.01.11.03-.06.06-.12.1-.18.04-.08.09-.17.13-.25.09-.16.19-.32.29-.47.1-.15.2-.3.31-.44-.31-.02-.62-.02-.93-.01ZM19.33,52.48c0,.14,0,.28.01.42,0,.16.02.32.04.47,0,.12.02.23.04.35,0,.04,0,.07.01.11.03-.06.06-.12.1-.18.04-.08.09-.17.13-.25.09-.16.19-.32.29-.47.1-.15.2-.3.31-.44-.31-.02-.62-.02-.93-.01ZM19.33,52.48c0,.14,0,.28.01.42,0,.16.02.32.04.47,0,.12.02.23.04.35,0,.04,0,.07.01.11.03-.06.06-.12.1-.18.04-.08.09-.17.13-.25.09-.16.19-.32.29-.47.1-.15.2-.3.31-.44-.31-.02-.62-.02-.93-.01ZM21.86,58.68c-.09.03-.18.06-.27.08.06.07.12.15.19.22.07-.09.15-.18.22-.27.02-.03.05-.06.07-.1-.07.02-.14.05-.21.06ZM23.02,54.36c-.42-.2-.85-.37-1.29-.52-.45.16-.89.35-1.31.56-.2.42-.37.85-.52,1.29h0c.16.45.35.89.56,1.31.42.2.85.37,1.29.52h0c.45-.16.88-.35,1.3-.56.2-.42.37-.85.52-1.29h0c-.16-.45-.35-.88-.56-1.3ZM24.14,58.46c0-.16-.02-.32-.04-.47,0-.12-.02-.24-.04-.35,0-.04,0-.07-.01-.11-.03.06-.06.12-.09.18-.05.09-.09.17-.14.25-.09.16-.19.32-.29.47-.1.15-.2.3-.31.44.31.02.62.02.94.01,0-.14,0-.28-.01-.42ZM24.94,53.28c-.14,0-.28,0-.42.01-.16,0-.31.02-.47.04-.12,0-.23.02-.35.04-.03,0-.07,0-.11.01.06.03.12.06.17.09.08.05.17.09.25.14.16.09.31.19.47.29.15.1.3.2.44.31.02-.31.02-.62.01-.93ZM22.3,51.71c-.1.1-.2.2-.3.31-.11.12-.21.24-.31.36-.07.09-.15.18-.22.27-.02.03-.05.06-.07.1.07-.02.13-.05.2-.07h0c.09-.03.18-.06.27-.08.17-.05.35-.09.53-.12.18-.04.36-.07.54-.09-.21-.24-.42-.46-.65-.67ZM19.33,52.48c0,.14,0,.28.01.42,0,.16.02.32.04.47,0,.12.02.23.04.35,0,.04,0,.07.01.11.03-.06.06-.12.1-.18.04-.08.09-.17.13-.25.09-.16.19-.32.29-.47.1-.15.2-.3.31-.44-.31-.02-.62-.02-.93-.01ZM19.33,52.48c0,.14,0,.28.01.42,0,.16.02.32.04.47,0,.12.02.23.04.35,0,.04,0,.07.01.11.03-.06.06-.12.1-.18.04-.08.09-.17.13-.25.09-.16.19-.32.29-.47.1-.15.2-.3.31-.44-.31-.02-.62-.02-.93-.01ZM19.33,52.48c0,.14,0,.28.01.42,0,.16.02.32.04.47,0,.12.02.23.04.35,0,.04,0,.07.01.11.03-.06.06-.12.1-.18.04-.08.09-.17.13-.25.09-.16.19-.32.29-.47.1-.15.2-.3.31-.44-.31-.02-.62-.02-.93-.01ZM19.33,52.48c0,.14,0,.28.01.42,0,.16.02.32.04.47,0,.12.02.23.04.35,0,.04,0,.07.01.11.03-.06.06-.12.1-.18.04-.08.09-.17.13-.25.09-.16.19-.32.29-.47.1-.15.2-.3.31-.44-.31-.02-.62-.02-.93-.01ZM19.33,52.48c0,.14,0,.28.01.42,0,.16.02.32.04.47,0,.12.02.23.04.35,0,.04,0,.07.01.11.03-.06.06-.12.1-.18.04-.08.09-.17.13-.25.09-.16.19-.32.29-.47.1-.15.2-.3.31-.44-.31-.02-.62-.02-.93-.01ZM19.33,52.48c0,.14,0,.28.01.42,0,.16.02.32.04.47,0,.12.02.23.04.35,0,.04,0,.07.01.11.03-.06.06-.12.1-.18.04-.08.09-.17.13-.25.09-.16.19-.32.29-.47.1-.15.2-.3.31-.44-.31-.02-.62-.02-.93-.01ZM19.33,52.48c0,.14,0,.28.01.42,0,.16.02.32.04.47,0,.12.02.23.04.35,0,.04,0,.07.01.11.03-.06.06-.12.1-.18.04-.08.09-.17.13-.25.09-.16.19-.32.29-.47.1-.15.2-.3.31-.44-.31-.02-.62-.02-.93-.01ZM19.33,52.48c0,.14,0,.28.01.42,0,.16.02.32.04.47,0,.12.02.23.04.35,0,.04,0,.07.01.11.03-.06.06-.12.1-.18.04-.08.09-.17.13-.25.09-.16.19-.32.29-.47.1-.15.2-.3.31-.44-.31-.02-.62-.02-.93-.01ZM19.33,52.48c0,.14,0,.28.01.42,0,.16.02.32.04.47,0,.12.02.23.04.35,0,.04,0,.07.01.11.03-.06.06-.12.1-.18.04-.08.09-.17.13-.25.09-.16.19-.32.29-.47.1-.15.2-.3.31-.44-.31-.02-.62-.02-.93-.01Z"/>
                <path class="cls-19" d="M28.31,62.19v.07c0,1.78-.6,3.5-1.63,4.93-.05.07-.1.15-.16.21-.05.07-.1.14-.16.21-1.06,1.3-2.49,2.32-4.16,2.87-.36.12-.74.22-1.12.29-.32.06-.64.11-.97.13-.08.01-.16.02-.24.02-2.9.2-5.44-1.05-7.18-3,1.39.32,2.84.32,4.24.02h0c.1-.02.2-.04.29-.07.1-.02.2-.05.3-.07,1.65-.45,3.21-1.32,4.5-2.57.01-.02.03-.03.05-.05.01-.01.02-.03.04-.04.96-.96,1.76-2.13,2.31-3.52.02-.05.05-.11.07-.17,0,0,0-.02,0-.03.03-.07.05-.14.07-.2.3-.82.46-1.64.52-2.43.01-.12.02-.25.02-.37,0-.14,0-.27,0-.41,0-.38-.03-.76-.08-1.12-.02-.18-.05-.36-.09-.53-.03-.18-.08-.36-.12-.54-.02-.09-.05-.18-.08-.27-.02-.07-.04-.13-.06-.2.03.02.06.04.09.07.1.07.19.14.28.22.12.1.24.2.36.31.11.09.21.19.31.3.47.47.89.99,1.25,1.55.05.08.1.16.14.24.02.03.04.07.06.1.02.04.05.08.06.12.72,1.27,1.06,2.59,1.08,3.87,0,.02,0,.04,0,.06Z"/>
              </g>
            </g>
          </g>
          <g>
            <circle class="cls-4" cx="21.74" cy="55.68" r="9"/>
            <circle class="cls-9" cx="21.74" cy="55.68" r="7"/>
          </g>
        </g>
        <rect class="cls-14" x="40.49" y="86.76" width="55.47" height="3.73" rx="1.61" ry="1.61"/>
        <g>
          <rect class="cls-17" x="24.15" y="80.37" width="7.71" height="78.47" rx="3.34" ry="3.34"/>
          <g class="cls-20">
            <rect class="cls-8" x="28.35" y="77.71" width="9.87" height="84.96"/>
          </g>
          <rect class="cls-1" x="24.15" y="80.37" width="7.71" height="78.47" rx="3.34" ry="3.34"/>
        </g>
      </g>
    </g>
  </g>
</svg>