<?xml version="1.0" encoding="UTF-8"?>
<svg id="Layer_2" data-name="Layer 2" xmlns="http://www.w3.org/2000/svg" viewBox="0 0 294.7 150.57">
  <defs>
    <style>
      .cls-1 {
        stroke-width: .58px;
      }

      .cls-1, .cls-2, .cls-3, .cls-4, .cls-5, .cls-6, .cls-7, .cls-8, .cls-9, .cls-10, .cls-11, .cls-12, .cls-13, .cls-14, .cls-15, .cls-16, .cls-17, .cls-18, .cls-19, .cls-20, .cls-21, .cls-22 {
        stroke-miterlimit: 10;
      }

      .cls-1, .cls-2, .cls-3, .cls-5, .cls-6, .cls-7, .cls-9, .cls-10, .cls-11, .cls-13, .cls-14, .cls-15, .cls-16, .cls-17, .cls-18, .cls-19, .cls-20, .cls-21, .cls-22 {
        stroke: #110b0a;
      }

      .cls-1, .cls-2, .cls-3, .cls-8 {
        fill: #efebcf;
      }

      .cls-2 {
        stroke-width: .54px;
      }

      .cls-3, .cls-12 {
        stroke-width: .59px;
      }

      .cls-4 {
        stroke: #c2c49d;
      }

      .cls-4, .cls-23 {
        fill: #110b0a;
      }

      .cls-4, .cls-21 {
        stroke-width: .41px;
      }

      .cls-5 {
        stroke-width: .49px;
      }

      .cls-5, .cls-24 {
        fill: #468c4c;
      }

      .cls-25 {
        fill: #fff;
        stroke: #fff;
        stroke-linecap: round;
        stroke-linejoin: round;
        stroke-width: 4.61px;
      }

      .cls-6 {
        fill: #c2c49d;
      }

      .cls-6, .cls-11, .cls-15, .cls-18 {
        stroke-width: .57px;
      }

      .cls-7 {
        fill: #468754;
      }

      .cls-7, .cls-20, .cls-22 {
        stroke-width: .41px;
      }

      .cls-8 {
        stroke-width: .43px;
      }

      .cls-8, .cls-12 {
        stroke: #1a1a14;
      }

      .cls-9 {
        fill: #448955;
        stroke-width: .37px;
      }

      .cls-10 {
        fill: #6a598f;
      }

      .cls-10, .cls-13 {
        stroke-width: .37px;
      }

      .cls-11 {
        fill: #efe9cf;
      }

      .cls-12 {
        fill: #1a1915;
      }

      .cls-13 {
        fill: #fbbc22;
      }

      .cls-14 {
        stroke-width: .31px;
      }

      .cls-14, .cls-15 {
        fill: #262b1b;
      }

      .cls-16 {
        fill: #282b1d;
        stroke-width: .54px;
      }

      .cls-17 {
        fill: #212216;
        stroke-width: .12px;
      }

      .cls-18 {
        fill: #f36e2c;
      }

      .cls-19 {
        fill: #5167b0;
        stroke-width: .47px;
      }

      .cls-20 {
        fill: #fab822;
      }

      .cls-21 {
        fill: #fbba21;
      }

      .cls-22 {
        fill: #556ab2;
      }
    </style>
  </defs>
  <g id="_6" data-name="6">
    <g>
      <path class="cls-25" d="M286.83,8.98c-7.84-8.46-21.05-8.95-29.5-1.11-2.61,2.42-4.14,5.06-5.02,7.14-.83,1.94-2.7,3.23-4.81,3.23h-14.07c-2.38,0-4.32-1.94-4.32-4.32v-3.26c0-2.86-2.31-5.17-5.17-5.17h-98.17c-.21,0-.42.02-.63.04H30.87c-.71,0-1.34.29-1.8.74-.46.46-.74,1.1-.74,1.8,0,1.4,1.13,2.54,2.54,2.54h1.28c-3.37,4.3-9.78,5.02-12.89,8.09-.8-.71-1.8-1.14-2.89-1.14-2.09,0-3.87,1.57-4.51,3.76-.59-1.63-1.98-2.76-3.59-2.76s-2.64,2.73-4.41,2.73c-.86,0-1.55.81-1.55,1.81s.69,1.8,1.55,1.8c1.75,0,2.73,2.73,4.41,2.73s3-1.14,3.59-2.76c.63,2.18,2.41,3.75,4.51,3.75,1.15,0,2.21-.47,3.03-1.27,2.61,2.43,7.31,3.38,10.74,6.01-3.24,3.1-5.26,7.47-5.26,12.3v57.49s38.09,0,38.09,0h0s-38.33,0-38.33,0c-1.58,0-2.86,1.28-2.86,2.86v39.39c0,1.58,1.28,2.86,2.86,2.86h19.49s166.66,0,166.66,0c1.01,0,1.83-.82,1.83-1.83v-.58c.56,0,1.08-.01,1.56-.01,6.1,0,7.68,1.07,9.58,1.27.18.02.33-.12.33-.3v-.65c0-1.83-1.95-3.62-5.38-4.94-1.85-.71-3.89-1.16-6.09-1.49-.03-1.05-.88-1.89-1.94-1.89h-10.37c-3.01,0-5.66-2.46-5.61-5.46.03-1.44.62-2.75,1.57-3.69.63-.63,1.42-1.1,2.3-1.36h41.71c7.43,0,14.15-3.01,19.02-7.88,4.86-4.86,7.88-11.59,7.88-19.02,0-14.85-12.04-26.9-26.9-26.9h-103c-2.68,0-4.86-2.17-4.86-4.86v-7.46h0v-6.9c0-1.64-.66-3.12-1.74-4.19-1.07-1.07-2.55-1.74-4.19-1.74-3.27,0-5.92,2.65-5.92,5.92v6.9h0v7.47c0,2.68-2.17,4.86-4.86,4.86h-26c-7.43,0-14.15,3.01-19.02,7.88-1.21,1.21-2.3,2.53-3.26,3.94v-39.7c0-.33-.01-.66-.03-.98.01-.07.02-.13.03-.2.44-2.09,2.3-3.66,4.52-3.66h135.59s0-.04,0-.04h16.36c2.86,0,5.17-2.32,5.17-5.17v-3.26c0-2.38,1.94-4.32,4.32-4.32h14.25c2.05,0,3.91,1.19,4.77,3.05,1.02,2.19,2.5,4.91,3.78,6.29,7.84,8.46,21.05,8.95,29.5,1.11,8.45-7.84,8.95-21.05,1.11-29.5ZM64.82,36.57s0,0,0,0c.75-.52,1.65-.82,2.63-.82-.98,0-1.88.31-2.63.83Z"/>
      <g id="Orange_LightHinge_One" data-name="Orange LightHinge One">
        <path class="cls-16" d="M245.53,18.25v9.78h-12.11c-2.38,0-4.32,1.94-4.32,4.32v3.26c0,2.86-2.32,5.17-5.17,5.17h-98.17c-2.86,0-5.17-2.31-5.17-5.17V10.67c0-2.86,2.32-5.17,5.17-5.17h98.17c2.86,0,5.17,2.32,5.17,5.17v3.26c0,2.38,1.94,4.32,4.32,4.32h12.11Z"/>
        <path class="cls-18" d="M285.72,38.48c-8.46,7.84-21.66,7.35-29.5-1.11-1.28-1.38-2.76-4.1-3.78-6.29-.86-1.86-2.72-3.05-4.77-3.05h-2.14v-9.78h1.96c2.11,0,3.99-1.29,4.81-3.23.89-2.09,2.41-4.72,5.02-7.14,8.46-7.84,21.66-7.35,29.5,1.11,7.84,8.45,7.34,21.66-1.11,29.5Z"/>
        <path class="cls-1" d="M224.09,146.17v.65c0,.18-.15.31-.33.3-1.89-.2-3.47-1.27-9.58-1.27s-19.94.92-23.06-5.85c-.11-.24-.69-.41-1.41-.41-.8,0-1.44.21-1.44.46v8.21h-11.46c-.79,0-1.42-.24-1.42-.53v-16.3c0-.29.64-.53,1.44-.53.72,0,1.3.2,1.41.46,1.81,4.38,12.36,6.31,22.64,7.24,1.34.12,2.67.24,4.02.35,5.24.41,9.94.8,13.81,2.28,3.43,1.31,5.38,3.1,5.38,4.94Z"/>
        <path class="cls-14" d="M34.33,10.62v25.31h-1.72c-3.17-4.8-9.89-5.49-13.2-8.58-.82.79-1.88,1.27-3.03,1.27-2.09,0-3.87-1.57-4.51-3.75-.59,1.62-1.98,2.76-3.59,2.76s-2.67-2.73-4.41-2.73c-.86,0-1.55-.8-1.55-1.8s.69-1.81,1.55-1.81c1.78,0,2.73-2.73,4.41-2.73s3,1.14,3.59,2.76c.63-2.19,2.41-3.76,4.51-3.76,1.09,0,2.09.43,2.89,1.14,3.12-3.07,9.52-3.79,12.89-8.09h2.18Z"/>
        <path class="cls-3" d="M202.83,23.05v.13c0-.18,0-.36-.01-.54,0,.13.01.27.01.4Z"/>
        <path class="cls-3" d="M203.42,23.05v.13c0,3.47-1.41,6.61-3.68,8.88-2.28,2.27-5.42,3.68-8.89,3.68H63.42s0,16.36,0,16.36c0,6.67-5.19,12.36-11.85,12.6-7,.25-12.76-5.35-12.76-12.3v-13.58c0-1.7-1.38-3.08-3.08-3.08h-1.54V10.62h156.35c6.29,0,11.71,4.51,12.72,10.52.02.13.04.26.05.38.02.12.04.24.05.36,0,.03,0,.06,0,.09.02.18.04.36.04.54,0,.04,0,.09,0,.13,0,.13.01.27.01.4Z"/>
        <path class="cls-2" d="M207.57,5.54v35.28H71.97c-2.22,0-4.08,1.57-4.52,3.66-.06.31-.1.63-.1.96v11.26c0,.94-.11,1.89-.32,2.81v.02c-1.72,7.54-8.46,13.16-16.51,13.16h0c-9.35,0-16.92-7.58-16.92-16.92v-14.94h-.62c-1.41,0-2.54-1.14-2.54-2.54,0-.7.29-1.33.74-1.8.46-.46,1.09-.74,1.8-.74h2.16c1.7,0,3.08,1.38,3.08,3.08v15.27c0,6.8,5.51,12.31,12.3,12.31,3.4,0,6.48-1.38,8.71-3.6,2.23-2.23,3.6-5.31,3.6-8.71v-13.73c0-2.55,2.07-4.62,4.62-4.62h122.81c3.47,0,6.61-1.41,8.89-3.68,2.27-2.28,3.68-5.41,3.68-8.88v-.13c0-.13,0-.27-.01-.4,0-.05,0-.09,0-.13,0-.18-.02-.37-.04-.54,0-.03,0-.06,0-.09-.01-.12-.03-.24-.05-.36-.01-.13-.03-.26-.05-.38-.97-5.97-6.16-10.52-12.4-10.52H30.87c-1.41,0-2.54-1.14-2.54-2.54,0-.7.29-1.33.74-1.8.46-.46,1.09-.74,1.8-.74h176.7Z"/>
        <path class="cls-12" d="M67.45,35.74c-2.56,0-4.62,2.07-4.62,4.62v-4.62h4.62Z"/>
        <path class="cls-8" d="M62.83,40.36v13.74c0,6.8-5.51,12.31-12.31,12.31h0c-6.8,0-12.31-5.51-12.31-12.31v-13.74c0-1.52,1.23-2.76,2.76-2.76h19.1c1.52,0,2.76,1.23,2.76,2.76Z"/>
        <path class="cls-11" d="M41.93,28.62h8.48c9.41,0,17.04,7.64,17.04,17.04v57.49H24.89v-57.49c0-9.41,7.64-17.04,17.04-17.04Z"/>
        <g>
          <circle class="cls-15" cx="46.17" cy="79" r="8.94"/>
          <path class="cls-6" d="M54.46,54.41c.11-.17.22-.35.32-.52.05-.08.1-.17.14-.25.07-.13.13-.25.19-.38.06-.12.12-.25.18-.38.04-.09.08-.19.12-.28.06-.15.12-.3.18-.46.03-.08.05-.15.08-.23.05-.16.11-.33.15-.49.02-.07.04-.15.05-.22.04-.16.08-.33.11-.49.02-.08.03-.16.04-.24.02-.15.05-.31.07-.46.01-.1.02-.2.02-.3.01-.13.02-.27.03-.4,0-.13,0-.25,0-.37,0-.11,0-.21,0-.32,0-.15-.02-.31-.03-.46,0-.08-.01-.15-.02-.23-.02-.18-.05-.36-.08-.54,0-.05-.01-.09-.02-.14-.04-.2-.08-.41-.14-.61,0-.02,0-.05-.02-.07-.06-.22-.12-.44-.2-.65,0,0,0,0,0-.01-.07-.21-.15-.42-.24-.63,0,0,0-.01,0-.02-.08-.18-.16-.36-.25-.54-.02-.03-.03-.06-.04-.1-.04-.07-.08-.14-.12-.21-1.66-3.1-4.91-5.31-8.63-5.31,0,0-.02,0-.03,0-.05,0-.11,0-.16,0-.05,0-.11,0-.16,0,0,0-.02,0-.03,0-3.72,0-6.98,2.22-8.63,5.32-.04.07-.08.13-.11.2-.02.03-.03.07-.05.1-.09.17-.17.35-.25.53,0,0,0,.01,0,.02-.09.21-.17.42-.24.63,0,0,0,0,0,.01-.07.21-.14.43-.2.65,0,.02,0,.05-.02.07-.05.2-.1.4-.14.61,0,.05-.01.09-.02.14-.03.18-.06.36-.08.54,0,.08-.01.15-.02.23-.01.15-.03.3-.03.46,0,.11,0,.21,0,.32,0,.12,0,.25,0,.37,0,.13.02.27.03.4,0,.1.01.2.02.3.02.15.04.31.07.46.01.08.02.16.04.24.03.16.07.33.11.49.02.07.03.15.05.22.04.16.1.33.15.49.03.08.05.15.08.23.05.15.12.3.18.46.04.09.08.19.12.28.06.13.12.25.18.38.06.13.12.25.19.38.05.08.1.17.14.25.1.17.21.35.32.52.02.03.03.05.05.08.25.38.52.75.83,1.12l.05.06c2.78,2.94,4.81,8.03,3.62,12.79-.21,1.46-1.3,3.49-1.54,4.6-.1,1.23,1.9,1.72,4.01,1.76.41.02.84.02,1.26,0,.43.02.85.01,1.26,0,2.11-.05,4.11-.53,4.01-1.76-.24-1.11-1.33-3.14-1.54-4.6-1.19-4.76.83-9.85,3.62-12.79l.05-.06c.31-.37.58-.74.83-1.12.02-.03.04-.05.05-.08Z"/>
          <path class="cls-4" d="M45.81,74.47v-17.5c0-.35-.23-.64-.56-.78-.88-.36-1.5-1.23-1.5-2.23,0-1.34,1.08-2.42,2.42-2.42s2.42,1.08,2.42,2.42c0,1.01-.62,1.88-1.5,2.23-.33.13-.56.43-.56.78v17.5"/>
        </g>
        <g>
          <path class="cls-21" d="M212.63,139.8v6.64c0,1.01-.82,1.83-1.83,1.83H24.64c-1.58,0-2.86-1.28-2.86-2.86v-39.39c0-1.58,1.28-2.86,2.86-2.86h64.55s.03,0,.04.02c.95,1.5,2.63,2.5,4.53,2.5h35.43c-1.49,0-2.82.6-3.79,1.57-.95.95-1.54,2.25-1.57,3.69-.05,3,2.6,5.46,5.61,5.46h35.19c-1.49,0-2.82.6-3.79,1.57-.95.95-1.54,2.25-1.57,3.69-.05,3.01,2.6,5.46,5.61,5.46h35.19c-1.49,0-2.82.6-3.79,1.57-.95.95-1.54,2.25-1.57,3.69-.05,3,2.6,5.46,5.61,5.46h10.37c1.07,0,1.94.87,1.94,1.94Z"/>
          <path class="cls-19" d="M44.13,147.7v.57h-19.49c-1.58,0-2.86-1.28-2.86-2.86v-16.85c.95,5.59,6.05,8.07,11.02,9.28.65.16,1.3.32,1.96.46,2.56.52,4.86,1.03,6.75,2.97,1.67,1.71,2.62,4.05,2.62,6.44Z"/>
        </g>
        <g>
          <path class="cls-7" d="M132.42,54.32v3.14h-11.84v-3.14c0-3.28,2.65-5.92,5.92-5.92,1.64,0,3.12.66,4.19,1.74,1.07,1.07,1.73,2.55,1.73,4.19Z"/>
          <path class="cls-20" d="M267.19,100.44c0,7.43-3.01,14.15-7.88,19.02-4.87,4.86-11.6,7.88-19.02,7.88H90.2c-14.9,0-27.47-12.19-27.37-27.08.05-7.35,3.05-14.01,7.88-18.84,4.87-4.86,11.59-7.88,19.02-7.88h26c2.68,0,4.86-2.17,4.86-4.86v-11.23h11.84v11.23c0,2.68,2.17,4.86,4.86,4.86h103c14.86,0,26.9,12.05,26.9,26.9Z"/>
          <rect class="cls-13" x="120.58" y="57.46" width="11.84" height="3.76"/>
          <rect class="cls-10" x="120.58" y="61.22" width="11.84" height="3.76"/>
        </g>
        <rect class="cls-9" x="89.3" y="89.66" width="150.33" height="21.5"/>
        <circle class="cls-22" cx="240.87" cy="100.44" r="11.58"/>
        <circle class="cls-22" cx="89.3" cy="100.44" r="11.58"/>
        <g>
          <path class="cls-5" d="M93.45,21.81c.69.69,1.24,1.41,1.56,2s.42,1.06.21,1.26-.67.11-1.26-.21-1.3-.87-2-1.56-1.24-1.41-1.56-2-.42-1.06-.21-1.26.67-.11,1.26.21,1.3.87,2,1.56Z"/>
          <g>
            <path class="cls-24" d="M93.03,18.69c.3-.11.77.02,1.31.37s1.13.95,1.76,1.58c.02.02.07.07.09.1.04.04.07.09.12.14.46.52.93,1.14,1.29,1.71.1.17.19.33.27.48.32.63.44,1.14.19,1.34s-.77.02-1.4-.35c-.09-.06-.19-.12-.28-.18-.58-.39-1.21-.92-1.72-1.45-.06-.06-.12-.12-.18-.19-.53-.57-1.04-1.24-1.36-1.83-.09-.17-.17-.34-.23-.49-.25-.61-.24-1.07.16-1.22Z"/>
            <path class="cls-23" d="M92.94,18.45c1.41-.87,7.2,5.74,4.98,6.3-1.66.32-7.14-5.08-4.98-6.3h0ZM93.13,18.94c-.1.04-.13.08-.15.18.07,1.12.96,2.08,1.67,2.91.87.86,1.96,2.01,3.19,2.19.16-.05.04-.38,0-.54-.69-1.52-1.9-2.85-3.12-3.99-.41-.35-1.08-.86-1.59-.76h0Z"/>
          </g>
          <g>
            <path class="cls-24" d="M96.65,17.98c.41-.05.92.18,1.45.59.64.49,1.19,1.27,1.86,2.02.01.02.08.1.09.12.04.05.07.11.12.17.42.57.97,1.34,1.38,2.08.11.2.21.39.3.58.35.74.49,1.37.17,1.58-.29.2-.93-.08-1.64-.55-.11-.07-.22-.15-.33-.23-.73-.54-1.48-1.25-2.02-1.85-.07-.07-.14-.15-.21-.24-.57-.67-1.18-1.55-1.52-2.32-.1-.22-.17-.43-.22-.63-.19-.71-.09-1.25.58-1.32Z"/>
            <path class="cls-23" d="M96.61,17.68c1.69.03,2.55,1.65,3.56,2.73.55.97,3.44,4.28,1.81,5.03-1.1.09-1.96-.75-2.73-1.29-1.34-1.07-2.51-2.37-3.22-3.96-.38-.81-.75-2.41.59-2.51h0ZM96.68,18.27c-.65-.02-.35.97-.05,1.64.72,1.43,1.83,2.69,3.05,3.74.66.51,1.39,1.18,2.15,1.22.08-.06.05-.25,0-.44-.33-1.14-1.18-2.11-1.81-3.1-.19-.32-.49-.69-.73-.97-.7-.81-1.47-2.01-2.61-2.08h0Z"/>
          </g>
          <g>
            <path class="cls-24" d="M100.54,17.95c.47.09.95.3,1.4.69.62.53,1.08,1.34,1.7,2.04,0,0,.08.11.08.12.03.04.06.1.1.16.33.49.86,1.28,1.28,2.03.1.19.2.38.28.56.32.7.47,1.32.14,1.5-.31.16-.96-.16-1.66-.64-.11-.08-.22-.16-.34-.24-.77-.58-1.55-1.32-2.03-1.87-.06-.07-.13-.15-.2-.23-.53-.63-1.15-1.54-1.47-2.34-.09-.22-.15-.44-.19-.64-.12-.66.11-1.3.91-1.15Z"/>
            <path class="cls-23" d="M100.59,17.69c1.59.27,2.36,1.8,3.28,2.91.44.9,3.08,4.01,1.68,4.71-.35.09-.57-.02-.78-.09-2.32-1.1-4.34-2.93-5.28-5.36-.37-.91-.3-2.48,1.1-2.18h0ZM100.49,18.21c-1.62-.1.35,2.91.85,3.44,1.08,1.22,2.45,2.82,4.04,3.15.04-1.18-1.11-2.29-1.68-3.32-.35-.63-.99-1.39-1.4-1.99-.46-.64-1.06-1.12-1.8-1.29h0Z"/>
          </g>
          <g>
            <g>
              <path class="cls-24" d="M121.52,19.61c.56.67,1.18,1.76,1.27,2.49s-.32,1.12-1.83.39c-.91-.36-1.93-1.52-2.62-2.65s-1.03-2.25-.59-2.55c.61-.2,1.33.11,1.99.59s1.27,1.13,1.67,1.59l.1.12Z"/>
              <path class="cls-23" d="M121.79,19.39c3.65,5.16-1.21,4.47-3.41,1.04-.55-.84-1.18-1.76-1.15-2.82.02-.18.1-.44.33-.59,1.77-.55,3.2,1.19,4.22,2.38h0ZM121.24,19.84c-.91-.91-2.02-2.38-3.4-2.28-.22.58.39,1.96.85,2.67.68,1.28,2.04,2.44,3.53,2.24.16-.03.11-.03.12-.04.03-.88-.56-1.83-1.1-2.59h0Z"/>
            </g>
            <g>
              <path class="cls-24" d="M114.79,17.99c.64-.12,1.32.24,1.94.74.62.5,1.18,1.16,1.59,1.68l.09.13c.27.36.66.95.97,1.54.29.57.48,1.13.43,1.47-.08.58-.55.72-1.91.03-.89-.46-1.87-1.53-2.51-2.51-.35-.53-.74-1.18-.93-1.75-.22-.67-.2-1.23.33-1.32Z"/>
              <path class="cls-23" d="M114.73,17.66c1.75-.11,2.74,1.37,3.72,2.5.53.89,2.72,3.61.94,4.13-2.52-.23-4-2.27-5.05-4.26-.37-.69-.74-2.17.39-2.37h0ZM114.85,18.31c-.33-.04-.15.84.16,1.4.92,1.75,2.21,3.89,4.33,4.19,1.24-.45-.87-2.82-1.41-3.33-.82-.88-1.81-2.34-3.08-2.26h0Z"/>
            </g>
            <g>
              <path class="cls-24" d="M111.57,18.26c.67-.03,1.31.37,1.88.89.57.52,1.09,1.19,1.5,1.76l.09.13c.25.38.73,1.1,1.1,1.82.36.7.59,1.37.42,1.71-.2.41-.8.37-1.99-.33-.89-.52-1.81-1.53-2.4-2.36-.4-.57-.95-1.4-1.2-2.12-.27-.79-.21-1.46.59-1.49Z"/>
              <path class="cls-23" d="M111.55,17.95c1.81.12,2.74,1.71,3.7,2.97.57,1.05,1.38,1.97,1.6,3.19.03.21.02.52-.2.75-.23.23-.55.23-.76.21-1.68-.37-2.92-1.52-3.92-2.75-.73-1-2.74-4.08-.42-4.36h0ZM111.58,18.56c-.76.04-.34.93-.17,1.39.97,1.91,2.4,4.06,4.54,4.69,1.56.02-.86-2.86-1.24-3.36-.82-1.03-1.74-2.63-3.14-2.72h0Z"/>
            </g>
            <g>
              <path class="cls-24" d="M108.12,18.14c.69.13,1.3.5,1.83,1.04.53.54.99,1.22,1.42,1.84l.09.13c.22.39.8,1.25,1.23,2.09.43.83.73,1.64.41,1.94-.29.27-1.05,0-2.08-.69-.88-.59-1.77-1.53-2.29-2.22-.46-.61-1.17-1.61-1.47-2.48-.31-.91-.2-1.86.86-1.65Z"/>
              <path class="cls-23" d="M108.17,17.87c1.8.39,2.74,2.06,3.65,3.48.6,1.14,1.49,2.11,1.65,3.46.04.73-.73.85-1.25.62-2.45-.97-4.36-2.96-5.28-5.42-.38-.96-.16-2.49,1.24-2.14h0ZM108.06,18.41c-.9-.18-.69.81-.49,1.36,1.01,2.1,2.88,4.83,5.28,5.29.1-.03.14-.09.14-.26-.18-1.15-1.1-2.15-1.73-3.13-.86-1.32-1.7-2.92-3.21-3.27h0Z"/>
            </g>
            <g>
              <path class="cls-24" d="M107.66,20.85c.2.4.86,1.4,1.37,2.37s.84,1.9.4,2.18c-.42.12-1.29-.38-2.16-1.05s-1.74-1.51-2.18-2.08c-.55-.63-1.38-1.82-1.74-2.85s-.23-1.87,1.12-1.82c1.46.37,2.24,1.78,3.11,3.11l.08.13Z"/>
              <path class="cls-23" d="M107.88,20.73l1.25,2.23c2.68,5.45-3.17,1.06-4.43-.76-1.19-1.24-3.62-5.12-.21-5.07,1.78.46,2.53,2.21,3.38,3.61h0ZM107.45,20.96c-.7-1.14-1.82-2.85-2.99-3.06-1.13-.07-1.13.72-.81,1.58.95,2.36,2.98,4.29,5.24,5.41.18.08.42.11.42.1,0,0-.11.05-.11.05.11-1.01-1.32-3.09-1.75-4.07h0Z"/>
            </g>
          </g>
        </g>
        <circle class="cls-17" cx="240.87" cy="100.44" r="3.54"/>
        <circle class="cls-17" cx="89.3" cy="100.44" r="3.54"/>
      </g>
    </g>
  </g>
</svg>