<?xml version="1.0" encoding="UTF-8"?>
<svg xmlns="http://www.w3.org/2000/svg" xmlns:xlink="http://www.w3.org/1999/xlink" viewBox="0 0 2080 2080">
  <defs>
    <style>
      .cls-1, .cls-2, .cls-3, .cls-4, .cls-5 {
        fill: none;
      }

      .cls-6 {
        fill: #383b6d;
      }

      .cls-6, .cls-2, .cls-7, .cls-8, .cls-3, .cls-9, .cls-10, .cls-11, .cls-12, .cls-13, .cls-14, .cls-15, .cls-16, .cls-17, .cls-18, .cls-19, .cls-20, .cls-21, .cls-22, .cls-23, .cls-24, .cls-25, .cls-26, .cls-27, .cls-28, .cls-29, .cls-30, .cls-4, .cls-31, .cls-32, .cls-33, .cls-34, .cls-35, .cls-36, .cls-37, .cls-38, .cls-39, .cls-40, .cls-41, .cls-42, .cls-43, .cls-44, .cls-45, .cls-46, .cls-47, .cls-48, .cls-49, .cls-50, .cls-51, .cls-52, .cls-53, .cls-54, .cls-55, .cls-56, .cls-57, .cls-58, .cls-59, .cls-60, .cls-61, .cls-5, .cls-62 {
        stroke-width: 3px;
      }

      .cls-6, .cls-2, .cls-7, .cls-8, .cls-3, .cls-9, .cls-11, .cls-12, .cls-13, .cls-14, .cls-15, .cls-17, .cls-63, .cls-18, .cls-19, .cls-20, .cls-21, .cls-64, .cls-22, .cls-23, .cls-65, .cls-25, .cls-27, .cls-28, .cls-29, .cls-66, .cls-30, .cls-4, .cls-31, .cls-32, .cls-33, .cls-34, .cls-35, .cls-67, .cls-36, .cls-37, .cls-38, .cls-68, .cls-39, .cls-40, .cls-44, .cls-45, .cls-47, .cls-48, .cls-49, .cls-69, .cls-50, .cls-51, .cls-52, .cls-53, .cls-54, .cls-55, .cls-57, .cls-60, .cls-70, .cls-61, .cls-5, .cls-62 {
        stroke: #040404;
      }

      .cls-6, .cls-7, .cls-8, .cls-3, .cls-9, .cls-10, .cls-11, .cls-12, .cls-13, .cls-14, .cls-15, .cls-16, .cls-17, .cls-63, .cls-18, .cls-19, .cls-20, .cls-21, .cls-64, .cls-22, .cls-23, .cls-24, .cls-65, .cls-25, .cls-26, .cls-27, .cls-28, .cls-29, .cls-66, .cls-30, .cls-4, .cls-31, .cls-32, .cls-33, .cls-34, .cls-35, .cls-67, .cls-36, .cls-37, .cls-38, .cls-68, .cls-39, .cls-40, .cls-41, .cls-42, .cls-43, .cls-44, .cls-45, .cls-46, .cls-48, .cls-49, .cls-69, .cls-50, .cls-51, .cls-52, .cls-53, .cls-54, .cls-55, .cls-56, .cls-58, .cls-59, .cls-60, .cls-70, .cls-61, .cls-5, .cls-62 {
        stroke-miterlimit: 10;
      }

      .cls-2, .cls-3, .cls-47, .cls-57, .cls-5 {
        stroke-linecap: round;
      }

      .cls-2, .cls-47, .cls-57 {
        stroke-linejoin: round;
      }

      .cls-71, .cls-8, .cls-72, .cls-73, .cls-69 {
        fill: #f2f1e3;
      }

      .cls-7 {
        fill: #2e2a2b;
      }

      .cls-9, .cls-65 {
        fill: #f4ac2f;
      }

      .cls-10, .cls-16, .cls-41, .cls-42, .cls-43, .cls-56, .cls-58, .cls-59 {
        stroke: #000;
      }

      .cls-10, .cls-46 {
        fill: #f6d3be;
      }

      .cls-11 {
        fill: #2d2a2a;
      }

      .cls-12 {
        fill: #6ab07d;
      }

      .cls-13 {
        fill: #363d6b;
      }

      .cls-14 {
        fill: #f45732;
      }

      .cls-15 {
        fill: #fad1ac;
      }

      .cls-16, .cls-64, .cls-22 {
        fill: #f45831;
      }

      .cls-74 {
        fill: url(#radial-gradient);
      }

      .cls-17 {
        fill: #f8f8f0;
      }

      .cls-75 {
        fill: #343763;
      }

      .cls-63 {
        stroke-width: 2.81px;
      }

      .cls-63, .cls-19 {
        fill: #595b5c;
      }

      .cls-18 {
        fill: #fecfad;
      }

      .cls-20 {
        fill: #f5a11b;
      }

      .cls-21 {
        fill: #383b6f;
      }

      .cls-64 {
        stroke-width: 3.85px;
      }

      .cls-23 {
        fill: #595b5c;
      }

      .cls-24, .cls-26, .cls-46 {
        stroke: #010001;
      }

      .cls-24, .cls-34 {
        fill: #6ab07c;
      }

      .cls-65, .cls-67, .cls-69 {
        stroke-width: 2px;
      }

      .cls-76 {
        isolation: isolate;
      }

      .cls-25 {
        fill: #f45835;
      }

      .cls-26, .cls-61 {
        fill: #3e824e;
      }

      .cls-27 {
        fill: #f4ae2e;
      }

      .cls-28 {
        fill: #84907c;
      }

      .cls-29 {
        fill: #f2bca5;
      }

      .cls-66 {
        fill: #73b3ae;
      }

      .cls-66, .cls-68, .cls-70 {
        stroke-width: 1.81px;
      }

      .cls-30 {
        fill: #6baf7c;
      }

      .cls-31 {
        fill: #383c6f;
      }

      .cls-32 {
        fill: #1d1c42;
      }

      .cls-33, .cls-70 {
        fill: #f4ad2e;
      }

      .cls-77 {
        fill: #040404;
      }

      .cls-35, .cls-57 {
        fill: #d78871;
      }

      .cls-67, .cls-50 {
        fill: #f5ad2f;
      }

      .cls-36 {
        fill: #383b6e;
      }

      .cls-72 {
        opacity: .59;
      }

      .cls-72, .cls-73, .cls-78 {
        mix-blend-mode: screen;
      }

      .cls-73, .cls-78 {
        opacity: .48;
      }

      .cls-37 {
        fill: #f4f3e7;
        mix-blend-mode: lighten;
        opacity: .83;
      }

      .cls-38 {
        fill: #393c6f;
      }

      .cls-68 {
        fill: #f45935;
      }

      .cls-39 {
        fill: #fecfac;
      }

      .cls-40 {
        fill: #f15932;
      }

      .cls-41 {
        fill: #585b80;
      }

      .cls-42 {
        fill: #f2572f;
      }

      .cls-43 {
        fill: #ffd6bc;
      }

      .cls-44 {
        fill: #f45a37;
      }

      .cls-45 {
        fill: #f35a36;
      }

      .cls-47, .cls-53, .cls-58 {
        fill: #383c6e;
      }

      .cls-48 {
        fill: #ee5a2f;
      }

      .cls-49 {
        fill: #383c6d;
      }

      .cls-51 {
        fill: #d4eba4;
      }

      .cls-52 {
        fill: #76b3ad;
      }

      .cls-54 {
        fill: url(#radial-gradient-2);
        mix-blend-mode: color-burn;
        opacity: .58;
      }

      .cls-55 {
        fill: #fdd1ad;
      }

      .cls-56 {
        fill: #fed7bd;
      }

      .cls-59 {
        fill: #fccdb0;
      }

      .cls-60 {
        fill: #928c62;
      }

      .cls-79 {
        clip-path: url(#clippath);
      }

      .cls-5 {
        stroke-dasharray: .95 .95;
      }

      .cls-62 {
        fill: #373a6c;
      }
    </style>
    <clipPath id="clippath">
      <path class="cls-1" d="M1319.63,1746h-799.13c-56.17-25.89-99.82-124.5-99.82-217.08l145.41-141.92c25.23-24.62,59.09-38.41,94.34-38.41h412.99c60.75,0,110,49.25,110,110v76.78c0,23.79,9.64,45.32,25.23,60.9,15.58,15.59,37.12,25.23,60.9,25.23,7.16,0,14.12-.87,20.77-2.53l-2.03,5.33c-3.39,8.92-3.57,18.74-.51,27.77l31.85,93.92Z"/>
    </clipPath>
    <radialGradient id="radial-gradient" cx="869.65" cy="864.85" fx="869.65" fy="864.85" r="99.26" gradientUnits="userSpaceOnUse">
      <stop offset="0" stop-color="#76b3ad"/>
      <stop offset=".21" stop-color="#769caf"/>
      <stop offset=".46" stop-color="#768ab1"/>
      <stop offset=".71" stop-color="#767fb2"/>
      <stop offset="1" stop-color="#767cb3"/>
    </radialGradient>
    <radialGradient id="radial-gradient-2" cx="1504.7" cy="1241.28" fx="1504.7" fy="1241.28" r="16.71" gradientUnits="userSpaceOnUse">
      <stop offset="0" stop-color="#76b3ad"/>
      <stop offset=".32" stop-color="#76afad"/>
      <stop offset=".35" stop-color="#76a1ae"/>
      <stop offset=".38" stop-color="#7690b0"/>
      <stop offset=".43" stop-color="#7684b1"/>
      <stop offset=".5" stop-color="#767db2"/>
      <stop offset=".69" stop-color="#767cb3"/>
    </radialGradient>
  </defs>
  <g class="cls-76">
    <g id="Layer_1" data-name="Layer 1">
      <rect class="cls-47" x="499.46" y="1746.25" width="1001" height="56" rx="28" ry="28"/>
      <line class="cls-2" x1="1818.46" y1="1802.25" x2="492.46" y2="1802.25"/>
    </g>
    <g id="Snout">
      <rect class="cls-8" x="1734.27" y="1596.6" width="24.99" height="6.78"/>
      <path class="cls-21" d="M1712.53,1570.22v51.28h-201.58c-18.38,0-31.41-18.05-25.49-35.45.06-.19.13-.37.19-.56,3.74-11.09,14.19-18.52,25.9-18.34l200.98,3.07Z"/>
      <path class="cls-22" d="M1815.55,1589.68l-24.74,28.97c-1.54,1.81-3.8,2.85-6.17,2.85h-33.62v-38.43c0-6.28,5.09-11.38,11.38-11.38h44.86c9.31,0,14.34,10.91,8.29,17.99Z"/>
      <path class="cls-21" d="M1778,1571.69v49.81h-26.98v-38.43c0-6.28,5.09-11.38,11.38-11.38h15.6Z"/>
      <path class="cls-22" d="M1739.51,1582.3v39.2h-26.98v-51.28l16.1.71c6.08.27,10.88,5.28,10.88,11.37Z"/>
    </g>
    <g id="_L_Red_" data-name="(L) Red 🌭">
      <path class="cls-45" d="M417.66,1429.09h520.74v75.17H417.66c-20.74,0-37.59-16.84-37.59-37.59h0c0-20.74,16.84-37.59,37.59-37.59Z"/>
    </g>
    <g id="_R_Yellow_copy" data-name="(R) Yellow 🌭 copy">
      <path class="cls-9" d="M1622.11,1453.45c-.27,0-.53,0-.8.01l-513.23,3.42c0,4.57-3.74,8.33-8.3,8.36v60.51c4.57.03,8.3,3.79,8.3,8.36l514.21,3.43c.29,0,.57-.02.85-.03,0,0,0,.02,0,.03,22.06-.56,39.78-19.16,39.78-42.04s-18.27-42.05-40.81-42.05Z"/>
    </g>
    <g id="_R_Yellow_" data-name="(R) Yellow 🌭">
      <path class="cls-9" d="M1114.78,1524c4.57.03,8.3,3.79,8.3,8.36l514.21,3.43c20.76,0,33.3-20.32,33.3-41.07v-1.94c0-20.76-13.52-41.06-34.27-41.06l-513.23,3.42c0,4.57-3.74,8.33-8.3,8.36v60.51Z"/>
      <path class="cls-9" d="M1677.91,1493.75c0,22.88-17.72,41.48-39.78,42.04,1.76-11.97,2.68-24.22,2.68-36.69,0-16.22-1.54-32.06-4.5-47.38.27-.01.53-.01.8-.01,22.54,0,40.81,18.82,40.81,42.05Z"/>
    </g>
    <g id="Bomb">
      <g>
        <line class="cls-3" x1="605.93" y1="1125.36" x2="606.43" y2="1125.38"/>
        <line class="cls-5" x1="607.38" y1="1125.41" x2="620.15" y2="1125.84"/>
        <line class="cls-3" x1="620.62" y1="1125.85" x2="621.12" y2="1125.87"/>
      </g>
      <path class="cls-3" d="M531.3,1160.7l.32-9.48c.53-15.61,15.59-27.84,31.2-27.31l43.12,1.45"/>
      <path class="cls-6" d="M517.88,1145.21h29.95c1.17,0,2.12.95,2.12,2.12v27.23h-37.28v-24.12c0-2.88,2.34-5.22,5.22-5.22Z"/>
      <ellipse class="cls-9" cx="532.48" cy="1229.9" rx="62.81" ry="61.02"/>
    </g>
    <g id="Beak">
      <path class="cls-9" d="M801.46,1084.85c0,37.15-34.93,69.05-84.77,82.77-28.14,7.75-55.95-13.35-55.95-42.54h0c0-24.5-19.86-44.37-44.37-44.37h-90.94c-1.11,0-1.78-1.24-1.17-2.16,27.22-40.84,88.17-83.68,137.64-83.68,77.07,0,139.55,40.28,139.55,89.97Z"/>
    </g>
    <g id="Rainbow_Tongue_Board" data-name="Rainbow Tongue Board">
      <path class="cls-66" d="M1219.03,801.39c-1.14,4.05-2.69,7.71-4.55,10.79-3.25,5.38-9.08,8.67-15.37,8.67h-179.98v-19.46h199.89Z"/>
      <path class="cls-70" d="M1220.88,769.23v31.02c0,.62-.52,1.14-1.14,1.14h-200.6v-33.31h200.6c.62,0,1.14.52,1.14,1.15Z"/>
      <path class="cls-68" d="M1219.03,768.08h-199.89v-19.46h179.98c6.04,0,11.78,2.98,15,8.09,2.03,3.19,3.7,7.06,4.91,11.37Z"/>
      <g>
        <path class="cls-57" d="M1110.85,880.46h-95.42v106.8h-245.21v-354.1c0-4.47-.94-8.84-2.69-12.84-1.75-4.01-4.33-7.65-7.6-10.67l-19.27-21.41,274.77,4.23c-1.2,9.73-1.26,25.41-1,39.28.34,18.34,7.84,35.8,20.83,48.68,2.84,2.81,5.87,5.8,9.01,8.88,7.43,7.29,14.22,15.13,20.32,23.43,8.43,11.41,15.57,23.69,21.32,36.61,5.02,11.28,8.99,23.05,11.83,35.16,1.59,6.76,2.82,13.63,3.69,20.57l1.96,15.66,5.18,41.48,2.28,18.24Z"/>
        <path class="cls-40" d="M1110.85,880.46h-87.23v-167.72h40.97c8.43,11.41,15.57,23.69,21.32,36.61,5.02,11.28,8.99,23.05,11.83,35.16,1.59,6.76,2.82,13.63,3.69,20.57l1.96,15.66,5.18,41.48,2.28,18.24Z"/>
        <path class="cls-44" d="M1108.57,862.22h-84.95v-149.48h40.97c8.43,11.41,15.57,23.69,21.32,36.61,5.02,11.28,8.99,23.05,11.83,35.16,1.59,6.76,2.82,13.63,3.69,20.57l1.96,15.66,5.18,41.48Z"/>
        <path class="cls-36" d="M1103.39,820.74h-79.77v-108h40.97c8.43,11.41,15.57,23.69,21.32,36.61,5.02,11.28,8.99,23.05,11.83,35.16,1.59,6.76,2.82,13.63,3.69,20.57l1.96,15.66Z"/>
        <path class="cls-38" d="M1097.74,784.51h-74.12v-71.77h40.97c8.43,11.41,15.57,23.69,21.32,36.61,5.02,11.28,8.99,23.05,11.83,35.16Z"/>
        <path class="cls-30" d="M1085.91,749.35h-62.29v-36.61h40.97c8.43,11.41,15.57,23.69,21.32,36.61Z"/>
      </g>
    </g>
    <g id="Big_Beak" data-name="Big Beak">
      <path class="cls-75" d="M1321.21,421.94s-332.41-3.47-332.83,1.64c0,0,0,17.15,0,22.25,0,.99.57,1.9,1.47,2.34,6.12,2.96,15.33-2.41,28.51,6.55.13.09.25.19.36.3,12.17,11.99,27.44.64,39.62-5.39.76-.38,1.67-.34,2.41.08,23.94,13.54,27.28,13.48,51.06.05.8-.45,1.78-.45,2.57.01,23.36,13.45,27.39,13.41,50.7,0,.79-.46,1.78-.46,2.57,0,23.42,13.25,27.37,13.59,50.83.01.79-.46,1.78-.46,2.58-.01,24.41,13.77,26.89,13.26,51.45-.19.63-.34,1.39-.43,2.06-.19,8.93,3.19,12.14,10.45,25.36,10.45,27.32,0,21.66-35.2,21.66-35.2l-.36-2.68Z"/>
      <g>
        <path class="cls-15" d="M1260.69,425.87c-.54-1.1-4.82-.53-6.72-.67-6.73.04-15.45-.07-20.03.04-1.73-.05-2.03,1.4-2.02,2.94-.05,1.85-.02,4.92-.03,7.54-.26,6.72.47,13.52,6.18,17.64,7.28,5.6,18.63,2.25,21.75-6.38,1.51-3.61,1.3-7.42,1.32-12.01-.09-2.41.28-7.76-.4-9.04l-.04-.07Z"/>
        <path class="cls-15" d="M1207.29,425.87c-.54-1.1-4.82-.53-6.72-.67-6.73.04-15.45-.07-20.03.04-1.73-.05-2.03,1.4-2.02,2.94-.05,1.85-.02,4.92-.03,7.54-.26,6.72.47,13.52,6.18,17.64,7.28,5.6,18.63,2.25,21.75-6.38,1.51-3.61,1.3-7.42,1.32-12.01-.09-2.41.28-7.76-.4-9.04l-.04-.07Z"/>
        <path class="cls-15" d="M1314.09,425.87c-.54-1.1-4.82-.53-6.72-.67-6.73.04-15.45-.07-20.03.04-1.73-.05-2.03,1.4-2.02,2.94-.05,1.85-.02,4.92-.03,7.54-.26,6.72.47,13.52,6.18,17.64,7.28,5.6,18.63,2.25,21.75-6.38,1.51-3.61,1.3-7.42,1.32-12.01-.09-2.41.28-7.76-.4-9.04l-.04-.07Z"/>
        <path class="cls-15" d="M1153.89,425.87c-.54-1.1-4.82-.53-6.72-.67-6.73.04-15.45-.07-20.03.04-1.73-.05-2.03,1.4-2.02,2.94-.05,1.85-.02,4.92-.03,7.54-.26,6.72.47,13.52,6.18,17.64,7.28,5.6,18.63,2.25,21.75-6.38,1.51-3.61,1.3-7.42,1.32-12.01-.09-2.41.28-7.76-.4-9.04l-.04-.07Z"/>
        <path class="cls-15" d="M1100.49,425.87c-.54-1.1-4.82-.53-6.72-.67-6.73.04-15.45-.07-20.03.04-1.73-.05-2.03,1.4-2.02,2.94-.05,1.85-.02,4.92-.03,7.54-.26,6.72.47,13.52,6.18,17.64,7.28,5.6,18.63,2.25,21.75-6.38,1.51-3.61,1.3-7.42,1.32-12.01-.09-2.41.28-7.76-.4-9.04l-.04-.07Z"/>
        <path class="cls-15" d="M1047.09,425.87c-.54-1.1-4.82-.53-6.72-.67-6.73.04-15.45-.07-20.03.04-1.73-.05-2.03,1.4-2.02,2.94-.05,1.85-.02,4.92-.03,7.54-.26,6.72.47,13.52,6.18,17.64,7.28,5.6,18.63,2.25,21.75-6.38,1.51-3.61,1.3-7.42,1.32-12.01-.09-2.41.28-7.76-.4-9.04l-.04-.07Z"/>
      </g>
      <path class="cls-31" d="M1330.41,434.19h-316.21v-52.4h198.4c40.16,0,94.72,14.31,117.33,38.76l-.02.02c.84.87,1.42,2.01,1.6,3.3l1.09,7.81c.18,1.33-.85,2.51-2.19,2.51Z"/>
      <path class="cls-48" d="M1330.41,434.19h-318.7v-15.44h313.91c1.67,0,3.2.69,4.29,1.82.84.87,1.42,2.01,1.6,3.3l1.09,7.81c.18,1.33-.85,2.51-2.19,2.51Z"/>
    </g>
    <g id="Layer_27" data-name="Layer 27">
      <rect class="cls-29" x="457.46" y="751.25" width="429" height="22"/>
      <path class="cls-53" d="M464.46,761.25c0,15.46-12.54,28-28,28s-28-12.54-28-28,12.54-28,28-28,28,12.54,28,28ZM436.46,749.25c-6.63,0-12,5.37-12,12s5.37,12,12,12,12-5.37,12-12-5.37-12-12-12Z"/>
    </g>
    <g id="Sideways_Cross_Man" data-name="Sideways Cross Man">
      <path class="cls-67" d="M928.83,788.73c1.95,2.71,3.08,6.02,3.08,9.61s-1.13,6.89-3.08,9.6c-1.11,1.57-2.5,2.94-4.09,4.03-2.66,1.84-5.9,2.92-9.38,2.92s-6.72-1.08-9.39-2.92h-359.78v-20.35h349.88c1.61,0,3.15-.3,4.57-.86,3.28-1.27,5.9-3.88,7.18-7.16.56-1.43.87-2.98.87-4.61v-34.67c0-1.63-.31-3.18-.87-4.61-1.29-3.28-3.9-5.89-7.18-7.16-1.42-.56-2.96-.86-4.57-.86h-349.88v-20.35h359.78c2.67-1.84,5.91-2.92,9.39-2.92s6.72,1.08,9.38,2.92c1.59,1.09,2.98,2.46,4.09,4.03,1.95,2.71,3.08,6.02,3.08,9.6s-1.14,6.9-3.08,9.61v54.15Z"/>
      <path class="cls-37" d="M908.69,744.32v34.67c0,1.63-.31,3.18-.87,4.61-1.28,3.28-3.9,5.89-7.18,7.16-1.42.56-2.96.86-4.57.86h-343.36c-3.6,0-6.52,2.92-6.52,6.52v55.74c0,9.4-7.69,17.39-17.09,17.21-9.11-.17-16.44-7.62-16.44-16.77v-184.91c0-9.28,7.35-17.12,16.63-17.19,4.68-.04,8.92,1.85,11.99,4.91,3.03,3.03,4.91,7.22,4.91,11.85v56.19c0,3.6,2.92,6.52,6.52,6.52h343.36c1.61,0,3.15.3,4.57.86,3.28,1.27,5.89,3.88,7.18,7.16.56,1.43.87,2.98.87,4.61Z"/>
    </g>
    <g id="Green_Head" data-name="Green Head">
      <path class="cls-34" d="M451.21,314.58h234.22v68.89h-234.22c-19.01,0-34.45-15.43-34.45-34.45h0c0-19.01,15.43-34.45,34.45-34.45Z"/>
      <path class="cls-61" d="M511.49,314.58h234.22v68.89h-234.22c-19.01,0-34.45-15.43-34.45-34.45h0c0-19.01,15.43-34.45,34.45-34.45Z"/>
      <path class="cls-58" d="M666.98,368.71h-246.45c-1.66,0-3.01,1.35-3.01,3.01v3.69c0,23.99,27.75,54.68,57.31,54.68h192.15v-61.38Z"/>
      <path class="cls-16" d="M417.52,371.72v3.69c0,1.42.1,2.86.29,4.32h249.16v-11.01h-246.45c-1.66,0-3.01,1.35-3.01,3.01Z"/>
      <path class="cls-41" d="M731.11,368.71h-246.45c-1.66,0-3.01,1.35-3.01,3.01v3.69c0,23.99,27.75,54.68,57.31,54.68h192.15v-61.38Z"/>
      <path class="cls-46" d="M481.65,371.72v3.69c0,1.42.1,2.86.29,4.32h249.16v-11.01h-246.45c-1.66,0-3.01,1.35-3.01,3.01Z"/>
      <path class="cls-58" d="M714.12,430.1h-246.45c-1.66,0-3.01,1.35-3.01,3.01v3.69c0,23.99,27.75,54.68,57.31,54.68h192.15v-61.38Z"/>
      <path class="cls-59" d="M464.66,433.1v3.69c0,1.42.1,2.86.29,4.32h249.16v-11.01h-246.45c-1.66,0-3.01,1.35-3.01,3.01Z"/>
      <path class="cls-41" d="M778.25,430.1h-246.45c-1.66,0-3.01,1.35-3.01,3.01v3.69c0,23.99,27.75,54.68,57.31,54.68h192.15v-61.38Z"/>
      <path class="cls-16" d="M528.79,433.1v3.69c0,1.42.1,2.86.29,4.32h249.16v-11.01h-246.45c-1.66,0-3.01,1.35-3.01,3.01Z"/>
      <path class="cls-58" d="M761.26,491.48h-246.45c-1.66,0-3.01,1.35-3.01,3.01v3.69c0,23.99,27.75,54.68,57.31,54.68h192.15v-61.38Z"/>
      <path class="cls-16" d="M511.8,494.49v3.69c0,1.42.1,2.86.29,4.32h249.16v-11.01h-246.45c-1.66,0-3.01,1.35-3.01,3.01Z"/>
      <path class="cls-41" d="M825.39,491.48h-246.45c-1.66,0-3.01,1.35-3.01,3.01v3.69c0,23.99,27.75,54.68,57.31,54.68h192.15v-61.38Z"/>
      <path class="cls-56" d="M575.93,494.49v3.69c0,1.42.1,2.86.29,4.32h249.16v-11.01h-246.45c-1.66,0-3.01,1.35-3.01,3.01Z"/>
      <path class="cls-24" d="M574,314.58h234.22v68.89h-234.22c-19.01,0-34.45-15.43-34.45-34.45h0c0-19.01,15.43-34.45,34.45-34.45Z"/>
      <path class="cls-26" d="M639.16,314.58h234.22v68.89h-234.22c-19.01,0-34.45-15.43-34.45-34.45h0c0-19.01,15.43-34.45,34.45-34.45Z"/>
      <path class="cls-58" d="M794.4,368.71h-246.45c-1.66,0-3.01,1.35-3.01,3.01v3.69c0,23.99,27.75,54.68,57.31,54.68h192.15v-61.38Z"/>
      <path class="cls-41" d="M860.83,374.22h-246.45c-1.66,0-3.01,1.35-3.01,3.01v3.69c0,23.99,27.75,54.68,57.31,54.68h192.15v-61.38Z"/>
      <path class="cls-16" d="M544.94,371.72v3.69c0,1.42.1,2.86.29,4.32h249.16v-11.01h-246.45c-1.66,0-3.01,1.35-3.01,3.01Z"/>
      <path class="cls-10" d="M611.38,371.72v3.69c0,1.42.1,2.86.29,4.32h249.16v-11.01h-246.45c-1.66,0-3.01,1.35-3.01,3.01Z"/>
      <path class="cls-58" d="M841.54,430.1h-246.45c-1.66,0-3.01,1.35-3.01,3.01v3.69c0,23.99,27.75,54.68,57.31,54.68h192.15v-61.38Z"/>
      <path class="cls-43" d="M592.08,433.1v3.69c0,1.42.1,2.86.29,4.32h249.16v-11.01h-246.45c-1.66,0-3.01,1.35-3.01,3.01Z"/>
      <path class="cls-16" d="M646.69,433.1v3.69c0,1.42.1,2.86.29,4.32h249.16v-11.01h-246.45c-1.66,0-3.01,1.35-3.01,3.01Z"/>
      <path class="cls-58" d="M888.68,491.48h-246.45c-1.66,0-3.01,1.35-3.01,3.01v3.69c0,23.99,27.75,54.68,57.31,54.68h192.15v-61.38Z"/>
      <path class="cls-42" d="M639.22,494.49v3.69c0,1.42.1,2.86.29,4.32h249.16v-11.01h-246.45c-1.66,0-3.01,1.35-3.01,3.01Z"/>
      <path class="cls-12" d="M738.38,588.24c44.09,49.36,107.53,77.04,173.72,77.04h0c37.1,0,115.25-25.55,115.25-82.63v-172.34c0-52.87-42.86-95.74-95.74-95.74h-286.33s0,169.45,93.1,273.66Z"/>
    </g>
    <g id="Big_Green_Eye" data-name="Big Green Eye">
      <circle class="cls-50" cx="924.21" cy="430.1" r="78.02"/>
      <circle class="cls-17" cx="924.21" cy="430.1" r="47.43"/>
      <circle class="cls-55" cx="924.21" cy="430.1" r="32.05"/>
    </g>
    <g id="Big_Green_Eye_Pupil" data-name="Big Green Eye Pupil">
      <circle class="cls-77" cx="924.21" cy="430.1" r="12.19"/>
    </g>
    <g id="Mag_shaft_main" data-name="Mag shaft main">
      <path class="cls-8" d="M1268.67,1066.1v142.25c-2.79.1-5.79.16-8.92.16s-6.14-.06-8.93-.16v-142.25c0-4.93,4-8.92,8.92-8.92s8.93,3.99,8.93,8.92Z"/>
    </g>
    <g id="Shaft_1" data-name="Shaft 1">
      <rect class="cls-14" x="1151.67" y="959.74" width="28.45" height="205.56" rx="11.27" ry="11.27" transform="translate(2228.42 -103.37) rotate(90)"/>
      <rect class="cls-64" x="1052.54" y="931.03" width="29.39" height="124.17" rx="11.45" ry="11.45"/>
      <path class="cls-13" d="M1051.2,1036.25h29.53c6.48,0,11.74,5.26,11.74,11.74v29.53c0,6.48-5.26,11.74-11.74,11.74h-10.85c-16.79,0-30.41-13.63-30.41-30.41v-10.85c0-6.48,5.26-11.74,11.74-11.74Z"/>
      <rect class="cls-22" x="1250.83" y="1059.6" width="17.84" height="179.21" rx="8.92" ry="8.92" transform="translate(2519.49 2298.41) rotate(180)"/>
      <path class="cls-60" d="M1286.92,1067.94l-2.19,32.94h-49.97l6-6.45c2.77-2.98,2.78-7.58.02-10.57h0c-2.78-3.01-7.42-3.35-10.61-.77h0c-1.24,1-3.08.06-2.99-1.53l1.96-35.85h35.55c12.27,0,22.22,9.95,22.22,22.22Z"/>
      <circle class="cls-20" cx="1259.56" cy="1068.71" r="17.34"/>
      <rect class="cls-23" x="1226.96" y="1094.88" width="64.31" height="17.11" rx="8.55" ry="8.55"/>
      <rect class="cls-19" x="1201.55" y="1055.84" width="44.29" height="17.11" rx="7.22" ry="7.22" transform="translate(2288.09 -159.3) rotate(90)"/>
      <circle class="cls-65" cx="1067.23" cy="1062.52" r="14.23"/>
      <circle class="cls-9" cx="1262.67" cy="1068.52" r="14.23"/>
      <path class="cls-73" d="M1271.92,1068.51c0,3.6-1.46,6.52-3.28,6.52-.01,0-.02,0-.03,0-.91-.02-1.45-1.06-1.04-1.86.61-1.19.98-2.84.98-4.66s-.38-3.46-.98-4.63c-.42-.81.13-1.86,1.06-1.87,0,0,.01,0,.02,0,1.82,0,3.28,2.92,3.28,6.5Z"/>
      <rect class="cls-19" x="1039.46" y="1023.25" width="53" height="14" rx="7" ry="7"/>
      <rect class="cls-63" x="1074.65" y="1056.5" width="49.62" height="13.11" rx="6.55" ry="6.55" transform="translate(36.4 2162.51) rotate(-90)"/>
      <path class="cls-71" d="M1074.49,1055.87c2.55,2.55,3.57,5.64,2.29,6.93,0,0-.02.02-.02.02-.66.63-1.77.28-2.05-.58-.41-1.27-1.31-2.7-2.6-3.99s-2.71-2.18-3.97-2.58c-.87-.28-1.22-1.41-.57-2.07,0,0,0,0,.01-.01,1.29-1.29,4.38-.26,6.92,2.28Z"/>
    </g>
    <g id="base.hand.joint">
      <path class="cls-49" d="M1259.3,1228.71c-3.17,0-6.18.65-8.92,1.83-8.05,3.46-13.7,11.47-13.7,20.79,0,4.23,1.16,8.18,3.18,11.56h-72.22c4.97-11.46,15.05-21.55,28.56-29.22,5.79-3.28,12.35-4.94,19.01-4.95,8.28,0,21.31-.01,35.17-.01h8.92Z"/>
      <path class="cls-69" d="M1259.3,1273.95h-94.79c.51-3.8,1.57-7.5,3.13-11.06h72.22c3.94,6.62,11.17,11.06,19.44,11.06Z"/>
      <path class="cls-49" d="M1278.75,1262.89c2.01-3.38,3.17-7.33,3.17-11.56,0-9.32-5.64-17.33-13.69-20.79-2.74-1.18-5.76-1.83-8.93-1.83h8.93c13.86,0,26.89.01,35.17.01,6.65.01,13.22,1.67,19.01,4.95,13.51,7.67,23.59,17.76,28.56,29.22h-72.22Z"/>
      <path class="cls-69" d="M1354.1,1273.95h-94.8c8.27,0,15.5-4.44,19.45-11.06h72.22c1.56,3.56,2.62,7.26,3.13,11.06Z"/>
      <path class="cls-69" d="M1354.46,1279.25c0,33.63-42.6,60.89-95.16,60.89s-95.15-27.26-95.15-60.89c0-1.79.12-3.55.36-5.3h189.59c.24,1.75.36,3.51.36,5.3Z"/>
      <path class="cls-12" d="M1281.92,1251.33c0,4.23-1.16,8.18-3.17,11.56-3.95,6.62-11.18,11.06-19.45,11.06s-15.5-4.44-19.44-11.06c-2.02-3.38-3.18-7.33-3.18-11.56,0-9.32,5.65-17.33,13.7-20.79,2.74-1.18,5.75-1.83,8.92-1.83s6.19.65,8.93,1.83c8.05,3.46,13.69,11.47,13.69,20.79Z"/>
      <path class="cls-11" d="M1259.3,1273.95h-94.79c.51-3.8,1.57-7.5,3.13-11.06h72.22c3.94,6.62,11.17,11.06,19.44,11.06Z"/>
      <path class="cls-7" d="M1354.1,1273.95h-94.8c8.27,0,15.5-4.44,19.45-11.06h72.22c1.56,3.56,2.62,7.26,3.13,11.06Z"/>
      <path class="cls-32" d="M1286.13,1205.62v3.58c-.05-.03-.09-.06-.14-.1-.04.08-.08.15-.14.23-1.78,2.7-12.32,4.8-25.25,4.93-.42.01-.86.01-1.29.01s-.87,0-1.29-.01c-12.94-.13-23.48-2.23-25.26-4.93-.06-.08-.1-.15-.14-.23-.05.04-.1.07-.14.1v-3.58c0,.37.65.73,1.84,1.05.89.25,2.08.48,3.52.68,1.46.21,3.18.4,5.1.56,2.23.19,4.73.33,7.44.44,2.79.1,5.8.16,8.93.16s6.13-.06,8.92-.16c2.71-.11,5.21-.25,7.44-.44,1.93-.16,3.64-.35,5.1-.56,1.44-.2,2.63-.43,3.52-.68,1.19-.32,1.84-.68,1.84-1.05Z"/>
      <path class="cls-62" d="M1299.13,1228.71h-79.65c.86-7.51,5.46-14.23,12.42-19.1.19-.14.38-.27.58-.41.04-.03.09-.06.14-.1.04.08.08.15.14.23,1.78,2.7,12.32,4.8,25.26,4.93.42.01.86.01,1.29.01s.87,0,1.29-.01c12.93-.13,23.47-2.23,25.25-4.93.06-.08.1-.15.14-.23.05.04.09.07.14.1.2.13.39.26.58.41,6.95,4.86,11.56,11.59,12.42,19.1Z"/>
      <path class="cls-62" d="M1250.38,1202.9v2.97c-2.84.16-5.45.4-7.75.7-1.23.15-2.37.33-3.41.52-.12.02-.23.04-.34.06-.02,0-.05,0-.07.01-.34.06-.66.13-.97.19-1.44-.2-2.63-.43-3.52-.68-1.19-.32-1.84-.68-1.84-1.05,0-1.25,7.47-2.32,17.9-2.72Z"/>
      <path class="cls-62" d="M1286.13,1205.62c0,.37-.65.73-1.84,1.05-.89.25-2.08.48-3.52.68-.31-.06-.63-.13-.97-.19-.13-.03-.25-.05-.38-.07h-.02c-1.04-.19-2.18-.37-3.41-.52-2.3-.3-4.92-.54-7.76-.7v-2.97c10.43.4,17.9,1.47,17.9,2.72Z"/>
      <path class="cls-77" d="M1280.77,1207.35c-1.46.21-3.17.4-5.1.56-2.23.19-4.73.33-7.44.44v-2.48c2.84.16,5.46.4,7.76.7,1.23.15,2.37.33,3.41.52h.02c.13.02.25.04.38.07.34.06.66.13.97.19Z"/>
      <path class="cls-77" d="M1250.38,1205.87v2.48c-2.71-.11-5.21-.25-7.44-.44-1.92-.16-3.64-.35-5.1-.56.31-.06.63-.13.97-.19.02-.01.05-.01.07-.01.11-.02.22-.04.34-.06,1.04-.19,2.18-.37,3.41-.52,2.3-.3,4.91-.54,7.75-.7Z"/>
      <g class="cls-78">
        <path class="cls-71" d="M1259.28,1232.52c9.7.03,15.2,6.88,13.18,9.56-.01.02-.02.04-.03.05-.92,1.41-3.11,1.33-4.29.09-1.74-1.89-5.05-3.48-8.86-3.46-3.8-.01-7.09,1.57-8.81,3.46-1.18,1.25-3.39,1.32-4.31-.11,0-.01-.01-.02-.02-.03-2.02-2.68,3.48-9.52,13.13-9.56Z"/>
      </g>
    </g>
    <g id="shoulder.joint">
      <polygon class="cls-28" points="1089.48 931.03 1044.99 931.03 1023.62 880.46 1110.85 880.46 1089.48 931.03"/>
      <rect class="cls-19" x="1014.84" y="878.62" width="104.78" height="16.55" rx="8.27" ry="8.27"/>
      <circle class="cls-65" cx="1067.23" cy="911.26" r="14.69"/>
      <rect class="cls-19" x="1039.67" y="927.35" width="55.13" height="13.77" rx="6.89" ry="6.89"/>
      <path class="cls-72" d="M1074.77,904.44c1.81,1.81,2.55,4.02,1.63,4.94,0,0-.01.01-.02.02-.47.45-1.26.2-1.46-.41-.29-.9-.94-1.93-1.85-2.84s-1.93-1.55-2.83-1.84c-.62-.2-.87-1-.41-1.47,0,0,0,0,0,0,.92-.92,3.12-.18,4.93,1.62Z"/>
    </g>
    <g id="Main_Base" data-name="Main Base">
      <path class="cls-8" d="M909.91,1008.23v348.52h-133.83v-347.98c22.12-5.82,44.91-8.82,67.96-8.82s44.41,2.82,65.87,8.28Z"/>
      <path class="cls-35" d="M1643.19,1509.97c0,12.16-.92,24.1-2.69,35.77-1.09,7.14-2.5,14.18-4.21,21.1-4.76,19.26-11.89,37.59-21.06,54.66-4.99,9.3-10.59,18.22-16.74,26.71-7.38,10.2-15.55,19.78-24.43,28.66-42.71,42.71-101.72,69.13-166.9,69.13h-87.53l-31.85-93.92c-3.06-9.04-2.88-18.86.51-27.77l2.03-5.33c37.53-9.29,65.35-43.19,65.35-83.6v-261.42h51.49c114.55,0,210.03,81.59,231.51,189.83,2.97,14.94,4.52,30.38,4.52,46.19Z"/>
      <path class="cls-33" d="M1319.63,1746h-799.13c-56.17-25.89-99.82-124.5-99.82-217.08l145.41-141.92c25.23-24.62,59.09-38.41,94.34-38.41h412.99c60.75,0,110,49.25,110,110v76.78c0,23.79,9.64,45.32,25.23,60.9,15.58,15.59,37.12,25.23,60.9,25.23,7.16,0,14.12-.87,20.77-2.53l-2.03,5.33c-3.39,8.92-3.57,18.74-.51,27.77l31.85,93.92Z"/>
      <path class="cls-52" d="M1027.34,1069.55v204.4h-366.6v-204.39c52.03-45.01,116.65-69.62,183.3-69.62s131.27,24.61,183.3,69.61Z"/>
      <path class="cls-53" d="M1027.34,932.65v136.9c-52.03-45-116.65-69.61-183.3-69.61s-131.27,24.61-183.3,69.62v-136.91c0-101.23,82.06-183.3,183.3-183.3,50.61,0,96.44,20.52,129.61,53.69,33.17,33.17,53.69,79,53.69,129.61Z"/>
      <g class="cls-79">
        <rect class="cls-18" x="261.97" y="1290.92" width="1060.08" height="279.3"/>
      </g>
      <path class="cls-12" d="M1355.67,1273.95v261.42c0,40.41-27.82,74.31-65.35,83.6-6.65,1.66-13.61,2.53-20.77,2.53-23.78,0-45.32-9.64-60.9-25.23-15.59-15.58-25.23-37.11-25.23-60.9v-76.78c0-60.75-49.25-110-110-110h-412.99c-35.25,0-69.11,13.79-94.34,38.41l-145.41,141.92v-208.02c0-25.93,21.02-46.95,46.95-46.95h888.04Z"/>
      <path class="cls-51" d="M909.91,1008.23v348.52h-133.83v-347.98c22.12-5.82,44.91-8.82,67.96-8.82s44.41,2.82,65.87,8.28Z"/>
      <path class="cls-22" d="M844.04,1000.11c-9.6,0-19.16.53-28.65,1.55v354.45h54.76v-354.71c-8.65-.85-17.37-1.29-26.12-1.29Z"/>
    </g>
    <g id="_2-tone_Yellow" data-name="2-tone Yellow">
      <path id="Top" class="cls-18" d="M1319.63,1746h-799.13c-56.17-25.89-99.82-124.5-99.82-217.08l145.41-141.92c25.23-24.62,59.09-38.41,94.34-38.41h412.99c60.75,0,110,49.25,110,110v76.78c0,23.79,9.64,45.32,25.23,60.9,15.58,15.59,37.12,25.23,60.9,25.23,7.16,0,14.12-.87,20.77-2.53l-2.03,5.33c-3.39,8.92-3.57,18.74-.51,27.77l31.85,93.92Z"/>
      <path id="Bottom" class="cls-27" d="M1288.29,1624.31l2.03-5.33c-6.65,1.66-13.61,2.53-20.77,2.53-23.78,0-45.32-9.64-60.9-25.23-7.46-7.45-13.53-16.28-17.86-26.05H423.46c10.44,78.91,49.2,153.73,97.04,175.78h799.13l-31.85-93.92c-3.06-9.04-2.88-18.86.51-27.77Z"/>
    </g>
    <g id="Window_1" data-name="Window 1">
      <path class="cls-52" d="M1106.92,1594.34c-1.57,32.31-28.26,58.02-60.96,58.02h-438.85c-38.66,0-70-31.34-70-70v-59.58c0-15.55,12.6-28.16,28.15-28.16h476.54c10.79,0,20.65,6.14,25.42,15.83l38.57,78.42c.83,1.7,1.22,3.58,1.13,5.47Z"/>
      <path class="cls-21" d="M854.2,1493.87h0c-3.13-9.18-4.73-18.8-4.73-28.5,0-48.58,40.15-88.55,88.94-88.55s88.94,39.97,88.94,88.55c0,9.96-1.69,19.85-4.99,29.25h0c-54.39-18.95-113.59-19.22-168.15-.76Z"/>
      <g>
        <path class="cls-25" d="M1025.88,1384.29h24.44c31.25,0,56.62,25.37,56.62,56.62v8.81h-81.06v-65.43h0Z"/>
        <path class="cls-12" d="M1025.88,1562.95h81.06v32.79c0,31.25-25.37,56.62-56.62,56.62h-24.44v-89.41h0Z"/>
        <rect class="cls-21" x="1025.88" y="1449.72" width="81.06" height="113.24"/>
      </g>
      <rect class="cls-39" x="849.46" y="1494.62" width="37.94" height="157.74"/>
      <rect class="cls-39" x="677.82" y="1494.62" width="37.47" height="157.74"/>
      <g>
        <path class="cls-8" d="M1047.54,1666.17h-21.66v-297.34h25.65c39.26,0,71.09,31.83,71.09,71.09v151.17c0,41.46-33.61,75.07-75.07,75.07ZM1106.93,1591.45v-150.74c0-31.16-25.26-56.43-56.43-56.43h-24.63v268.08h20.15c33.64,0,60.91-27.27,60.91-60.91Z"/>
        <path class="cls-8" d="M1047.08,1666.17h-443.58c-44.81,0-81.14-36.33-81.14-81.14v-61.28c0-24.65,19.98-44.63,44.63-44.63h470.9c17.32,0,33.18,9.74,41.02,25.19l42.5,83.79c.86,1.7,1.27,3.6,1.2,5.51-1.59,40.34-34.79,72.55-75.52,72.55ZM1106.92,1594.34c.09-1.89-.3-3.77-1.14-5.47l-38.57-78.42c-4.77-9.69-14.62-15.83-25.42-15.83h-476.53c-15.55,0-28.15,12.6-28.15,28.15v59.59c0,38.66,31.34,70,70,70h438.85c32.7,0,59.39-25.71,60.96-58.02Z"/>
        <g>
          <rect class="cls-71" x="1107.45" y="1545.02" width="14.65" height="47.91"/>
          <line class="cls-4" x1="1106.93" y1="1530.27" x2="1106.93" y2="1594"/>
          <line class="cls-4" x1="1122.61" y1="1530.27" x2="1122.61" y2="1594"/>
        </g>
      </g>
    </g>
    <g id="Circle_Window" data-name="Circle Window">
      <circle class="cls-52" cx="844.04" cy="882.9" r="76.33"/>
      <circle class="cls-74" cx="844.04" cy="882.9" r="75.39"/>
      <circle class="cls-54" cx="844.04" cy="882.9" r="76.33"/>
      <path class="cls-8" d="M936.4,882.9c0,51.01-41.35,92.36-92.36,92.36s-92.36-41.35-92.36-92.36,41.35-92.36,92.36-92.36,92.36,41.35,92.36,92.36ZM844.04,806.58c-42.16,0-76.33,34.17-76.33,76.33s34.17,76.33,76.33,76.33,76.33-34.17,76.33-76.33-34.17-76.33-76.33-76.33Z"/>
    </g>
  </g>
</svg>